<?xml version="1.0" encoding="utf-8"?>
<!-- Generator: Adobe Illustrator 16.0.5, SVG Export Plug-In . SVG Version: 6.00 Build 0)  -->
<!DOCTYPE svg PUBLIC "-//W3C//DTD SVG 1.1//EN" "http://www.w3.org/Graphics/SVG/1.1/DTD/svg11.dtd">
<svg version="1.1" id="Ebene_1" xmlns="http://www.w3.org/2000/svg" xmlns:xlink="http://www.w3.org/1999/xlink" x="0px" y="0px"
	 width="156px" height="250px" viewBox="0 0 156 250" enable-background="new 0 0 156 250" xml:space="preserve">
<pattern  x="-219.5" y="545.5" width="28.347" height="28.347" patternUnits="userSpaceOnUse" id="SVGID_10_" viewBox="7.666 -39.151 28.347 28.347" overflow="visible">
	<g>
		<polygon fill="none" points="7.666,-10.805 36.013,-10.805 36.013,-39.151 7.666,-39.151 		"/>
		<g>
			<polygon fill="none" points="7.666,-10.805 36.013,-10.805 36.013,-39.15 7.666,-39.15 			"/>
			<g>
				<path fill="#FFFFFF" d="M43.798-32.239c-4.672,4.672-7.629,4.955-10.754,1.828l-4.697-4.69l5.027-5.023l3.168,3.162
					l-2.689,2.688l2.83,2.828l8.777-8.778l-2.83-2.826l-2.689,2.688l-3.166-3.164l5.027-5.024l4.369,4.369
					C50.335-40.02,48.677-37.118,43.798-32.239z"/>
				<polygon fill="#FFFFFF" points="28.03,-45.469 24.866,-48.635 28.267,-52.034 31.437,-48.868 				"/>
			</g>
			<g>
				<path fill="#FFFFFF" d="M15.451-32.239c-4.672,4.672-7.629,4.955-10.754,1.828L0-35.102l5.027-5.023l3.168,3.162l-2.689,2.688
					l2.83,2.828l8.777-8.778l-2.83-2.826l-2.689,2.688l-3.166-3.164l5.027-5.024l4.369,4.369
					C21.988-40.02,20.33-37.118,15.451-32.239z"/>
			</g>
			<g>
				<path fill="#FFFFFF" d="M43.798-3.893c-4.672,4.672-7.629,4.955-10.754,1.828l-4.697-4.691l5.027-5.022l3.168,3.162
					l-2.689,2.688l2.83,2.828l8.777-8.778l-2.83-2.826l-2.689,2.688l-3.166-3.164l5.027-5.024l4.369,4.369
					C50.335-11.674,48.677-8.771,43.798-3.893z"/>
				<polygon fill="#FFFFFF" points="28.03,-17.121 24.866,-20.287 28.267,-23.688 31.437,-20.521 				"/>
			</g>
			<g>
				<path fill="#FFFFFF" d="M15.451-3.893C10.779,0.779,7.822,1.062,4.697-2.064L0-6.756l5.027-5.023l3.168,3.162L5.506-5.928
					L8.336-3.1l8.777-8.779l-2.83-2.826l-2.689,2.689L8.428-15.18l5.027-5.025l4.369,4.369C21.988-11.674,20.33-8.771,15.451-3.893z
					"/>
			</g>
		</g>
	</g>
</pattern>
<pattern  x="-219.5" y="545.5" width="28.347" height="28.347" patternUnits="userSpaceOnUse" id="SVGID_8_" viewBox="7.666 -39.151 28.347 28.347" overflow="visible">
	<g>
		<polygon fill="none" points="7.666,-10.805 36.013,-10.805 36.013,-39.151 7.666,-39.151 		"/>
		<g>
			<polygon fill="none" points="7.666,-10.805 36.013,-10.805 36.013,-39.15 7.666,-39.15 			"/>
			<g>
				<polygon fill="#BABD31" points="64.359,-39.15 36.012,-39.15 36.012,-10.805 64.359,-10.805 				"/>
			</g>
			<g>
				<polygon fill="#BABD31" points="36.013,-39.15 7.665,-39.15 7.665,-10.805 36.013,-10.805 				"/>
				<g>
					<path fill="#FFFFFF" d="M43.798-32.239c-4.672,4.672-7.629,4.955-10.754,1.828l-4.697-4.69l5.027-5.023l3.168,3.162
						l-2.689,2.688l2.83,2.828l8.777-8.778l-2.83-2.826l-2.689,2.688l-3.166-3.164l5.027-5.024l4.369,4.369
						C50.335-40.02,48.677-37.118,43.798-32.239z"/>
					<polygon fill="#FFFFFF" points="28.03,-45.469 24.866,-48.635 28.267,-52.034 31.437,-48.868 					"/>
				</g>
			</g>
			<g>
				<g>
					<path fill="#FFFFFF" d="M15.451-32.239c-4.672,4.672-7.629,4.955-10.754,1.828L0-35.102l5.027-5.023l3.168,3.162l-2.689,2.688
						l2.83,2.828l8.777-8.778l-2.83-2.826l-2.689,2.688l-3.166-3.164l5.027-5.024l4.369,4.369
						C21.988-40.02,20.33-37.118,15.451-32.239z"/>
				</g>
			</g>
			<g>
				<g>
					<path fill="#FFFFFF" d="M43.798-3.893c-4.672,4.672-7.629,4.955-10.754,1.828l-4.697-4.691l5.027-5.022l3.168,3.162
						l-2.689,2.688l2.83,2.828l8.777-8.778l-2.83-2.826l-2.689,2.688l-3.166-3.164l5.027-5.024l4.369,4.369
						C50.335-11.674,48.677-8.771,43.798-3.893z"/>
					<polygon fill="#FFFFFF" points="28.03,-17.121 24.866,-20.287 28.267,-23.688 31.437,-20.521 					"/>
				</g>
			</g>
			<g>
				<g>
					<path fill="#FFFFFF" d="M15.451-3.893C10.779,0.779,7.822,1.062,4.697-2.064L0-6.756l5.027-5.023l3.168,3.162L5.506-5.928
						L8.336-3.1l8.777-8.779l-2.83-2.826l-2.689,2.689L8.428-15.18l5.027-5.025l4.369,4.369C21.988-11.674,20.33-8.771,15.451-3.893
						z"/>
				</g>
			</g>
		</g>
	</g>
</pattern>
<g id="Rückseite_mit_Verlauf" opacity="0.2">
	<rect fill="#FFFFFF" width="156" height="250"/>
</g>
<g id="Karten" display="none">
	<g display="inline">
		<rect fill="#FFFFFF" width="156" height="250"/>
	</g>
</g>
<g id="Fallback" display="none">
	<path display="inline" fill="#7CA1BF" stroke="#000000" d="M45.586,70.146c-0.455-6.133-0.494-13.723,1.23-19.305
		c1.297-4.197,2.852-4.404,4.16-3.045c2.537,2.639,9.348,1.691,8.453,6.243c-1.576,8.015-0.904,18.804,15.877,21.373
		c7.045,1.078,17.106,1.318,22.602-7.876c5.582-9.337,1.246-20.97,2.391-21.16c2.551-0.422,9.279-3.458,10.453-1.015
		c2.537,5.277-1.689,9.225-1.826,13.092c-0.488,13.803-7.828,33.289-6.082,36.433c4.59,8.261,12.354,24.691,12.508,30.854
		c0.244,9.719-4.928,20.738-5.684,30.683c1.99,23.386-4.057,45.896-5.475,52.743c-9.496,1.499-16.11,1.988-24.17,0.6
		c0.168-10.164,0.307-21.82,0.307-24.818c-3.166-0.5-4.004-0.333-5.836,0c-1.834,0.332-4.113-0.838-4.779,1.494
		c-0.666,2.334,1.293,20.047,0.627,24.213c-10.83,1.832-19.227,1.336-25.342-0.332c-0.998-15.497-7.197-43.999-4.975-60.12
		c0.867-6.278-8.506-10.125-5.002-25.017c3.334-14.176,9.502-24.955,11.951-27.24C51.145,94.051,46.096,77.03,45.586,70.146z"/>
</g>
<g id="Gewohnheiten_100" display="none">
	<g display="inline">
		<g>
			<path fill="none" stroke="#000000" d="M69.805,98.906C29.771,95.889,48.756,14.02,83.953,17.47
				C113.926,20.409,120.184,102.702,69.805,98.906z"/>
			<path fill="none" stroke="#000000" d="M47.895,59.402c-1.828-3.095-16.32-5.909-15.336,7.316
				c0.984,13.225,13.084,11.255,14.914,7.035"/>
			<path fill="none" stroke="#000000" d="M107.266,60.387c2.814-4.784,17.869-6.894,15.898,7.738
				c-1.969,14.632-15.055,15.195-18.994,8.442"/>
			<path fill="none" stroke="#000000" d="M58.141,95.333C52.475,101.5,43.725,116.5,37.475,136c3.502,2.68,6.949,3.646,10.949,2.98"
				/>
			<path fill="none" stroke="#000000" d="M58.475,116c-20.25,32.75-10.869,80.639-2.535,115.305
				c-13.91,1.055-22.943,7.195-27.609,12.195c7.424,0,9.484,0,14.984,0c4.045,0,8.047-3.2,10.729-3.766"/>
			<path fill="none" stroke="#000000" d="M52,243.5h17.475c-0.5-8-1.25-8.609-4-15.859s-2.168-49.18,0.582-59.93
				s17.167-11.488,17.917,1.262s3.25,54.653,2.75,60.903c-4,5.25-6.25,10.624-7.5,13.624c4.746,0,11.912,0,11.912,0
				c3.791-3,5.85-4.221,10.6-4.471"/>
			<path fill="none" stroke="#000000" d="M89.975,95.25c9.17,1.699,21.619,16.117,22.869,34.367c-4,1.5-7.475,2.794-12.225,3.794"/>
			<path fill="none" stroke="#000000" d="M92.361,112.89c16.959,27.577,5.682,102.694,2.182,116.444
				c10.5,0.5,24.93,8.166,27.18,14.166H96"/>
			<path fill="none" stroke="#000000" d="M64.975,24c-1,2.75,0,15.5,12,11.25c-11.75,8.5-28.25,33.5-1.5,38
				c26.748,4.5,26.748-21.25,18.748-35.75c1.25-3.75,3.75-6,4.5-9.75"/>
			<circle cx="79.975" cy="26.25" r="1.5"/>
			<circle cx="87.225" cy="26.25" r="1.5"/>
		</g>
		<pattern  id="SVGID_1_" xlink:href="#SVGID_8_" patternTransform="matrix(0.5 0 0 -0.5 -7912.998 -8745.1963)">
		</pattern>
		<path fill="url(#SVGID_1_)" stroke="#000000" d="M45.586,70.146c-0.455-6.133-0.494-13.723,1.23-19.305
			c1.297-4.197,2.852-4.404,4.16-3.045c2.537,2.639,9.348,1.691,8.453,6.243c-1.576,8.015-0.904,18.804,15.877,21.373
			c7.045,1.078,17.106,1.318,22.602-7.876c5.582-9.337,1.246-20.97,2.391-21.16c2.551-0.422,9.279-3.458,10.453-1.015
			c2.537,5.277-1.689,9.225-1.826,13.092c-0.488,13.803-7.828,33.289-6.082,36.433c4.59,8.261,12.354,24.691,12.508,30.854
			c0.244,9.719-4.928,20.738-5.684,30.683c1.99,23.386-4.057,45.896-5.475,52.743c-9.496,1.499-16.11,1.988-24.17,0.6
			c0.168-10.164,0.307-21.82,0.307-24.818c-3.166-0.5-4.004-0.333-5.836,0c-1.834,0.332-4.113-0.838-4.779,1.494
			c-0.666,2.334,1.293,20.047,0.627,24.213c-10.83,1.832-19.227,1.336-25.342-0.332c-0.998-15.497-7.197-43.999-4.975-60.12
			c0.867-6.278-8.506-10.125-5.002-25.017c3.334-14.176,9.502-24.955,11.951-27.24C51.145,94.051,46.096,77.03,45.586,70.146z"/>
	</g>
</g>
<g id="Verlauf" display="none">
	<g display="inline">
		<g>
			<path fill="none" stroke="#000000" d="M69.805,98.906C29.771,95.889,48.756,14.02,83.953,17.47
				C113.926,20.409,120.184,102.702,69.805,98.906z"/>
			<path fill="none" stroke="#000000" d="M47.895,59.402c-1.828-3.095-16.32-5.909-15.336,7.316
				c0.984,13.225,13.084,11.255,14.914,7.035"/>
			<path fill="none" stroke="#000000" d="M107.266,60.387c2.814-4.784,17.869-6.894,15.898,7.738
				c-1.969,14.632-15.055,15.195-18.994,8.442"/>
			<path fill="none" stroke="#000000" d="M58.141,95.333C52.475,101.5,43.725,116.5,37.475,136c3.502,2.68,6.949,3.646,10.949,2.98"
				/>
			<path fill="none" stroke="#000000" d="M58.475,116c-20.25,32.75-10.869,80.639-2.535,115.305
				c-13.91,1.055-22.943,7.195-27.609,12.195c7.424,0,9.484,0,14.984,0c4.045,0,8.047-3.2,10.729-3.766"/>
			<path fill="none" stroke="#000000" d="M52,243.5h17.475c-0.5-8-1.25-8.609-4-15.859s-2.168-49.18,0.582-59.93
				s17.167-11.488,17.917,1.262s3.25,54.653,2.75,60.903c-4,5.25-6.25,10.624-7.5,13.624c4.746,0,11.912,0,11.912,0
				c3.791-3,5.85-4.221,10.6-4.471"/>
			<path fill="none" stroke="#000000" d="M89.975,95.25c9.17,1.699,21.619,16.117,22.869,34.367c-4,1.5-7.475,2.794-12.225,3.794"/>
			<path fill="none" stroke="#000000" d="M92.361,112.89c16.959,27.577,5.682,102.694,2.182,116.444
				c10.5,0.5,24.93,8.166,27.18,14.166H96"/>
			<path fill="none" stroke="#000000" d="M64.975,24c-1,2.75,0,15.5,12,11.25c-11.75,8.5-28.25,33.5-1.5,38
				c26.748,4.5,26.748-21.25,18.748-35.75c1.25-3.75,3.75-6,4.5-9.75"/>
			<circle cx="79.975" cy="26.25" r="1.5"/>
			<circle cx="87.225" cy="26.25" r="1.5"/>
		</g>
	</g>
	
		<linearGradient id="SVGID_2_" gradientUnits="userSpaceOnUse" x1="152.5098" y1="-0.5713" x2="-0.1586" y2="248.0974" gradientTransform="matrix(1 0 0 -1 0.1401 249.0547)">
		<stop  offset="0.1" style="stop-color:#172533"/>
		<stop  offset="0.8" style="stop-color:#568CBE"/>
	</linearGradient>
	<path display="inline" fill="url(#SVGID_2_)" stroke="#000000" d="M45.586,70.146c-0.455-6.133-0.494-13.723,1.23-19.305
		c1.297-4.197,2.852-4.404,4.16-3.045c2.537,2.639,9.348,1.691,8.453,6.243c-1.576,8.015-0.904,18.804,15.877,21.373
		c7.045,1.078,17.106,1.318,22.602-7.876c5.582-9.337,1.246-20.97,2.391-21.16c2.551-0.422,9.279-3.458,10.453-1.015
		c2.537,5.277-1.689,9.225-1.826,13.092c-0.488,13.803-7.828,33.289-6.082,36.433c4.59,8.261,12.354,24.691,12.508,30.854
		c0.244,9.719-4.928,20.738-5.684,30.683c1.99,23.386-4.057,45.896-5.475,52.743c-9.496,1.499-16.11,1.988-24.17,0.6
		c0.168-10.164,0.307-21.82,0.307-24.818c-3.166-0.5-4.004-0.333-5.836,0c-1.834,0.332-4.113-0.838-4.779,1.494
		c-0.666,2.334,1.293,20.047,0.627,24.213c-10.83,1.832-19.227,1.336-25.342-0.332c-0.998-15.497-7.197-43.999-4.975-60.12
		c0.867-6.278-8.506-10.125-5.002-25.017c3.334-14.176,9.502-24.955,11.951-27.24C51.145,94.051,46.096,77.03,45.586,70.146z"/>
</g>
<g id="DT_weiss_auf_transparent" display="none">
	<g display="inline" opacity="0.33">
		<pattern  id="SVGID_3_" xlink:href="#SVGID_10_" patternTransform="matrix(0.5 0 0 -0.5 -7912.998 -8745.1963)"  opacity="0.33">
		</pattern>
		<path fill="url(#SVGID_3_)" stroke="#000000" d="M45.586,70.146c-0.455-6.133-0.494-13.723,1.23-19.305
			c1.297-4.197,2.852-4.404,4.16-3.045c2.537,2.639,9.348,1.691,8.453,6.243c-1.576,8.015-0.904,18.804,15.877,21.373
			c7.045,1.078,17.106,1.318,22.602-7.876c5.582-9.337,1.246-20.97,2.391-21.16c2.551-0.422,9.279-3.458,10.453-1.015
			c2.537,5.277-1.689,9.225-1.826,13.092c-0.488,13.803-7.828,33.289-6.082,36.433c4.59,8.261,12.354,24.691,12.508,30.854
			c0.244,9.719-4.928,20.738-5.684,30.683c1.99,23.386-4.057,45.896-5.475,52.743c-9.496,1.499-16.11,1.988-24.17,0.6
			c0.168-10.164,0.307-21.82,0.307-24.818c-3.166-0.5-4.004-0.333-5.836,0c-1.834,0.332-4.113-0.838-4.779,1.494
			c-0.666,2.334,1.293,20.047,0.627,24.213c-10.83,1.832-19.227,1.336-25.342-0.332c-0.998-15.497-7.197-43.999-4.975-60.12
			c0.867-6.278-8.506-10.125-5.002-25.017c3.334-14.176,9.502-24.955,11.951-27.24C51.145,94.051,46.096,77.03,45.586,70.146z"/>
	</g>
</g>
<g id="Palette" display="none">
</g>
<linearGradient id="SVGID_4_" gradientUnits="userSpaceOnUse" x1="77.9995" y1="171.5" x2="77.9995" y2="249.1031">
	<stop  offset="0" style="stop-color:#E6E6E6"/>
	<stop  offset="1" style="stop-color:#CCCCCC"/>
</linearGradient>
<polygon fill="url(#SVGID_4_)" points="156,250 0,250 78.001,172 "/>
</svg>
