<?xml version="1.0" encoding="utf-8"?>
<!-- Generator: Adobe Illustrator 16.0.5, SVG Export Plug-In . SVG Version: 6.00 Build 0)  -->
<!DOCTYPE svg PUBLIC "-//W3C//DTD SVG 1.1//EN" "http://www.w3.org/Graphics/SVG/1.1/DTD/svg11.dtd">
<svg version="1.1" xmlns="http://www.w3.org/2000/svg" xmlns:xlink="http://www.w3.org/1999/xlink" x="0px" y="0px" width="156px"
	 height="250px" viewBox="0 0 156 250" enable-background="new 0 0 156 250" xml:space="preserve">
<pattern  x="-322" y="270" width="28.347" height="28.347" patternUnits="userSpaceOnUse" id="Design__x26__Training_13" viewBox="7.666 -41.23 28.347 28.347" overflow="visible">
	<g>
		<polygon fill="none" points="7.666,-41.23 36.013,-41.23 36.013,-12.884 7.666,-12.884 		"/>
		<g>
			<polygon fill="#8D8F8F" points="64.359,-12.884 36.012,-12.884 36.012,-41.23 64.359,-41.23 			"/>
		</g>
		<g>
			<polygon fill="#8D8F8F" points="36.013,-12.884 7.665,-12.884 7.665,-41.23 36.013,-41.23 			"/>
			<g>
				<path fill="#FFFFFF" d="M43.798-19.795c-4.672-4.672-7.629-4.955-10.754-1.828l-4.697,4.691l5.027,5.023l3.168-3.162
					l-2.689-2.689l2.83-2.828l8.777,8.779l-2.83,2.826l-2.689-2.689l-3.166,3.164l5.027,5.025l4.369-4.369
					C50.335-12.014,48.677-14.916,43.798-19.795z"/>
				<polygon fill="#FFFFFF" points="28.03,-6.566 24.866,-3.4 28.267,0 31.437,-3.166 				"/>
			</g>
		</g>
		<g>
			<g>
				<path fill="#FFFFFF" d="M15.451-19.795c-4.672-4.672-7.629-4.955-10.754-1.828L0-16.932l5.027,5.023l3.168-3.162L5.506-17.76
					l2.83-2.828l8.777,8.779l-2.83,2.826l-2.689-2.689L8.428-8.508l5.027,5.025l4.369-4.369
					C21.988-12.014,20.33-14.916,15.451-19.795z"/>
			</g>
		</g>
		<g>
			<g>
				<path fill="#FFFFFF" d="M43.798-48.142c-4.672-4.672-7.629-4.955-10.754-1.828l-4.697,4.691l5.027,5.023l3.168-3.162
					l-2.689-2.689l2.83-2.828l8.777,8.779l-2.83,2.826l-2.689-2.689l-3.166,3.164l5.027,5.025l4.369-4.369
					C50.335-40.36,48.677-43.263,43.798-48.142z"/>
				<polygon fill="#FFFFFF" points="28.03,-34.913 24.866,-31.747 28.267,-28.347 31.437,-31.513 				"/>
			</g>
		</g>
		<g>
			<g>
				<path fill="#FFFFFF" d="M15.451-48.142c-4.672-4.672-7.629-4.955-10.754-1.828L0-45.278l5.027,5.023l3.168-3.162l-2.689-2.689
					l2.83-2.828l8.777,8.779l-2.83,2.826l-2.689-2.689l-3.166,3.164l5.027,5.025l4.369-4.369
					C21.988-40.36,20.33-43.263,15.451-48.142z"/>
			</g>
		</g>
	</g>
</pattern>
<pattern  x="-322" y="270" width="28.347" height="28.347" patternUnits="userSpaceOnUse" id="Design__x26__Training_15" viewBox="7.666 -41.23 28.347 28.347" overflow="visible">
	<g>
		<polygon fill="none" points="7.666,-41.23 36.013,-41.23 36.013,-12.884 7.666,-12.884 		"/>
		<g>
			<path fill="#FFFFFF" d="M43.798-19.795c-4.672-4.672-7.629-4.955-10.754-1.828l-4.697,4.691l5.027,5.023l3.168-3.162
				l-2.689-2.689l2.83-2.828l8.777,8.779l-2.83,2.826l-2.689-2.689l-3.166,3.164l5.027,5.025l4.369-4.369
				C50.335-12.014,48.677-14.916,43.798-19.795z"/>
			<polygon fill="#FFFFFF" points="28.03,-6.566 24.866,-3.4 28.267,0 31.437,-3.166 			"/>
		</g>
		<g>
			<path fill="#FFFFFF" d="M15.451-19.795c-4.672-4.672-7.629-4.955-10.754-1.828L0-16.932l5.027,5.023l3.168-3.162L5.506-17.76
				l2.83-2.828l8.777,8.779l-2.83,2.826l-2.689-2.689L8.428-8.508l5.027,5.025l4.369-4.369
				C21.988-12.014,20.33-14.916,15.451-19.795z"/>
		</g>
		<g>
			<path fill="#FFFFFF" d="M43.798-48.142c-4.672-4.672-7.629-4.955-10.754-1.828l-4.697,4.691l5.027,5.023l3.168-3.162
				l-2.689-2.689l2.83-2.828l8.777,8.779l-2.83,2.826l-2.689-2.689l-3.166,3.164l5.027,5.025l4.369-4.369
				C50.335-40.36,48.677-43.263,43.798-48.142z"/>
			<polygon fill="#FFFFFF" points="28.03,-34.913 24.866,-31.747 28.267,-28.347 31.437,-31.513 			"/>
		</g>
		<g>
			<path fill="#FFFFFF" d="M15.451-48.142c-4.672-4.672-7.629-4.955-10.754-1.828L0-45.278l5.027,5.023l3.168-3.162l-2.689-2.689
				l2.83-2.828l8.777,8.779l-2.83,2.826l-2.689-2.689l-3.166,3.164l5.027,5.025l4.369-4.369
				C21.988-40.36,20.33-43.263,15.451-48.142z"/>
		</g>
	</g>
</pattern>
<g id="Rückseite_mit_Verlauf">
	<linearGradient id="SVGID_1_" gradientUnits="userSpaceOnUse" x1="155.5176" y1="249.7598" x2="0.1841" y2="-0.2411">
		<stop  offset="0" style="stop-color:#172533"/>
		<stop  offset="1" style="stop-color:#568CBE"/>
	</linearGradient>
	<rect fill="url(#SVGID_1_)" width="156" height="250"/>
	<linearGradient id="SVGID_2_" gradientUnits="userSpaceOnUse" x1="155.5176" y1="249.7598" x2="0.1841" y2="-0.2411">
		<stop  offset="0" style="stop-color:#172533"/>
		<stop  offset="1" style="stop-color:#568CBE"/>
	</linearGradient>
	<rect fill="url(#SVGID_2_)" width="156" height="250"/>
</g>
<g id="Rückseite_Logo_Weiss_auf_transparent">
	<defs>
		<filter id="Adobe_OpacityMaskFilter" filterUnits="userSpaceOnUse" x="0" y="0" width="156" height="250">
			<feColorMatrix  type="matrix" values="1 0 0 0 0  0 1 0 0 0  0 0 1 0 0  0 0 0 1 0"/>
		</filter>
	</defs>
	<mask maskUnits="userSpaceOnUse" x="0" y="0" width="156" height="250" id="SVGID_3_">
		<g id="XMLID_5_" filter="url(#Adobe_OpacityMaskFilter)">
			
				<pattern  id="SVGID_4_" xlink:href="#Design__x26__Training_15" patternTransform="matrix(0 -0.5 -0.5 0 -7280.4746 -8202.2676)">
			</pattern>
			<rect opacity="0.1" fill="url(#SVGID_4_)" width="156" height="250"/>
			<linearGradient id="SVGID_5_" gradientUnits="userSpaceOnUse" x1="78.0005" y1="250" x2="78.0005" y2="0">
				<stop  offset="0" style="stop-color:#212121"/>
				<stop  offset="1" style="stop-color:#FFFFFF"/>
			</linearGradient>
			<rect fill="url(#SVGID_5_)" width="156" height="250"/>
			<linearGradient id="SVGID_6_" gradientUnits="userSpaceOnUse" x1="78.0005" y1="250" x2="78.0005" y2="0">
				<stop  offset="0" style="stop-color:#212121"/>
				<stop  offset="1" style="stop-color:#FFFFFF"/>
			</linearGradient>
			<rect fill="url(#SVGID_6_)" width="156" height="250"/>
		</g>
	</mask>
	
		<pattern  id="SVGID_7_" xlink:href="#Design__x26__Training_15" patternTransform="matrix(0 -0.5 -0.5 0 -7285.9746 -8205.4678)"  mask="url(#SVGID_3_)">
	</pattern>
	<rect opacity="0.15" mask="url(#SVGID_3_)" fill="url(#SVGID_7_)" width="156" height="250"/>
</g>
<g id="Karten" display="none">
	<g display="inline">
		<rect fill="#FFFFFF" width="156" height="250"/>
	</g>
</g>
<g id="Fallback" display="none">
	<path display="inline" fill="#7CA1BF" stroke="#000000" d="M81.146,152.299c15.505-1.752,45.352-8.842,47.018-17.508
		c9-1.334,10.127,4.469,7.961,6.801c-5.139,5.533-5.509,9.268-5.805,15.424c-0.83,17.25,16.918,26.371,19.405,35.328
		c-22.557,14.596-49.26,17.248-60.869,14.264c0.168-10.164,0-26.523,0-29.523c-3.166-0.5-0.568,0.092-2.402,0.424
		c-1.832,0.334-2.999,3.332-3.666,5.666c-0.666,2.332-1.559,18.77-2.225,22.936c-10.831,1.832-54.649-0.354-61.648-0.186
		c-0.999-15.498-0.828-27.916,1.334-42.334c1-6.668-8.265-8.691-5.666-17.666c1.037-3.584,8.153-4.938,14.153,2.062
		C37.647,152.104,60.048,154.682,81.146,152.299z"/>
</g>
<g id="Gewohnheiten_100" display="none">
	<g display="inline">
		<g>
			<path fill="none" stroke="#000000" d="M49.044,98.906C9.009,95.889,27.995,14.02,63.19,17.471
				C93.165,20.408,99.423,102.701,49.044,98.906z"/>
			<path fill="none" stroke="#000000" d="M27.132,59.402c-1.828-3.096-16.32-5.909-15.336,7.316
				c0.986,13.225,13.086,11.255,14.914,7.034"/>
			<path fill="none" stroke="#000000" d="M86.505,60.387c2.814-4.783,17.869-6.895,15.898,7.738
				c-1.969,14.633-15.055,15.195-18.994,8.441"/>
			<path fill="none" stroke="#000000" d="M37.378,95.334C31.712,101.5,22.962,116.5,16.712,136c3.502,2.68,6.949,3.646,10.949,2.98"
				/>
			<path fill="none" stroke="#000000" d="M37.712,116c-20.25,32.75-10.867,80.637-2.535,115.305
				c-13.91,1.053-22.943,7.195-27.609,12.195c7.424,0,9.484,0,14.984,0c4.045,0,8.049-3.201,10.729-3.766"/>
			<path fill="none" stroke="#000000" d="M32,243.5h16.712c-0.5-8-1.25-8.611-4-15.861s-2.168-49.178,0.582-59.928
				s17.168-11.488,17.918,1.262s3.25,54.652,2.75,60.902c-4,5.25-6.25,10.625-7.5,13.625c4.746,0,11.912,0,11.912,0
				c3.795-3,6.232-4.221,10.982-4.471"/>
			<path fill="none" stroke="#000000" d="M69.212,95.25c9.172,1.699,21.621,16.117,22.871,34.367c-4,1.5-7.475,2.793-12.225,3.793"
				/>
			<path fill="none" stroke="#000000" d="M71.981,112.89c16.959,27.577,5.489,102.694,1.989,116.444
				c10.5,0.5,24.741,8.166,26.991,14.166H76"/>
			<path fill="none" stroke="#000000" d="M44.212,24c-1,2.75,0,15.5,12,11.25c-11.75,8.5-28.25,33.5-1.5,38S81.462,52,73.462,37.5
				c1.25-3.75,3.75-6,4.5-9.75"/>
			<circle cx="59.212" cy="26.25" r="1.5"/>
			<circle cx="66.462" cy="26.25" r="1.5"/>
		</g>
		<pattern  id="SVGID_8_" xlink:href="#Design__x26__Training_13" patternTransform="matrix(0.5 0 0 0.5 -3632.6519 -4259.5581)">
		</pattern>
		<path fill="url(#SVGID_8_)" stroke="#000000" d="M81.146,152.299c15.505-1.752,45.352-8.842,47.018-17.508
			c9-1.334,10.127,4.469,7.961,6.801c-5.139,5.533-5.509,9.268-5.805,15.424c-0.83,17.25,16.918,26.371,19.405,35.328
			c-22.557,14.596-49.26,17.248-60.869,14.264c0.168-10.164,0-26.523,0-29.523c-3.166-0.5-0.568,0.092-2.402,0.424
			c-1.832,0.334-2.999,3.332-3.666,5.666c-0.666,2.332-1.559,18.77-2.225,22.936c-10.831,1.832-54.649-0.354-61.648-0.186
			c-0.999-15.498-0.828-27.916,1.334-42.334c1-6.668-8.265-8.691-5.666-17.666c1.037-3.584,8.153-4.938,14.153,2.062
			C37.647,152.104,60.048,154.682,81.146,152.299z"/>
	</g>
</g>
<g id="Verlauf" display="none">
	<g display="inline">
		<g>
			<path fill="none" stroke="#000000" d="M49.044,98.906C9.009,95.889,27.995,14.02,63.19,17.471
				C93.165,20.408,99.423,102.701,49.044,98.906z"/>
			<path fill="none" stroke="#000000" d="M27.132,59.402c-1.828-3.096-16.32-5.909-15.336,7.316
				c0.986,13.225,13.086,11.255,14.914,7.034"/>
			<path fill="none" stroke="#000000" d="M86.505,60.387c2.814-4.783,17.869-6.895,15.898,7.738
				c-1.969,14.633-15.055,15.195-18.994,8.441"/>
			<path fill="none" stroke="#000000" d="M37.378,95.334C31.712,101.5,22.962,116.5,16.712,136c3.502,2.68,6.949,3.646,10.949,2.98"
				/>
			<path fill="none" stroke="#000000" d="M37.712,116c-20.25,32.75-10.867,80.637-2.535,115.305
				c-13.91,1.053-22.943,7.195-27.609,12.195c7.424,0,9.484,0,14.984,0c4.045,0,8.049-3.201,10.729-3.766"/>
			<path fill="none" stroke="#000000" d="M32,243.5h16.712c-0.5-8-1.25-8.611-4-15.861s-2.168-49.178,0.582-59.928
				s17.168-11.488,17.918,1.262s3.25,54.652,2.75,60.902c-4,5.25-6.25,10.625-7.5,13.625c4.746,0,11.912,0,11.912,0
				c3.795-3,6.232-4.221,10.982-4.471"/>
			<path fill="none" stroke="#000000" d="M69.212,95.25c9.172,1.699,21.621,16.117,22.871,34.367c-4,1.5-7.475,2.793-12.225,3.793"
				/>
			<path fill="none" stroke="#000000" d="M71.981,112.89c16.959,27.577,5.489,102.694,1.989,116.444
				c10.5,0.5,24.741,8.166,26.991,14.166H76"/>
			<path fill="none" stroke="#000000" d="M44.212,24c-1,2.75,0,15.5,12,11.25c-11.75,8.5-28.25,33.5-1.5,38S81.462,52,73.462,37.5
				c1.25-3.75,3.75-6,4.5-9.75"/>
			<circle cx="59.212" cy="26.25" r="1.5"/>
			<circle cx="66.462" cy="26.25" r="1.5"/>
		</g>
	</g>
	<linearGradient id="SVGID_9_" gradientUnits="userSpaceOnUse" x1="133.5322" y1="262.0322" x2="-19.8013" y2="13.3652">
		<stop  offset="0.1" style="stop-color:#172533"/>
		<stop  offset="0.8" style="stop-color:#568CBE"/>
	</linearGradient>
	<path display="inline" fill="url(#SVGID_9_)" stroke="#000000" d="M81.146,152.299c15.505-1.752,45.352-8.842,47.018-17.508
		c9-1.334,10.127,4.469,7.961,6.801c-5.139,5.533-5.509,9.268-5.805,15.424c-0.83,17.25,16.918,26.371,19.405,35.328
		c-22.557,14.596-49.26,17.248-60.869,14.264c0.168-10.164,0-26.523,0-29.523c-3.166-0.5-0.568,0.092-2.402,0.424
		c-1.832,0.334-2.999,3.332-3.666,5.666c-0.666,2.332-1.559,18.77-2.225,22.936c-10.831,1.832-54.649-0.354-61.648-0.186
		c-0.999-15.498-0.828-27.916,1.334-42.334c1-6.668-8.265-8.691-5.666-17.666c1.037-3.584,8.153-4.938,14.153,2.062
		C37.647,152.104,60.048,154.682,81.146,152.299z"/>
</g>
<g id="DT_weiss_auf_transparent" display="none">
	<g display="inline" opacity="0.33">
		
			<pattern  id="SVGID_10_" xlink:href="#Design__x26__Training_15" patternTransform="matrix(0.5 0 0 0.5 -3632.6519 -4259.5581)"  opacity="0.33">
		</pattern>
		<path fill="url(#SVGID_10_)" stroke="#000000" d="M81.146,152.299c15.505-1.752,45.352-8.842,47.018-17.508
			c9-1.334,10.127,4.469,7.961,6.801c-5.139,5.533-5.509,9.268-5.805,15.424c-0.83,17.25,16.918,26.371,19.405,35.328
			c-22.557,14.596-49.26,17.248-60.869,14.264c0.168-10.164,0-26.523,0-29.523c-3.166-0.5-0.568,0.092-2.402,0.424
			c-1.832,0.334-2.999,3.332-3.666,5.666c-0.666,2.332-1.559,18.77-2.225,22.936c-10.831,1.832-54.649-0.354-61.648-0.186
			c-0.999-15.498-0.828-27.916,1.334-42.334c1-6.668-8.265-8.691-5.666-17.666c1.037-3.584,8.153-4.938,14.153,2.062
			C37.647,152.104,60.048,154.682,81.146,152.299z"/>
	</g>
</g>
<g id="Palette" display="none">
</g>
</svg>
