<?xml version="1.0" encoding="utf-8"?>
<!-- Generator: Adobe Illustrator 16.0.5, SVG Export Plug-In . SVG Version: 6.00 Build 0)  -->
<!DOCTYPE svg PUBLIC "-//W3C//DTD SVG 1.1//EN" "http://www.w3.org/Graphics/SVG/1.1/DTD/svg11.dtd">
<svg version="1.1" xmlns="http://www.w3.org/2000/svg" xmlns:xlink="http://www.w3.org/1999/xlink" x="0px" y="0px" width="156px"
	 height="250px" viewBox="0 0 156 250" enable-background="new 0 0 156 250" xml:space="preserve">
<pattern  x="-542" y="580" width="28.347" height="28.347" patternUnits="userSpaceOnUse" id="Design__x26__Training_11" viewBox="7.666 -41.23 28.347 28.347" overflow="visible">
	<g>
		<polygon fill="none" points="7.666,-41.23 36.013,-41.23 36.013,-12.884 7.666,-12.884 		"/>
		<g>
			<polygon fill="#BABD31" points="64.359,-12.884 36.012,-12.884 36.012,-41.23 64.359,-41.23 			"/>
		</g>
		<g>
			<polygon fill="#BABD31" points="36.013,-12.884 7.665,-12.884 7.665,-41.23 36.013,-41.23 			"/>
			<g>
				<path fill="#FFFFFF" d="M43.798-19.795c-4.672-4.672-7.629-4.955-10.754-1.828l-4.697,4.691l5.027,5.023l3.168-3.162
					l-2.689-2.689l2.83-2.828l8.777,8.779l-2.83,2.826l-2.689-2.689l-3.166,3.164l5.027,5.025l4.369-4.369
					C50.335-12.014,48.677-14.916,43.798-19.795z"/>
				<polygon fill="#FFFFFF" points="28.03,-6.566 24.866,-3.4 28.267,0 31.437,-3.166 				"/>
			</g>
		</g>
		<g>
			<g>
				<path fill="#FFFFFF" d="M15.451-19.795c-4.672-4.672-7.629-4.955-10.754-1.828L0-16.932l5.027,5.023l3.168-3.162L5.506-17.76
					l2.83-2.828l8.777,8.779l-2.83,2.826l-2.689-2.689L8.428-8.508l5.027,5.025l4.369-4.369
					C21.988-12.014,20.33-14.916,15.451-19.795z"/>
			</g>
		</g>
		<g>
			<g>
				<path fill="#FFFFFF" d="M43.798-48.142c-4.672-4.672-7.629-4.955-10.754-1.828l-4.697,4.691l5.027,5.023l3.168-3.162
					l-2.689-2.689l2.83-2.828l8.777,8.779l-2.83,2.826l-2.689-2.689l-3.166,3.164l5.027,5.025l4.369-4.369
					C50.335-40.36,48.677-43.263,43.798-48.142z"/>
				<polygon fill="#FFFFFF" points="28.03,-34.913 24.866,-31.747 28.267,-28.347 31.437,-31.513 				"/>
			</g>
		</g>
		<g>
			<g>
				<path fill="#FFFFFF" d="M15.451-48.142c-4.672-4.672-7.629-4.955-10.754-1.828L0-45.278l5.027,5.023l3.168-3.162l-2.689-2.689
					l2.83-2.828l8.777,8.779l-2.83,2.826l-2.689-2.689l-3.166,3.164l5.027,5.025l4.369-4.369
					C21.988-40.36,20.33-43.263,15.451-48.142z"/>
			</g>
		</g>
	</g>
</pattern>
<pattern  x="-542" y="580" width="28.347" height="28.347" patternUnits="userSpaceOnUse" id="Design__x26__Training_15" viewBox="7.666 -41.23 28.347 28.347" overflow="visible">
	<g>
		<polygon fill="none" points="7.666,-41.23 36.013,-41.23 36.013,-12.884 7.666,-12.884 		"/>
		<g>
			<path fill="#FFFFFF" d="M43.798-19.795c-4.672-4.672-7.629-4.955-10.754-1.828l-4.697,4.691l5.027,5.023l3.168-3.162
				l-2.689-2.689l2.83-2.828l8.777,8.779l-2.83,2.826l-2.689-2.689l-3.166,3.164l5.027,5.025l4.369-4.369
				C50.335-12.014,48.677-14.916,43.798-19.795z"/>
			<polygon fill="#FFFFFF" points="28.03,-6.566 24.866,-3.4 28.267,0 31.437,-3.166 			"/>
		</g>
		<g>
			<path fill="#FFFFFF" d="M15.451-19.795c-4.672-4.672-7.629-4.955-10.754-1.828L0-16.932l5.027,5.023l3.168-3.162L5.506-17.76
				l2.83-2.828l8.777,8.779l-2.83,2.826l-2.689-2.689L8.428-8.508l5.027,5.025l4.369-4.369
				C21.988-12.014,20.33-14.916,15.451-19.795z"/>
		</g>
		<g>
			<path fill="#FFFFFF" d="M43.798-48.142c-4.672-4.672-7.629-4.955-10.754-1.828l-4.697,4.691l5.027,5.023l3.168-3.162
				l-2.689-2.689l2.83-2.828l8.777,8.779l-2.83,2.826l-2.689-2.689l-3.166,3.164l5.027,5.025l4.369-4.369
				C50.335-40.36,48.677-43.263,43.798-48.142z"/>
			<polygon fill="#FFFFFF" points="28.03,-34.913 24.866,-31.747 28.267,-28.347 31.437,-31.513 			"/>
		</g>
		<g>
			<path fill="#FFFFFF" d="M15.451-48.142c-4.672-4.672-7.629-4.955-10.754-1.828L0-45.278l5.027,5.023l3.168-3.162l-2.689-2.689
				l2.83-2.828l8.777,8.779l-2.83,2.826l-2.689-2.689l-3.166,3.164l5.027,5.025l4.369-4.369
				C21.988-40.36,20.33-43.263,15.451-48.142z"/>
		</g>
	</g>
</pattern>
<g id="Rückseite_mit_Verlauf">
	<linearGradient id="SVGID_1_" gradientUnits="userSpaceOnUse" x1="155.5176" y1="249.7598" x2="0.1846" y2="-0.2402">
		<stop  offset="0" style="stop-color:#172533"/>
		<stop  offset="1" style="stop-color:#568CBE"/>
	</linearGradient>
	<rect fill="url(#SVGID_1_)" width="156" height="250"/>
	<linearGradient id="SVGID_2_" gradientUnits="userSpaceOnUse" x1="155.5176" y1="249.7598" x2="0.1846" y2="-0.2402">
		<stop  offset="0" style="stop-color:#172533"/>
		<stop  offset="1" style="stop-color:#568CBE"/>
	</linearGradient>
	<rect fill="url(#SVGID_2_)" width="156" height="250"/>
</g>
<g id="Rückseite_Logo_Weiss_auf_transparent">
	<defs>
		<filter id="Adobe_OpacityMaskFilter" filterUnits="userSpaceOnUse" x="0" y="0" width="156" height="250">
			<feColorMatrix  type="matrix" values="1 0 0 0 0  0 1 0 0 0  0 0 1 0 0  0 0 0 1 0"/>
		</filter>
	</defs>
	<mask maskUnits="userSpaceOnUse" x="0" y="0" width="156" height="250" id="SVGID_3_">
		<g id="XMLID_3_" filter="url(#Adobe_OpacityMaskFilter)">
			
				<pattern  id="SVGID_4_" xlink:href="#Design__x26__Training_15" patternTransform="matrix(0 -0.5 -0.5 0 -7193.9014 -8414.6279)">
			</pattern>
			<rect opacity="0.1" fill="url(#SVGID_4_)" width="156" height="250"/>
			<linearGradient id="SVGID_5_" gradientUnits="userSpaceOnUse" x1="78" y1="250" x2="78" y2="0">
				<stop  offset="0" style="stop-color:#212121"/>
				<stop  offset="1" style="stop-color:#FFFFFF"/>
			</linearGradient>
			<rect fill="url(#SVGID_5_)" width="156" height="250"/>
			<linearGradient id="SVGID_6_" gradientUnits="userSpaceOnUse" x1="78" y1="250" x2="78" y2="0">
				<stop  offset="0" style="stop-color:#212121"/>
				<stop  offset="1" style="stop-color:#FFFFFF"/>
			</linearGradient>
			<rect fill="url(#SVGID_6_)" width="156" height="250"/>
		</g>
	</mask>
	
		<pattern  id="SVGID_7_" xlink:href="#Design__x26__Training_15" patternTransform="matrix(0 -0.5 -0.5 0 -7199.4014 -8417.8281)"  mask="url(#SVGID_3_)">
	</pattern>
	<rect opacity="0.15" mask="url(#SVGID_3_)" fill="url(#SVGID_7_)" width="156" height="250"/>
</g>
<g id="Karten" display="none">
	<g display="inline">
		<rect fill="#FFFFFF" width="156" height="250"/>
	</g>
</g>
<g id="Fallback" display="none">
	<path display="inline" fill="#7CA1BF" stroke="#000000" d="M45.586,70.146c-0.455-6.133-0.494-13.723,1.23-19.305
		c1.297-4.197,2.852-4.404,4.16-3.045c2.537,2.639,9.348,1.691,8.453,6.243c-1.576,8.015-0.904,18.804,15.877,21.373
		c7.045,1.078,17.106,1.318,22.602-7.876c5.582-9.337,1.246-20.97,2.391-21.16c2.551-0.422,9.279-3.458,10.453-1.015
		c2.537,5.277-1.689,9.225-1.826,13.092c-0.488,13.803-7.828,33.289-6.082,36.433c4.59,8.261,12.354,24.691,12.508,30.854
		c0.244,9.719-4.928,20.739-5.684,30.683c1.99,23.386-4.057,45.895-5.475,52.743c-9.496,1.499-16.11,1.988-24.17,0.599
		c0.168-10.164,0.307-21.819,0.307-24.818c-3.166-0.5-4.004-0.333-5.836,0c-1.834,0.333-4.113-0.838-4.779,1.495
		s1.293,20.046,0.627,24.212c-10.83,1.833-19.227,1.336-25.342-0.332c-0.998-15.497-7.197-43.999-4.975-60.12
		c0.867-6.278-8.506-10.125-5.002-25.017c3.334-14.176,9.502-24.955,11.951-27.24C51.145,94.051,46.096,77.03,45.586,70.146z"/>
</g>
<g id="Gewohnheiten_100" display="none">
	<g display="inline">
		<g>
			<path fill="none" stroke="#000000" d="M69.805,98.906C29.771,95.889,48.756,14.02,83.953,17.47
				C113.926,20.409,120.184,102.702,69.805,98.906z"/>
			<path fill="none" stroke="#000000" d="M47.895,59.402c-1.828-3.095-16.32-5.909-15.336,7.316s13.084,11.255,14.914,7.035"/>
			<path fill="none" stroke="#000000" d="M107.266,60.387c2.814-4.784,17.869-6.894,15.898,7.738
				c-1.969,14.632-15.055,15.195-18.994,8.442"/>
			<path fill="none" stroke="#000000" d="M58.141,95.333C52.475,101.5,43.725,116.5,37.475,136c3.502,2.68,6.949,3.647,10.949,2.98"
				/>
			<path fill="none" stroke="#000000" d="M58.475,116c-20.25,32.75-10.869,80.638-2.535,115.305
				c-13.91,1.054-22.943,7.195-27.609,12.195c7.424,0,9.484,0,14.984,0c4.045,0,8.047-3.2,10.729-3.765"/>
			<path fill="none" stroke="#000000" d="M52,243.5h17.475c-0.5-8-1.25-8.61-4-15.86s-2.168-49.179,0.582-59.929
				s17.168-11.488,17.918,1.262s3.249,54.653,2.749,60.903c-3.999,5.25-6.249,10.624-7.499,13.624c4.746,0,11.911,0,11.911,0
				c3.792-3,5.851-4.221,10.601-4.471"/>
			<path fill="none" stroke="#000000" d="M89.974,95.25c9.171,1.699,21.62,16.117,22.87,34.367c-4,1.5-7.475,2.794-12.225,3.794"/>
			<path fill="none" stroke="#000000" d="M92.362,112.89c16.958,27.577,5.681,102.694,2.181,116.444
				c10.5,0.5,24.93,8.166,27.18,14.166H96"/>
			<path fill="none" stroke="#000000" d="M64.975,24c-1,2.75,0,15.5,12,11.25c-11.75,8.5-28.25,33.5-1.5,38
				c26.748,4.5,26.748-21.25,18.748-35.75c1.25-3.75,3.75-6,4.5-9.75"/>
			<circle cx="79.975" cy="26.25" r="1.5"/>
			<circle cx="87.224" cy="26.25" r="1.5"/>
		</g>
		<pattern  id="SVGID_8_" xlink:href="#Design__x26__Training_11" patternTransform="matrix(0.5 0 0 0.5 -3536.8115 -4441.0918)">
		</pattern>
		<path fill="url(#SVGID_8_)" stroke="#000000" d="M45.586,70.146c-0.455-6.133-0.494-13.723,1.23-19.305
			c1.297-4.197,2.852-4.404,4.16-3.045c2.537,2.639,9.348,1.691,8.453,6.243c-1.576,8.015-0.904,18.804,15.877,21.373
			c7.045,1.078,17.106,1.318,22.602-7.876c5.582-9.337,1.246-20.97,2.391-21.16c2.551-0.422,9.279-3.458,10.453-1.015
			c2.537,5.277-1.689,9.225-1.826,13.092c-0.488,13.803-7.828,33.289-6.082,36.433c4.59,8.261,12.354,24.691,12.508,30.854
			c0.244,9.719-4.928,20.739-5.684,30.683c1.99,23.386-4.057,45.895-5.475,52.743c-9.496,1.499-16.11,1.988-24.17,0.599
			c0.168-10.164,0.307-21.819,0.307-24.818c-3.166-0.5-4.004-0.333-5.836,0c-1.834,0.333-4.113-0.838-4.779,1.495
			s1.293,20.046,0.627,24.212c-10.83,1.833-19.227,1.336-25.342-0.332c-0.998-15.497-7.197-43.999-4.975-60.12
			c0.867-6.278-8.506-10.125-5.002-25.017c3.334-14.176,9.502-24.955,11.951-27.24C51.145,94.051,46.096,77.03,45.586,70.146z"/>
	</g>
</g>
<g id="Verlauf" display="none">
	<g display="inline">
		<g>
			<path fill="none" stroke="#000000" d="M69.805,98.906C29.771,95.889,48.756,14.02,83.953,17.47
				C113.926,20.409,120.184,102.702,69.805,98.906z"/>
			<path fill="none" stroke="#000000" d="M47.895,59.402c-1.828-3.095-16.32-5.909-15.336,7.316s13.084,11.255,14.914,7.035"/>
			<path fill="none" stroke="#000000" d="M107.266,60.387c2.814-4.784,17.869-6.894,15.898,7.738
				c-1.969,14.632-15.055,15.195-18.994,8.442"/>
			<path fill="none" stroke="#000000" d="M58.141,95.333C52.475,101.5,43.725,116.5,37.475,136c3.502,2.68,6.949,3.647,10.949,2.98"
				/>
			<path fill="none" stroke="#000000" d="M58.475,116c-20.25,32.75-10.869,80.638-2.535,115.305
				c-13.91,1.054-22.943,7.195-27.609,12.195c7.424,0,9.484,0,14.984,0c4.045,0,8.047-3.2,10.729-3.765"/>
			<path fill="none" stroke="#000000" d="M52,243.5h17.475c-0.5-8-1.25-8.61-4-15.86s-2.168-49.179,0.582-59.929
				s17.168-11.488,17.918,1.262s3.249,54.653,2.749,60.903c-3.999,5.25-6.249,10.624-7.499,13.624c4.746,0,11.911,0,11.911,0
				c3.792-3,5.851-4.221,10.601-4.471"/>
			<path fill="none" stroke="#000000" d="M89.974,95.25c9.171,1.699,21.62,16.117,22.87,34.367c-4,1.5-7.475,2.794-12.225,3.794"/>
			<path fill="none" stroke="#000000" d="M92.362,112.89c16.958,27.577,5.681,102.694,2.181,116.444
				c10.5,0.5,24.93,8.166,27.18,14.166H96"/>
			<path fill="none" stroke="#000000" d="M64.975,24c-1,2.75,0,15.5,12,11.25c-11.75,8.5-28.25,33.5-1.5,38
				c26.748,4.5,26.748-21.25,18.748-35.75c1.25-3.75,3.75-6,4.5-9.75"/>
			<circle cx="79.975" cy="26.25" r="1.5"/>
			<circle cx="87.224" cy="26.25" r="1.5"/>
		</g>
	</g>
	<linearGradient id="SVGID_9_" gradientUnits="userSpaceOnUse" x1="152.6494" y1="249.624" x2="-0.0176" y2="0.9575">
		<stop  offset="0.1" style="stop-color:#172533"/>
		<stop  offset="0.8" style="stop-color:#568CBE"/>
	</linearGradient>
	<path display="inline" fill="url(#SVGID_9_)" stroke="#000000" d="M45.586,70.146c-0.455-6.133-0.494-13.723,1.23-19.305
		c1.297-4.197,2.852-4.404,4.16-3.045c2.537,2.639,9.348,1.691,8.453,6.243c-1.576,8.015-0.904,18.804,15.877,21.373
		c7.045,1.078,17.106,1.318,22.602-7.876c5.582-9.337,1.246-20.97,2.391-21.16c2.551-0.422,9.279-3.458,10.453-1.015
		c2.537,5.277-1.689,9.225-1.826,13.092c-0.488,13.803-7.828,33.289-6.082,36.433c4.59,8.261,12.354,24.691,12.508,30.854
		c0.244,9.719-4.928,20.739-5.684,30.683c1.99,23.386-4.057,45.895-5.475,52.743c-9.496,1.499-16.11,1.988-24.17,0.599
		c0.168-10.164,0.307-21.819,0.307-24.818c-3.166-0.5-4.004-0.333-5.836,0c-1.834,0.333-4.113-0.838-4.779,1.495
		s1.293,20.046,0.627,24.212c-10.83,1.833-19.227,1.336-25.342-0.332c-0.998-15.497-7.197-43.999-4.975-60.12
		c0.867-6.278-8.506-10.125-5.002-25.017c3.334-14.176,9.502-24.955,11.951-27.24C51.145,94.051,46.096,77.03,45.586,70.146z"/>
</g>
<g id="DT_weiss_auf_transparent" display="none">
	<g display="inline" opacity="0.33">
		
			<pattern  id="SVGID_10_" xlink:href="#Design__x26__Training_15" patternTransform="matrix(0.5 0 0 0.5 -3536.8115 -4441.0918)"  opacity="0.33">
		</pattern>
		<path fill="url(#SVGID_10_)" stroke="#000000" d="M45.586,70.146c-0.455-6.133-0.494-13.723,1.23-19.305
			c1.297-4.197,2.852-4.404,4.16-3.045c2.537,2.639,9.348,1.691,8.453,6.243c-1.576,8.015-0.904,18.804,15.877,21.373
			c7.045,1.078,17.106,1.318,22.602-7.876c5.582-9.337,1.246-20.97,2.391-21.16c2.551-0.422,9.279-3.458,10.453-1.015
			c2.537,5.277-1.689,9.225-1.826,13.092c-0.488,13.803-7.828,33.289-6.082,36.433c4.59,8.261,12.354,24.691,12.508,30.854
			c0.244,9.719-4.928,20.739-5.684,30.683c1.99,23.386-4.057,45.895-5.475,52.743c-9.496,1.499-16.11,1.988-24.17,0.599
			c0.168-10.164,0.307-21.819,0.307-24.818c-3.166-0.5-4.004-0.333-5.836,0c-1.834,0.333-4.113-0.838-4.779,1.495
			s1.293,20.046,0.627,24.212c-10.83,1.833-19.227,1.336-25.342-0.332c-0.998-15.497-7.197-43.999-4.975-60.12
			c0.867-6.278-8.506-10.125-5.002-25.017c3.334-14.176,9.502-24.955,11.951-27.24C51.145,94.051,46.096,77.03,45.586,70.146z"/>
	</g>
</g>
<g id="Palette" display="none">
</g>
</svg>
