<?xml version="1.0" encoding="utf-8"?>
<!-- Generator: Adobe Illustrator 16.0.5, SVG Export Plug-In . SVG Version: 6.00 Build 0)  -->
<!DOCTYPE svg PUBLIC "-//W3C//DTD SVG 1.1//EN" "http://www.w3.org/Graphics/SVG/1.1/DTD/svg11.dtd">
<svg version="1.1" xmlns="http://www.w3.org/2000/svg" xmlns:xlink="http://www.w3.org/1999/xlink" x="0px" y="0px" width="156px"
	 height="250px" viewBox="0 0 156 250" enable-background="new 0 0 156 250" xml:space="preserve">
<pattern  x="-322" y="580" width="28.347" height="28.347" patternUnits="userSpaceOnUse" id="Design__x26__Training_10" viewBox="7.666 -41.23 28.347 28.347" overflow="visible">
	<g>
		<polygon fill="none" points="7.666,-41.23 36.013,-41.23 36.013,-12.884 7.666,-12.884 		"/>
		<g>
			<polygon fill="#F5CD21" points="64.359,-12.884 36.012,-12.884 36.012,-41.23 64.359,-41.23 			"/>
		</g>
		<g>
			<polygon fill="#F5CD21" points="36.013,-12.884 7.665,-12.884 7.665,-41.23 36.013,-41.23 			"/>
			<g>
				<path fill="#FFFFFF" d="M43.798-19.795c-4.672-4.672-7.629-4.955-10.754-1.828l-4.697,4.691l5.027,5.023l3.168-3.162
					l-2.689-2.689l2.83-2.828l8.777,8.779l-2.83,2.826l-2.689-2.689l-3.166,3.164l5.027,5.025l4.369-4.369
					C50.335-12.014,48.677-14.916,43.798-19.795z"/>
				<polygon fill="#FFFFFF" points="28.03,-6.566 24.866,-3.4 28.267,0 31.437,-3.166 				"/>
			</g>
		</g>
		<g>
			<g>
				<path fill="#FFFFFF" d="M15.451-19.795c-4.672-4.672-7.629-4.955-10.754-1.828L0-16.932l5.027,5.023l3.168-3.162L5.506-17.76
					l2.83-2.828l8.777,8.779l-2.83,2.826l-2.689-2.689L8.428-8.508l5.027,5.025l4.369-4.369
					C21.988-12.014,20.33-14.916,15.451-19.795z"/>
			</g>
		</g>
		<g>
			<g>
				<path fill="#FFFFFF" d="M43.798-48.142c-4.672-4.672-7.629-4.955-10.754-1.828l-4.697,4.691l5.027,5.023l3.168-3.162
					l-2.689-2.689l2.83-2.828l8.777,8.779l-2.83,2.826l-2.689-2.689l-3.166,3.164l5.027,5.025l4.369-4.369
					C50.335-40.36,48.677-43.263,43.798-48.142z"/>
				<polygon fill="#FFFFFF" points="28.03,-34.913 24.866,-31.747 28.267,-28.347 31.437,-31.513 				"/>
			</g>
		</g>
		<g>
			<g>
				<path fill="#FFFFFF" d="M15.451-48.142c-4.672-4.672-7.629-4.955-10.754-1.828L0-45.278l5.027,5.023l3.168-3.162l-2.689-2.689
					l2.83-2.828l8.777,8.779l-2.83,2.826l-2.689-2.689l-3.166,3.164l5.027,5.025l4.369-4.369
					C21.988-40.36,20.33-43.263,15.451-48.142z"/>
			</g>
		</g>
	</g>
</pattern>
<pattern  x="-322" y="580" width="28.347" height="28.347" patternUnits="userSpaceOnUse" id="Design__x26__Training_15" viewBox="7.666 -41.23 28.347 28.347" overflow="visible">
	<g>
		<polygon fill="none" points="7.666,-41.23 36.013,-41.23 36.013,-12.884 7.666,-12.884 		"/>
		<g>
			<path fill="#FFFFFF" d="M43.798-19.795c-4.672-4.672-7.629-4.955-10.754-1.828l-4.697,4.691l5.027,5.023l3.168-3.162
				l-2.689-2.689l2.83-2.828l8.777,8.779l-2.83,2.826l-2.689-2.689l-3.166,3.164l5.027,5.025l4.369-4.369
				C50.335-12.014,48.677-14.916,43.798-19.795z"/>
			<polygon fill="#FFFFFF" points="28.03,-6.566 24.866,-3.4 28.267,0 31.437,-3.166 			"/>
		</g>
		<g>
			<path fill="#FFFFFF" d="M15.451-19.795c-4.672-4.672-7.629-4.955-10.754-1.828L0-16.932l5.027,5.023l3.168-3.162L5.506-17.76
				l2.83-2.828l8.777,8.779l-2.83,2.826l-2.689-2.689L8.428-8.508l5.027,5.025l4.369-4.369
				C21.988-12.014,20.33-14.916,15.451-19.795z"/>
		</g>
		<g>
			<path fill="#FFFFFF" d="M43.798-48.142c-4.672-4.672-7.629-4.955-10.754-1.828l-4.697,4.691l5.027,5.023l3.168-3.162
				l-2.689-2.689l2.83-2.828l8.777,8.779l-2.83,2.826l-2.689-2.689l-3.166,3.164l5.027,5.025l4.369-4.369
				C50.335-40.36,48.677-43.263,43.798-48.142z"/>
			<polygon fill="#FFFFFF" points="28.03,-34.913 24.866,-31.747 28.267,-28.347 31.437,-31.513 			"/>
		</g>
		<g>
			<path fill="#FFFFFF" d="M15.451-48.142c-4.672-4.672-7.629-4.955-10.754-1.828L0-45.278l5.027,5.023l3.168-3.162l-2.689-2.689
				l2.83-2.828l8.777,8.779l-2.83,2.826l-2.689-2.689l-3.166,3.164l5.027,5.025l4.369-4.369
				C21.988-40.36,20.33-43.263,15.451-48.142z"/>
		</g>
	</g>
</pattern>
<g id="Rückseite_mit_Verlauf">
	<linearGradient id="SVGID_1_" gradientUnits="userSpaceOnUse" x1="155.5176" y1="249.7598" x2="0.1841" y2="-0.2411">
		<stop  offset="0" style="stop-color:#172533"/>
		<stop  offset="1" style="stop-color:#568CBE"/>
	</linearGradient>
	<rect fill="url(#SVGID_1_)" width="156" height="250"/>
	<linearGradient id="SVGID_2_" gradientUnits="userSpaceOnUse" x1="155.5176" y1="249.7598" x2="0.1841" y2="-0.2411">
		<stop  offset="0" style="stop-color:#172533"/>
		<stop  offset="1" style="stop-color:#568CBE"/>
	</linearGradient>
	<rect fill="url(#SVGID_2_)" width="156" height="250"/>
</g>
<g id="Rückseite_Logo_Weiss_auf_transparent">
	<defs>
		<filter id="Adobe_OpacityMaskFilter" filterUnits="userSpaceOnUse" x="0" y="0" width="156" height="250">
			<feColorMatrix  type="matrix" values="1 0 0 0 0  0 1 0 0 0  0 0 1 0 0  0 0 0 1 0"/>
		</filter>
	</defs>
	<mask maskUnits="userSpaceOnUse" x="0" y="0" width="156" height="250" id="SVGID_3_">
		<g id="XMLID_7_" filter="url(#Adobe_OpacityMaskFilter)">
			
				<pattern  id="SVGID_4_" xlink:href="#Design__x26__Training_15" patternTransform="matrix(0 -0.5 -0.5 0 -7421.3013 -8524.6279)">
			</pattern>
			<rect opacity="0.1" fill="url(#SVGID_4_)" width="156" height="250"/>
			<linearGradient id="SVGID_5_" gradientUnits="userSpaceOnUse" x1="78.0005" y1="250" x2="78.0005" y2="0">
				<stop  offset="0" style="stop-color:#212121"/>
				<stop  offset="1" style="stop-color:#FFFFFF"/>
			</linearGradient>
			<rect fill="url(#SVGID_5_)" width="156" height="250"/>
			<linearGradient id="SVGID_6_" gradientUnits="userSpaceOnUse" x1="78.0005" y1="250" x2="78.0005" y2="0">
				<stop  offset="0" style="stop-color:#212121"/>
				<stop  offset="1" style="stop-color:#FFFFFF"/>
			</linearGradient>
			<rect fill="url(#SVGID_6_)" width="156" height="250"/>
		</g>
	</mask>
	
		<pattern  id="SVGID_7_" xlink:href="#Design__x26__Training_15" patternTransform="matrix(0 -0.5 -0.5 0 -7426.8013 -8527.8281)"  mask="url(#SVGID_3_)">
	</pattern>
	<rect opacity="0.15" mask="url(#SVGID_3_)" fill="url(#SVGID_7_)" width="156" height="250"/>
</g>
<g id="Karten" display="none">
	<g display="inline">
		<rect fill="#FFFFFF" width="156" height="250"/>
	</g>
</g>
<g id="Fallback" display="none">
	<path display="inline" fill="#7CA1BF" stroke="#000000" d="M85.639,106.313c2.293-0.649,8.928-2.563,9.168,0.611
		c0.53,7.006,4.792,12.152,6.596,18.046c7.498,24.494-13.318,37.422-26.681,56.182c-11.016-15.714-18.823-19.218-22.241-39.389
		c-1.528-9.016,3.667-19.253,6.035-26.327c0.689-2.06,0.883-8.38,4.05-7.29C71.886,111.355,78.053,108.462,85.639,106.313z"/>
</g>
<g id="Gewohnheiten_100" display="none">
	<g display="inline">
		<g>
			<path fill="none" stroke="#000000" d="M72.241,98.986C32.207,95.969,51.192,14.1,86.389,17.55
				C116.363,20.489,122.621,102.782,72.241,98.986z"/>
			<path fill="none" stroke="#000000" d="M50.331,59.482c-1.829-3.095-16.321-5.909-15.336,7.316s13.084,11.255,14.914,7.035"/>
			<path fill="none" stroke="#000000" d="M109.703,60.467c2.814-4.784,17.869-6.894,15.898,7.738
				c-1.969,14.632-15.055,15.195-18.994,8.442"/>
			<path fill="none" stroke="#000000" d="M60.576,95.414C54.91,101.58,46.16,116.58,39.91,136.08c3.502,2.68,6.95,3.647,10.95,2.98"
				/>
			<path fill="none" stroke="#000000" d="M60.91,116.08c-20.25,32.75-10.868,80.598-2.534,115.265
				c-13.91,1.054-22.943,7.155-27.61,12.155c7.424,0,9.484,0,14.985,0c4.044,0,8.047-3.16,10.728-3.725"/>
			<path fill="none" stroke="#000000" d="M55,243.5h16.91c-0.5-8-1.25-8.57-4-15.82s-2.167-49.158,0.583-59.908
				s17.168-11.479,17.918,1.271s3.25,54.618,2.75,60.868c-4,5.25-6.25,10.589-7.5,13.589c4.746,0,11.912,0,11.912,0
				c3.794-3,6.133-4.221,10.883-4.471"/>
			<path fill="none" stroke="#000000" d="M92.41,95.33c9.172,1.699,21.621,16.117,22.871,34.367c-4,1.5-7.475,2.794-12.225,3.794"/>
			<path fill="none" stroke="#000000" d="M95.58,112.93c16.96,27.577,5.289,102.674,1.789,116.424
				c10.5,0.5,24.541,8.146,26.791,14.146H100"/>
			<path fill="none" stroke="#000000" d="M67.41,24.08c-1,2.75,0,15.5,12,11.25c-11.75,8.5-28.25,33.5-1.5,38
				c26.75,4.5,26.75-21.25,18.75-35.75c1.25-3.75,3.75-6,4.5-9.75"/>
			<circle cx="82.41" cy="26.33" r="1.5"/>
			<circle cx="89.66" cy="26.33" r="1.5"/>
		</g>
		<pattern  id="SVGID_8_" xlink:href="#Design__x26__Training_10" patternTransform="matrix(0.5 0 0 0.5 -3770.5269 -4441.0918)">
		</pattern>
		<path fill="url(#SVGID_8_)" stroke="#000000" d="M85.639,106.313c2.293-0.649,8.928-2.563,9.168,0.611
			c0.53,7.006,4.792,12.152,6.596,18.046c7.498,24.494-13.318,37.422-26.681,56.182c-11.016-15.714-18.823-19.218-22.241-39.389
			c-1.528-9.016,3.667-19.253,6.035-26.327c0.689-2.06,0.883-8.38,4.05-7.29C71.886,111.355,78.053,108.462,85.639,106.313z"/>
	</g>
</g>
<g id="Verlauf" display="none">
	<g display="inline">
		<path fill="none" stroke="#000000" d="M72.241,98.986C32.207,95.969,51.192,14.1,86.389,17.55
			C116.363,20.489,122.621,102.782,72.241,98.986z"/>
		<path fill="none" stroke="#000000" d="M50.331,59.482c-1.829-3.095-16.321-5.909-15.336,7.316s13.084,11.255,14.914,7.035"/>
		<path fill="none" stroke="#000000" d="M109.703,60.467c2.814-4.784,17.869-6.894,15.898,7.738
			c-1.969,14.632-15.055,15.195-18.994,8.442"/>
		<path fill="none" stroke="#000000" d="M60.576,95.414C54.91,101.58,46.16,116.58,39.91,136.08c3.502,2.68,6.95,3.647,10.95,2.98"
			/>
		<path fill="none" stroke="#000000" d="M60.91,116.08c-20.25,32.75-10.868,80.598-2.534,115.265
			c-13.91,1.054-22.943,7.155-27.61,12.155c7.424,0,9.484,0,14.985,0c4.044,0,8.047-3.16,10.728-3.725"/>
		<path fill="none" stroke="#000000" d="M55,243.5h16.91c-0.5-8-1.25-8.57-4-15.82s-2.167-49.158,0.583-59.908
			s17.168-11.479,17.918,1.271s3.25,54.618,2.75,60.868c-4,5.25-6.25,10.589-7.5,13.589c4.746,0,11.912,0,11.912,0
			c3.794-3,6.133-4.221,10.883-4.471"/>
		<path fill="none" stroke="#000000" d="M92.41,95.33c9.172,1.699,21.621,16.117,22.871,34.367c-4,1.5-7.475,2.794-12.225,3.794"/>
		<path fill="none" stroke="#000000" d="M95.58,112.93c16.96,27.577,5.289,102.674,1.789,116.424
			c10.5,0.5,24.541,8.146,26.791,14.146H100"/>
		<path fill="none" stroke="#000000" d="M67.41,24.08c-1,2.75,0,15.5,12,11.25c-11.75,8.5-28.25,33.5-1.5,38
			c26.75,4.5,26.75-21.25,18.75-35.75c1.25-3.75,3.75-6,4.5-9.75"/>
		<circle cx="82.41" cy="26.33" r="1.5"/>
		<circle cx="89.66" cy="26.33" r="1.5"/>
	</g>
	<g display="inline">
		<g>
			<linearGradient id="SVGID_9_" gradientUnits="userSpaceOnUse" x1="52.2036" y1="143.1494" x2="102.9873" y2="143.1494">
				<stop  offset="0.1" style="stop-color:#172533"/>
				<stop  offset="0.8" style="stop-color:#568CBE"/>
			</linearGradient>
			<path fill="url(#SVGID_9_)" d="M85.639,106.313c2.293-0.649,8.928-2.563,9.168,0.611c0.53,7.006,4.792,12.152,6.596,18.046
				c7.498,24.494-13.318,37.422-26.681,56.182c-11.016-15.714-18.823-19.218-22.241-39.389c-1.528-9.016,3.667-19.253,6.035-26.327
				c0.689-2.06,0.883-8.38,4.05-7.29C71.886,111.355,78.053,108.462,85.639,106.313z"/>
		</g>
		<g>
			<linearGradient id="SVGID_10_" gradientUnits="userSpaceOnUse" x1="150.1875" y1="252.1455" x2="-2.5395" y2="4.873">
				<stop  offset="0.1" style="stop-color:#172533"/>
				<stop  offset="0.8" style="stop-color:#568CBE"/>
			</linearGradient>
			<path fill="url(#SVGID_10_)" stroke="#000000" d="M85.639,106.313c2.293-0.649,8.928-2.563,9.168,0.611
				c0.53,7.006,4.792,12.152,6.596,18.046c7.498,24.494-13.318,37.422-26.681,56.182c-11.016-15.714-18.823-19.218-22.241-39.389
				c-1.528-9.016,3.667-19.253,6.035-26.327c0.689-2.06,0.883-8.38,4.05-7.29C71.886,111.355,78.053,108.462,85.639,106.313z"/>
		</g>
		<g>
			<path fill="none" stroke="#000000" d="M85.639,106.313c2.293-0.649,8.928-2.563,9.168,0.611
				c0.53,7.006,4.792,12.152,6.596,18.046c7.498,24.494-13.318,37.422-26.681,56.182c-11.016-15.714-18.823-19.218-22.241-39.389
				c-1.528-9.016,3.667-19.253,6.035-26.327c0.689-2.06,0.883-8.38,4.05-7.29C71.886,111.355,78.053,108.462,85.639,106.313z"/>
		</g>
	</g>
</g>
<g id="DT_weiss_auf_transparent" display="none">
	<g display="inline" opacity="0.33">
		
			<pattern  id="SVGID_11_" xlink:href="#Design__x26__Training_15" patternTransform="matrix(0.5 0 0 0.5 -3770.5269 -4441.0918)"  opacity="0.33">
		</pattern>
		<path fill="url(#SVGID_11_)" stroke="#000000" d="M85.639,106.313c2.293-0.649,8.928-2.563,9.168,0.611
			c0.53,7.006,4.792,12.152,6.596,18.046c7.498,24.494-13.318,37.422-26.681,56.182c-11.016-15.714-18.823-19.218-22.241-39.389
			c-1.528-9.016,3.667-19.253,6.035-26.327c0.689-2.06,0.883-8.38,4.05-7.29C71.886,111.355,78.053,108.462,85.639,106.313z"/>
	</g>
</g>
<g id="Palette" display="none">
</g>
</svg>
