<?xml version="1.0" encoding="utf-8"?>
<!-- Generator: Adobe Illustrator 16.0.5, SVG Export Plug-In . SVG Version: 6.00 Build 0)  -->
<!DOCTYPE svg PUBLIC "-//W3C//DTD SVG 1.1//EN" "http://www.w3.org/Graphics/SVG/1.1/DTD/svg11.dtd">
<svg version="1.1" xmlns="http://www.w3.org/2000/svg" xmlns:xlink="http://www.w3.org/1999/xlink" x="0px" y="0px" width="156px"
	 height="250px" viewBox="0 0 156 250" enable-background="new 0 0 156 250" xml:space="preserve">
<pattern  x="-542" y="270" width="28.347" height="28.347" patternUnits="userSpaceOnUse" id="Design__x26__Training_15" viewBox="7.666 -41.23 28.347 28.347" overflow="visible">
	<g>
		<polygon fill="none" points="7.666,-41.23 36.013,-41.23 36.013,-12.884 7.666,-12.884 		"/>
		<g>
			<path fill="#FFFFFF" d="M43.798-19.795c-4.672-4.672-7.629-4.955-10.754-1.828l-4.697,4.691l5.027,5.023l3.168-3.162
				l-2.689-2.689l2.83-2.828l8.777,8.779l-2.83,2.826l-2.689-2.689l-3.166,3.164l5.027,5.025l4.369-4.369
				C50.335-12.014,48.677-14.916,43.798-19.795z"/>
			<polygon fill="#FFFFFF" points="28.03,-6.566 24.866,-3.4 28.267,0 31.437,-3.166 			"/>
		</g>
		<g>
			<path fill="#FFFFFF" d="M15.451-19.795c-4.672-4.672-7.629-4.955-10.754-1.828L0-16.932l5.027,5.023l3.168-3.162L5.506-17.76
				l2.83-2.828l8.777,8.779l-2.83,2.826l-2.689-2.689L8.428-8.508l5.027,5.025l4.369-4.369
				C21.988-12.014,20.33-14.916,15.451-19.795z"/>
		</g>
		<g>
			<path fill="#FFFFFF" d="M43.798-48.142c-4.672-4.672-7.629-4.955-10.754-1.828l-4.697,4.691l5.027,5.023l3.168-3.162
				l-2.689-2.689l2.83-2.828l8.777,8.779l-2.83,2.826l-2.689-2.689l-3.166,3.164l5.027,5.025l4.369-4.369
				C50.335-40.36,48.677-43.263,43.798-48.142z"/>
			<polygon fill="#FFFFFF" points="28.03,-34.913 24.866,-31.747 28.267,-28.347 31.437,-31.513 			"/>
		</g>
		<g>
			<path fill="#FFFFFF" d="M15.451-48.142c-4.672-4.672-7.629-4.955-10.754-1.828L0-45.278l5.027,5.023l3.168-3.162l-2.689-2.689
				l2.83-2.828l8.777,8.779l-2.83,2.826l-2.689-2.689l-3.166,3.164l5.027,5.025l4.369-4.369
				C21.988-40.36,20.33-43.263,15.451-48.142z"/>
		</g>
	</g>
</pattern>
<pattern  x="-542" y="270" width="28.348" height="28.347" patternUnits="userSpaceOnUse" id="Design__x26__Training_3" viewBox="28.347 -41.23 28.348 28.347" overflow="visible">
	<g>
		<polygon fill="none" points="28.347,-41.23 56.694,-41.23 56.694,-12.884 28.347,-12.884 		"/>
		<g>
			<polygon fill="#ABC3DD" points="85.041,-12.884 56.693,-12.884 56.693,-41.23 85.041,-41.23 			"/>
		</g>
		<g>
			<polygon fill="#ABC3DD" points="56.694,-12.884 28.347,-12.884 28.347,-41.23 56.694,-41.23 			"/>
			<g>
				<path fill="#FFFFFF" d="M64.479-19.795c-4.672-4.672-7.629-4.955-10.754-1.828l-4.697,4.691l5.027,5.023l3.168-3.162
					l-2.689-2.689l2.83-2.828l8.777,8.779l-2.83,2.826l-2.689-2.689l-3.166,3.164l5.027,5.025l4.369-4.369
					C71.017-12.014,69.358-14.916,64.479-19.795z"/>
				<polygon fill="#FFFFFF" points="48.712,-6.566 45.548,-3.4 48.948,0 52.118,-3.166 				"/>
			</g>
		</g>
		<g>
			<polygon fill="#ABC3DD" points="28.348,-12.884 0,-12.884 0,-41.23 28.348,-41.23 			"/>
			<g>
				<path fill="#FFFFFF" d="M36.133-19.795c-4.672-4.672-7.629-4.955-10.754-1.828l-4.697,4.691l5.027,5.023l3.168-3.162
					l-2.689-2.689l2.83-2.828l8.777,8.779l-2.83,2.826l-2.689-2.689l-3.166,3.164l5.027,5.025l4.369-4.369
					C42.67-12.014,41.012-14.916,36.133-19.795z"/>
			</g>
		</g>
		<g>
			<g>
				<path fill="#FFFFFF" d="M64.479-48.142c-4.672-4.672-7.629-4.955-10.754-1.828l-4.697,4.691l5.027,5.023l3.168-3.162
					l-2.689-2.689l2.83-2.828l8.777,8.779l-2.83,2.826l-2.689-2.689l-3.166,3.164l5.027,5.025l4.369-4.369
					C71.017-40.36,69.358-43.263,64.479-48.142z"/>
				<polygon fill="#FFFFFF" points="48.712,-34.913 45.548,-31.747 48.948,-28.347 52.118,-31.513 				"/>
			</g>
		</g>
		<g>
			<g>
				<path fill="#FFFFFF" d="M36.133-48.142c-4.672-4.672-7.629-4.955-10.754-1.828l-4.697,4.691l5.027,5.023l3.168-3.162
					l-2.689-2.689l2.83-2.828l8.777,8.779l-2.83,2.826l-2.689-2.689l-3.166,3.164l5.027,5.025l4.369-4.369
					C42.67-40.36,41.012-43.263,36.133-48.142z"/>
			</g>
		</g>
	</g>
</pattern>
<g id="Rückseite_mit_Verlauf">
	<linearGradient id="SVGID_1_" gradientUnits="userSpaceOnUse" x1="155.5166" y1="249.7598" x2="0.1836" y2="-0.2402">
		<stop  offset="0" style="stop-color:#172533"/>
		<stop  offset="1" style="stop-color:#568CBE"/>
	</linearGradient>
	<rect fill="url(#SVGID_1_)" width="156" height="250"/>
	<linearGradient id="SVGID_2_" gradientUnits="userSpaceOnUse" x1="155.5166" y1="249.7598" x2="0.1836" y2="-0.2402">
		<stop  offset="0" style="stop-color:#172533"/>
		<stop  offset="1" style="stop-color:#568CBE"/>
	</linearGradient>
	<rect fill="url(#SVGID_2_)" width="156" height="250"/>
</g>
<g id="Rückseite_Logo_Weiss_auf_transparent">
	<defs>
		<filter id="Adobe_OpacityMaskFilter" filterUnits="userSpaceOnUse" x="0" y="0" width="156" height="250">
			<feColorMatrix  type="matrix" values="1 0 0 0 0  0 1 0 0 0  0 0 1 0 0  0 0 0 1 0"/>
		</filter>
	</defs>
	<mask maskUnits="userSpaceOnUse" x="0" y="0" width="156" height="250" id="SVGID_3_">
		<g id="XMLID_6_" filter="url(#Adobe_OpacityMaskFilter)">
			
				<pattern  id="SVGID_4_" xlink:href="#Design__x26__Training_15" patternTransform="matrix(0 -0.5 -0.5 0 -7038.9014 -8092.2681)">
			</pattern>
			<rect opacity="0.1" fill="url(#SVGID_4_)" width="156" height="250"/>
			<linearGradient id="SVGID_5_" gradientUnits="userSpaceOnUse" x1="78" y1="250" x2="78" y2="0">
				<stop  offset="0" style="stop-color:#212121"/>
				<stop  offset="1" style="stop-color:#FFFFFF"/>
			</linearGradient>
			<rect fill="url(#SVGID_5_)" width="156" height="250"/>
			<linearGradient id="SVGID_6_" gradientUnits="userSpaceOnUse" x1="78" y1="250" x2="78" y2="0">
				<stop  offset="0" style="stop-color:#212121"/>
				<stop  offset="1" style="stop-color:#FFFFFF"/>
			</linearGradient>
			<rect fill="url(#SVGID_6_)" width="156" height="250"/>
		</g>
	</mask>
	
		<pattern  id="SVGID_7_" xlink:href="#Design__x26__Training_15" patternTransform="matrix(0 -0.5 -0.5 0 -7044.4014 -8095.4678)"  mask="url(#SVGID_3_)">
	</pattern>
	<rect opacity="0.15" mask="url(#SVGID_3_)" fill="url(#SVGID_7_)" width="156" height="250"/>
</g>
<g id="Karten" display="none">
	<g display="inline">
		<rect fill="#FFFFFF" width="156" height="250"/>
	</g>
</g>
<g id="Fallback" display="none">
	<path display="inline" fill="#7CA1BF" stroke="#000000" d="M112.4,111.333c-2.746-5.688-7.288-10.841-12.531-14.351
		c-2.016-1.349-5.422-3.738-7.781-2.398c-2.389,1.355-4.569,3.082-6.674,4.837c-5.711,4.764-10.977,10.066-16.154,15.396
		c-4.272,4.398-9.732,8.951-13.09,14.055c-3.174,4.825-7.555,0.341-11.311,3.471c-4.969,4.141,1.641,12.823,1.641,17.908
		c0,14.25,0.5,29.5,2.25,42.75c0.468,3.541,0.969,6.361-0.203,9.828c-0.998,2.95-3.01,6.096-2.85,9.314
		c0.372,7.529,9.638,1.973,12.158-0.52c4.784-4.731,7.91-9.709,13.59-13.61c6.014-4.13,11.887-8.465,17.676-12.902
		c4.539-3.479,9.527-6.607,18.837-13.282c0.5-6.75-0.967-25.078-3.864-34.252c-11.066,5.094-23.803,14.937-34.604,20.2
		c12.822-12.472,19.07-22.444,27.815-30.54C101.726,123.145,110.32,117.313,112.4,111.333z"/>
</g>
<g id="Gewohnheiten_100" display="none">
	<g display="inline">
		<g>
			<path fill="none" stroke="#000000" d="M71.943,98.906C31.908,95.889,50.895,14.02,86.09,17.471
				C116.064,20.408,122.322,102.701,71.943,98.906z"/>
			<path fill="none" stroke="#000000" d="M50.032,59.402c-1.829-3.096-16.321-5.909-15.336,7.316
				c0.985,13.225,13.085,11.255,14.913,7.034"/>
			<path fill="none" stroke="#000000" d="M109.405,60.387c2.813-4.783,17.868-6.895,15.898,7.738s-15.054,15.195-18.993,8.441"/>
			<path fill="none" stroke="#000000" d="M60.277,95.334C54.611,101.5,45.861,116.5,39.611,136c3.502,2.68,6.949,3.647,10.949,2.98"
				/>
			<path fill="none" stroke="#000000" d="M60.611,116c-20.25,32.75-10.867,80.638-2.534,115.305
				c-13.91,1.054-22.943,7.195-27.61,12.195c7.424,0,9.484,0,14.985,0c4.044,0,8.048-3.2,10.728-3.765"/>
			<path fill="none" stroke="#000000" d="M54,243.5h17.611c-0.5-8-1.25-8.61-4-15.86s-2.168-49.179,0.582-59.929
				s17.168-11.488,17.918,1.262s3.25,54.653,2.75,60.903c-4,5.25-6.25,10.624-7.5,13.624c4.747,0,11.913,0,11.913,0
				c3.794-3,5.781-4.221,10.531-4.471"/>
			<path fill="none" stroke="#000000" d="M92.111,95.25c9.172,1.699,21.621,16.117,22.871,34.367c-4,1.5-7.474,2.794-12.224,3.794"
				/>
			<path fill="none" stroke="#000000" d="M94.931,112.89c16.96,27.577,5.466,102.694,1.966,116.444
				c10.5,0.5,24.715,8.166,26.965,14.166H99"/>
			<path fill="none" stroke="#000000" d="M67.111,24c-1,2.75,0,15.5,12,11.25c-11.75,8.5-28.25,33.5-1.5,38S104.361,52,96.361,37.5
				c1.25-3.75,3.75-6,4.5-9.75"/>
			<circle cx="82.111" cy="26.25" r="1.5"/>
			<circle cx="89.361" cy="26.25" r="1.5"/>
		</g>
	</g>
	<pattern  id="SVGID_8_" xlink:href="#Design__x26__Training_3" patternTransform="matrix(0.5 0 0 0.5 -3750.2402 -4273.0942)">
	</pattern>
	<path display="inline" fill="url(#SVGID_8_)" stroke="#000000" d="M112.4,111.333c-2.746-5.688-7.288-10.841-12.531-14.351
		c-2.016-1.349-5.422-3.738-7.781-2.398c-2.389,1.355-4.569,3.082-6.674,4.837c-5.711,4.764-10.977,10.066-16.154,15.396
		c-4.272,4.398-9.732,8.951-13.09,14.055c-3.174,4.825-7.555,0.341-11.311,3.471c-4.969,4.141,1.641,12.823,1.641,17.908
		c0,14.25,0.5,29.5,2.25,42.75c0.468,3.541,0.969,6.361-0.203,9.828c-0.998,2.95-3.01,6.096-2.85,9.314
		c0.372,7.529,9.638,1.973,12.158-0.52c4.784-4.731,7.91-9.709,13.59-13.61c6.014-4.13,11.887-8.465,17.676-12.902
		c4.539-3.479,9.527-6.607,18.837-13.282c0.5-6.75-0.967-25.078-3.864-34.252c-11.066,5.094-23.803,14.937-34.604,20.2
		c12.822-12.472,19.07-22.444,27.815-30.54C101.726,123.145,110.32,117.313,112.4,111.333z"/>
</g>
<g id="Verlauf" display="none">
	<g display="inline">
		<g>
			<path fill="none" stroke="#000000" d="M71.943,98.906C31.908,95.889,50.895,14.02,86.09,17.471
				C116.064,20.408,122.322,102.701,71.943,98.906z"/>
			<path fill="none" stroke="#000000" d="M50.032,59.402c-1.829-3.096-16.321-5.909-15.336,7.316
				c0.985,13.225,13.085,11.255,14.913,7.034"/>
			<path fill="none" stroke="#000000" d="M109.405,60.387c2.813-4.783,17.868-6.895,15.898,7.738s-15.054,15.195-18.993,8.441"/>
			<path fill="none" stroke="#000000" d="M60.277,95.334C54.611,101.5,45.861,116.5,39.611,136c3.502,2.68,6.949,3.647,10.949,2.98"
				/>
			<path fill="none" stroke="#000000" d="M60.611,116c-20.25,32.75-10.867,80.638-2.534,115.305
				c-13.91,1.054-22.943,7.195-27.61,12.195c7.424,0,9.484,0,14.985,0c4.044,0,8.048-3.2,10.728-3.765"/>
			<path fill="none" stroke="#000000" d="M54,243.5h17.611c-0.5-8-1.25-8.61-4-15.86s-2.168-49.179,0.582-59.929
				s17.168-11.488,17.918,1.262s3.25,54.653,2.75,60.903c-4,5.25-6.25,10.624-7.5,13.624c4.747,0,11.913,0,11.913,0
				c3.794-3,5.781-4.221,10.531-4.471"/>
			<path fill="none" stroke="#000000" d="M92.111,95.25c9.172,1.699,21.621,16.117,22.871,34.367c-4,1.5-7.474,2.794-12.224,3.794"
				/>
			<path fill="none" stroke="#000000" d="M94.931,112.89c16.96,27.577,5.466,102.694,1.966,116.444
				c10.5,0.5,24.715,8.166,26.965,14.166H99"/>
			<path fill="none" stroke="#000000" d="M67.111,24c-1,2.75,0,15.5,12,11.25c-11.75,8.5-28.25,33.5-1.5,38S104.361,52,96.361,37.5
				c1.25-3.75,3.75-6,4.5-9.75"/>
			<circle cx="82.111" cy="26.25" r="1.5"/>
			<circle cx="89.361" cy="26.25" r="1.5"/>
		</g>
	</g>
	<linearGradient id="SVGID_9_" gradientUnits="userSpaceOnUse" x1="139.1543" y1="259.3506" x2="-14.1797" y2="11.6836">
		<stop  offset="0.1" style="stop-color:#172533"/>
		<stop  offset="0.8" style="stop-color:#568CBE"/>
	</linearGradient>
	<path display="inline" fill="url(#SVGID_9_)" stroke="#000000" d="M112.4,111.333c-2.746-5.688-7.288-10.841-12.531-14.351
		c-2.016-1.349-5.422-3.738-7.781-2.398c-2.389,1.355-4.569,3.082-6.674,4.837c-5.711,4.764-10.977,10.066-16.154,15.396
		c-4.272,4.398-9.732,8.951-13.09,14.055c-3.174,4.825-7.555,0.341-11.311,3.471c-4.969,4.141,1.641,12.823,1.641,17.908
		c0,14.25,0.5,29.5,2.25,42.75c0.468,3.541,0.969,6.361-0.203,9.828c-0.998,2.95-3.01,6.096-2.85,9.314
		c0.372,7.529,9.638,1.973,12.158-0.52c4.784-4.731,7.91-9.709,13.59-13.61c6.014-4.13,11.887-8.465,17.676-12.902
		c4.539-3.479,9.527-6.607,18.837-13.282c0.5-6.75-0.967-25.078-3.864-34.252c-11.066,5.094-23.803,14.937-34.604,20.2
		c12.822-12.472,19.07-22.444,27.815-30.54C101.726,123.145,110.32,117.313,112.4,111.333z"/>
</g>
<g id="DT_weiss_auf_transparent" display="none">
	<pattern  id="SVGID_10_" xlink:href="#Design__x26__Training_15" patternTransform="matrix(0.5 0 0 0.5 -3610.623 -4269.2202)">
	</pattern>
	<path display="inline" opacity="0.33" fill="url(#SVGID_10_)" d="M112.4,111.333c-2.746-5.688-7.288-10.841-12.531-14.351
		c-2.016-1.349-5.422-3.738-7.781-2.398c-2.389,1.355-4.569,3.082-6.674,4.837c-5.711,4.764-10.977,10.066-16.154,15.396
		c-4.272,4.398-9.732,8.951-13.09,14.055c-3.174,4.825-7.555,0.341-11.311,3.471c-4.969,4.141,1.641,12.823,1.641,17.908
		c0,14.25,0.5,29.5,2.25,42.75c0.468,3.541,0.969,6.361-0.203,9.828c-0.998,2.95-3.01,6.096-2.85,9.314
		c0.372,7.529,9.638,1.973,12.158-0.52c4.784-4.731,7.91-9.709,13.59-13.61c6.014-4.13,11.887-8.465,17.676-12.902
		c4.539-3.479,9.527-6.607,18.837-13.282c0.5-6.75-0.967-25.078-3.864-34.252c-11.066,5.094-23.803,14.937-34.604,20.2
		c12.822-12.472,19.07-22.444,27.815-30.54C101.726,123.145,110.32,117.313,112.4,111.333z"/>
</g>
<g id="Palette" display="none">
</g>
</svg>
