<?xml version="1.0" encoding="utf-8"?>
<!-- Generator: Adobe Illustrator 16.0.5, SVG Export Plug-In . SVG Version: 6.00 Build 0)  -->
<!DOCTYPE svg PUBLIC "-//W3C//DTD SVG 1.1//EN" "http://www.w3.org/Graphics/SVG/1.1/DTD/svg11.dtd">
<svg version="1.1" xmlns="http://www.w3.org/2000/svg" xmlns:xlink="http://www.w3.org/1999/xlink" x="0px" y="0px" width="156px"
	 height="250px" viewBox="0 0 156 250" enable-background="new 0 0 156 250" xml:space="preserve">
<pattern  x="-102" y="270" width="28.347" height="28.347" patternUnits="userSpaceOnUse" id="Design__x26__Training_12" viewBox="7.666 -41.23 28.347 28.347" overflow="visible">
	<g>
		<polygon fill="none" points="7.666,-41.23 36.013,-41.23 36.013,-12.884 7.666,-12.884 		"/>
		<g>
			<polygon fill="#E4A612" points="64.359,-12.884 36.012,-12.884 36.012,-41.23 64.359,-41.23 			"/>
		</g>
		<g>
			<polygon fill="#E4A612" points="36.013,-12.884 7.665,-12.884 7.665,-41.23 36.013,-41.23 			"/>
			<g>
				<path fill="#FFFFFF" d="M43.798-19.795c-4.672-4.672-7.629-4.955-10.754-1.828l-4.697,4.691l5.027,5.023l3.168-3.162
					l-2.689-2.689l2.83-2.828l8.777,8.779l-2.83,2.826l-2.689-2.689l-3.166,3.164l5.027,5.025l4.369-4.369
					C50.335-12.014,48.677-14.916,43.798-19.795z"/>
				<polygon fill="#FFFFFF" points="28.03,-6.566 24.866,-3.4 28.267,0 31.437,-3.166 				"/>
			</g>
		</g>
		<g>
			<g>
				<path fill="#FFFFFF" d="M15.451-19.795c-4.672-4.672-7.629-4.955-10.754-1.828L0-16.932l5.027,5.023l3.168-3.162L5.506-17.76
					l2.83-2.828l8.777,8.779l-2.83,2.826l-2.689-2.689L8.428-8.508l5.027,5.025l4.369-4.369
					C21.988-12.014,20.33-14.916,15.451-19.795z"/>
			</g>
		</g>
		<g>
			<g>
				<path fill="#FFFFFF" d="M43.798-48.142c-4.672-4.672-7.629-4.955-10.754-1.828l-4.697,4.691l5.027,5.023l3.168-3.162
					l-2.689-2.689l2.83-2.828l8.777,8.779l-2.83,2.826l-2.689-2.689l-3.166,3.164l5.027,5.025l4.369-4.369
					C50.335-40.36,48.677-43.263,43.798-48.142z"/>
				<polygon fill="#FFFFFF" points="28.03,-34.913 24.866,-31.747 28.267,-28.347 31.437,-31.513 				"/>
			</g>
		</g>
		<g>
			<g>
				<path fill="#FFFFFF" d="M15.451-48.142c-4.672-4.672-7.629-4.955-10.754-1.828L0-45.278l5.027,5.023l3.168-3.162l-2.689-2.689
					l2.83-2.828l8.777,8.779l-2.83,2.826l-2.689-2.689l-3.166,3.164l5.027,5.025l4.369-4.369
					C21.988-40.36,20.33-43.263,15.451-48.142z"/>
			</g>
		</g>
	</g>
</pattern>
<pattern  x="-102" y="270" width="28.347" height="28.347" patternUnits="userSpaceOnUse" id="Design__x26__Training_15" viewBox="7.666 -41.23 28.347 28.347" overflow="visible">
	<g>
		<polygon fill="none" points="7.666,-41.23 36.013,-41.23 36.013,-12.884 7.666,-12.884 		"/>
		<g>
			<path fill="#FFFFFF" d="M43.798-19.795c-4.672-4.672-7.629-4.955-10.754-1.828l-4.697,4.691l5.027,5.023l3.168-3.162
				l-2.689-2.689l2.83-2.828l8.777,8.779l-2.83,2.826l-2.689-2.689l-3.166,3.164l5.027,5.025l4.369-4.369
				C50.335-12.014,48.677-14.916,43.798-19.795z"/>
			<polygon fill="#FFFFFF" points="28.03,-6.566 24.866,-3.4 28.267,0 31.437,-3.166 			"/>
		</g>
		<g>
			<path fill="#FFFFFF" d="M15.451-19.795c-4.672-4.672-7.629-4.955-10.754-1.828L0-16.932l5.027,5.023l3.168-3.162L5.506-17.76
				l2.83-2.828l8.777,8.779l-2.83,2.826l-2.689-2.689L8.428-8.508l5.027,5.025l4.369-4.369
				C21.988-12.014,20.33-14.916,15.451-19.795z"/>
		</g>
		<g>
			<path fill="#FFFFFF" d="M43.798-48.142c-4.672-4.672-7.629-4.955-10.754-1.828l-4.697,4.691l5.027,5.023l3.168-3.162
				l-2.689-2.689l2.83-2.828l8.777,8.779l-2.83,2.826l-2.689-2.689l-3.166,3.164l5.027,5.025l4.369-4.369
				C50.335-40.36,48.677-43.263,43.798-48.142z"/>
			<polygon fill="#FFFFFF" points="28.03,-34.913 24.866,-31.747 28.267,-28.347 31.437,-31.513 			"/>
		</g>
		<g>
			<path fill="#FFFFFF" d="M15.451-48.142c-4.672-4.672-7.629-4.955-10.754-1.828L0-45.278l5.027,5.023l3.168-3.162l-2.689-2.689
				l2.83-2.828l8.777,8.779l-2.83,2.826l-2.689-2.689l-3.166,3.164l5.027,5.025l4.369-4.369
				C21.988-40.36,20.33-43.263,15.451-48.142z"/>
		</g>
	</g>
</pattern>
<g id="Rückseite_mit_Verlauf">
	<linearGradient id="SVGID_1_" gradientUnits="userSpaceOnUse" x1="155.5171" y1="249.7598" x2="0.1841" y2="-0.2402">
		<stop  offset="0" style="stop-color:#172533"/>
		<stop  offset="1" style="stop-color:#568CBE"/>
	</linearGradient>
	<rect fill="url(#SVGID_1_)" width="156" height="250"/>
	<linearGradient id="SVGID_2_" gradientUnits="userSpaceOnUse" x1="155.5171" y1="249.7598" x2="0.1841" y2="-0.2402">
		<stop  offset="0" style="stop-color:#172533"/>
		<stop  offset="1" style="stop-color:#568CBE"/>
	</linearGradient>
	<rect fill="url(#SVGID_2_)" width="156" height="250"/>
</g>
<g id="Rückseite_Logo_Weiss_auf_transparent">
	<defs>
		<filter id="Adobe_OpacityMaskFilter" filterUnits="userSpaceOnUse" x="0" y="0" width="156" height="250">
			<feColorMatrix  type="matrix" values="1 0 0 0 0  0 1 0 0 0  0 0 1 0 0  0 0 0 1 0"/>
		</filter>
	</defs>
	<mask maskUnits="userSpaceOnUse" x="0" y="0" width="156" height="250" id="SVGID_3_">
		<g id="XMLID_4_" filter="url(#Adobe_OpacityMaskFilter)">
			
				<pattern  id="SVGID_4_" xlink:href="#Design__x26__Training_15" patternTransform="matrix(0 -0.5 -0.5 0 -7493.7012 -8312.2676)">
			</pattern>
			<rect opacity="0.1" fill="url(#SVGID_4_)" width="156" height="250"/>
			<linearGradient id="SVGID_5_" gradientUnits="userSpaceOnUse" x1="78" y1="250" x2="78" y2="0">
				<stop  offset="0" style="stop-color:#212121"/>
				<stop  offset="1" style="stop-color:#FFFFFF"/>
			</linearGradient>
			<rect fill="url(#SVGID_5_)" width="156" height="250"/>
			<linearGradient id="SVGID_6_" gradientUnits="userSpaceOnUse" x1="78" y1="250" x2="78" y2="0">
				<stop  offset="0" style="stop-color:#212121"/>
				<stop  offset="1" style="stop-color:#FFFFFF"/>
			</linearGradient>
			<rect fill="url(#SVGID_6_)" width="156" height="250"/>
		</g>
	</mask>
	
		<pattern  id="SVGID_7_" xlink:href="#Design__x26__Training_15" patternTransform="matrix(0 -0.5 -0.5 0 -7499.2012 -8315.4678)"  mask="url(#SVGID_3_)">
	</pattern>
	<rect opacity="0.15" mask="url(#SVGID_3_)" fill="url(#SVGID_7_)" width="156" height="250"/>
</g>
<g id="Karten" display="none">
	<g display="inline">
		<rect fill="#FFFFFF" width="156" height="250"/>
	</g>
</g>
<g id="Fallback" display="none">
	<path display="inline" fill="#7CA1BF" stroke="#000000" d="M79.044,153.253c5.005,0,26.384,1.081,28.05-7.586
		c9-1.333,12.833,4.668,10.667,7c-5.138,5.534-5.28,5.546-6,11.667c-2,17-1.334,23.042-3.333,32.706
		c-9.498,1.499-19.329,1.166-24.494,1.666c0.167-10.164-1.275-15.505-1.275-18.504c-3.166-0.5-6.832-0.666-8.665-0.333
		s-3,3.332-3.666,5.665s-2.057,10.505-2.724,14.671c-10.831,1.833-19.512,2.668-26.511,2.835c-1-15.497-0.829-25.622,1.333-40.04
		c1-6.667-8.265-8.691-5.667-17.666C37.799,141.75,43.428,140,49.428,147C58.339,151.117,70.006,153.253,79.044,153.253z"/>
</g>
<g id="Gewohnheiten_100" display="none">
	<g display="inline">
		<g>
			<path fill="none" stroke="#000000" d="M71.852,98.906C31.817,95.889,50.803,14.02,85.999,17.471
				C115.974,20.408,122.231,102.701,71.852,98.906z"/>
			<path fill="none" stroke="#000000" d="M49.941,59.402c-1.829-3.096-16.321-5.909-15.336,7.316
				c0.985,13.225,13.084,11.255,14.914,7.034"/>
			<path fill="none" stroke="#000000" d="M109.314,60.387c2.814-4.783,17.868-6.895,15.898,7.738s-15.054,15.195-18.994,8.441"/>
			<path fill="none" stroke="#000000" d="M60.187,95.334C54.52,101.5,45.77,116.5,39.52,136c3.502,2.68,6.95,3.647,10.95,2.98"/>
			<path fill="none" stroke="#000000" d="M60.52,116c-20.25,32.75-10.868,80.638-2.534,115.305
				c-13.91,1.054-22.943,7.195-27.61,12.195c7.424,0,9.484,0,14.985,0c4.044,0,8.047-3.2,10.728-3.765"/>
			<path fill="none" stroke="#000000" d="M54,243.5h17.52c-0.5-8-1.25-8.61-4-15.86s-2.167-49.179,0.583-59.929
				s17.167-11.488,17.917,1.262s3.25,54.653,2.75,60.903c-4,5.25-6.25,10.624-7.5,13.624c4.747,0,11.913,0,11.913,0
				c3.793-3,5.827-4.221,10.577-4.471"/>
			<path fill="none" stroke="#000000" d="M92.02,95.25c9.172,1.699,21.622,16.117,22.872,34.367c-4,1.5-7.474,2.794-12.224,3.794"/>
			<path fill="none" stroke="#000000" d="M94.385,112.89c16.96,27.577,5.692,102.694,2.192,116.444
				c10.5,0.5,24.943,8.166,27.193,14.166H98"/>
			<path fill="none" stroke="#000000" d="M67.02,24c-1,2.75,0,15.5,12,11.25c-11.75,8.5-28.25,33.5-1.5,38S104.27,52,96.27,37.5
				c1.25-3.75,3.75-6,4.5-9.75"/>
			<circle cx="82.02" cy="26.25" r="1.5"/>
			<circle cx="89.27" cy="26.25" r="1.5"/>
		</g>
		<pattern  id="SVGID_8_" xlink:href="#Design__x26__Training_12" patternTransform="matrix(0.5 0 0 0.5 -3981.2449 -4275.0864)">
		</pattern>
		<path fill="url(#SVGID_8_)" stroke="#000000" d="M79.044,153.253c5.005,0,26.384,1.081,28.05-7.586c9-1.333,12.833,4.668,10.667,7
			c-5.138,5.534-5.28,5.546-6,11.667c-2,17-1.334,23.042-3.333,32.706c-9.498,1.499-19.329,1.166-24.494,1.666
			c0.167-10.164-1.275-15.505-1.275-18.504c-3.166-0.5-6.832-0.666-8.665-0.333s-3,3.332-3.666,5.665s-2.057,10.505-2.724,14.671
			c-10.831,1.833-19.512,2.668-26.511,2.835c-1-15.497-0.829-25.622,1.333-40.04c1-6.667-8.265-8.691-5.667-17.666
			C37.799,141.75,43.428,140,49.428,147C58.339,151.117,70.006,153.253,79.044,153.253z"/>
	</g>
</g>
<g id="Verlauf" display="none">
	<g display="inline">
		<g>
			<path fill="none" stroke="#000000" d="M71.852,98.906C31.817,95.889,50.803,14.02,85.999,17.471
				C115.974,20.408,122.231,102.701,71.852,98.906z"/>
			<path fill="none" stroke="#000000" d="M49.941,59.402c-1.829-3.096-16.321-5.909-15.336,7.316
				c0.985,13.225,13.084,11.255,14.914,7.034"/>
			<path fill="none" stroke="#000000" d="M109.314,60.387c2.814-4.783,17.868-6.895,15.898,7.738s-15.054,15.195-18.994,8.441"/>
			<path fill="none" stroke="#000000" d="M60.187,95.334C54.52,101.5,45.77,116.5,39.52,136c3.502,2.68,6.95,3.647,10.95,2.98"/>
			<path fill="none" stroke="#000000" d="M60.52,116c-20.25,32.75-10.868,80.638-2.534,115.305
				c-13.91,1.054-22.943,7.195-27.61,12.195c7.424,0,9.484,0,14.985,0c4.044,0,8.047-3.2,10.728-3.765"/>
			<path fill="none" stroke="#000000" d="M54,243.5h17.52c-0.5-8-1.25-8.61-4-15.86s-2.167-49.179,0.583-59.929
				s17.167-11.488,17.917,1.262s3.25,54.653,2.75,60.903c-4,5.25-6.25,10.624-7.5,13.624c4.747,0,11.913,0,11.913,0
				c3.793-3,5.827-4.221,10.577-4.471"/>
			<path fill="none" stroke="#000000" d="M92.02,95.25c9.172,1.699,21.622,16.117,22.872,34.367c-4,1.5-7.474,2.794-12.224,3.794"/>
			<path fill="none" stroke="#000000" d="M94.385,112.89c16.96,27.577,5.692,102.694,2.192,116.444
				c10.5,0.5,24.943,8.166,27.193,14.166H98"/>
			<path fill="none" stroke="#000000" d="M67.02,24c-1,2.75,0,15.5,12,11.25c-11.75,8.5-28.25,33.5-1.5,38S104.27,52,96.27,37.5
				c1.25-3.75,3.75-6,4.5-9.75"/>
			<circle cx="82.02" cy="26.25" r="1.5"/>
			<circle cx="89.27" cy="26.25" r="1.5"/>
		</g>
	</g>
	<linearGradient id="SVGID_9_" gradientUnits="userSpaceOnUse" x1="132.7578" y1="262.1221" x2="-20.5752" y2="14.7891">
		<stop  offset="0.1" style="stop-color:#172533"/>
		<stop  offset="0.8" style="stop-color:#568CBE"/>
	</linearGradient>
	<path display="inline" fill="url(#SVGID_9_)" stroke="#000000" d="M79.044,153.253c5.005,0,26.384,1.081,28.05-7.586
		c9-1.333,12.833,4.668,10.667,7c-5.138,5.534-5.28,5.546-6,11.667c-2,17-1.334,23.042-3.333,32.706
		c-9.498,1.499-19.329,1.166-24.494,1.666c0.167-10.164-1.275-15.505-1.275-18.504c-3.166-0.5-6.832-0.666-8.665-0.333
		s-3,3.332-3.666,5.665s-2.057,10.505-2.724,14.671c-10.831,1.833-19.512,2.668-26.511,2.835c-1-15.497-0.829-25.622,1.333-40.04
		c1-6.667-8.265-8.691-5.667-17.666C37.799,141.75,43.428,140,49.428,147C58.339,151.117,70.006,153.253,79.044,153.253z"/>
</g>
<g id="DT_weiss_auf_transparent" display="none">
	<g display="inline" opacity="0.33">
		
			<pattern  id="SVGID_10_" xlink:href="#Design__x26__Training_15" patternTransform="matrix(0.5 0 0 0.5 -3981.2449 -4275.0864)"  opacity="0.33">
		</pattern>
		<path fill="url(#SVGID_10_)" stroke="#000000" d="M79.044,153.253c5.005,0,26.384,1.081,28.05-7.586
			c9-1.333,12.833,4.668,10.667,7c-5.138,5.534-5.28,5.546-6,11.667c-2,17-1.334,23.042-3.333,32.706
			c-9.498,1.499-19.329,1.166-24.494,1.666c0.167-10.164-1.275-15.505-1.275-18.504c-3.166-0.5-6.832-0.666-8.665-0.333
			s-3,3.332-3.666,5.665s-2.057,10.505-2.724,14.671c-10.831,1.833-19.512,2.668-26.511,2.835c-1-15.497-0.829-25.622,1.333-40.04
			c1-6.667-8.265-8.691-5.667-17.666C37.799,141.75,43.428,140,49.428,147C58.339,151.117,70.006,153.253,79.044,153.253z"/>
	</g>
</g>
<g id="Palette" display="none">
</g>
</svg>
