<?xml version="1.0" encoding="utf-8"?>
<!-- Generator: Adobe Illustrator 16.0.5, SVG Export Plug-In . SVG Version: 6.00 Build 0)  -->
<!DOCTYPE svg PUBLIC "-//W3C//DTD SVG 1.1//EN" "http://www.w3.org/Graphics/SVG/1.1/DTD/svg11.dtd">
<svg version="1.1" id="Ebene_1" xmlns="http://www.w3.org/2000/svg" xmlns:xlink="http://www.w3.org/1999/xlink" x="0px" y="0px"
	 width="256px" height="256px" viewBox="0 0 256 256" enable-background="new 0 0 256 256" xml:space="preserve">
<pattern  x="-467.5" y="548.5" width="200" height="200" patternUnits="userSpaceOnUse" id="SVGID_1_" viewBox="104.771 -252.258 200 200" overflow="visible">
	<g>
		<polygon fill="none" points="104.771,-52.258 304.771,-52.258 304.771,-252.258 104.771,-252.258 		"/>
		<g>
			<polygon fill="none" points="104.771,-252.258 304.771,-252.258 304.771,-52.258 104.771,-52.258 			"/>
			<g>
				<polygon fill="none" points="104.771,-52.258 304.771,-52.258 304.771,-252.258 104.771,-252.258 				"/>
				<g>
					<polygon fill="none" points="104.771,-52.258 304.771,-52.258 304.771,-252.258 104.771,-252.258 					"/>
					<g>
						<g>
							<g>
								<path fill="#CA4720" d="M300.824-238.783c-1.401,0-2.535-0.85-2.535-2.25c0-1.398,1.134-2.25,2.535-2.25h16.381
									c1.398,0,2.535,0.852,2.535,2.25c0,1.4-1.137,2.25-2.535,2.25H300.824z"/>
								<path fill="#CA4720" d="M251.679-238.783c-1.4,0-2.535-0.85-2.535-2.25c0-1.398,1.135-2.25,2.535-2.25h16.381
									c1.4,0,2.534,0.852,2.534,2.25c0,1.4-1.134,2.25-2.534,2.25H251.679z"/>
								<path fill="#CA4720" d="M202.535-238.783c-1.4,0-2.535-0.85-2.535-2.25c0-1.398,1.135-2.25,2.535-2.25h16.381
									c1.4,0,2.535,0.852,2.535,2.25c0,1.4-1.135,2.25-2.535,2.25H202.535z"/>
							</g>
							<path fill="#1B1B1B" d="M282.158-202.535v-81.906c0-1.4,0.849-2.533,2.25-2.533c1.4,0,2.25,1.133,2.25,2.533v81.906
								c0,1.4-0.85,2.535-2.25,2.535C283.006-199.999,282.158-201.135,282.158-202.535z"/>
							<path fill="#1B1B1B" d="M271.863-200.079h-39.205v-84.36c0-1.398,0.85-2.533,2.25-2.533c1.399,0,2.25,1.135,2.25,2.533v79.86
								h34.705c1.4,0,2.535,0.851,2.535,2.25C274.398-200.932,273.263-200.079,271.863-200.079z"/>
						</g>
					</g>
					<g>
						<g>
							<path fill="#1B1B1B" d="M130.757-202.535v-81.906c0-1.4,1.007-2.533,2.25-2.533c1.245,0,2.25,1.133,2.25,2.533v81.906
								c0,1.4-1.005,2.535-2.25,2.535C131.765-199.999,130.757-201.135,130.757-202.535z"/>
							<g>
								<path fill="#CA4720" d="M100.823-238.783c-1.401,0-2.535-0.85-2.535-2.25c0-1.398,1.134-2.25,2.535-2.25h16.381
									c1.399,0,2.535,0.852,2.535,2.25c0,1.4-1.136,2.25-2.535,2.25H100.823z"/>
							</g>
						</g>
						<g>
							<g>
								<path fill="#CA4720" d="M300.823-238.783c-1.4,0-2.534-0.85-2.534-2.25c0-1.398,1.134-2.25,2.534-2.25h16.381
									c1.399,0,2.535,0.852,2.535,2.25c0,1.4-1.136,2.25-2.535,2.25H300.823z"/>
								<path fill="#CA4720" d="M251.678-238.783c-1.399,0-2.535-0.85-2.535-2.25c0-1.398,1.136-2.25,2.535-2.25h16.383
									c1.399,0,2.533,0.852,2.533,2.25c0,1.4-1.134,2.25-2.533,2.25H251.678z"/>
								<path fill="#CA4720" d="M202.535-238.783c-1.4,0-2.534-0.85-2.534-2.25c0-1.398,1.134-2.25,2.534-2.25h16.381
									c1.399,0,2.535,0.852,2.535,2.25c0,1.4-1.136,2.25-2.535,2.25H202.535z"/>
							</g>
							<path fill="#1B1B1B" d="M282.157-202.535v-81.906c0-1.4,0.849-2.533,2.25-2.533c1.401,0,2.25,1.133,2.25,2.533v81.906
								c0,1.4-0.849,2.535-2.25,2.535C283.006-199.999,282.157-201.135,282.157-202.535z"/>
							<path fill="#1B1B1B" d="M271.863-200.079h-39.206v-84.36c0-1.398,0.851-2.533,2.25-2.533c1.401,0,2.25,1.135,2.25,2.533
								v79.86h34.706c1.399,0,2.535,0.851,2.535,2.25C274.398-200.932,273.262-200.079,271.863-200.079z"/>
						</g>
					</g>
					<g>
						<g>
							<path fill="#1B1B1B" d="M130.756-202.535v-81.906c0-1.4,1.008-2.533,2.25-2.533c1.245,0,2.25,1.133,2.25,2.533v81.906
								c0,1.4-1.005,2.535-2.25,2.535C131.764-199.999,130.756-201.135,130.756-202.535z"/>
							<g>
								<path fill="#CA4720" d="M100.823-238.783c-1.4,0-2.534-0.85-2.534-2.25c0-1.398,1.134-2.25,2.534-2.25h16.381
									c1.399,0,2.535,0.852,2.535,2.25c0,1.4-1.136,2.25-2.535,2.25H100.823z"/>
							</g>
						</g>
					</g>
					<g>
						<g>
							<path fill="#1B1B1B" d="M282.158-2.535v-81.906c0-1.4,0.849-2.533,2.25-2.533c1.4,0,2.25,1.133,2.25,2.533v81.906
								c0,1.4-0.85,2.535-2.25,2.535C283.006,0.001,282.158-1.135,282.158-2.535z"/>
							<path fill="#1B1B1B" d="M271.863-0.079h-39.205v-84.36c0-1.398,0.85-2.533,2.25-2.533c1.399,0,2.25,1.135,2.25,2.533v79.86
								h34.705c1.4,0,2.535,0.851,2.535,2.25C274.398-0.932,273.263-0.079,271.863-0.079z"/>
						</g>
						<g>
							<g>
								<path fill="#CA4720" d="M300.824-238.781c-1.401,0-2.535-0.852-2.535-2.25c0-1.4,1.134-2.25,2.535-2.25h16.381
									c1.398,0,2.535,0.85,2.535,2.25c0,1.398-1.137,2.25-2.535,2.25H300.824z"/>
								<path fill="#CA4720" d="M251.679-238.781c-1.4,0-2.535-0.852-2.535-2.25c0-1.4,1.135-2.25,2.535-2.25h16.381
									c1.4,0,2.534,0.85,2.534,2.25c0,1.398-1.134,2.25-2.534,2.25H251.679z"/>
								<path fill="#CA4720" d="M202.535-238.781c-1.4,0-2.535-0.852-2.535-2.25c0-1.4,1.135-2.25,2.535-2.25h16.381
									c1.4,0,2.535,0.85,2.535,2.25c0,1.398-1.135,2.25-2.535,2.25H202.535z"/>
							</g>
							<path fill="#1B1B1B" d="M282.158-202.535v-81.906c0-1.4,0.849-2.533,2.25-2.533c1.4,0,2.25,1.133,2.25,2.533v81.906
								c0,1.4-0.85,2.535-2.25,2.535C283.006-199.999,282.158-201.135,282.158-202.535z"/>
							<path fill="#1B1B1B" d="M271.863-200.081h-39.205v-84.356c0-1.4,0.85-2.535,2.25-2.535c1.399,0,2.25,1.135,2.25,2.535v79.856
								h34.705c1.4,0,2.535,0.854,2.535,2.25C274.398-200.932,273.263-200.081,271.863-200.081z"/>
						</g>
					</g>
					<g>
						<g>
							<path fill="#1B1B1B" d="M256.756-100.535v-81.906c0-1.4,1.008-2.533,2.25-2.533c1.245,0,2.25,1.133,2.25,2.533v81.906
								c0,1.4-1.005,2.535-2.25,2.535C257.764-97.999,256.756-99.135,256.756-100.535z"/>
							<g>
								<path fill="#CA4720" d="M226.823-136.783c-1.4,0-2.534-0.85-2.534-2.25c0-1.398,1.134-2.25,2.534-2.25h16.381
									c1.399,0,2.535,0.852,2.535,2.25c0,1.4-1.136,2.25-2.535,2.25H226.823z"/>
								<path fill="#CA4720" d="M177.678-136.783c-1.399,0-2.534-0.85-2.534-2.25c0-1.398,1.135-2.25,2.534-2.25h16.383
									c1.399,0,2.533,0.852,2.533,2.25c0,1.4-1.134,2.25-2.533,2.25H177.678z"/>
								<path fill="#CA4720" d="M128.535-136.783c-1.4,0-2.535-0.85-2.535-2.25c0-1.398,1.134-2.25,2.535-2.25h16.381
									c1.399,0,2.534,0.852,2.534,2.25c0,1.4-1.135,2.25-2.534,2.25H128.535z"/>
							</g>
							<path fill="#1B1B1B" d="M208.157-100.535v-81.906c0-1.4,0.849-2.533,2.25-2.533c1.401,0,2.25,1.133,2.25,2.533v81.906
								c0,1.4-0.849,2.535-2.25,2.535C209.006-97.999,208.157-99.135,208.157-100.535z"/>
							<path fill="#1B1B1B" d="M197.863-98.079h-39.206v-84.358c0-1.4,0.85-2.535,2.25-2.535c1.4,0,2.25,1.135,2.25,2.535v79.858
								h34.706c1.399,0,2.535,0.851,2.535,2.25C200.398-98.932,199.262-98.079,197.863-98.079z"/>
						</g>
						<g>
							<path fill="#1B1B1B" d="M130.757-2.535v-81.906c0-1.4,1.007-2.533,2.25-2.533c1.245,0,2.25,1.133,2.25,2.533v81.906
								c0,1.4-1.005,2.535-2.25,2.535C131.765,0.001,130.757-1.135,130.757-2.535z"/>
							<g>
								<path fill="#CA4720" d="M100.823-38.783c-1.401,0-2.535-0.85-2.535-2.25c0-1.398,1.134-2.25,2.535-2.25h16.381
									c1.399,0,2.535,0.852,2.535,2.25c0,1.4-1.136,2.25-2.535,2.25H100.823z"/>
								<path fill="#CA4720" d="M51.679-38.783c-1.4,0-2.535-0.85-2.535-2.25c0-1.398,1.135-2.25,2.535-2.25h16.382
									c1.4,0,2.534,0.852,2.534,2.25c0,1.4-1.134,2.25-2.534,2.25H51.679z"/>
								<path fill="#CA4720" d="M2.535-38.783c-1.4,0-2.535-0.85-2.535-2.25c0-1.398,1.134-2.25,2.535-2.25h16.381
									c1.399,0,2.534,0.852,2.534,2.25c0,1.4-1.135,2.25-2.534,2.25H2.535z"/>
							</g>
							<path fill="#1B1B1B" d="M82.157-2.535v-81.906c0-1.4,0.849-2.533,2.25-2.533c1.401,0,2.25,1.133,2.25,2.533v81.906
								c0,1.4-0.849,2.535-2.25,2.535C83.006,0.001,82.157-1.135,82.157-2.535z"/>
							<path fill="#1B1B1B" d="M71.863-0.079H32.657v-84.36c0-1.398,0.85-2.533,2.25-2.533c1.4,0,2.25,1.135,2.25,2.533v79.86
								h34.706c1.4,0,2.535,0.851,2.535,2.25C74.397-0.932,73.263-0.079,71.863-0.079z"/>
						</g>
						<g>
							<path fill="#1B1B1B" d="M330.756-2.535v-81.906c0-1.4,1.008-2.533,2.25-2.533c1.245,0,2.25,1.133,2.25,2.533v81.906
								c0,1.4-1.005,2.535-2.25,2.535C331.764,0.001,330.756-1.135,330.756-2.535z"/>
							<g>
								<path fill="#CA4720" d="M300.823-38.783c-1.4,0-2.534-0.85-2.534-2.25c0-1.398,1.134-2.25,2.534-2.25h16.381
									c1.399,0,2.535,0.852,2.535,2.25c0,1.4-1.136,2.25-2.535,2.25H300.823z"/>
								<path fill="#CA4720" d="M251.678-38.783c-1.399,0-2.535-0.85-2.535-2.25c0-1.398,1.136-2.25,2.535-2.25h16.383
									c1.399,0,2.533,0.852,2.533,2.25c0,1.4-1.134,2.25-2.533,2.25H251.678z"/>
								<path fill="#CA4720" d="M202.535-38.783c-1.4,0-2.534-0.85-2.534-2.25c0-1.398,1.134-2.25,2.534-2.25h16.381
									c1.399,0,2.535,0.852,2.535,2.25c0,1.4-1.136,2.25-2.535,2.25H202.535z"/>
							</g>
							<path fill="#1B1B1B" d="M282.157-2.535v-81.906c0-1.4,0.849-2.533,2.25-2.533c1.401,0,2.25,1.133,2.25,2.533v81.906
								c0,1.4-0.849,2.535-2.25,2.535C283.006,0.001,282.157-1.135,282.157-2.535z"/>
							<path fill="#1B1B1B" d="M271.863-0.079h-39.206v-84.36c0-1.398,0.851-2.533,2.25-2.533c1.401,0,2.25,1.135,2.25,2.533v79.86
								h34.706c1.399,0,2.535,0.851,2.535,2.25C274.398-0.932,273.262-0.079,271.863-0.079z"/>
						</g>
						<g>
							<path fill="#1B1B1B" d="M130.757-202.535v-81.906c0-1.4,1.007-2.533,2.25-2.533c1.245,0,2.25,1.133,2.25,2.533v81.906
								c0,1.4-1.005,2.535-2.25,2.535C131.765-199.999,130.757-201.135,130.757-202.535z"/>
							<g>
								<path fill="#CA4720" d="M100.823-238.781c-1.401,0-2.535-0.852-2.535-2.25c0-1.4,1.134-2.25,2.535-2.25h16.381
									c1.399,0,2.535,0.85,2.535,2.25c0,1.398-1.136,2.25-2.535,2.25H100.823z"/>
								<path fill="#CA4720" d="M51.679-238.781c-1.4,0-2.535-0.852-2.535-2.25c0-1.4,1.135-2.25,2.535-2.25h16.382
									c1.4,0,2.534,0.85,2.534,2.25c0,1.398-1.134,2.25-2.534,2.25H51.679z"/>
								<path fill="#CA4720" d="M2.535-238.781c-1.4,0-2.535-0.852-2.535-2.25c0-1.4,1.134-2.25,2.535-2.25h16.381
									c1.399,0,2.534,0.85,2.534,2.25c0,1.398-1.135,2.25-2.534,2.25H2.535z"/>
							</g>
							<path fill="#1B1B1B" d="M82.157-202.535v-81.906c0-1.4,0.849-2.533,2.25-2.533c1.401,0,2.25,1.133,2.25,2.533v81.906
								c0,1.4-0.849,2.535-2.25,2.535C83.006-199.999,82.157-201.135,82.157-202.535z"/>
							<path fill="#1B1B1B" d="M71.863-200.081H32.657v-84.356c0-1.4,0.85-2.535,2.25-2.535c1.4,0,2.25,1.135,2.25,2.535v79.856
								h34.706c1.4,0,2.535,0.854,2.535,2.25C74.397-200.932,73.263-200.081,71.863-200.081z"/>
						</g>
						<g>
							<path fill="#1B1B1B" d="M330.756-202.535v-81.906c0-1.4,1.008-2.533,2.25-2.533c1.245,0,2.25,1.133,2.25,2.533v81.906
								c0,1.4-1.005,2.535-2.25,2.535C331.764-199.999,330.756-201.135,330.756-202.535z"/>
							<g>
								<path fill="#CA4720" d="M300.823-238.781c-1.4,0-2.534-0.852-2.534-2.25c0-1.4,1.134-2.25,2.534-2.25h16.381
									c1.399,0,2.535,0.85,2.535,2.25c0,1.398-1.136,2.25-2.535,2.25H300.823z"/>
								<path fill="#CA4720" d="M251.678-238.781c-1.399,0-2.535-0.852-2.535-2.25c0-1.4,1.136-2.25,2.535-2.25h16.383
									c1.399,0,2.533,0.85,2.533,2.25c0,1.398-1.134,2.25-2.533,2.25H251.678z"/>
								<path fill="#CA4720" d="M202.535-238.781c-1.4,0-2.534-0.852-2.534-2.25c0-1.4,1.134-2.25,2.534-2.25h16.381
									c1.399,0,2.535,0.85,2.535,2.25c0,1.398-1.136,2.25-2.535,2.25H202.535z"/>
							</g>
							<path fill="#1B1B1B" d="M282.157-202.535v-81.906c0-1.4,0.849-2.533,2.25-2.533c1.401,0,2.25,1.133,2.25,2.533v81.906
								c0,1.4-0.849,2.535-2.25,2.535C283.006-199.999,282.157-201.135,282.157-202.535z"/>
							<path fill="#1B1B1B" d="M271.863-200.081h-39.206v-84.356c0-1.4,0.851-2.535,2.25-2.535c1.401,0,2.25,1.135,2.25,2.535
								v79.856h34.706c1.399,0,2.535,0.854,2.535,2.25C274.398-200.932,273.262-200.081,271.863-200.081z"/>
						</g>
					</g>
					<g>
						<g>
							<path fill="#1B1B1B" d="M130.756-2.535v-81.906c0-1.4,1.008-2.533,2.25-2.533c1.245,0,2.25,1.133,2.25,2.533v81.906
								c0,1.4-1.005,2.535-2.25,2.535C131.764,0.001,130.756-1.135,130.756-2.535z"/>
						</g>
						<g>
							<path fill="#1B1B1B" d="M130.756-202.535v-81.906c0-1.4,1.008-2.533,2.25-2.533c1.245,0,2.25,1.133,2.25,2.533v81.906
								c0,1.4-1.005,2.535-2.25,2.535C131.764-199.999,130.756-201.135,130.756-202.535z"/>
							<g>
								<path fill="#CA4720" d="M100.823-238.781c-1.4,0-2.534-0.852-2.534-2.25c0-1.4,1.134-2.25,2.534-2.25h16.381
									c1.399,0,2.535,0.85,2.535,2.25c0,1.398-1.136,2.25-2.535,2.25H100.823z"/>
							</g>
						</g>
					</g>
					<g>
						<g>
							<path fill="#1B1B1B" d="M282.158-2.535v-81.906c0-1.4,0.849-2.533,2.25-2.533c1.4,0,2.25,1.133,2.25,2.533v81.906
								c0,1.4-0.85,2.535-2.25,2.535C283.006,0.001,282.158-1.135,282.158-2.535z"/>
							<path fill="#1B1B1B" d="M271.863-0.081h-39.205v-84.356c0-1.4,0.85-2.535,2.25-2.535c1.399,0,2.25,1.135,2.25,2.535v79.856
								h34.705c1.4,0,2.535,0.854,2.535,2.25C274.398-0.932,273.263-0.081,271.863-0.081z"/>
						</g>
					</g>
					<g>
						<g>
							<path fill="#1B1B1B" d="M130.757-2.535v-81.906c0-1.4,1.007-2.533,2.25-2.533c1.245,0,2.25,1.133,2.25,2.533v81.906
								c0,1.4-1.005,2.535-2.25,2.535C131.765,0.001,130.757-1.135,130.757-2.535z"/>
						</g>
						<g>
							<path fill="#1B1B1B" d="M282.157-2.535v-81.906c0-1.4,0.849-2.533,2.25-2.533c1.401,0,2.25,1.133,2.25,2.533v81.906
								c0,1.4-0.849,2.535-2.25,2.535C283.006,0.001,282.157-1.135,282.157-2.535z"/>
							<path fill="#1B1B1B" d="M271.863-0.081h-39.206v-84.356c0-1.4,0.851-2.535,2.25-2.535c1.401,0,2.25,1.135,2.25,2.535v79.856
								h34.706c1.399,0,2.535,0.854,2.535,2.25C274.398-0.932,273.262-0.081,271.863-0.081z"/>
						</g>
					</g>
					<g>
						<g>
							<path fill="#1B1B1B" d="M130.756-2.535v-81.906c0-1.4,1.008-2.533,2.25-2.533c1.245,0,2.25,1.133,2.25,2.533v81.906
								c0,1.4-1.005,2.535-2.25,2.535C131.764,0.001,130.756-1.135,130.756-2.535z"/>
						</g>
					</g>
				</g>
			</g>
		</g>
	</g>
</pattern>
<g id="Ebene_1_1_">
	<g id="Logo_FH_Hannover" display="none">
		<g display="inline">
			<path fill="#1B1B1B" d="M386.188,77.899V220.1c0,2.433,1.974,4.399,4.4,4.399c2.432,0,4.398-1.97,4.398-4.399V77.899
				c0-2.43-1.969-4.399-4.398-4.399C388.159,73.5,386.188,75.47,386.188,77.899z"/>
			<g>
				<path fill="#CA4720" d="M333.709,140.46c-2.43,0-4.398,1.97-4.398,4.399c0,2.431,1.969,4.398,4.398,4.398h28.439
					c2.432,0,4.398-1.97,4.398-4.398c0-2.43-1.97-4.399-4.398-4.399H333.709z"/>
				<path fill="#CA4720" d="M248.389,140.46c-2.43,0-4.4,1.97-4.4,4.399c0,2.431,1.972,4.398,4.4,4.398h28.441
					c2.432,0,4.398-1.97,4.398-4.398c0-2.43-1.971-4.399-4.398-4.399H248.389z"/>
				<path fill="#CA4720" d="M163.068,140.46c-2.43,0-4.399,1.97-4.399,4.399c0,2.431,1.97,4.398,4.399,4.398h28.439
					c2.432,0,4.4-1.97,4.4-4.398c0-2.43-1.971-4.399-4.4-4.399H163.068z"/>
			</g>
			<path fill="#1B1B1B" d="M300.87,77.899V220.1c0,2.433,1.969,4.399,4.399,4.399c2.43,0,4.396-1.97,4.396-4.399V77.899
				c0-2.43-1.971-4.399-4.396-4.399C302.839,73.5,300.87,75.47,300.87,77.899z"/>
			<path fill="#1B1B1B" d="M215.55,73.5v146.6c0,2.434,1.97,4.4,4.4,4.4c2.43,0,4.399-1.971,4.399-4.4c0,0,0-129.536,0-137.8
				c7.619,0,58.904,0,58.904,0c2.432,0,4.398-1.97,4.398-4.4s-1.971-4.399-4.398-4.399L215.55,73.5L215.55,73.5z"/>
		</g>
		
			<rect x="141.068" y="13.239" display="inline" fill="none" stroke="#1B1B1B" stroke-width="0.1664" width="271.522" height="271.524"/>
	</g>
	<g id="Muster_Logo_FH_Hannover" display="none">
		<rect x="149.331" y="50.771" display="inline" fill="none" width="200" height="200"/>
		<g display="inline">
			<path fill="#1B1B1B" d="M310.331,88.495v91.009c0,1.557,1.119,2.814,2.5,2.814c1.383,0,2.5-1.26,2.5-2.814V88.495
				c0-1.555-1.117-2.815-2.5-2.815C311.45,85.68,310.331,86.94,310.331,88.495z"/>
			<g>
				<path fill="#CA4720" d="M277.07,128.771c-1.557,0-2.815,0.942-2.815,2.5c0,1.556,1.261,2.5,2.815,2.5h18.201
					c1.556,0,2.814-0.944,2.814-2.5c0-1.558-1.262-2.5-2.814-2.5H277.07z"/>
				<path fill="#CA4720" d="M222.466,128.771c-1.555,0-2.815,0.942-2.815,2.5c0,1.556,1.262,2.5,2.815,2.5h18.202
					c1.557,0,2.814-0.944,2.814-2.5c0-1.558-1.26-2.5-2.814-2.5H222.466z"/>
				<path fill="#CA4720" d="M167.861,128.771c-1.557,0-2.816,0.942-2.816,2.5c0,1.556,1.26,2.5,2.816,2.5h18.201
					c1.556,0,2.815-0.944,2.815-2.5c0-1.558-1.261-2.5-2.815-2.5H167.861z"/>
			</g>
			<path fill="#1B1B1B" d="M256.331,88.495v91.009c0,1.557,0.942,2.814,2.5,2.814s2.5-1.26,2.5-2.814V88.495
				c0-1.555-0.942-2.815-2.5-2.815S256.331,86.94,256.331,88.495z"/>
			<path fill="#1B1B1B" d="M244.893,85.771h-43.562v93.733c0,1.557,0.944,2.814,2.5,2.814s2.5-1.26,2.5-2.814V90.771h38.562
				c1.558,0,2.816-0.945,2.816-2.5C247.709,86.715,246.447,85.771,244.893,85.771z"/>
		</g>
		<g display="inline">
			<path fill="#1B1B1B" d="M182.331-3.505v91.009c0,1.556,1.119,2.815,2.5,2.815c1.383,0,2.5-1.26,2.5-2.815V-3.505
				c0-1.555-1.117-2.815-2.5-2.815C183.45-6.32,182.331-5.06,182.331-3.505z"/>
			<g>
				<path fill="#CA4720" d="M149.07,36.771c-1.557,0-2.815,0.944-2.815,2.5s1.261,2.5,2.815,2.5h18.201
					c1.556,0,2.815-0.944,2.815-2.5s-1.262-2.5-2.815-2.5H149.07z"/>
				<path fill="#CA4720" d="M94.466,36.771c-1.555,0-2.815,0.944-2.815,2.5s1.261,2.5,2.815,2.5h18.202
					c1.557,0,2.814-0.944,2.814-2.5s-1.26-2.5-2.814-2.5H94.466z"/>
				<path fill="#CA4720" d="M39.861,36.771c-1.556,0-2.816,0.944-2.816,2.5s1.26,2.5,2.816,2.5h18.202
					c1.555,0,2.816-0.944,2.816-2.5s-1.261-2.5-2.816-2.5H39.861z"/>
			</g>
			<path fill="#1B1B1B" d="M128.331-3.505v91.009c0,1.556,0.942,2.815,2.5,2.815s2.5-1.26,2.5-2.815V-3.505
				c0-1.555-0.942-2.815-2.5-2.815S128.331-5.06,128.331-3.505z"/>
			<path fill="#1B1B1B" d="M116.893-6.229H73.331v93.733c0,1.556,0.944,2.815,2.5,2.815s2.5-1.26,2.5-2.815V-1.229h38.562
				c1.557,0,2.816-0.945,2.816-2.5C119.709-5.285,118.447-6.229,116.893-6.229z"/>
		</g>
		<g display="inline">
			<path fill="#1B1B1B" d="M382.331-3.505v91.009c0,1.556,1.118,2.815,2.5,2.815c1.383,0,2.5-1.26,2.5-2.815V-3.505
				c0-1.555-1.117-2.815-2.5-2.815C383.45-6.32,382.331-5.06,382.331-3.505z"/>
			<g>
				<path fill="#CA4720" d="M349.07,36.771c-1.557,0-2.815,0.944-2.815,2.5s1.261,2.5,2.815,2.5h18.201
					c1.556,0,2.814-0.944,2.814-2.5s-1.262-2.5-2.814-2.5H349.07z"/>
				<path fill="#CA4720" d="M294.466,36.771c-1.555,0-2.815,0.944-2.815,2.5s1.264,2.5,2.815,2.5h18.202
					c1.557,0,2.814-0.944,2.814-2.5s-1.26-2.5-2.814-2.5H294.466z"/>
				<path fill="#CA4720" d="M239.861,36.771c-1.557,0-2.816,0.944-2.816,2.5s1.26,2.5,2.816,2.5h18.201
					c1.557,0,2.814-0.944,2.814-2.5s-1.261-2.5-2.814-2.5H239.861z"/>
			</g>
			<path fill="#1B1B1B" d="M328.331-3.505v91.009c0,1.556,0.942,2.815,2.5,2.815s2.5-1.26,2.5-2.815V-3.505
				c0-1.555-0.942-2.815-2.5-2.815S328.331-5.06,328.331-3.505z"/>
			<path fill="#1B1B1B" d="M316.893-6.229h-43.562v93.733c0,1.556,0.944,2.815,2.5,2.815s2.5-1.26,2.5-2.815V-1.229h38.562
				c1.559,0,2.816-0.945,2.816-2.5C319.709-5.285,318.447-6.229,316.893-6.229z"/>
		</g>
		<g display="inline">
			<path fill="#1B1B1B" d="M182.331,196.495v91.009c0,1.557,1.119,2.814,2.5,2.814c1.383,0,2.5-1.26,2.5-2.814v-91.009
				c0-1.556-1.117-2.815-2.5-2.815C183.45,193.68,182.331,194.939,182.331,196.495z"/>
			<g>
				<path fill="#CA4720" d="M149.07,236.771c-1.557,0-2.815,0.941-2.815,2.5c0,1.556,1.261,2.5,2.815,2.5h18.201
					c1.556,0,2.815-0.944,2.815-2.5c0-1.559-1.262-2.5-2.815-2.5H149.07z"/>
				<path fill="#CA4720" d="M94.466,236.771c-1.555,0-2.815,0.941-2.815,2.5c0,1.556,1.261,2.5,2.815,2.5h18.202
					c1.557,0,2.814-0.944,2.814-2.5c0-1.559-1.26-2.5-2.814-2.5H94.466z"/>
				<path fill="#CA4720" d="M39.861,236.771c-1.556,0-2.816,0.941-2.816,2.5c0,1.556,1.26,2.5,2.816,2.5h18.202
					c1.555,0,2.816-0.944,2.816-2.5c0-1.559-1.261-2.5-2.816-2.5H39.861z"/>
			</g>
			<path fill="#1B1B1B" d="M128.331,196.495v91.009c0,1.557,0.942,2.814,2.5,2.814s2.5-1.26,2.5-2.814v-91.009
				c0-1.556-0.942-2.815-2.5-2.815S128.331,194.939,128.331,196.495z"/>
			<path fill="#1B1B1B" d="M116.893,193.771H73.331v93.73c0,1.559,0.944,2.812,2.5,2.812s2.5-1.26,2.5-2.812v-88.73h38.562
				c1.557,0,2.816-0.945,2.816-2.5C119.709,194.715,118.447,193.771,116.893,193.771z"/>
		</g>
		<g display="inline">
			<path fill="#1B1B1B" d="M382.331,196.495v91.009c0,1.557,1.118,2.814,2.5,2.814c1.383,0,2.5-1.26,2.5-2.814v-91.009
				c0-1.556-1.117-2.815-2.5-2.815C383.45,193.68,382.331,194.939,382.331,196.495z"/>
			<g>
				<path fill="#CA4720" d="M349.07,236.771c-1.557,0-2.815,0.941-2.815,2.5c0,1.556,1.261,2.5,2.815,2.5h18.201
					c1.556,0,2.814-0.944,2.814-2.5c0-1.559-1.262-2.5-2.814-2.5H349.07z"/>
				<path fill="#CA4720" d="M294.466,236.771c-1.555,0-2.815,0.941-2.815,2.5c0,1.556,1.264,2.5,2.815,2.5h18.202
					c1.557,0,2.814-0.944,2.814-2.5c0-1.559-1.26-2.5-2.814-2.5H294.466z"/>
				<path fill="#CA4720" d="M239.861,236.771c-1.557,0-2.816,0.941-2.816,2.5c0,1.556,1.26,2.5,2.816,2.5h18.201
					c1.557,0,2.814-0.944,2.814-2.5c0-1.559-1.261-2.5-2.814-2.5H239.861z"/>
			</g>
			<path fill="#1B1B1B" d="M328.331,196.495v91.009c0,1.557,0.942,2.814,2.5,2.814s2.5-1.26,2.5-2.814v-91.009
				c0-1.556-0.942-2.815-2.5-2.815S328.331,194.939,328.331,196.495z"/>
			<path fill="#1B1B1B" d="M316.893,193.771h-43.562v93.73c0,1.559,0.944,2.812,2.5,2.812s2.5-1.26,2.5-2.812v-88.73h38.562
				c1.559,0,2.816-0.945,2.816-2.5C319.709,194.715,318.447,193.771,316.893,193.771z"/>
		</g>
		<pattern  id="SVGID_2_" xlink:href="#SVGID_1_" patternTransform="matrix(0.1404 0 0 -0.1297 -25503.4395 -4831.916)">
		</pattern>
		
			<rect x="-235.169" y="-92.229" display="inline" fill="url(#SVGID_2_)" stroke="#FFFFFF" stroke-width="5" width="160" height="250"/>
	</g>
	<g id="Backup" display="none">
		<rect x="149.331" y="50.771" display="inline" fill="none" width="200" height="200"/>
		<g display="inline">
			<path fill="#1B1B1B" d="M359.331,79.899V222.1c0,2.433,1.841,4.399,4,4.399c2.161,0,4-1.97,4-4.399V79.899
				c0-2.43-1.839-4.399-4-4.399C361.172,75.5,359.331,77.47,359.331,79.899z"/>
			<g>
				<path fill="#CA4720" d="M306.709,142.771c-2.43,0-4.398,1.568-4.398,4c0,2.431,1.969,4,4.398,4h28.439
					c2.432,0,4.398-1.57,4.398-4c0-2.432-1.97-4-4.398-4H306.709z"/>
				<path fill="#CA4720" d="M221.389,142.771c-2.43,0-4.4,1.568-4.4,4c0,2.431,1.972,4,4.4,4h28.441c2.432,0,4.398-1.57,4.398-4
					c0-2.432-1.971-4-4.398-4H221.389z"/>
				<path fill="#CA4720" d="M136.068,142.771c-2.43,0-4.399,1.568-4.399,4c0,2.431,1.97,4,4.399,4h28.44c2.431,0,4.4-1.57,4.4-4
					c0-2.432-1.972-4-4.4-4H136.068z"/>
			</g>
			<path fill="#1B1B1B" d="M274.331,79.899V222.1c0,2.433,1.569,4.399,4,4.399s4-1.97,4-4.399V79.899c0-2.43-1.569-4.399-4-4.399
				S274.331,77.47,274.331,79.899z"/>
			<path fill="#1B1B1B" d="M256.432,75.771h-68.101V222.1c0,2.434,1.569,4.4,4,4.4s4-1.971,4-4.4V83.771h60.101
				c2.43,0,4.399-1.569,4.399-4S258.861,75.771,256.432,75.771z"/>
		</g>
	</g>
	<g id="Logo_FH" display="none">
		<g display="inline">
			<path fill="#1B1B1B" d="M359.331,79.899V222.1c0,2.433,1.841,4.399,4,4.399c2.161,0,4-1.97,4-4.399V79.899
				c0-2.43-1.839-4.399-4-4.399C361.172,75.5,359.331,77.47,359.331,79.899z"/>
			<g>
				<path fill="#CA4720" d="M306.709,142.771c-2.43,0-4.398,1.568-4.398,4c0,2.431,1.969,4,4.398,4h28.439
					c2.432,0,4.398-1.57,4.398-4c0-2.432-1.97-4-4.398-4H306.709z"/>
				<path fill="#CA4720" d="M221.389,142.771c-2.43,0-4.4,1.568-4.4,4c0,2.431,1.972,4,4.4,4h28.441c2.432,0,4.398-1.57,4.398-4
					c0-2.432-1.971-4-4.398-4H221.389z"/>
				<path fill="#CA4720" d="M136.068,142.771c-2.43,0-4.399,1.568-4.399,4c0,2.431,1.97,4,4.399,4h28.44c2.431,0,4.4-1.57,4.4-4
					c0-2.432-1.972-4-4.4-4H136.068z"/>
			</g>
			<path fill="#1B1B1B" d="M274.331,79.899V222.1c0,2.433,1.569,4.399,4,4.399s4-1.97,4-4.399V79.899c0-2.43-1.569-4.399-4-4.399
				S274.331,77.47,274.331,79.899z"/>
			<path fill="#1B1B1B" d="M256.432,75.771h-68.101V222.1c0,2.434,1.569,4.4,4,4.4s4-1.971,4-4.4V83.771h60.101
				c2.43,0,4.399-1.569,4.399-4S258.861,75.771,256.432,75.771z"/>
		</g>
	</g>
</g>
<g id="Dimension_Layer">
</g>
<g id="Logo_FH_DT_Farbe">
	<g>
		<path d="M246.372,61.021v154.625c0,2.645,2.175,4.787,4.522,4.787c2.351,0,4.521-2.142,4.521-4.787V61.021
			c0-2.643-2.172-4.785-4.521-4.785C248.547,56.237,246.372,58.379,246.372,61.021z"/>
		<g>
			<path fill="#6A6A6A" d="M189.755,128.945c-2.642,0-4.786,1.881-4.786,4.521c0,2.643,2.143,4.523,4.786,4.523h30.927
				c2.645,0,4.785-1.881,4.785-4.523c0-2.642-2.142-4.521-4.785-4.521H189.755z"/>
			<path fill="#6A6A6A" d="M96.978,128.945c-2.643,0-4.784,1.881-4.784,4.521c0,2.643,2.142,4.523,4.784,4.523h30.927
				c2.643,0,4.785-1.881,4.785-4.523c0-2.642-2.141-4.521-4.785-4.521H96.978z"/>
			<path fill="#6A6A6A" d="M4.201,128.945c-2.643,0-4.784,1.881-4.784,4.521c0,2.643,2.142,4.523,4.784,4.523h30.926
				c2.643,0,4.784-1.881,4.784-4.523c0-2.642-2.14-4.521-4.784-4.521H4.201z"/>
		</g>
		<path d="M154.423,61.021v154.625c0,2.645,1.88,4.787,4.522,4.787c2.644,0,4.521-2.142,4.521-4.787V61.021
			c0-2.643-1.879-4.785-4.521-4.785C156.303,56.237,154.423,58.379,154.423,61.021z"/>
		<path d="M135.081,56.591H60.966v159.058c0,2.645,1.878,4.785,4.521,4.785c2.643,0,4.523-2.141,4.523-4.785V65.635h65.071
			c2.644,0,4.786-1.879,4.786-4.522C139.863,58.472,137.725,56.591,135.081,56.591z"/>
	</g>
</g>
</svg>
