<?xml version="1.0" encoding="utf-8"?>
<!-- Generator: Adobe Illustrator 16.0.5, SVG Export Plug-In . SVG Version: 6.00 Build 0)  -->
<!DOCTYPE svg PUBLIC "-//W3C//DTD SVG 1.1//EN" "http://www.w3.org/Graphics/SVG/1.1/DTD/svg11.dtd">
<svg version="1.1" id="svg3316" xmlns:svg="http://www.w3.org/2000/svg"
	 xmlns="http://www.w3.org/2000/svg" xmlns:xlink="http://www.w3.org/1999/xlink" x="0px" y="0px" width="256px" height="256px"
	 viewBox="0 0 256 256" enable-background="new 0 0 256 256" xml:space="preserve">
<g>
	<path d="M-0.498,117.183c12.945-1.278,24.126-4.813,32.432-9.309c1.84,0,4.658,0,4.658,0c0,66.41,0,66.41,0,73.231
		c0,7.731,9.087,9.818,16.919,9.818c0,1.037,0,3.487,0,3.487H0.747v-3.487c7.368,0,16.645-1.882,16.645-9.818
		c0-7.936,0-43.465,0-49.094c0-9.389-3.244-11.267-17.888-10.215C-0.498,120.002-0.498,117.183-0.498,117.183z"/>
	<path d="M113.972,178.605c1.791,0,4.319,0,4.319,0c-4.393,22.361-51.596,26.729-51.596-2.97V105.3c0,0-5.538,0-13.22,0
		c0-1.792,0-4.613,0-4.613c17.683-1.193,25.704-12.611,29.916-33.092c1.792,0,4.494,0,4.494,0c0,16.485,0,16.485,0,107.358
		C87.885,183.658,105.49,191.236,113.972,178.605z"/>
	<line fill="none" x1="143.357" y1="105.3" x2="143.357" y2="100.107"/>
	<path d="M225.121,105.3v-5.193h30.381v5.193c-5.839,0-10.072,4.965-13.312,11.963l-32.26,78.069h-4.27l-24.066-57.93l-28.504,57.93
		h-4.1c0,0-28.891-71.753-32.431-80.119c-1.875-4.439-5.289-9.913-15.189-9.913H87.885v-5.193h55.473v5.193
		c-7.924,0-11.9,3.659-9.215,10.597c2.676,6.91,22.53,55.473,22.53,55.473l21.507-43.016l-5.464-13.141
		c-2.901-6.657-8.198-9.913-15.698-9.913v-5.193h45.742v5.193c-7.787,0-16.047,3.084-11.605,12.643
		c4.437,9.56,22.02,49.839,22.02,49.839s19.971-46.596,21.848-51.545C236.895,111.288,236.717,105.3,225.121,105.3z"/>
	<circle fill="#6A6A6A" cx="23.653" cy="67.768" r="17.923"/>
</g>
</svg>
