<?xml version="1.0" encoding="utf-8"?>
<!-- Generator: Adobe Illustrator 16.0.5, SVG Export Plug-In . SVG Version: 6.00 Build 0)  -->
<!DOCTYPE svg PUBLIC "-//W3C//DTD SVG 1.1//EN" "http://www.w3.org/Graphics/SVG/1.1/DTD/svg11.dtd">
<svg version="1.1" id="svg3316" xmlns:svg="http://www.w3.org/2000/svg"
	 xmlns="http://www.w3.org/2000/svg" xmlns:xlink="http://www.w3.org/1999/xlink" x="0px" y="0px" width="256px" height="256px"
	 viewBox="0 0 256 256" enable-background="new 0 0 256 256" xml:space="preserve">
<g id="layer1" transform="translate(-106.8928,-154.992)">
	<g id="g4883" transform="translate(1.337025,0.917875)">
		<path fill="#4B4B4B" d="M105.556,154.074v256h256v-256H105.556L105.556,154.074z M131.516,396.59
			c-8.503,0-15.383-6.873-15.383-15.385c0-8.465,6.88-15.336,15.383-15.336c8.505,0,15.381,6.871,15.381,15.336
			C146.897,389.703,140.022,396.59,131.516,396.59z M131.516,358.629c-8.503,0-15.383-6.914-15.383-15.381
			c0-8.504,6.88-15.385,15.383-15.385c8.505,0,15.381,6.881,15.381,15.385C146.897,351.715,140.022,358.629,131.516,358.629z
			 M131.516,320.633c-8.503,0-15.383-6.879-15.383-15.381c0-8.504,6.88-15.385,15.383-15.385c8.505,0,15.381,6.881,15.381,15.385
			C146.897,313.754,140.022,320.633,131.516,320.633z M131.516,272.895c-8.503,0-15.383-6.88-15.383-15.383
			c0-8.506,6.88-15.384,15.383-15.384c8.505,0,15.381,6.876,15.381,15.384C146.897,266.017,140.022,272.895,131.516,272.895z
			 M131.516,234.905c-8.503,0-15.383-6.879-15.383-15.388c0-8.503,6.88-15.381,15.383-15.381c8.505,0,15.381,6.88,15.381,15.381
			C146.897,228.027,140.022,234.905,131.516,234.905z M131.516,196.906c-8.503,0-15.383-6.875-15.383-15.382
			c0-8.505,6.88-15.383,15.383-15.383c8.505,0,15.381,6.878,15.381,15.383C146.897,190.03,140.022,196.906,131.516,196.906z
			 M169.659,358.629c-8.505,0-15.385-6.914-15.385-15.381c0-8.504,6.88-15.385,15.385-15.385c8.503,0,15.385,6.881,15.385,15.385
			C185.041,351.715,178.154,358.629,169.659,358.629z M169.659,234.905c-8.505,0-15.385-6.879-15.385-15.388
			c0-8.503,6.88-15.381,15.385-15.381c8.503,0,15.385,6.88,15.385,15.381C185.041,228.027,178.154,234.905,169.659,234.905z
			 M207.863,396.59c-8.503,0-15.383-6.873-15.383-15.385c0-8.465,6.878-15.336,15.383-15.336c8.507,0,15.386,6.871,15.386,15.336
			C223.249,389.703,216.371,396.59,207.863,396.59z M207.863,320.633c-8.503,0-15.383-6.879-15.383-15.381
			c0-8.504,6.878-15.385,15.383-15.385c8.507,0,15.386,6.881,15.386,15.385C223.249,313.754,216.371,320.633,207.863,320.633z
			 M207.863,272.895c-8.503,0-15.383-6.88-15.383-15.383c0-8.506,6.878-15.384,15.383-15.384c8.507,0,15.386,6.876,15.386,15.384
			C223.249,266.017,216.371,272.895,207.863,272.895z M207.863,234.905c-8.503,0-15.383-6.879-15.383-15.388
			c0-8.503,6.878-15.381,15.383-15.381c8.507,0,15.386,6.88,15.386,15.381C223.249,228.027,216.371,234.905,207.863,234.905z
			 M259.269,396.59c-8.51,0-15.381-6.873-15.381-15.385c0-8.465,6.871-15.336,15.381-15.336c8.467,0,15.385,6.871,15.385,15.336
			C274.653,389.703,267.737,396.59,259.269,396.59z M259.269,358.629c-8.51,0-15.381-6.914-15.381-15.381
			c0-8.504,6.871-15.385,15.381-15.385c8.467,0,15.385,6.881,15.385,15.385C274.653,351.715,267.737,358.629,259.269,358.629z
			 M259.269,320.633c-8.51,0-15.381-6.879-15.381-15.381c0-8.504,6.871-15.385,15.381-15.385c8.467,0,15.385,6.881,15.385,15.385
			C274.653,313.754,267.737,320.633,259.269,320.633z M259.269,272.895c-8.51,0-15.381-6.88-15.381-15.383
			c0-8.506,6.871-15.384,15.381-15.384c8.467,0,15.385,6.876,15.385,15.384C274.653,266.017,267.737,272.895,259.269,272.895z
			 M259.269,234.905c-8.51,0-15.381-6.879-15.381-15.388c0-8.503,6.871-15.381,15.381-15.381c8.467,0,15.385,6.88,15.385,15.381
			C274.653,228.027,267.737,234.905,259.269,234.905z M297.401,396.59c-8.496,0-15.385-6.873-15.385-15.385
			c0-8.465,6.889-15.336,15.385-15.336c8.508,0,15.381,6.871,15.381,15.336C312.782,389.703,305.911,396.59,297.401,396.59z
			 M297.401,358.629c-8.496,0-15.385-6.914-15.385-15.381c0-8.504,6.889-15.385,15.385-15.385c8.508,0,15.381,6.881,15.381,15.385
			C312.782,351.715,305.911,358.629,297.401,358.629z M297.401,272.895c-8.496,0-15.385-6.88-15.385-15.383
			c0-8.506,6.889-15.384,15.385-15.384c8.508,0,15.381,6.876,15.381,15.384C312.782,266.017,305.911,272.895,297.401,272.895z
			 M297.401,234.905c-8.496,0-15.385-6.879-15.385-15.388c0-8.503,6.889-15.381,15.385-15.381c8.508,0,15.381,6.88,15.381,15.381
			C312.782,228.027,305.911,234.905,297.401,234.905z M335.616,396.59c-8.51,0-15.381-6.873-15.381-15.385
			c0-8.465,6.871-15.336,15.381-15.336c8.494,0,15.383,6.871,15.383,15.336C350.999,389.703,344.112,396.59,335.616,396.59z
			 M335.616,358.629c-8.51,0-15.381-6.914-15.381-15.381c0-8.504,6.871-15.385,15.381-15.385c8.494,0,15.383,6.881,15.383,15.385
			C350.999,351.715,344.112,358.629,335.616,358.629z M335.616,272.895c-8.51,0-15.381-6.88-15.381-15.383
			c0-8.506,6.871-15.384,15.381-15.384c8.494,0,15.383,6.876,15.383,15.384C350.999,266.017,344.112,272.895,335.616,272.895z
			 M335.616,234.905c-8.51,0-15.381-6.879-15.381-15.388c0-8.503,6.871-15.381,15.381-15.381c8.494,0,15.383,6.88,15.383,15.381
			C350.999,228.027,344.112,234.905,335.616,234.905z M335.616,196.906c-8.51,0-15.381-6.875-15.381-15.382
			c0-8.505,6.871-15.383,15.381-15.383c8.494,0,15.383,6.878,15.383,15.383C350.999,190.03,344.112,196.906,335.616,196.906z"/>
	</g>
</g>
</svg>
