<?xml version="1.0" encoding="utf-8"?>
<!-- Generator: Adobe Illustrator 16.0.5, SVG Export Plug-In . SVG Version: 6.00 Build 0)  -->
<!DOCTYPE svg PUBLIC "-//W3C//DTD SVG 1.1//EN" "http://www.w3.org/Graphics/SVG/1.1/DTD/svg11.dtd">
<svg version="1.1" id="Ebene_1" xmlns="http://www.w3.org/2000/svg" xmlns:xlink="http://www.w3.org/1999/xlink" x="0px" y="0px"
	 width="256px" height="256px" viewBox="0 0 256 256" enable-background="new 0 0 256 256" xml:space="preserve">
<g id="Ebene_1_1_">
	<polyline fill="#FFFFFF" points="55.424,0.149 79.332,79.399 0.043,54.952 0.043,201.466 79.867,177.035 56.405,256 200.816,256 
		178.111,178.114 255.992,200.275 255.992,55.393 178.648,77.688 202.018,0.149 55.424,0.149 	"/>
	<path fill="#939393" d="M256,178.902c-23.186-8.756-62.312-22.439-104.404-27.389c4.971,42.057,18.66,81.166,27.422,104.334H76.987
		c8.759-23.168,22.45-62.277,27.409-104.334c-42.087,4.948-81.219,18.635-104.395,27.389V76.945
		c23.177,8.754,62.31,22.431,104.395,27.389C99.437,62.269,85.744,23.163,76.987,0h102.029
		c-8.761,23.167-22.449,62.271-27.42,104.335c42.092-4.957,81.219-18.634,104.403-27.389L256,178.902"/>
	<path fill="#313131" d="M68.805,68.78C62.546,42.19,52.948,17.746,46.849,0h15.873c10.505,26.735,21.864,64.682,25.626,88.301
		C64.704,84.542,26.739,73.184,0,62.678V46.814C17.746,52.922,42.212,62.503,68.805,68.78"/>
	<path fill="#313131" d="M68.805,187.074C42.211,193.331,17.749,202.924,0,209.02v-15.863
		c26.742-10.497,64.714-21.858,88.347-25.619c-3.762,23.628-15.124,61.581-25.626,88.314h-15.87
		C52.948,238.107,62.546,213.643,68.805,187.074"/>
	<path fill="#313131" d="M187.184,187.074c6.275,26.568,15.861,51.025,21.969,68.77h-15.875
		c-10.5-26.732-21.864-64.679-25.641-88.307c23.648,3.758,61.617,15.122,88.361,25.619v15.863
		C238.252,202.925,213.779,193.331,187.184,187.074"/>
	<path fill="#313131" d="M187.184,68.78c26.596-6.274,51.062-15.858,68.816-21.948v15.85c-26.748,10.502-64.715,21.857-88.361,25.62
		c3.771-23.621,15.139-61.566,25.639-88.301h15.875C203.045,17.746,193.453,42.189,187.184,68.78"/>
</g>
</svg>
