<?xml version="1.0" encoding="utf-8"?>
<!-- Generator: Adobe Illustrator 16.0.5, SVG Export Plug-In . SVG Version: 6.00 Build 0)  -->
<!DOCTYPE svg PUBLIC "-//W3C//DTD SVG 1.1//EN" "http://www.w3.org/Graphics/SVG/1.1/DTD/svg11.dtd">
<svg version="1.1" id="es" xmlns="http://www.w3.org/2000/svg" xmlns:xlink="http://www.w3.org/1999/xlink" x="0px" y="0px"
	 width="256px" height="256px" viewBox="0 0 256 256" enable-background="new 0 0 256 256" xml:space="preserve">
<g>
	<g>
		<defs>
			<rect id="SVGID_1_" x="16.62" y="0.441" width="222.76" height="255.118"/>
		</defs>
		<clipPath id="SVGID_2_">
			<use xlink:href="#SVGID_1_"  overflow="visible"/>
		</clipPath>
		<g clip-path="url(#SVGID_2_)">
			<path fill="#B4B4B4" d="M119.514-12.875c2.87,0.05,5.737,0.188,8.606,0.299c2.862,0.146,5.731,0.332,8.596,0.539
				c2.864,0.195,5.726,0.501,8.586,0.834c2.853,0.332,5.705,0.723,8.55,1.177c2.834,0.44,5.68,1.091,8.467,1.779
				c1.394,0.348,2.785,0.704,4.178,1.07c1.388,0.367,2.779,0.742,4.148,1.162c2.758,0.823,5.502,1.69,8.217,2.646
				c1.348,0.497,2.693,1.021,4.018,1.584c1.323,0.558,2.639,1.162,3.862,1.919c-1.286-0.642-2.632-1.14-3.981-1.605
				c-1.357-0.467-2.727-0.888-4.099-1.293c-2.735-0.834-5.5-1.583-8.272-2.294c-2.783-0.693-5.553-1.415-8.345-2.058
				c-1.392-0.321-2.79-0.636-4.185-0.918l-1.055-0.207c-0.337-0.064-0.703-0.122-1.049-0.183l-2.109-0.367
				c-2.818-0.486-5.652-0.91-8.49-1.281c-2.838-0.371-5.684-0.681-8.526-1.018c-2.854-0.325-5.702-0.604-8.556-0.887L119.514-12.875
				z"/>
			<path fill="#B4B4B4" d="M97.584-5.356c0.877-0.184,1.765-0.329,2.651-0.451h0.002h0.014c4.73-0.077,9.459-0.058,14.191,0.068
				c1.186,0.039,2.374,0.077,3.561,0.146c1.218,0.084,2.365,0.191,3.551,0.299l7.063,0.65c4.707,0.466,9.41,0.979,14.105,1.583
				c4.696,0.639,9.394,1.322,14.055,2.202l0.111,0.02l0.053,0.012l0.106,0.022l0.214,0.054l0.43,0.107l0.867,0.214l1.726,0.436
				c1.147,0.299,2.294,0.604,3.442,0.918c2.287,0.635,4.565,1.308,6.821,2.038c4.521,1.461,8.994,3.079,13.361,4.945
				c4.375,1.851,8.649,3.954,12.769,6.31c4.111,2.379,8.069,5.018,11.711,8.05c-7.787-5.389-16.304-9.515-25.061-12.93
				c-4.391-1.683-8.835-3.216-13.339-4.573c-2.257-0.674-4.513-1.324-6.784-1.936c-1.137-0.306-2.271-0.604-3.411-0.891
				l-1.714-0.424l-0.855-0.207l-0.437-0.1l-0.214-0.054l-0.03-0.008c0.019,0.008-0.069-0.015,0.03,0.008L156.52,1.14l-0.106-0.019
				c-4.636-0.838-9.285-1.599-13.951-2.249c-4.665-0.673-9.345-1.277-14.031-1.858L121.4-3.873l-3.497-0.443
				c-1.17-0.114-2.338-0.214-3.519-0.302c-4.705-0.352-9.422-0.661-14.14-0.96h0.012C99.365-5.532,98.473-5.464,97.584-5.356z"/>
			<path fill="#B4B4B4" d="M81.122,6.533c2.832-0.715,5.666-1.423,8.53-2.031c2.856-0.627,5.736-1.17,8.635-1.598
				c2.896-0.437,5.816-0.812,8.756-0.995c2.937-0.202,5.891-0.222,8.837-0.183l2.222,0.045l1.109,0.039l0.277,0.007h0.068
				l0.035,0.008c-0.089-0.012-0.002-0.008-0.014-0.008h0.136l0.561-0.007c1.516,0.007,3.016,0.084,4.514,0.225
				c2.993,0.271,5.928,0.812,8.796,1.473c2.859,0.65,5.664,1.393,8.464,1.958c1.397,0.291,2.794,0.544,4.187,0.742
				c0.697,0.1,1.394,0.195,2.088,0.268l1.041,0.104l1.104,0.096c1.441,0.126,2.896,0.26,4.388,0.421
				c1.49,0.16,3.004,0.366,4.559,0.733c0.775,0.184,1.562,0.406,2.352,0.704c0.195,0.068,0.401,0.153,0.592,0.233l0.468,0.194
				l0.979,0.383l4.079,1.515l8.226,3.071c2.742,1.028,5.479,2.091,8.132,3.346c2.669,1.238,5.3,2.547,7.977,3.743
				c2.671,1.205,5.331,2.444,7.955,3.752c2.615,1.319,5.231,2.65,7.767,4.138c2.513,1.495,5.018,3.052,7.174,5.04l-0.033,0.043
				c-1.098-0.964-2.312-1.783-3.553-2.548c-1.24-0.765-2.521-1.464-3.816-2.118c-2.604-1.312-5.266-2.509-7.97-3.599
				c-2.703-1.094-5.427-2.126-8.169-3.113c-2.738-0.998-5.549-1.797-8.352-2.615c-2.812-0.804-5.564-1.744-8.318-2.685l-8.307-2.765
				c-1.392-0.463-2.775-0.934-4.176-1.427l-1.066-0.386l-0.556-0.219c-0.141-0.05-0.282-0.106-0.428-0.153
				c-0.581-0.206-1.208-0.366-1.853-0.504c-2.615-0.528-5.514-0.696-8.441-0.972l-0.547-0.054l-0.524-0.042l-1.144-0.11
				c-0.762-0.088-1.51-0.184-2.258-0.306c-1.498-0.242-2.971-0.536-4.424-0.865c-2.914-0.661-5.76-1.41-8.559-2.184
				c-2.805-0.765-5.551-1.575-8.325-2.236c-1.386-0.321-2.786-0.597-4.188-0.796l-0.533-0.072l-0.136-0.016l-0.086-0.012
				l-0.032-0.008l-0.065-0.008l-0.27-0.041l-1.071-0.165c-0.718-0.1-1.428-0.198-2.148-0.275
				C104.235,2.453,92.493,3.921,81.122,6.533z"/>
			<path fill="#B4B4B4" d="M69.94,16.851c1.1-0.884,2.337-1.618,3.599-2.253c1.266-0.646,2.577-1.188,3.9-1.686
				c2.65-0.983,5.367-1.732,8.107-2.337c5.476-1.216,11.04-1.797,16.597-2.16l2.092-0.123l2.075-0.084l0.996-0.038l1.038-0.054
				l2.102-0.072c2.797-0.085,5.601-0.047,8.4,0.107c2.795,0.164,5.598,0.438,8.36,0.895c0.346,0.053,0.691,0.118,1.037,0.176
				l1.022,0.184c0.699,0.126,1.393,0.283,2.071,0.443c1.365,0.329,2.707,0.708,4.035,1.12l-0.161,0.938l-4.134-0.176
				c-0.677-0.03-1.361-0.042-2.03-0.05l-2.062-0.004c-2.734-0.004-5.445,0.054-8.164,0.184c-2.717,0.114-5.429,0.306-8.142,0.523
				c-1.367,0.11-2.66,0.257-4.119,0.353l-4.092,0.302c-5.443,0.428-10.868,0.986-16.287,1.507c-2.708,0.275-5.413,0.558-8.115,0.898
				C75.357,15.791,72.673,16.182,69.94,16.851z"/>
			<path fill="#B4B4B4" d="M62.569,25.475c1.52-0.934,3.122-1.652,4.743-2.265c1.62-0.619,3.272-1.132,4.936-1.567
				c1.664-0.437,3.343-0.784,5.029-1.09c1.685-0.317,3.371-0.62,5.055-0.914c6.75-1.174,13.521-2.172,20.322-3.021
				c3.396-0.428,6.803-0.795,10.229-1.109c3.427-0.305,6.852-0.58,10.369-0.634l5.135-0.027c1.701-0.008,3.41-0.026,5.119-0.008
				c3.432,0.02,6.869,0.077,10.318,0.241c3.455,0.168,6.921,0.439,10.387,0.906c1.729,0.233,3.461,0.513,5.178,0.864
				c0.86,0.18,1.721,0.363,2.578,0.574l2.5,0.623c6.646,1.663,13.301,3.556,19.795,5.942c1.614,0.601,3.234,1.201,4.825,1.894
				c1.587,0.688,3.12,1.499,4.627,2.374c1.499,0.876,2.964,1.812,4.423,2.754l4.357,2.769c2.898,1.847,5.693,3.847,8.372,5.976
				c1.338,1.062,2.635,2.18,3.893,3.326c1.276,1.14,2.485,2.333,3.687,3.549c-1.2-1.208-2.485-2.332-3.789-3.426
				c-1.319-1.079-2.686-2.096-4.072-3.067c-2.789-1.952-5.732-3.665-8.75-5.202c-1.503-0.78-3.057-1.461-4.639-2.073
				c-1.592-0.604-3.205-1.124-4.812-1.645s-3.212-1.036-4.784-1.613c-1.578-0.573-3.146-1.17-4.738-1.721
				c-6.348-2.211-12.85-3.947-19.452-5.48l-2.472-0.573c-0.804-0.18-1.609-0.345-2.422-0.494c-1.619-0.306-3.258-0.565-4.904-0.771
				c-3.301-0.422-6.637-0.662-9.992-0.796c-3.352-0.138-6.73-0.168-10.119-0.16l-10.186,0.007
				c-3.297,0.046-6.675,0.264-10.039,0.521c-3.369,0.264-6.741,0.597-10.114,0.94c-3.371,0.348-6.744,0.738-10.109,1.163
				c-3.369,0.412-6.734,0.856-10.09,1.342c-1.679,0.241-3.358,0.493-5.031,0.761c-1.671,0.275-3.346,0.528-5.028,0.734
				c-1.685,0.207-3.377,0.363-5.086,0.467c-1.708,0.104-3.427,0.16-5.205,0.092L62.569,25.475z"/>
			<path fill="#B4B4B4" d="M189.635,34.014c1.932,0.05,3.656,0.681,5.268,1.435c0.404,0.198,0.803,0.404,1.185,0.638l0.565,0.345
				l0.545,0.386c0.726,0.521,1.391,1.117,2.053,1.722c0.656,0.604,1.312,1.218,2.004,1.753c0.686,0.559,1.402,1.067,2.092,1.61
				c1.393,1.074,2.77,2.168,4.127,3.288c1.35,1.113,2.68,2.261,4,3.411c1.322,1.144,2.631,2.317,3.907,3.515
				c1.278,1.201,2.524,2.432,3.74,3.69c0.608,0.635,1.2,1.281,1.763,1.954c0.562,0.681,1.104,1.373,1.549,2.142l-0.236,0.145
				c-0.948-1.437-2.198-2.668-3.445-3.877c-1.266-1.192-2.562-2.348-3.889-3.465c-2.662-2.24-5.424-4.367-8.25-6.401
				c-2.813-2.042-5.705-3.978-8.627-5.828c-1.469-0.928-2.922-1.864-4.366-2.809l-4.378-2.788L189.635,34.014z"/>
			<path fill="#B4B4B4" d="M141.912,21.635c2.135-0.1,4.311-0.077,6.451,0.092c1.076,0.088,2.154,0.176,3.225,0.321
				c1.071,0.146,2.139,0.31,3.205,0.493c2.135,0.367,4.236,0.887,6.329,1.449c2.088,0.569,4.138,1.281,6.168,2.027
				c2.042,0.734,4.022,1.625,5.981,2.539c1.949,0.933,3.92,1.851,5.73,3.048c3.648,2.352,6.674,5.579,10.023,8.182
				c1.705,1.288,3.351,2.665,4.945,4.058c1.603,1.396,3.178,2.811,4.745,4.241c3.136,2.845,6.202,5.763,9.285,8.673
				c3.069,2.914,6.11,5.858,9.093,8.86c1.504,1.487,2.991,2.995,4.456,4.524c1.462,1.529,2.902,3.078,4.261,4.707l-0.035,0.026
				c-5.594-6.351-11.877-12.045-18.139-17.725c-3.146-2.833-6.353-5.591-9.578-8.321c-1.617-1.361-3.242-2.711-4.888-4.034
				c-0.823-0.658-1.647-1.312-2.479-1.95c-0.842-0.643-1.666-1.247-2.562-1.82c-3.487-2.373-7.437-3.987-11.134-5.868
				c-0.471-0.222-0.921-0.482-1.385-0.715c-0.454-0.245-0.924-0.471-1.381-0.72c-0.916-0.485-1.842-0.964-2.769-1.418
				c-1.858-0.926-3.755-1.76-5.659-2.59c-7.641-3.228-15.647-5.579-23.98-6.822L141.912,21.635z"/>
			<path fill="#B4B4B4" d="M55.523,36.541c2.523-2.329,5.478-3.924,8.457-5.43c1.493-0.75,3.021-1.423,4.583-1.997
				c1.559-0.584,3.151-1.07,4.748-1.537c3.184-0.94,6.421-1.697,9.677-2.332c3.251-0.65,6.532-1.159,9.812-1.592
				c6.564-0.879,13.161-1.529,19.795-1.689c6.629-0.169,13.3,0.068,19.932,1.044c1.66,0.249,3.32,0.539,4.973,0.895
				c0.818,0.18,1.641,0.371,2.459,0.585c0.83,0.206,1.637,0.436,2.43,0.666c3.188,0.917,6.34,1.931,9.457,3.017
				c3.125,1.082,6.197,2.287,9.25,3.521c3.055,1.255,6.069,2.59,9.062,3.967c1.499,0.685,2.982,1.399,4.417,2.229
				c0.719,0.397,1.419,0.849,2.122,1.277c0.695,0.451,1.393,0.903,2.076,1.371c1.373,0.933,2.75,1.843,4.134,2.737
				c1.389,0.888,2.805,1.714,4.192,2.594c2.783,1.747,5.537,3.525,8.215,5.418c1.338,0.945,2.66,1.916,3.945,2.938
				c1.276,1.024,2.531,2.092,3.684,3.277l-0.325,0.306c-1.086-1.193-2.341-2.245-3.634-3.228c-1.291-0.983-2.646-1.896-4.02-2.765
				c-1.381-0.868-2.783-1.702-4.21-2.481c-1.423-0.796-2.86-1.554-4.325-2.272c-1.457-0.727-2.914-1.449-4.416-2.088
				c-1.508-0.627-3.041-1.2-4.591-1.721l-2.317-0.796c-0.765-0.282-1.535-0.535-2.297-0.833c-1.521-0.566-3.002-1.216-4.486-1.866
				c-2.971-1.295-5.967-2.519-8.975-3.704c-3.004-1.201-6.043-2.31-9.084-3.399c-3.037-1.083-6.103-2.1-9.185-3.018
				c-0.772-0.229-1.538-0.447-2.292-0.65c-0.762-0.198-1.525-0.386-2.299-0.562c-1.536-0.353-3.098-0.658-4.664-0.918
				c-6.27-1.028-12.706-1.381-19.132-1.258c-6.429,0.142-12.869,0.695-19.223,1.789c-3.174,0.547-6.327,1.216-9.463,1.943
				c-3.131,0.741-6.239,1.56-9.335,2.401l-4.631,1.308c-1.547,0.429-3.107,0.818-4.683,1.193c-3.157,0.737-6.247,1.637-9.622,2.11
				L55.523,36.541z"/>
			<path fill="#B4B4B4" d="M47.701,48.177c0.99-1.454,2.285-2.612,3.643-3.622c1.36-1.014,2.818-1.87,4.321-2.597
				c3.026-1.415,6.114-2.648,9.228-3.799c3.126-1.113,6.295-2.069,9.473-2.982c3.196-0.846,6.401-1.634,9.629-2.33
				c6.459-1.361,12.958-2.516,19.526-3.227l2.461-0.253c0.822-0.076,1.648-0.13,2.473-0.191c1.647-0.107,3.3-0.191,4.951-0.249
				c0.827-0.026,1.652-0.049,2.48-0.049c0.828,0.008,1.656,0.022,2.484,0.049c1.657,0.058,3.313,0.153,4.962,0.379l-0.042,1.002
				c-1.626,0.122-3.239,0.26-4.854,0.452c-0.803,0.099-1.609,0.206-2.413,0.32l-2.411,0.329c-1.604,0.249-3.206,0.49-4.809,0.75
				l-4.798,0.818c-3.192,0.585-6.388,1.15-9.568,1.809c-3.188,0.612-6.37,1.266-9.535,1.996c-3.17,0.7-6.342,1.396-9.487,2.198
				c-3.161,0.744-6.311,1.552-9.429,2.458c-3.119,0.905-6.205,1.907-9.233,3.059c-1.519,0.566-3.02,1.167-4.536,1.752
				c-0.755,0.295-1.506,0.611-2.252,0.941C49.2,47.492,48.466,47.847,47.701,48.177z"/>
			<path fill="#B4B4B4" d="M39.58,59.588c1.538-1.652,3.297-3.082,5.102-4.429c0.902-0.673,1.82-1.33,2.748-1.977
				c0.926-0.646,1.854-1.293,2.824-1.863c1.928-1.154,4.004-1.983,6.054-2.849c2.053-0.853,4.122-1.671,6.201-2.459
				c4.143-1.599,8.354-2.994,12.579-4.317c4.224-1.334,8.486-2.537,12.77-3.665c4.284-1.125,8.587-2.169,12.929-3.094
				c4.343-0.918,8.713-1.759,13.239-2.181c8.928-0.787,17.85-0.627,26.718,0.448c2.218,0.264,4.428,0.6,6.623,1.028
				c2.207,0.429,4.39,0.964,6.578,1.549c2.187,0.589,4.387,1.235,6.516,2.191c1.071,0.467,2.126,1.002,3.137,1.652l0.674,0.444
				l0.656,0.422l1.357,0.825c3.688,2.18,7.477,4.443,11.294,6.597c3.835,2.157,7.815,4.004,11.763,5.958l2.967,1.45l1.491,0.749
				c0.489,0.264,0.999,0.501,1.526,0.887c1.805,1.351,3.49,2.735,5.195,4.135c3.42,2.788,6.725,5.702,9.994,8.669
				c3.211,3.01,6.371,6.089,9.373,9.323c0.745,0.808,1.487,1.629,2.207,2.463c0.358,0.421,0.717,0.842,1.065,1.27
				c0.333,0.406,0.729,0.812,1.079,1.239c1.402,1.694,2.691,3.595,3.17,5.759c-0.629-2.126-2.02-3.885-3.508-5.46
				c-0.37-0.406-0.752-0.766-1.145-1.193c-0.361-0.409-0.736-0.811-1.107-1.208c-0.756-0.796-1.521-1.576-2.303-2.349
				c-3.119-3.074-6.396-5.997-9.728-8.849c-3.294-2.899-6.679-5.694-10.056-8.49c-1.694-1.377-3.41-2.784-5.144-4.046
				c-0.362-0.268-0.853-0.505-1.334-0.753l-1.469-0.72c-0.983-0.474-1.981-0.937-2.981-1.376c-4.027-1.764-8.014-3.63-12.146-5.197
				c-2.073-0.772-4.143-1.561-6.211-2.391c-2.072-0.807-4.106-1.725-6.11-2.787c-0.505-0.257-0.995-0.552-1.496-0.85l-0.753-0.458
				c-0.252-0.157-0.512-0.345-0.695-0.468c-0.406-0.275-0.828-0.531-1.259-0.795c-0.425-0.26-0.86-0.513-1.305-0.757
				c-1.796-0.956-3.716-1.82-5.728-2.488c-0.998-0.344-2.026-0.619-3.06-0.879c-1.041-0.241-2.089-0.459-3.146-0.654
				c-2.106-0.387-4.24-0.692-6.387-0.93c-8.572-0.925-17.324-0.88-25.887,0.077c-4.221,0.481-8.484,1.392-12.72,2.386
				c-4.235,1-8.453,2.121-12.652,3.322c-4.197,1.2-8.367,2.493-12.517,3.835c-4.149,1.354-8.26,2.803-12.355,4.271
				c-2.046,0.741-4.077,1.515-6.092,2.317c-2.02,0.8-3.985,1.698-6.058,2.363c-1.03,0.344-2.09,0.635-3.136,0.957
				c-1.046,0.32-2.092,0.656-3.128,1.017C43.728,57.985,41.678,58.766,39.58,59.588z"/>
			<path fill="#B4B4B4" d="M34.36,71.572c2.878-3.212,6.266-5.651,9.716-7.992c3.468-2.313,7.174-4.207,10.898-6.065
				c3.73-1.843,7.493-3.621,11.331-5.254c3.838-1.629,7.719-3.151,11.656-4.544c7.873-2.775,15.946-5.055,24.182-6.615
				c8.224-1.589,16.626-2.495,25.065-2.335c8.438,0.161,16.86,1.463,24.931,3.812c4.041,1.158,8.03,2.508,11.816,4.306
				c1.904,0.88,3.77,1.82,5.609,2.807c1.838,1.002,3.683,1.954,5.488,2.991c1.811,1.009,3.615,2.034,5.391,3.089l5.34,3.171
				c3.549,2.199,6.861,4.688,10.107,7.27c3.237,2.578,6.488,5.178,9.57,7.97c1.555,1.385,3.061,2.822,4.505,4.313
				c0.716,0.749,1.441,1.504,2.132,2.287c0.688,0.78,1.161,1.755,1.666,2.692l0.114,0.202l-0.046-0.11
				c0.275,0.716,0.65,1.361,1.049,1.996l1.191,1.912l2.422,3.809c1.617,2.532,3.225,5.086,4.799,7.66
				c1.575,2.569,3.075,5.188,4.422,7.882c1.368,2.685,2.592,5.445,3.57,8.29c-1.039-2.822-2.316-5.553-3.751-8.191
				c-1.457-2.631-3.062-5.17-4.746-7.663c-1.666-2.493-3.449-4.91-5.22-7.351l-2.649-3.659l-1.31-1.848
				c-0.432-0.619-0.875-1.231-1.414-1.781l0.064,0.096c-0.808-0.654-1.679-1.243-2.353-2.008l-2.019-2.299l-4.064-4.601
				c-2.747-3.028-5.569-6.03-8.682-8.704c-1.541-1.346-3.168-2.6-4.826-3.801c-1.646-1.216-3.393-2.294-5.164-3.296
				c-0.879-0.509-1.805-0.93-2.729-1.399l-2.769-1.377c-1.844-0.914-3.694-1.81-5.561-2.646c-3.725-1.706-7.617-3.014-11.48-4.275
				l-1.461-0.452l-1.444-0.466l-2.892-0.926c-1.933-0.612-3.858-1.224-5.812-1.748c-7.801-2.092-15.794-3.476-23.876-3.751
				c-8.089-0.321-16.235,0.485-24.223,2.058c-3.984,0.826-7.937,1.835-11.845,2.99c-3.905,1.182-7.75,2.543-11.555,4.012
				c-3.806,1.464-7.57,3.036-11.285,4.719c-1.854,0.854-3.72,1.672-5.562,2.543l-5.528,2.635c-1.839,0.88-3.645,1.836-5.507,2.685
				c-1.86,0.85-3.813,1.526-5.772,2.222C41.961,68.257,38.166,69.905,34.36,71.572z"/>
			<path fill="#B4B4B4" d="M28.101,87.45c2.929-2.898,5.992-5.683,9.136-8.374c3.144-2.692,6.277-5.446,9.675-7.829
				c1.702-1.185,3.459-2.286,5.214-3.388c1.76-1.098,3.536-2.169,5.327-3.216c1.792-1.048,3.594-2.081,5.427-3.056
				c1.834-0.975,3.679-1.924,5.545-2.842c7.455-3.671,15.179-6.856,23.171-9.308c3.996-1.228,8.063-2.241,12.188-3.044
				c4.119-0.819,8.307-1.385,12.542-1.599c2.114-0.107,4.242-0.146,6.373-0.068c1.064,0.038,2.134,0.099,3.197,0.188
				c0.533,0.041,1.066,0.099,1.596,0.156l1.539,0.172c4.126,0.493,8.24,1.105,12.344,1.854c4.098,0.772,8.165,1.71,12.188,2.872
				c1.002,0.29,2.012,0.586,3.015,0.902c0.985,0.333,1.979,0.67,2.963,1.037c0.976,0.39,1.955,0.776,2.911,1.208
				c0.955,0.439,1.91,0.876,2.844,1.361c1.875,0.964,3.723,1.954,5.531,3.018c0.895,0.539,1.816,1.028,2.707,1.571
				c0.895,0.528,1.806,1.033,2.691,1.576c3.59,2.103,7.006,4.481,10.25,7.059c3.223,2.608,6.324,5.358,9.385,8.157l2.285,2.107
				l1.133,1.059c0.391,0.349,0.826,0.647,1.312,0.899c0.976,0.501,2.198,0.772,3.263,1.174c1.062,0.409,1.91,0.956,2.478,1.797
				l0.497,0.75l-0.121-0.29c0.197,0.47,0.273,1.017,0.268,1.625c-0.022,0.611-0.084,1.254-0.123,1.866
				c-0.031,0.611,0.008,1.166,0.16,1.651c0.161,0.482,0.43,0.888,0.646,1.327c0.455,0.868,0.884,1.748,1.338,2.604l1.369,2.577
				l1.416,2.547l1.451,2.524l2.961,5.002l2.914,5.025c0.489,0.833,0.972,1.675,1.494,2.493c0.532,0.807,1.062,1.617,1.617,2.413
				l0.827,1.196l0.808,1.207l1.61,2.405c1.069,1.605,2.179,3.178,3.276,4.753l0.057,0.081l0.068,0.152
				c0.502,1.133,1.019,2.257,1.449,3.419c0.229,0.574,0.434,1.155,0.64,1.744c0.202,0.585,0.405,1.17,0.543,1.782
				c0.303,1.211,0.306,2.516,0.428,3.771c0.101,1.254,0.185,2.508,0.185,3.754c-0.475-1.154-0.994-2.268-1.576-3.356
				c-0.555-1.103-1.295-2.119-1.793-3.218c-0.264-0.547-0.475-1.111-0.691-1.67l-0.65-1.684c-0.447-1.12-0.849-2.264-1.283-3.388
				l0.121,0.229c-1.002-1.675-1.942-3.389-2.873-5.102c-0.461-0.856-0.92-1.713-1.364-2.585l-0.668-1.297l-0.628-1.32
				c-1.602-3.557-3.637-6.853-5.52-10.238l-2.883-5.036c-1.002-1.651-2.029-3.289-3.07-4.917c-1.074-1.607-2.181-3.19-3.305-4.758
				c-0.291-0.383-0.559-0.788-0.872-1.155c-0.319-0.363-0.698-0.685-1.114-0.986c-0.828-0.601-1.736-1.132-2.35-1.866l0.24,0.29
				c-0.792-0.695-1.438-1.537-1.969-2.447c-0.535-0.918-0.979-1.9-1.549-2.775c-0.541-0.896-1.244-1.642-1.901-2.426
				c-0.661-0.771-1.334-1.545-2.013-2.306c-0.676-0.761-1.363-1.511-2.063-2.253c-0.707-0.733-1.422-1.444-2.157-2.156
				c-0.734-0.703-1.482-1.393-2.236-2.072c-0.762-0.674-1.562-1.308-2.353-1.939c-3.183-2.535-6.662-4.684-10.265-6.559
				c-0.913-0.443-1.819-0.902-2.76-1.284c-0.944-0.383-1.883-0.78-2.851-1.094c-1.933-0.654-3.874-1.247-5.832-1.76l-5.866-1.56
				l-5.816-1.637c-3.896-1.04-7.832-1.974-11.797-2.815c-3.963-0.868-7.963-1.605-11.979-2.256l-1.515-0.241
				c-0.491-0.076-0.98-0.152-1.472-0.218c-0.983-0.13-1.972-0.237-2.962-0.321c-1.987-0.16-3.987-0.237-5.989-0.206
				c-2.006,0.03-4.012,0.152-6.016,0.348c-2.001,0.211-4.004,0.501-5.99,0.853c-3.978,0.72-7.901,1.752-11.78,2.938
				c-3.882,1.178-7.687,2.623-11.433,4.199c-3.744,1.575-7.435,3.296-11.063,5.132c-1.814,0.914-3.616,1.866-5.401,2.841
				c-1.784,0.976-3.58,1.939-5.345,2.948c-1.77,1.006-3.525,2.035-5.265,3.094l-5.199,3.209c-1.744,1.056-3.536,2.042-5.318,3.052
				c-1.799,0.986-3.567,2.026-5.318,3.094C34.865,82.759,31.437,85.025,28.101,87.45z"/>
			<path fill="#B4B4B4" d="M18.59,112.652c1.082-1.959,2.426-3.756,3.781-5.53c1.347-1.79,2.758-3.525,4.211-5.231
				c1.449-1.705,2.906-3.411,4.413-5.07c0.751-0.834,1.51-1.66,2.275-2.479c0.769-0.814,1.543-1.629,2.3-2.459
				c1.528-1.648,2.958-3.415,4.461-5.112c1.492-1.714,3.072-3.335,4.792-4.804c1.719-1.461,3.477-2.884,5.249-4.283
				c1.784-1.388,3.604-2.73,5.441-4.046c3.712-2.585,7.515-5.044,11.44-7.304c3.921-2.261,7.966-4.313,12.084-6.219
				c4.121-1.896,8.367-3.518,12.696-4.933c4.331-1.393,8.78-2.475,13.31-3.121c4.522-0.65,9.161-0.891,13.726-0.551
				c4.507,0.283,8.996,0.757,13.461,1.431c8.939,1.301,17.767,3.557,26.232,6.761c4.283,1.519,8.199,3.916,12.01,6.31
				c1.91,1.197,3.859,2.295,5.772,3.469c0.957,0.594,1.903,1.19,2.838,1.81c0.937,0.619,1.881,1.22,2.808,1.858
				c0.934,0.623,1.836,1.289,2.76,1.927c0.918,0.65,1.832,1.309,2.729,1.989c1.801,1.35,3.549,2.769,5.251,4.252
				c0.854,0.734,1.671,1.515,2.593,2.195c0.918,0.673,1.875,1.331,2.73,2.08c0.436,0.375,0.833,0.78,1.215,1.201
				c0.2,0.222,0.35,0.439,0.51,0.685c0.156,0.241,0.299,0.505,0.432,0.769c0.265,0.521,0.498,1.07,0.808,1.557
				c0.287,0.5,0.658,0.929,0.994,1.396l0.034,0.046l0.017,0.031c1.666,2.707,3.288,5.449,4.863,8.206
				c1.61,2.746,3.171,5.515,4.723,8.287c1.576,2.758,3.109,5.541,4.662,8.31l4.636,8.324l0.014,0.026l0.029,0.064
				c1.237,2.784,3.092,5.312,3.952,8.191c0.242,0.711,0.398,1.453,0.433,2.227c0.059,0.768,0.004,1.566,0.035,2.335
				c0.012,0.387,0.043,0.771,0.092,1.142c0.047,0.375,0.121,0.736,0.199,1.104l0.459,2.194c0.596,2.926,1.086,5.865,1.637,8.787
				l1.557,8.777c-0.607-2.902-1.327-5.787-2.134-8.645c-0.772-2.863-1.718-5.683-2.675-8.484l-0.732-2.096
				c-0.123-0.344-0.245-0.696-0.406-1.033c-0.164-0.337-0.336-0.674-0.535-0.993c-0.391-0.657-0.871-1.278-1.25-1.929
				c-0.408-0.646-0.699-1.322-0.914-2.02c-0.463-1.398-0.75-2.826-0.994-4.306c-0.139-0.728-0.274-1.445-0.436-2.165l-0.283-1.055
				c-0.106-0.345-0.236-0.682-0.359-1.021l0.042,0.088c-2.772-5.701-5.603-11.371-8.548-16.981c-0.741-1.396-1.518-2.776-2.286-4.16
				c-0.783-1.377-1.587-2.738-2.397-4.1c-0.83-1.347-1.668-2.692-2.517-4.023c-0.863-1.327-1.747-2.639-2.638-3.946l0.049,0.076
				c-0.363-0.413-0.639-0.887-1.189-1.147c-0.516-0.282-1.262-0.366-1.945-0.489c-0.35-0.054-0.666-0.13-0.938-0.237
				c-0.275-0.106-0.543-0.283-0.719-0.45c-0.371-0.398-0.682-0.842-0.928-1.354c-0.488-1.018-0.68-2.349-1.131-3.45
				c-0.42-1.132-1.23-1.89-1.974-2.723c-2.968-3.297-6.317-6.279-9.996-8.788c-1.817-1.285-3.702-2.471-5.625-3.587
				c-1.925-1.113-3.866-2.203-5.925-3.06c-4.121-1.706-8.404-2.898-12.508-4.467c-8.295-2.982-16.934-4.922-25.652-6.268
				c-4.361-0.654-8.762-1.116-13.171-1.435c-4.345-0.34-8.683-0.172-12.998,0.459c-8.628,1.267-17.029,4.139-24.921,8.008
				c-3.961,1.905-7.783,4.107-11.52,6.437c-3.738,2.329-7.395,4.8-10.947,7.415c-1.792,1.281-3.558,2.608-5.31,3.946
				c-1.764,1.331-3.495,2.696-5.218,4.081c-1.724,1.38-3.534,2.657-5.387,3.908c-1.842,1.258-3.706,2.512-5.423,3.935
				c-0.864,0.704-1.7,1.438-2.523,2.188c-0.828,0.742-1.648,1.499-2.464,2.256c-1.623,1.522-3.24,3.063-4.785,4.67
				C23.974,105.531,20.926,108.835,18.59,112.652z"/>
			<polygon fill="#FFFFFF" points="187.466,98.579 193.333,93.665 196.428,102.388 			"/>
			<path fill="#B4B4B4" d="M50.352,85.883c1.18-1.266,2.439-2.433,3.743-3.537l0.979-0.83l1.004-0.796
				c0.665-0.535,1.342-1.055,2.038-1.553c2.743-2.034,5.655-3.823,8.604-5.545c2.95-1.729,5.954-3.373,9.01-4.918
				s6.16-3.01,9.354-4.286c6.367-2.574,12.965-4.7,19.792-5.946c3.411-0.624,6.872-1.041,10.362-1.171
				c1.743-0.062,3.493-0.062,5.244,0.012c1.752,0.072,3.486,0.237,5.209,0.443c3.443,0.417,6.836,1.044,10.194,1.809
				c3.358,0.788,6.678,1.672,10.014,2.532c1.666,0.436,3.322,0.91,4.963,1.434c0.818,0.264,1.645,0.513,2.455,0.803
				c0.807,0.303,1.617,0.586,2.414,0.915c1.59,0.657,3.186,1.314,4.68,2.187c1.504,0.856,2.941,1.844,4.379,2.8
				c1.432,0.979,2.906,1.851,4.391,2.692c1.479,0.856,2.943,1.735,4.391,2.646c1.438,0.917,2.888,1.824,4.293,2.791
				c1.408,0.972,2.812,1.942,4.189,2.964c1.368,1.021,2.695,2.1,4.016,3.224c1.291,1.12,2.531,2.321,3.705,3.58
				c0.293,0.316,0.597,0.619,0.947,0.887c0.35,0.268,0.73,0.513,1.117,0.757c0.776,0.482,1.498,1.037,2,1.764
				c0.512,0.691,0.648,1.693,0.91,2.542c0.279,0.854,0.795,1.53,1.621,2.05l-0.643-0.405l0.707,0.521
				c0.494,0.367,1.074,0.688,1.613,1.032c0.531,0.352,0.944,0.758,1.197,1.239c0.245,0.482,0.413,1.002,0.497,1.561
				c0.092,0.551,0.084,1.147,0.069,1.744c-0.269,2.466,0.813,4.336,1.367,6.432l3.787,12.347c0.32,1.024,0.626,2.058,0.917,3.098
				c0.313,1.036,0.468,2.103,1.056,3.09l0.237,0.367l0.015,0.022c0,0.02-0.015-0.088,0-0.03l0.031,0.046l0.062,0.084
				c0.038,0.061,0.075,0.118,0.13,0.176l0.543,0.696c0.368,0.458,0.707,0.925,0.952,1.408c0.252,0.481,0.429,0.994,0.528,1.498
				c0.103,0.527,0.139,1.062,0.106,1.606c-0.058,1.099-0.299,2.251-0.177,3.304c0.05,0.531,0.199,1.04,0.328,1.553
				c0.132,0.517,0.275,1.033,0.43,1.541c0.589,2.059,1.354,4.072,2.148,6.106c0.408,1.028,0.711,2.077,1.186,3.104
				c0.459,1.033,1.09,2.059,1.576,3.145c0.48,1.105,0.799,2.188,0.765,3.51c-0.026,0.309-0.122,0.613-0.286,0.907
				c-0.156,0.295-0.387,0.585-0.607,0.86c-0.23,0.279-0.451,0.551-0.635,0.818c-0.176,0.268-0.291,0.535-0.371,0.803
				c-0.166,0.539-0.188,1.082-0.149,1.629c0.054,0.552,0.118,1.095,0.08,1.625c-0.127,1.061-0.388,2.078-0.654,3.099
				c-0.259,1.021-0.485,2.047-0.497,3.078c-0.029,1.01,0.178,2.096,0.482,3.132c0.146,0.525,0.312,1.037,0.436,1.568
				c0.131,0.523,0.223,1.048,0.314,1.578c0.176,1.062,0.385,2.119,0.521,3.189c0.267,2.131,0.348,4.299,0.08,6.482
				c-0.097,1.091-0.25,2.184-0.318,3.271c-0.059,1.085-0.08,2.171-0.152,3.257c-0.148,2.18-0.43,4.36-0.979,6.51l-0.016,0.068
				l-0.016,0.038c-1.652,4.207-3.41,8.375-5.354,12.468c-1.994,4.088-4.22,8.022-6.594,11.871c-1.189,1.918-2.406,3.822-3.659,5.695
				c-0.637,0.941-1.263,1.875-1.913,2.801l-0.478,0.695c-0.203,0.26-0.364,0.447-0.548,0.681c-0.359,0.429-0.727,0.872-1.098,1.298
				c-0.363,0.428-0.744,0.85-1.121,1.27c-0.404,0.42-0.779,0.818-1.188,1.224c-0.799,0.804-1.61,1.583-2.435,2.354
				c-1.656,1.537-3.379,3-5.133,4.414l0.008-0.004c-3.147,2.918-6.662,5.389-10.295,7.638c-3.643,2.251-7.386,4.307-11.029,6.534
				c3.621-2.271,7.347-4.371,10.943-6.661c3.596-2.298,7.105-4.769,10.149-7.753l0.008-0.004v-0.004
				c1.722-1.449,3.403-2.942,5.015-4.512c0.808-0.779,1.599-1.582,2.367-2.395c0.385-0.396,0.779-0.825,1.146-1.225
				c0.363-0.428,0.727-0.855,1.078-1.287c0.363-0.434,0.707-0.869,1.056-1.312l0.504-0.646l0.47-0.703
				c0.617-0.938,1.223-1.881,1.825-2.83c1.216-1.893,2.388-3.812,3.503-5.758c2.233-3.896,4.322-7.887,6.143-11.959
				c1.802-4.111,3.416-8.295,4.922-12.533l-0.033,0.111c0.443-2.016,0.652-4.096,0.723-6.188c0.039-1.049,0.055-2.096-0.012-3.152
				c-0.072-1.051-0.287-2.099-0.472-3.143c-0.454-2.092-0.681-4.18-0.771-6.307c-0.047-1.062-0.031-2.135-0.047-3.205
				c-0.008-0.535-0.016-1.069,0.03-1.608c0.038-0.54,0.135-1.09,0.198-1.634c0.068-0.538,0.119-1.081,0.084-1.618
				c-0.025-0.522-0.129-1.074-0.244-1.632c-0.227-1.102-0.686-2.233-1.024-3.381c-0.329-1.147-0.513-2.278-0.329-3.346
				c0.062-0.265,0.178-0.521,0.325-0.77c0.152-0.254,0.345-0.497,0.517-0.746c0.375-0.489,0.64-0.99,0.695-1.508
				c0.062-0.516-0.105-1.043-0.428-1.559c-0.295-0.518-0.607-0.998-0.673-1.467c-0.069-0.855-0.123-1.896-0.101-2.898
				c0.023-1.014,0.077-2.057,0.004-3.088c-0.076-1.033-0.256-2.059-0.439-3.092c-0.184-1.031-0.398-2.061-0.62-3.098
				c-0.252-1.028-0.504-2.064-0.821-3.086l-0.475-1.533l-0.236-0.779l-0.268-0.767c-0.391-1.024-0.949-1.996-1.4-3.005
				c-0.113-0.25-0.215-0.506-0.298-0.758c-0.101-0.252-0.185-0.514-0.252-0.766c-0.135-0.535-0.245-1.056-0.274-1.599
				c-0.031-0.271-0.047-0.542-0.043-0.821c-0.004-0.271,0-0.552,0.006-0.83l0.029-0.826v-0.21v-0.104v-0.05
				c0.008,0.034-0.014-0.072-0.014-0.072l0.005-0.023l0.009-0.405c0.016-1.082-0.261-2.111-0.459-3.147
				c-0.224-1.036-0.451-2.076-0.697-3.104c-0.244-1.037-0.543-2.055-0.832-3.071c-0.308-1.018-0.594-2.044-0.949-3.046
				c-0.684-2.012-1.491-3.978-2.362-5.92c-0.437-0.972-0.911-1.924-1.378-2.876c-0.229-0.481-0.505-0.941-0.871-1.361
				c-0.376-0.421-0.804-0.811-1.247-1.193c-0.428-0.391-0.872-0.772-1.209-1.2c-0.353-0.421-0.61-0.872-0.813-1.362
				c-0.096-0.248-0.135-0.52-0.156-0.803c-0.004-0.282,0.021-0.585,0.076-0.902c0.107-0.631,0.275-1.292,0.291-1.89l0.054,0.115
				c-0.039-0.459-0.164-0.872-0.397-1.216c-0.246-0.337-0.597-0.608-1.053-0.796c-0.463-0.188-0.988-0.329-1.449-0.489
				c-0.236-0.08-0.428-0.164-0.625-0.282c-0.185-0.119-0.369-0.287-0.483-0.406c-0.248-0.313-0.435-0.673-0.535-1.102
				c-0.11-0.42-0.13-0.921-0.161-1.419c-0.029-0.5-0.074-1.005-0.209-1.438c-0.127-0.436-0.363-0.791-0.631-1.102
				c-1.079-1.273-2.2-2.508-3.446-3.637c-1.208-1.14-2.534-2.172-3.89-3.166c-1.369-0.964-2.776-1.882-4.236-2.719
				c-1.449-0.846-2.923-1.664-4.417-2.429c-1.495-0.765-3.011-1.495-4.532-2.195c-0.765-0.359-1.533-0.688-2.309-1.009
				c-0.789-0.299-1.584-0.582-2.402-0.812c-1.621-0.481-3.272-0.883-4.863-1.392c-1.606-0.482-3.121-1.163-4.658-1.797
				c-1.533-0.658-3.053-1.351-4.574-2.051c-1.506-0.718-3.04-1.407-4.584-2.065c-3.079-1.346-6.299-2.286-9.557-3.051
				c-3.25-0.772-6.528-1.438-9.833-1.836c-3.303-0.405-6.601-0.604-9.906-0.413c-3.306,0.165-6.602,0.597-9.859,1.235
				c-6.521,1.281-12.891,3.354-19.06,5.912c-3.082,1.293-6.134,2.65-9.14,4.127c-3,1.483-5.983,3.013-8.912,4.643
				c-5.854,3.292-11.549,6.784-17.848,9.586L50.352,85.883z"/>
			<path fill="#B4B4B4" d="M16.213,133.098c1.562-2.652,3.126-5.308,4.736-7.938c1.589-2.646,3.229-5.262,4.973-7.825
				c1.742-2.563,3.555-5.088,5.513-7.516c0.976-1.217,1.985-2.406,3.021-3.575c1.04-1.171,2.109-2.311,3.176-3.458
				c2.132-2.302,4.209-4.719,6.572-6.821c2.359-2.104,5-3.832,7.619-5.561c2.619-1.714,5.349-3.331,8.003-4.868
				c2.675-1.553,5.361-3.095,8.08-4.593c10.908-5.875,22.173-11.358,34.201-14.987c6.002-1.793,12.205-3.178,18.578-3.438
				c3.182-0.134,6.392,0.062,9.564,0.59c1.591,0.268,3.165,0.634,4.718,1.12c0.771,0.24,1.534,0.523,2.295,0.808
				c0.766,0.29,1.52,0.626,2.211,0.928c5.668,2.514,11.312,5.175,16.616,8.509c0.657,0.421,1.312,0.85,1.961,1.285
				c0.644,0.451,1.277,0.907,1.905,1.369c1.238,0.964,2.462,1.951,3.654,2.96c0.598,0.505,1.189,1.018,1.773,1.538l0.876,0.783
				l0.882,0.769l0.875,0.78l0.879,0.765l1.744,1.561c4.635,4.168,8.78,8.91,12.168,14.165c3.396,5.239,6.004,11.014,7.842,16.942
				c3.746,11.779,6.967,23.74,8.963,35.986c0.513,3.06,0.947,6.13,1.287,9.224c0.17,1.541,0.318,3.09,0.431,4.643
				c0.11,1.554,0.218,3.109,0.226,4.712c0.012,1.583-0.047,3.157-0.154,4.724c-0.053,0.783-0.114,1.563-0.152,2.348
				c-0.037,0.783-0.037,1.572-0.021,2.367l0.104,2.395c0.019,0.396,0.032,0.799,0.041,1.201l0.017,0.604c0.002,0.1,0,0.195,0,0.299
				l-0.005,0.149v0.071c0.007-0.03-0.021,0.123-0.016,0.135c-0.022,0.391-0.027,0.783-0.062,1.166
				c-0.037,0.402-0.088,0.804-0.152,1.199c-0.135,0.781-0.287,1.555-0.539,2.312l-0.107,0.308l0.051-0.101
				c-0.324,0.72-0.859,1.369-1.52,1.972l-0.971,0.904c-0.313,0.307-0.59,0.615-0.838,0.939c-0.486,0.644-0.717,1.386-0.998,2.101
				l-0.856,2.151c-1.147,2.861-2.379,5.685-3.655,8.49c-1.263,2.799-2.584,5.59-3.894,8.353c-1.263,2.8-2.556,5.595-3.912,8.358
				c-0.324,0.687-0.711,1.381-1.011,2.059c-0.328,0.703-0.664,1.393-1.021,2.08c-0.713,1.37-1.465,2.716-2.278,4.027
				c-1.623,2.623-3.445,5.117-5.441,7.457c-3.98,4.695-8.632,8.804-13.727,12.232c5.049-3.498,9.656-7.641,13.541-12.386
				c1.938-2.38,3.69-4.896,5.239-7.534c0.776-1.327,1.503-2.673,2.169-4.047c0.336-0.688,0.649-1.38,0.956-2.079
				c0.306-0.735,0.654-1.394,0.972-2.101c1.289-2.779,2.463-5.612,3.633-8.451c1.23-2.838,2.447-5.637,3.617-8.471
				s2.304-5.68,3.351-8.547l0.78-2.16c0.248-0.724,0.516-1.438,0.643-2.207c0.126-0.756,0.145-1.561,0.16-2.355
				c0.027-0.791,0.068-1.57,0.249-2.311l-0.039,0.146c0.054-0.375,0.144-0.746,0.219-1.111c0.076-0.371,0.138-0.748,0.229-1.113
				l0.252-1.09c0.084-0.375,0.188-0.746,0.279-1.121l0.523-2.168c0.18-0.746,0.344-1.469,0.504-2.223
				c0.299-1.488,0.498-2.99,0.628-4.494c0.142-1.502,0.236-3.009,0.269-4.5c0.029-1.479-0.039-2.998-0.104-4.524
				c-0.072-1.519-0.176-3.036-0.303-4.554c-0.252-3.045-0.604-6.082-1.032-9.105c-1.735-12.104-4.616-24.077-8.356-35.76
				c-0.905-2.938-1.945-5.769-3.207-8.541c-1.26-2.765-2.738-5.419-4.391-7.973c-3.298-5.095-7.339-9.699-11.871-13.756
				c-0.562-0.513-1.146-0.998-1.736-1.48l-0.891-0.711l-0.926-0.673l-0.93-0.658l-0.963-0.619c-0.643-0.405-1.297-0.804-1.95-1.193
				c-1.31-0.78-2.632-1.521-3.978-2.241l-1.984-1.113c-0.654-0.378-1.309-0.761-1.971-1.132c-5.246-3.028-10.573-5.977-16.039-8.727
				c-0.703-0.352-1.338-0.673-2.004-0.964c-0.656-0.302-1.345-0.542-2.033-0.775c-1.381-0.464-2.801-0.826-4.244-1.091
				c-2.89-0.531-5.87-0.615-8.842-0.462c-5.958,0.336-11.89,1.683-17.645,3.556c-5.762,1.886-11.377,4.269-16.878,6.899
				c-5.505,2.635-10.895,5.529-16.221,8.559c-2.667,1.507-5.321,3.04-7.966,4.6c-2.661,1.562-5.245,3.113-7.782,4.792
				c-1.266,0.834-2.518,1.69-3.749,2.57c-1.237,0.872-2.479,1.736-3.688,2.646c-2.462,1.76-4.887,3.58-7.216,5.53
				c-4.646,3.908-8.845,8.352-12.687,13.126C23.182,122.925,19.697,128.02,16.213,133.098z"/>
			<path fill="#B4B4B4" d="M15.58,153.068c6.591-12.039,13.335-24.039,21.484-35.21c1.021-1.397,2.076-2.763,3.136-4.136
				c0.513-0.696,1.064-1.361,1.562-2.08l0.77-1.056l0.749-1.082c0.501-0.72,1.014-1.435,1.533-2.146
				c0.522-0.711,1.046-1.423,1.61-2.104c0.545-0.699,1.144-1.346,1.744-1.996c0.602-0.649,1.256-1.247,1.901-1.858
				c2.666-2.333,5.512-4.509,8.59-6.398l4.415-2.673l4.436-2.601c5.903-3.495,11.812-6.986,17.84-10.371
				c3.018-1.69,6.06-3.369,9.249-4.864c0.8-0.375,1.601-0.734,2.429-1.078c0.836-0.348,1.681-0.658,2.523-0.941
				c1.685-0.569,3.371-1.07,5.077-1.499c3.407-0.864,6.86-1.495,10.344-1.889c3.482-0.397,7-0.539,10.515-0.383
				c3.513,0.146,7.02,0.669,10.43,1.561c3.403,0.872,6.747,2.283,9.493,4.505l-0.35,0.627c-3.42-0.803-6.531-1.736-9.777-2.446
				c-1.617-0.346-3.264-0.598-4.915-0.766c-1.647-0.164-3.311-0.248-4.977-0.302c-6.663-0.134-13.399,0.707-19.886,2.397
				c-1.615,0.429-3.226,0.902-4.78,1.468c-0.777,0.287-1.54,0.59-2.281,0.918c-0.749,0.337-1.508,0.696-2.256,1.071
				c-2.994,1.503-5.936,3.212-8.864,4.964c-5.852,3.521-11.658,7.205-17.522,10.784l-4.397,2.696l-4.421,2.627
				c-2.824,1.705-5.493,3.713-8.029,5.9c-2.535,2.184-5.132,4.349-7.617,6.682c-2.509,2.306-4.736,4.895-6.912,7.527
				c-2.173,2.635-4.265,5.347-6.289,8.107c-2.028,2.761-3.973,5.583-5.854,8.452c-1.879,2.871-3.727,5.762-5.498,8.703
				C19.014,147.124,17.283,150.085,15.58,153.068z"/>
			<path fill="#B4B4B4" d="M15.58,168.915c1.835-2.808,3.527-5.701,5.238-8.589c1.72-2.885,3.372-5.807,5.064-8.704
				c1.685-2.906,3.396-5.798,5.122-8.683c1.707-2.89,3.445-5.772,5.233-8.627c1.788-2.853,3.619-5.682,5.519-8.474
				c0.952-1.393,1.903-2.792,2.812-4.223c0.925-1.422,1.769-2.913,2.684-4.363l1.376-2.178c0.483-0.711,0.952-1.438,1.467-2.118
				c1.015-1.393,2.119-2.707,3.29-3.977c1.182-1.255,2.382-2.506,3.646-3.695c1.275-1.178,2.567-2.355,3.954-3.434
				c1.379-1.083,2.807-2.118,4.292-3.09c1.419-0.925,2.846-1.828,4.289-2.715c2.886-1.775,5.802-3.519,8.752-5.209
				c1.474-0.853,2.954-1.698,4.457-2.509c1.497-0.818,3-1.633,4.532-2.401c3.062-1.545,6.212-2.952,9.46-4.146
				c3.251-1.182,6.587-2.195,10.018-2.898c3.423-0.7,6.934-1.102,10.452-1.133c3.518-0.022,7.04,0.311,10.487,0.965
				c0.436,0.084,0.851,0.168,1.299,0.264c0.396,0.088,0.848,0.187,1.278,0.286c0.853,0.207,1.697,0.429,2.539,0.674
				c1.679,0.508,3.326,1.093,4.947,1.735c3.244,1.289,6.364,2.83,9.358,4.566c1.494,0.876,2.979,1.767,4.361,2.807
				c0.698,0.517,1.362,1.071,2.02,1.63c0.636,0.589,1.279,1.169,1.883,1.789c1.22,1.231,2.386,2.497,3.558,3.748
				c0.604,0.601,1.177,1.239,1.773,1.836c0.597,0.604,1.2,1.196,1.805,1.789c2.409,2.383,4.675,4.926,6.679,7.672
				c1.002,1.376,1.935,2.807,2.756,4.312c0.41,0.749,0.793,1.521,1.147,2.31c0.354,0.78,0.644,1.633,0.892,2.417
				c1.049,3.207,2.012,6.43,2.938,9.661c1.885,6.456,3.652,12.94,5.312,19.457c0.83,3.259,1.633,6.524,2.404,9.798
				c0.379,1.633,0.771,3.273,1.141,4.93c0.352,1.672,0.703,3.338,0.986,5.029c0.581,3.369,0.944,6.807,1.018,10.271
				c0.037,1.728,0.016,3.472-0.123,5.212c-0.03,0.432-0.072,0.875-0.118,1.296c-0.042,0.443-0.104,0.872-0.183,1.309
				c-0.069,0.437-0.15,0.873-0.234,1.301l-0.02,0.084c0.026-0.105-0.05,0.236-0.05,0.226l-0.038,0.153l-0.085,0.302
				c-0.057,0.198-0.116,0.417-0.183,0.62c-1.014,3.289-2.333,6.455-3.805,9.521c-0.734,1.534-1.471,3.066-2.285,4.551
				c-0.832,1.483-1.735,2.926-2.424,4.459c-3.09,6.11-5.742,13.24-8.758,18.135l-0.008,0.016v0.004
				c-1.275,2.241-3.8,3.592-5.283,5.686c-1.807,1.93-2.043,1.428-5.274,5.711c2.429-3.529,3.393-3.932,5.167-5.785
				c1.461-2.111,3.848-3.542,5.039-5.807l-0.016,0.016c3.082-6.133,5.424-12.294,8.021-18.467c0.67-1.533,1.103-3.174,1.562-4.787
				c0.479-1.61,0.993-3.193,1.448-4.792c0.914-3.204,1.752-6.409,2.536-9.584c0.041-0.198,0.095-0.39,0.148-0.597l0.076-0.301
				l0.045-0.15c0.014-0.062-0.062,0.223-0.019,0.068l0.008-0.068c0.072-0.397,0.142-0.787,0.194-1.186
				c0.059-0.39,0.119-0.796,0.184-1.179c0.065-0.408,0.123-0.8,0.178-1.2c0.222-1.6,0.4-3.212,0.488-4.833
				c0.184-3.243,0.088-6.524-0.229-9.802c-0.157-1.641-0.363-3.281-0.65-4.898c-0.283-1.641-0.613-3.277-0.947-4.918
				c-0.666-3.281-1.357-6.56-2.08-9.828c-1.455-6.539-2.992-13.062-4.688-19.542c-0.864-3.235-1.769-6.463-2.754-9.652
				c-0.864-3.153-2.623-5.968-4.569-8.637c-3.98-5.255-8.723-10.126-14.506-13.453c-0.703-0.437-1.414-0.857-2.133-1.27
				l-2.119-1.263c-1.406-0.849-2.814-1.689-4.245-2.481c-2.868-1.58-5.839-2.964-8.887-4.104c-1.522-0.566-3.068-1.074-4.628-1.507
				c-0.772-0.226-1.557-0.436-2.34-0.619l-1.188-0.271l-1.182-0.241c-3.175-0.608-6.394-0.914-9.616-0.895
				c-6.449,0.022-12.851,1.399-18.958,3.675c-3.057,1.132-6.05,2.481-8.985,3.966c-1.466,0.749-2.923,1.522-4.354,2.34
				c-1.43,0.83-2.843,1.683-4.246,2.562c-1.404,0.884-2.802,1.774-4.177,2.703c-1.377,0.934-2.741,1.878-4.101,2.838l-4.073,2.902
				c-1.29,0.926-2.543,1.928-3.766,2.976c-2.447,2.096-4.805,4.337-7.088,6.681c-1.143,1.174-2.284,2.352-3.456,3.515
				c-1.183,1.153-2.383,2.305-3.555,3.482c-1.173,1.185-2.37,2.359-3.471,3.609c-1.115,1.243-2.175,2.532-3.199,3.851
				c-2.062,2.627-4.066,5.301-6.034,8.012C29.84,146.146,22.939,157.697,15.58,168.915z"/>
			<path fill="#B4B4B4" d="M17.796,175.58c2.481-2.826,4.752-5.828,7.046-8.803c2.3-2.973,4.513-6.016,6.754-9.033l6.694-9.082
				l6.646-9.121c2.228-3.036,4.466-6.061,6.729-9.074c0.565-0.748,1.136-1.503,1.627-2.317c0.513-0.796,0.942-1.659,1.397-2.509
				c0.446-0.853,0.926-1.683,1.463-2.463c0.526-0.787,1.155-1.491,1.757-2.222c2.431-2.895,4.896-5.769,7.421-8.603
				c2.511-2.845,5.153-5.587,7.926-8.252c1.394-1.331,2.818-2.643,4.349-3.894c0.763-0.627,1.556-1.238,2.403-1.828
				c0.421-0.29,0.861-0.573,1.325-0.853l1.26-0.723c3.31-1.89,6.73-3.664,10.262-5.225c7.041-3.17,14.674-5.262,22.492-5.774
				c1.954-0.122,3.916-0.122,5.872-0.033c1.96,0.083,3.916,0.271,5.854,0.569c3.88,0.593,7.681,1.641,11.337,3.036
				c3.66,1.385,7.146,3.167,10.443,5.212c1.645,1.041,3.254,2.101,4.808,3.277c1.64,1.247,2.944,2.784,4.101,4.414l3.314,4.818
				c1.119,1.571,2.134,3.2,3.066,4.867c0.934,1.672,1.778,3.381,2.559,5.119c0.787,1.732,1.515,3.487,2.18,5.266
				c0.666,1.778,1.264,3.58,1.812,5.393c0.574,1.805,1.09,3.625,1.553,5.461c0.91,3.67,1.68,7.388,2.248,11.132
				c0.552,3.752,0.919,7.526,1.154,11.327c0.062,0.951,0.107,1.9,0.14,2.855c0.042,0.961,0.067,1.914,0.075,2.881
				c0.008,1.924-0.057,3.854-0.252,5.802l-1.537,11.204l-0.467,2.8c-0.16,0.938-0.312,1.873-0.526,2.808
				c-0.188,0.934-0.452,1.857-0.712,2.776c-0.283,0.897-0.598,1.834-0.941,2.724l-0.26,0.676l-0.031,0.088
				c-0.046,0.143-0.033,0.084-0.05,0.138l-0.071,0.161l-0.143,0.328l-0.576,1.316l-0.59,1.314l-0.264,0.607l-0.264,0.666
				c-0.703,1.793-1.378,3.57-2.127,5.322c-0.375,0.868-0.738,1.747-1.132,2.612l-1.179,2.588l-0.295,0.646L164.3,206.3l-0.092,0.19
				l-0.084,0.154c-0.226,0.412-0.451,0.828-0.662,1.246l-1.312,2.5l-2.662,5.01c-0.918,1.668-1.865,3.32-2.891,4.926
				c-1.019,1.613-2.104,3.184-3.217,4.72c-1.136,1.529-2.328,3.007-3.57,4.437c-0.312,0.359-0.609,0.728-0.945,1.057
				c-0.176,0.168-0.367,0.312-0.543,0.47c-0.19,0.149-0.391,0.287-0.586,0.433c-0.817,0.535-1.654,1.052-2.327,1.711
				c-1.312,1.353-2.62,2.699-3.849,4.13c-2.615,2.761-5.285,5.401-8.177,7.827c-1.483,1.175-2.979,2.283-4.317,3.66
				c-0.652,0.684-1.053,1.705-1.774,2.332c-0.742,0.604-1.519,1.15-2.309,1.676c-0.79,0.535-1.617,1.01-2.434,1.49
				c-0.83,0.471-1.678,0.91-2.521,1.344c-0.847,0.433-1.697,0.853-2.551,1.265c-0.862,0.397-1.719,0.797-2.657,1.058
				c0.69-0.689,1.451-1.24,2.2-1.813c0.756-0.56,1.502-1.128,2.239-1.705l4.373-3.503c0.734-0.574,1.463-1.146,2.214-1.688
				c0.772-0.516,1.846-0.66,2.648-1.158c0.751-0.514,1.471-1.154,2.143-1.801c0.686-0.646,1.34-1.32,2.004-1.984
				c1.34-1.319,2.773-2.528,4.154-3.795l2.104-1.873c0.345-0.313,0.691-0.631,1.039-0.947l0.489-0.464l0.483-0.517
				c1.307-1.354,2.537-2.769,3.746-4.215c0.582-0.734,0.994-1.625,1.424-2.496c0.221-0.43,0.466-0.834,0.74-1.213
				c0.275-0.379,0.602-0.716,0.91-1.066l3.69-4.19c1.243-1.394,2.451-2.808,3.613-4.267c0.579-0.725,1.151-1.465,1.706-2.213
				c0.555-0.75,1.102-1.51,1.603-2.301c0.509-0.781,0.998-1.568,1.464-2.396c0.475-0.812,0.957-1.614,1.395-2.438
				c0.441-0.828,0.878-1.662,1.296-2.502c0.218-0.421,0.412-0.843,0.606-1.271c0.176-0.39,0.354-0.856,0.521-1.284
				c0.688-1.729,1.243-3.534,1.797-5.309c0.547-1.774,1.025-3.575,1.43-5.381l0.154-0.681l0.176-0.72l0.32-1.365l0.295-1.361
				l0.073-0.352l0.038-0.168c0-0.008,0.025-0.107,0.004-0.038l0.012-0.085l0.139-0.688c0.606-3.664,1.395-7.277,2.094-10.969
				c0.384-1.835,0.728-3.688,1.162-5.537c0.216-0.926,0.44-1.852,0.682-2.781c0.249-0.914,0.46-1.762,0.645-2.672
				c0.366-1.785,0.619-3.617,0.803-5.461c0.092-0.925,0.16-1.847,0.219-2.775c0.041-0.926,0.064-1.858,0.074-2.793
				c0.035-3.725-0.26-7.456-0.752-11.157c-0.486-3.698-1.166-7.381-2.092-10.999c-0.461-1.805-0.969-3.602-1.526-5.38
				c-0.58-1.778-1.224-3.53-1.921-5.255c-0.702-1.725-1.443-3.434-2.278-5.09c-0.841-1.661-1.742-3.283-2.726-4.851
				c-0.976-1.568-2.031-3.083-3.164-4.528c-1.139-1.441-2.492-2.699-3.978-3.763c-1.476-1.06-2.993-2.02-4.39-2.986
				c-1.503-1.014-3.033-2.027-4.594-2.949c-3.115-1.874-6.344-3.525-9.678-4.91c-3.332-1.369-6.795-2.409-10.322-3.082
				c-1.767-0.337-3.551-0.565-5.345-0.703c-1.795-0.122-3.601-0.126-5.396-0.039c-3.599,0.184-7.193,0.742-10.679,1.748
				c-3.493,0.975-6.897,2.29-10.205,3.851c-3.308,1.561-6.493,3.403-9.648,5.347l-1.156,0.727c-0.338,0.218-0.678,0.459-1.018,0.711
				c-0.681,0.513-1.358,1.071-2.029,1.659c-1.344,1.171-2.655,2.444-3.94,3.752c-5.094,5.297-10.02,10.932-14.812,16.664
				c-0.604,0.711-1.178,1.449-1.849,2.111c-0.663,0.665-1.381,1.284-2.124,1.881c-0.74,0.608-1.497,1.2-2.174,1.858
				c-0.692,0.643-1.312,1.35-1.926,2.057c-2.463,2.834-4.91,5.684-7.345,8.544l-7.283,8.616c-2.407,2.887-4.776,5.802-7.168,8.707
				c-2.381,2.91-4.79,5.797-7.155,8.723C22.687,169.863,20.293,172.77,17.796,175.58z"/>
			<path fill="#B4B4B4" d="M18.115,188.575c0.9-1.12,1.805-2.229,2.679-3.361l2.662-3.382l5.296-6.762
				c1.766-2.252,3.513-4.521,5.245-6.799c1.717-2.295,3.447-4.572,5.04-6.959c-1.319,2.551-2.887,4.971-4.518,7.334
				c-1.63,2.371-3.349,4.67-5.106,6.938c-1.761,2.27-3.571,4.497-5.443,6.673C22.1,184.434,20.177,186.575,18.115,188.575z"/>
			<path fill="#B4B4B4" d="M19.383,197.764c4.654-4.619,9.503-9.048,13.912-13.898c2.205-2.426,4.331-4.915,6.271-7.547
				c0.967-1.307,1.885-2.657,2.711-4.053c0.818-1.394,1.569-2.83,2.09-4.33c0.26-0.748,0.472-1.511,0.591-2.271
				c0.032-0.19,0.056-0.388,0.074-0.573c0.02-0.211,0.045-0.408,0.071-0.634c0.058-0.423,0.128-0.843,0.212-1.256
				c0.337-1.66,0.846-3.267,1.425-4.833c1.168-3.128,2.623-6.122,4.186-9.049c0.78-1.457,1.595-2.902,2.43-4.324l1.273-2.131
				c0.438-0.703,0.859-1.415,1.195-2.188c0.679-1.531,1.052-3.289,1.679-4.885c0.306-0.798,0.694-1.548,1.155-2.244
				c0.463-0.691,0.958-1.361,1.441-2.033c3.886-5.419,8.201-10.501,12.934-15.269c2.369-2.387,4.85-4.658,7.391-6.86
				c2.547-2.188,5.162-4.307,7.887-6.307c1.333-1.021,2.365-2.521,3.841-3.393c0.714-0.466,1.44-0.917,2.173-1.36
				c0.744-0.421,1.503-0.819,2.264-1.217c1.535-0.765,3.109-1.461,4.708-2.096c1.599-0.643,3.218-1.231,4.87-1.731
				c3.296-1.021,6.734-1.63,10.19-1.833c1.733-0.08,3.473,0.046,5.179,0.303c1.709,0.256,3.385,0.601,5.05,0.93
				c1.668,0.32,3.339,0.646,4.973,1.139c0.826,0.222,1.646,0.471,2.457,0.75c0.811,0.283,1.629,0.555,2.432,0.876
				c3.197,1.28,6.302,2.963,9.052,5.104c0.679,0.544,1.356,1.086,1.993,1.676c0.643,0.589,1.253,1.2,1.857,1.819
				c0.615,0.612,1.144,1.305,1.537,2.096c0.418,0.773,0.7,1.638,1.053,2.433c0.328,0.814,0.738,1.553,1.22,2.249
				c0.459,0.7,0.909,1.407,1.346,2.126c0.872,1.43,1.683,2.891,2.451,4.373c6.054,11.848,9.687,24.876,10.308,38.092
				c0.159,3.305,0.133,6.616-0.074,9.913c-0.053,0.825-0.119,1.647-0.155,2.478c-0.038,0.822-0.046,1.66-0.072,2.49
				c-0.021,1.663-0.004,3.35-0.062,5.027c-0.131,3.365-0.754,6.686-1.916,9.828c-1.155,3.152-2.688,6.139-3.875,9.229
				c-1.211,3.078-2.568,6.104-4.012,9.07c-1.414,2.986-2.951,5.912-4.539,8.796l-1.201,2.161l-0.607,1.07l-0.312,0.562l-0.32,0.523
				l-2.531,4.215c-0.865,1.414-1.771,2.813-2.77,4.16c-0.494,0.674-1.018,1.338-1.596,1.949c-0.593,0.605-1.234,1.159-1.844,1.733
				l0.039-0.043c-1.167,1.284-2.364,2.539-3.583,3.769c-1.216,1.223-2.472,2.407-3.694,3.616c-2.394,2.517-5.07,4.675-7.418,7.251
				c-0.138,0.168-0.264,0.352-0.392,0.535c-0.132,0.184-0.263,0.367-0.381,0.559l-0.743,1.145l-0.393,0.551l-0.425,0.523
				c-0.28,0.345-0.595,0.652-0.916,0.949c-1.308,1.162-2.619,2.315-4.03,3.354c-1.415,1.021-2.872,1.982-4.379,2.872
				c-0.755,0.442-1.485,0.917-2.298,1.265c-0.797,0.372-1.665,0.624-2.513,0.907c-0.849,0.274-1.671,0.589-2.443,0.983l-2.271,1.248
				c-1.522,0.832-3.054,1.629-4.599,2.402c-3.086,1.553-6.231,2.99-9.408,4.332c-3.174,1.354-6.394,2.604-9.651,3.727
				c-3.253,1.136-6.541,2.175-9.867,3.07c3.311-0.957,6.582-2.035,9.804-3.244c3.216-1.229,6.38-2.576,9.501-4.029
				c3.113-1.461,6.161-3.057,9.159-4.729c1.495-0.84,2.979-1.703,4.443-2.6c0.732-0.451,1.469-0.887,2.184-1.361
				c0.71-0.484,1.356-1.074,1.968-1.705c0.618-0.628,1.203-1.293,1.854-1.852c0.632-0.588,1.343-1.061,2.018-1.579
				c1.355-1.028,2.723-2.038,4.098-3.028c1.379-0.99,2.822-1.894,4.231-2.854c0.355-0.232,0.715-0.463,1.107-0.653l0.587-0.287
				l0.613-0.256c0.842-0.337,1.679-0.644,2.457-1.056c0.782-0.409,1.435-0.973,2.1-1.512c0.665-0.543,1.327-1.098,1.958-1.67
				l0.955-0.865c0.312-0.295,0.619-0.604,0.926-0.901c0.59-0.604,1.178-1.256,1.767-1.874c1.167-1.264,2.299-2.562,3.427-3.857
				c1.128-1.297,2.241-2.604,3.296-3.947l0.005-0.008l0.034-0.029c0.552-0.586,1.024-1.24,1.499-1.891
				c0.475-0.635,0.964-1.271,1.434-1.92c0.938-1.301,1.795-2.67,2.629-4.068s1.629-2.83,2.484-4.245l0.321-0.527l0.291-0.509
				l0.604-1.075l1.188-2.138c1.583-2.855,3.054-5.77,4.433-8.723c1.346-2.963,2.555-5.984,3.647-9.047
				c1.124-3.053,1.625-6.311,2.219-9.486c0.129-0.795,0.324-1.573,0.474-2.361c0.207-0.779,0.358-1.566,0.57-2.35
				c0.194-0.771,0.424-1.543,0.66-2.316c0.214-0.779,0.49-1.545,0.73-2.32c0.51-1.545,1.021-3.109,1.402-4.693
				c0.174-0.799,0.354-1.598,0.463-2.407c0.119-0.804,0.188-1.615,0.245-2.427c0.229-3.245,0.279-6.508,0.142-9.758
				c-0.071-1.627-0.188-3.252-0.354-4.869c-0.188-1.616-0.417-3.227-0.7-4.83c-0.566-3.2-1.285-6.377-2.257-9.482
				c-0.979-3.098-2.125-6.143-3.44-9.102c-1.318-2.976-2.83-5.844-4.475-8.619c-0.834-1.385-1.697-2.748-2.619-4.063
				c-0.451-0.662-0.926-1.309-1.402-1.95c-0.477-0.644-1.033-1.231-1.703-1.722c-0.65-0.497-1.381-0.926-2.023-1.403
				c-0.664-0.458-1.207-1.01-1.72-1.594c-1.021-1.163-2.103-2.272-3.192-3.361c-2.199-2.161-4.548-4.203-7.197-5.875
				c-2.635-1.689-5.58-2.937-8.68-3.606c-3.116-0.627-6.317-0.55-9.484-0.336c-1.59,0.092-3.185,0.252-4.795,0.436
				c-1.604,0.203-3.222,0.467-4.787,0.926c-0.786,0.222-1.552,0.501-2.312,0.796c-0.747,0.32-1.501,0.642-2.22,1.032
				c-0.72,0.382-1.405,0.841-2.071,1.315c-0.663,0.489-1.292,1.025-1.907,1.579c-1.23,1.109-2.383,2.287-3.604,3.327
				c-1.186,1.098-2.518,1.954-3.787,2.922c-5.018,3.935-9.588,8.47-13.742,13.337c-2.084,2.432-4.117,4.938-6.125,7.461
				c-2.016,2.52-4,5.062-5.976,7.621c-0.494,0.639-0.969,1.292-1.468,1.928c-0.501,0.627-1.067,1.215-1.704,1.756
				c-1.268,1.086-2.749,2.035-3.889,3.23c-0.576,0.598-1.054,1.255-1.505,1.932l-1.359,2.023c-0.896,1.359-1.769,2.729-2.61,4.121
				c-1.675,2.779-3.246,5.63-4.529,8.589c-0.638,1.474-1.201,2.983-1.599,4.521c-0.098,0.383-0.186,0.773-0.257,1.156
				c-0.033,0.184-0.068,0.387-0.097,0.584c-0.035,0.219-0.073,0.434-0.119,0.646c-0.182,0.849-0.453,1.658-0.772,2.447
				c-1.302,3.129-3.226,5.858-5.266,8.451c-2.058,2.576-4.289,4.998-6.588,7.35c-2.31,2.332-4.643,4.644-7.036,6.884
				C24.18,193.298,21.74,195.484,19.383,197.764z"/>
			<path fill="#B4B4B4" d="M19.325,205.895c4.768-2.31,9.101-5.434,13.021-8.972c3.924-3.557,7.354-7.595,10.562-11.798
				c1.61-2.091,3.146-4.244,4.619-6.436c1.456-2.203,2.857-4.448,4.217-6.715c2.725-4.527,5.302-9.156,7.924-13.775l1.977-3.457
				c0.646-1.154,1.393-2.258,1.832-3.541c0.455-1.285,0.65-2.723,0.987-4.077c0.173-0.668,0.39-1.317,0.669-1.927
				c0.27-0.619,0.625-1.178,0.971-1.747c1.371-2.284,2.966-4.433,4.639-6.529c1.676-2.095,3.433-4.125,5.021-6.271
				c0.421-0.521,0.784-1.082,1.182-1.621c0.382-0.544,0.79-1.071,1.155-1.634c0.755-1.101,1.439-2.252,2.128-3.407
				c1.35-2.324,2.585-4.761,4.166-6.99c0.782-1.122,1.639-2.196,2.595-3.206c0.962-1.006,2.249-1.744,3.591-2.391
				c0.666-0.333,1.337-0.646,1.981-0.99c0.321-0.176,0.643-0.352,0.96-0.535l0.9-0.505c1.174-0.658,2.325-1.351,3.455-2.081
				c1.118-0.749,2.258-1.479,3.421-2.187l1.767-1.049l1.786-1.093c1.214-0.711,2.501-1.4,3.927-1.778
				c1.425-0.395,2.972-0.532,4.522-0.311c1.549,0.237,3.088,0.734,4.441,1.515c0.371,0.219,0.58,0.363,0.866,0.531l0.838,0.494
				c0.568,0.329,1.147,0.657,1.74,0.952c2.375,1.197,4.776,2.405,7.1,3.759c4.624,2.723,9.107,5.798,12.923,9.716
				c0.237,0.244,0.467,0.496,0.712,0.734c0.237,0.244,0.475,0.492,0.734,0.726c0.49,0.482,1.021,0.941,1.535,1.431
				c1.041,0.956,1.951,2.08,2.586,3.357c1.312,2.543,1.867,5.435,1.988,8.22c0.016,0.699,0.055,1.402,0.043,2.082
				c0.004,0.666,0.039,1.316,0.062,1.975c0.088,1.314,0.198,2.631,0.37,3.947c0.191,1.308,0.367,2.614,0.574,3.931
				c0.215,1.315,0.396,2.639,0.543,3.969c0.61,5.312,0.75,10.843-0.168,16.237c-0.227,1.352-0.51,2.686-0.826,4.009
				c-0.324,1.319-0.711,2.624-1.125,3.916c-0.854,2.569-1.889,5.062-3.023,7.507c-1.121,2.439-2.359,4.816-3.648,7.155
				c-0.643,1.17-1.305,2.332-1.978,3.487c-0.673,1.146-1.377,2.274-2.088,3.402l-1.015-0.559c0.57-1.193,1.125-2.395,1.684-3.594
				c0.562-1.197,1.105-2.398,1.633-3.606c1.061-2.413,2.039-4.854,2.952-7.31c0.452-1.23,0.881-2.467,1.276-3.709
				c0.406-1.235,0.793-2.479,1.141-3.725c0.375-1.242,0.699-2.492,1.003-3.748c0.31-1.255,0.58-2.516,0.802-3.777
				c0.461-2.535,0.75-5.09,0.877-7.672c0.133-2.576,0.043-5.178-0.08-7.802l-0.198-3.954c-0.054-1.322-0.157-2.646-0.238-3.977
				c-0.092-1.324-0.222-2.646-0.353-3.975l-0.236-1.992c-0.092-0.639-0.189-1.262-0.366-1.871c-0.333-1.219-0.765-2.399-1.276-3.528
				c-0.543-1.116-1.063-2.222-1.66-3.296c-0.289-0.539-0.573-1.082-0.842-1.652c-0.264-0.559-0.504-1.147-0.771-1.736
				c-0.266-0.581-0.543-1.17-0.906-1.705c-0.164-0.279-0.359-0.532-0.562-0.784c-0.198-0.252-0.4-0.501-0.614-0.742
				c-1.694-1.942-3.622-3.707-5.679-5.324c-2.055-1.626-4.248-3.102-6.612-4.253c-0.581-0.31-1.189-0.57-1.796-0.83
				c-0.605-0.26-1.204-0.531-1.825-0.757l-1.872-0.662c-0.641-0.188-1.197-0.554-2.021-0.352c-0.409,0.096-0.851,0.26-1.334,0.509
				c-0.482,0.245-0.989,0.527-1.484,0.765c-0.507,0.264-0.984,0.443-1.451,0.543c-0.237,0.046-0.443,0.062-0.69,0.034
				c-0.061-0.012-0.097-0.004-0.146-0.008c-0.029-0.007-0.023,0.004-0.083-0.019l-0.032,0.012c-0.043,0.011-0.074,0.011-0.111,0.019
				c-0.25-0.03-0.365-0.329-0.56-0.879l-0.161-0.464c-0.061-0.156-0.124-0.348-0.202-0.53c-0.151-0.391-0.341-0.812-0.576-1.205
				c-0.455-0.814-1.091-1.564-1.763-1.946c-0.336-0.199-0.679-0.313-1.016-0.353c-0.336-0.045-0.655,0.02-0.98,0.062
				c-1.303,0.184-2.57,0.601-3.752,1.186c-1.19,0.565-2.325,1.239-3.443,1.936c-1.12,0.688-2.201,1.441-3.257,2.232
				c-0.518,0.406-1.026,0.826-1.533,1.247c-0.504,0.429-0.988,0.887-1.476,1.331c-0.226,0.222-0.509,0.462-0.702,0.676
				c-0.206,0.219-0.401,0.464-0.583,0.716c-0.174,0.268-0.357,0.521-0.51,0.807c-0.158,0.287-0.307,0.574-0.452,0.868
				c-0.583,1.171-1.124,2.357-1.91,3.353c-0.788,0.986-1.612,1.966-2.48,2.918c-1.709,1.931-3.621,3.767-5.342,5.763
				c-0.845,1.006-1.677,2.031-2.421,3.113c-0.384,0.535-0.727,1.102-1.084,1.651c-0.348,0.56-0.719,1.103-1.038,1.683
				c-1.354,2.264-2.487,4.67-3.677,7.036c-1.188,2.371-2.419,4.716-3.852,6.933c-0.359,0.557-0.699,1.119-1.128,1.631
				c-0.422,0.517-0.9,0.998-1.427,1.449c-1.051,0.902-2.242,1.721-3.174,2.707c-0.944,0.973-1.575,2.142-2.31,3.244l-2.138,3.35
				c-2.84,4.474-5.652,8.979-8.615,13.404c-1.481,2.209-2.999,4.394-4.574,6.541c-1.557,2.162-3.169,4.283-4.858,6.342
				c-1.683,2.041-3.413,4.084-5.237,6.012c-1.822,1.945-3.754,3.777-5.744,5.545c-3.988,3.52-8.425,6.529-13.191,8.88
				L19.325,205.895z"/>
			<path fill="#B4B4B4" d="M22.235,213.938c3.275-1.854,6.387-3.98,9.353-6.287c2.972-2.299,5.805-4.775,8.48-7.406
				c2.688-2.62,5.232-5.373,7.696-8.207c1.234-1.416,2.453-2.838,3.649-4.283c1.191-1.449,2.355-2.922,3.497-4.406
				c4.57-5.935,8.754-12.152,12.337-18.676c0.443-0.818,0.903-1.626,1.301-2.472l0.279-0.644c0.082-0.218,0.168-0.436,0.244-0.656
				c0.073-0.228,0.157-0.444,0.217-0.674c0-0.016,0.099-0.199,0.068-0.16l0.03-0.084l0.058-0.176l0.112-0.338
				c0.582-1.839,1.029-3.746,1.888-5.398c0.88-1.646,1.822-3.242,2.816-4.842c0.513-0.779,1.044-1.603,1.593-2.379l1.663-2.332
				c2.261-3.092,4.53-6.138,6.448-9.438c0.96-1.651,1.82-3.38,2.834-5.009l0.378-0.612l0.407-0.597
				c0.272-0.395,0.545-0.789,0.844-1.167c0.585-0.758,1.191-1.507,1.933-2.146c0.365-0.321,0.774-0.604,1.174-0.895l1.259-0.818
				c0.835-0.547,1.647-1.102,2.344-1.76c1.363-1.33,2.715-2.661,4.031-4.03l1.979-2.056l0.996-1.021
				c0.339-0.337,0.675-0.685,1.089-1.029c1.582-1.357,3.489-2.233,5.42-2.888c1.943-0.703,4.037-0.787,6.018-0.512
				c1.996,0.279,3.878,0.876,5.744,1.423c0.472,0.13,0.923,0.313,1.401,0.425c0.478,0.11,1.01,0.103,1.545,0.106
				c0.266,0.004,0.537,0.004,0.797,0.042c0.137,0.008,0.259,0.038,0.387,0.062c0.12,0.038,0.279,0,0.326,0.188
				c0.047,0.194,0.159,0.24,0.261,0.324l0.296,0.237l0.587,0.482c0.762,0.657,1.624,1.12,2.433,1.686
				c0.809,0.556,1.589,1.151,2.343,1.788c3.001,2.54,5.487,5.679,7.315,9.155c0.453,0.864,0.871,1.755,1.25,2.653
				c0.371,0.898,0.738,1.847,0.994,2.854c0.524,1.973,0.699,3.979,0.715,5.941c0.009,3.943-0.592,7.779-1.402,11.527
				c-0.41,1.881-0.898,3.725-1.366,5.588c-0.47,1.854-0.88,3.728-1.405,5.574c-0.966,3.713-2.379,7.281-4.123,10.674
				c-0.856,1.705-1.774,3.373-2.678,5.047c-0.908,1.677-1.761,3.373-2.633,5.057c-1.74,3.373-3.409,6.791-5.317,10.089l-0.71,1.235
				l-0.751,1.215c-0.497,0.814-1.025,1.605-1.562,2.395c-0.529,0.793-1.084,1.567-1.69,2.314c-0.615,0.732-1.271,1.439-1.969,2.117
				l-2.079,2.02c-0.682,0.678-1.322,1.377-1.963,2.084c-1.271,1.416-2.636,2.742-3.952,4.081c-1.324,1.339-2.582,2.738-3.821,4.16
				l-0.923,1.079c-0.313,0.352-0.599,0.732-0.822,1.169c-0.453,0.881-0.72,1.966-1.233,2.8c-0.257,0.422-0.58,0.766-0.926,1.096
				l-1.021,0.996c-0.683,0.666-1.373,1.323-2.069,1.979c-1.396,1.304-2.816,2.576-4.268,3.826c-2.902,2.49-5.914,4.869-9.065,7.068
				c-3.162,2.18-6.435,4.206-9.796,6.057c-1.681,0.931-3.378,1.82-5.101,2.662c-1.726,0.834-3.467,1.629-5.225,2.388
				c-3.511,1.514-7.066,2.891-10.654,4.163c-3.593,1.255-7.214,2.406-10.847,3.484c-1.816,0.534-3.639,1.06-5.461,1.567
				c-1.824,0.493-3.643,1.024-5.488,1.431c-0.923,0.215-1.862,0.358-2.805,0.489c-0.95,0.093-1.893,0.215-2.849,0.29
				c-1.904,0.161-3.792,0.391-5.83-0.008c1.613-1.309,3.373-1.996,5.109-2.784c0.862-0.394,1.737-0.757,2.604-1.14
				c0.876-0.353,1.754-0.688,2.645-0.979c1.784-0.576,3.591-1.061,5.379-1.604c1.792-0.53,3.576-1.077,5.355-1.639
				c3.555-1.134,7.085-2.326,10.568-3.611c3.493-1.27,6.942-2.639,10.327-4.131c1.692-0.744,3.367-1.521,5.021-2.336
				c1.661-0.808,3.308-1.633,4.931-2.504c3.245-1.744,6.402-3.638,9.459-5.695c3.065-2.043,6.053-4.207,8.932-6.527
				c1.441-1.154,2.858-2.354,4.255-3.566c0.697-0.611,1.389-1.231,2.076-1.854l1.024-0.938c0.335-0.324,0.687-0.627,1.105-0.863
				c0.834-0.475,1.908-0.719,2.78-1.17c0.439-0.223,0.814-0.514,1.159-0.834l1.046-0.944c1.376-1.282,2.693-2.616,3.917-4.043
				c0.603-0.72,1.223-1.437,1.804-2.164c0.574-0.733,1.128-1.487,1.663-2.248c0.538-0.765,1.041-1.554,1.484-2.388
				c0.432-0.832,0.826-1.692,1.218-2.553c0.381-0.865,0.782-1.715,1.212-2.539c0.435-0.826,0.905-1.627,1.385-2.422
				c0.473-0.8,0.937-1.603,1.423-2.391l0.707-1.201l0.729-1.186c1.906-3.189,3.846-6.379,5.524-9.702
				c0.841-1.667,1.649-3.343,2.354-5.065c0.707-1.723,1.35-3.473,2.004-5.217c1.264-3.496,2.662-6.915,4.208-10.287
				c0.733-1.697,1.511-3.396,2.127-5.137c0.61-1.743,1.146-3.516,1.638-5.288c0.963-3.558,1.696-7.175,1.898-10.788
				c0.089-1.802,0.031-3.613-0.325-5.335c-0.175-0.849-0.481-1.683-0.808-2.539c-0.331-0.849-0.68-1.697-1.104-2.505
				c-1.652-3.25-3.992-6.164-6.85-8.39c-0.713-0.555-1.452-1.075-2.216-1.553c-0.382-0.233-0.763-0.479-1.166-0.677
				c-0.212-0.085-0.478-0.081-0.779,0c-0.152,0.038-0.314,0.099-0.486,0.187c-0.172,0.076-0.343,0.165-0.521,0.271
				c-0.352,0.191-0.709,0.414-1.024,0.582c-0.164,0.099-0.317,0.168-0.463,0.24c-0.142,0.054-0.298,0.149-0.403,0.142
				c-0.102-0.016-0.113-0.229-0.157-0.367c-0.034-0.156-0.072-0.316-0.098-0.504c-0.064-0.349-0.116-0.752-0.178-1.149
				c-0.059-0.394-0.136-0.78-0.241-1.124c-0.103-0.329-0.242-0.597-0.411-0.796c-0.164-0.206-0.37-0.306-0.567-0.432
				c-0.197-0.126-0.397-0.241-0.604-0.349c-0.823-0.443-1.7-0.765-2.606-0.94c-0.907-0.191-1.834-0.229-2.75-0.252
				c-1.827,0.022-3.685,0.037-5.423,0.592c-1.73,0.532-3.338,1.357-4.73,2.437c-0.667,0.543-1.369,1.208-2.05,1.841
				c-0.681,0.632-1.342,1.297-1.976,1.981c-1.28,1.365-2.388,2.887-3.382,4.485c-0.469,0.83-0.732,1.828-0.901,2.884l-0.265,1.571
				c-0.102,0.509-0.231,0.991-0.399,1.441c-0.179,0.443-0.389,0.857-0.65,1.23c-0.123,0.191-0.27,0.369-0.405,0.551
				c-0.132,0.185-0.275,0.361-0.425,0.535c-0.577,0.705-1.221,1.365-1.92,1.99c-1.403,1.233-2.982,2.377-4.343,3.692
				c-1.366,1.315-2.395,2.868-3.38,4.444c-0.467,0.811-0.938,1.604-1.373,2.439c-0.421,0.829-0.847,1.659-1.231,2.508l-2.31,5.105
				c-0.421,0.83-0.826,1.701-1.281,2.527c-0.228,0.42-0.453,0.834-0.696,1.239c-0.237,0.412-0.481,0.821-0.741,1.216
				c-1.025,1.605-2.492,2.938-3.842,4.328l-0.244,0.26l-0.125,0.135l-0.061,0.064c-0.061,0.092,0.009-0.046-0.02-0.008
				c-0.164,0.186-0.304,0.383-0.457,0.566c-0.291,0.386-0.567,0.775-0.832,1.17c-0.517,0.804-0.988,1.629-1.499,2.432
				c-4.021,6.46-8.61,12.518-13.535,18.242c-1.234,1.43-2.489,2.841-3.757,4.236c-1.261,1.404-2.538,2.793-3.834,4.16
				c-2.582,2.746-5.251,5.416-8.048,7.939c-2.806,2.52-5.7,4.939-8.729,7.178C28.682,210.048,25.515,212.098,22.235,213.938z"/>
			<path fill="#B4B4B4" d="M24.455,221.23c2.408-1.646,4.783-3.328,7.129-5.053c2.349-1.725,4.631-3.529,6.889-5.365
				c4.522-3.668,8.888-7.52,13.081-11.549l3.161-3.007c1.048-1.01,2.092-2.021,2.984-3.182c0.896-1.155,1.663-2.433,2.459-3.664
				c0.39-0.627,0.811-1.216,1.209-1.828l0.59-0.921l0.561-0.938c0.744-1.254,1.803-2.219,2.97-3.109
				c1.172-0.883,2.507-1.652,3.575-2.653c1.05-1.006,2.029-2.092,2.239-3.718c0.13-0.799,0.176-1.633,0.354-2.374
				c0.088-0.371,0.224-0.712,0.375-1.033c0.168-0.313,0.369-0.604,0.559-0.901c0.776-1.187,1.491-2.41,2.234-3.605
				c0.76-1.197,1.456-2.43,2.19-3.637l0.226-0.367l0.152-0.23l0.308-0.449l0.616-0.903c0.407-0.608,0.84-1.201,1.254-1.798
				l2.519-3.58l2.517-3.578c0.833-1.2,1.623-2.422,2.441-3.629c1.531-2.485,3.305-4.818,4.319-7.637
				c0.537-1.389,1.05-2.797,1.723-4.11c0.339-0.654,0.717-1.281,1.144-1.882c0.413-0.608,0.896-1.168,1.469-1.672
				c1.134-1.01,2.663-1.748,3.866-2.692c0.599-0.478,1.153-0.979,1.601-1.56c0.438-0.582,0.689-1.301,0.935-2.026
				c0.063-0.185,0.132-0.36,0.159-0.566c0.03-0.206,0.016-0.443,0.003-0.681c-0.04-0.485-0.087-0.982,0.073-1.327
				c0.352-0.661,1.048-1.071,1.851-1.388c0.398-0.161,0.794-0.321,1.146-0.513c0.354-0.191,0.645-0.428,0.904-0.688
				c0.533-0.521,1.062-1.04,1.581-1.564c1.045-1.051,2.012-2.16,3.031-3.284c0.26-0.284,0.527-0.559,0.807-0.826
				c0.136-0.142,0.289-0.26,0.421-0.409c0.128-0.161,0.195-0.409,0.254-0.694c0.062-0.275,0.124-0.581,0.261-0.792
				c0.126-0.222,0.326-0.348,0.529-0.474c0.415-0.229,0.944-0.367,1.553-0.157l1.118,4.285c-0.122-0.008-0.352-0.065-0.649-0.114
				c-0.153-0.039-0.301-0.031-0.505-0.101c-0.195-0.045-0.44-0.152-0.666-0.206c-0.232-0.062-0.445-0.072-0.607-0.012
				c-0.159,0.069-0.295,0.173-0.444,0.261c-0.29,0.184-0.579,0.379-0.861,0.585c-1.147,0.818-2.173,1.843-3.049,2.979
				c-0.438,0.57-0.847,1.166-1.234,1.779c-0.203,0.298-0.366,0.627-0.468,1.005c-0.099,0.379-0.154,0.792-0.203,1.205
				c-0.089,0.834-0.272,1.587-0.792,2.093c-0.273,0.239-0.756,0.328-1.227,0.428c-0.229,0.058-0.456,0.111-0.64,0.203
				c-0.188,0.084-0.331,0.207-0.481,0.32c-0.609,0.451-1.203,0.918-1.601,1.521c-0.393,0.611-0.668,1.304-0.894,2.027
				c-0.449,1.453-0.551,3.127-1.027,4.543c-0.23,0.711-0.556,1.36-0.94,1.973c-0.372,0.619-0.787,1.209-1.243,1.775
				c-0.913,1.131-1.971,2.176-2.997,3.241c-2.117,2.097-3.444,4.696-4.992,7.158c-0.724,1.259-1.463,2.509-2.171,3.787l-2.082,3.848
				l-2.081,3.851c-0.352,0.646-0.684,1.289-1.044,1.92l-0.533,0.953l-0.268,0.474l-0.134,0.239l-0.016,0.035
				c0.031-0.058-0.096,0.164,0.066-0.119l-0.03,0.062l-0.062,0.126c-0.643,1.356-1.396,2.654-2.133,3.962
				c-0.753,1.293-1.584,2.543-2.42,3.786c-0.207,0.313-0.417,0.62-0.654,0.911c-0.256,0.277-0.529,0.55-0.86,0.771
				c-0.643,0.459-1.443,0.803-2.165,1.195c-1.491,0.739-2.265,1.979-3.01,3.26c-0.722,1.297-1.223,2.795-1.93,4.129
				c-0.714,1.34-1.565,2.574-2.771,3.484c-0.609,0.447-1.207,0.902-1.801,1.354c-0.591,0.459-1.174,0.923-1.788,1.354
				c-1.22,0.868-2.505,1.658-3.681,2.55c-1.186,0.885-2.239,1.889-3.321,2.873l-3.251,2.922c-4.325,3.916-8.815,7.647-13.447,11.188
				c-2.313,1.774-4.677,3.479-7.037,5.183C29.282,217.964,26.88,219.615,24.455,221.23z"/>
			<path fill="#B4B4B4" d="M41.787,216.988c1.441-1.702,2.847-3.438,4.206-5.217l1.023-1.33c0.339-0.447,0.677-0.892,0.982-1.369
				c0.607-0.963,1.124-2.022,1.854-2.85c0.364-0.416,0.77-0.787,1.157-1.178l1.168-1.154l2.327-2.33l1.175-1.154l1.154-1.15
				c0.79-0.779,1.562-1.568,2.375-2.32c1.599-1.526,3.256-2.979,4.914-4.426c0.828-0.726,1.677-1.426,2.509-2.145
				c0.208-0.182,0.415-0.36,0.637-0.524c0.232-0.157,0.476-0.298,0.749-0.413c0.545-0.229,1.19-0.357,1.806-0.527
				c0.609-0.168,1.191-0.366,1.648-0.695c0.454-0.321,0.891-0.665,1.306-1.027c0.837-0.725,1.56-1.559,2.205-2.459
				c0.613-0.935,1.334-1.768,1.688-2.923c0.195-0.56,0.345-1.155,0.531-1.706c0.191-0.559,0.437-1.059,0.76-1.499l2.019-2.538
				c0.683-0.834,1.357-1.68,2.028-2.525l0.51-0.631l0.256-0.31l0.032-0.046c0.14-0.184,0.048-0.061,0.086-0.105l0.016-0.017
				l0.068-0.085l0.137-0.152c0.362-0.412,0.737-0.826,1.103-1.224l2.195-2.448c0.727-0.816,1.446-1.644,2.158-2.471
				c0.708-0.837,1.391-1.688,2.073-2.547c0.656-0.87,1.309-1.751,1.944-2.639c0.622-0.895,1.226-1.801,1.822-2.715
				c1.175-1.836,2.275-3.718,3.251-5.652c0.491-0.971,0.967-1.942,1.419-2.922c0.225-0.485,0.442-0.979,0.657-1.476
				c0.208-0.489,0.427-0.979,0.573-1.499c0.291-1.049,0.423-2.134,0.878-3.083c0.215-0.485,0.469-0.948,0.732-1.415
				c0.281-0.462,0.58-0.918,0.88-1.38c0.615-0.926,1.134-1.901,1.476-2.925c0.189-0.505,0.366-1.025,0.49-1.555
				c0.14-0.52,0.244-1.051,0.306-1.586l1.08,0.072l-0.034,1.697l-0.046,1.717l-0.044,0.86l-0.032,0.872l-0.023,1.773
				c-0.01,0.598-0.046,1.192-0.118,1.774c-0.084,0.585-0.211,1.155-0.381,1.705c-0.166,0.551-0.425,1.075-0.715,1.571
				c-0.297,0.502-0.635,0.976-0.934,1.465c-0.302,0.49-0.553,0.994-0.809,1.5c-0.258,0.504-0.521,1.01-0.793,1.507
				c-0.537,0.993-1.098,1.967-1.673,2.938c-1.167,1.922-2.345,3.83-3.59,5.689c-2.495,3.708-5.128,7.305-7.893,10.783
				c-0.696,0.881-1.391,1.736-2.097,2.593l-1.057,1.285l-0.221,0.269l-0.254,0.327l-0.506,0.675
				c-1.383,1.758-2.81,3.477-4.295,5.135c-0.748,0.83-1.603,1.558-2.436,2.304l-2.442,2.274c-0.83,0.742-1.688,1.453-2.399,2.303
				c-0.361,0.412-0.698,0.855-1.014,1.324c-0.315,0.465-0.507,1.054-0.671,1.666c-0.161,0.623-0.293,1.277-0.531,1.828
				c-0.113,0.274-0.26,0.521-0.419,0.756c-0.168,0.224-0.354,0.431-0.538,0.645c-0.734,0.829-1.46,1.684-2.212,2.493
				c-1.497,1.64-3.016,3.255-4.587,4.799c-0.771,0.788-1.583,1.534-2.373,2.291L59.8,204.7l-1.22,1.14l-2.481,2.227l-1.245,1.104
				c-0.419,0.363-0.82,0.746-1.267,1.082c-0.891,0.675-1.997,1.104-3.018,1.638c-0.507,0.26-0.987,0.56-1.461,0.86l-1.435,0.888
				c-1.918,1.174-3.807,2.379-5.683,3.586L41.787,216.988z"/>
			<path fill="#B4B4B4" d="M25.406,229.789c3.436-1.025,6.635-2.671,9.631-4.582c1.485-0.986,2.814-2.248,4.224-3.312
				c1.395-1.086,2.952-1.865,4.435-2.799c5.948-3.679,11.645-7.82,17.285-12.062c1.407-1.065,2.806-2.153,4.184-3.251
				c1.401-1.094,2.759-2.18,4.182-3.338l1.054-0.83l1.021-0.823c0.684-0.554,1.364-1.112,2.037-1.683
				c1.284-1.196,3.397-1.537,4.725-2.729l2.02-1.756c0.671-0.588,1.294-1.224,1.937-1.843c1.252-1.27,2.435-2.608,3.567-3.983
				c0.279-0.346,0.582-0.683,0.854-1.041c0.132-0.185,0.25-0.375,0.361-0.573c0.12-0.19,0.222-0.396,0.321-0.611
				c0.394-0.842,0.719-1.744,1.256-2.451c0.26-0.355,0.562-0.678,0.856-1.018l0.864-0.998l0.86-1.01l0.874-0.998
				c1.146-1.343,2.329-2.658,3.461-4.004c1.138-1.351,2.233-2.724,3.263-4.139c0.514-0.708,1.013-1.424,1.481-2.148
				c0.236-0.367,0.445-0.742,0.656-1.117l0.64-1.166c0.429-0.77,0.798-1.571,1.185-2.371c0.378-0.799,0.747-1.596,1.072-2.422
				c0.325-0.82,0.579-1.674,0.83-2.522c0.226-0.86,0.434-1.722,0.602-2.597c0.347-1.748,0.63-3.495,1.034-5.19
				c0.2-0.849,0.427-1.681,0.672-2.517c0.228-0.832,0.653-1.608,1.255-2.348c0.579-0.74,1.236-1.481,1.64-2.291
				c0.218-0.4,0.359-0.82,0.509-1.242c0.157-0.416,0.279-0.842,0.401-1.262c0.488-1.709,0.683-3.472,0.968-5.213l0.22-1.312
				l0.241-1.307c0.176-0.869,0.344-1.744,0.455-2.625c0.072-0.887,0.214-1.831,0.499-2.691c0.14-0.437,0.313-0.86,0.515-1.27
				c0.193-0.413,0.409-0.811,0.638-1.213c0.46-0.795,1.016-1.553,1.656-2.329c0.646-0.765,1.402-1.575,2.343-2.214
				c0.937-0.639,2.055-1.074,3.208-1.155c0.575-0.038,1.163-0.022,1.723,0.13c0.562,0.146,1.09,0.425,1.555,0.792
				c0.937,0.75,1.606,1.706,2.323,2.429c0.363,0.367,0.71,0.738,1.012,1.144c0.319,0.394,0.592,0.814,0.852,1.235
				c0.514,0.853,0.936,1.739,1.229,2.669c0.148,0.463,0.274,0.938,0.354,1.411c0.084,0.476,0.135,0.972,0.178,1.399
				c0.148,1.815,0.133,3.633,0.104,5.438c0.013,3.621-0.279,7.213-0.486,10.83c-0.11,1.806,0.051,3.688-0.248,5.482
				c-0.141,0.906-0.335,1.795-0.52,2.687c-0.224,0.887-0.451,1.767-0.715,2.64c-1.072,3.477-2.302,6.901-3.761,10.217
				c-0.734,1.652-1.482,3.297-2.275,4.926c-0.778,1.631-1.549,3.26-2.381,4.857c-0.791,1.625-1.619,3.229-2.436,4.838
				c-0.824,1.613-1.648,3.223-2.531,4.807c-0.884,1.584-1.818,3.14-2.78,4.677c-0.986,1.526-2.038,3.006-3.167,4.433
				c-0.562,0.711-1.088,1.453-1.833,2.016c-0.73,0.582-1.603,1.037-2.385,1.553c-0.4,0.25-0.767,0.533-1.102,0.831
				c-0.338,0.302-0.643,0.627-0.958,0.948c-0.635,0.635-1.248,1.285-1.86,1.935c-1.229,1.304-2.375,2.685-3.562,4.031
				c-1.154,1.384-2.444,2.627-3.464,4.168c-0.533,0.741-1.046,1.515-1.667,2.181c-0.613,0.664-1.29,1.262-1.956,1.877
				c-1.339,1.213-2.703,2.406-4.088,3.567c-2.772,2.325-5.639,4.543-8.587,6.646c-2.951,2.107-5.983,4.101-9.089,5.969
				c-3.11,1.875-6.28,3.643-9.547,5.234c-3.252,1.604-6.566,3.088-9.926,4.459c-3.354,1.375-6.776,2.576-10.216,3.699
				c-3.45,1.118-6.92,2.15-10.429,3.03c-0.88,0.206-1.782,0.339-2.696,0.397c-0.916,0.061-1.843,0.057-2.763,0.067
				c-0.924,0.008-1.841,0.03-2.765,0.008c-0.926-0.038-1.858-0.114-2.808-0.291l-0.011-0.058c0.801-0.539,1.617-0.982,2.438-1.399
				l2.465-1.178c0.82-0.39,1.629-0.813,2.449-1.181c0.816-0.369,1.648-0.678,2.498-0.922c3.402-0.935,6.795-1.9,10.141-3.006
				c3.353-1.091,6.656-2.311,9.938-3.584c3.281-1.285,6.519-2.662,9.7-4.16c3.174-1.525,6.329-3.086,9.413-4.785
				c3.082-1.698,6.104-3.519,9.052-5.445c2.946-1.936,5.82-3.984,8.61-6.146c1.392-1.078,2.769-2.188,4.12-3.322
				c0.681-0.565,1.337-1.159,2.044-1.689c0.704-0.544,1.502-0.982,2.267-1.47c1.573-0.917,2.835-2.175,4.186-3.341
				c1.313-1.209,2.627-2.426,3.803-3.764c0.593-0.666,1.171-1.348,1.717-2.051c0.277-0.352,0.559-0.695,0.805-1.07
				c0.247-0.375,0.457-0.781,0.637-1.209c0.368-0.849,0.63-1.773,1.018-2.592c0.373-0.826,0.947-1.492,1.467-2.203l3.14-4.236
				c1.068-1.4,2.098-2.83,3.114-4.275c1.017-1.445,2.02-2.902,2.957-4.406c0.938-1.494,1.799-3.043,2.623-4.611
				c0.814-1.563,1.603-3.15,2.34-4.756c0.732-1.615,1.444-3.24,2.031-4.912c0.573-1.666,1.08-3.364,1.445-5.102
				c0.188-0.863,0.401-1.721,0.413-2.634c0.023-0.905-0.104-1.854-0.262-2.796c-0.151-0.938-0.341-1.874-0.355-2.754
				c-0.021-0.887,0.092-1.729,0.344-2.543c0.146-0.4,0.379-0.793,0.688-1.166c0.308-0.375,0.721-0.734,1.136-1.102
				c0.843-0.724,1.694-1.478,2.112-2.307c0.779-1.672,1.004-3.449,0.939-5.221l-0.088-2.661v-2.64
				c-0.002-1.76-0.127-3.519-0.31-5.254c-0.052-0.459-0.081-0.854-0.133-1.266c-0.058-0.409-0.125-0.818-0.225-1.221
				c-0.188-0.799-0.487-1.591-0.994-2.241c-0.493-0.646-1.168-1.15-1.918-1.43c-0.394-0.115-0.858-0.1-1.338,0.076
				c-0.484,0.168-0.964,0.475-1.355,0.766c-0.402,0.294-0.706,0.527-0.964,0.635c-0.255,0.114-0.467,0.064-0.694,0.053
				c-0.449-0.05-0.904-0.237-1.497-0.481c-0.575-0.222-1.3-0.447-2.004-0.383c-0.725,0.039-1.361,0.359-1.98,0.78
				c-0.612,0.437-1.201,1.025-1.572,1.76c-0.187,0.366-0.335,0.761-0.438,1.167c-0.102,0.408-0.159,0.807-0.184,1.276
				c-0.069,0.897-0.046,1.802-0.062,2.707l-0.071,1.356c-0.038,0.449-0.097,0.896-0.152,1.343c-0.205,1.798-0.66,3.55-0.874,5.343
				c-0.056,0.443-0.114,0.896-0.148,1.354c-0.045,0.451-0.1,0.898-0.084,1.369c0.007,0.934,0.265,1.932,0.418,2.922
				c0.176,0.994,0.14,1.951-0.146,2.822c-0.264,0.887-0.567,1.76-0.925,2.6c-0.722,1.707-1.666,3.316-2.637,4.888
				c-0.492,0.789-0.966,1.576-1.442,2.356c-0.451,0.795-0.921,1.574-1.346,2.375c-0.421,0.802-0.816,1.613-1.226,2.42
				c-0.403,0.811-0.84,1.599-1.239,2.41l-0.617,1.199c-0.212,0.418-0.44,0.818-0.66,1.225c-0.434,0.811-0.893,1.605-1.367,2.387
				c-0.948,1.561-1.958,3.074-2.99,4.568c-1.04,1.488-2.098,2.957-3.241,4.356l-0.853,1.056l-0.888,1.024l-0.895,1.021
				c-0.3,0.326-0.585,0.683-0.92,0.992c-0.652,0.627-1.527,1.047-2.34,1.521c-0.203,0.122-0.405,0.237-0.59,0.374
				c-0.19,0.127-0.376,0.27-0.544,0.414c-0.343,0.291-0.646,0.611-0.972,0.922c-1.297,1.242-2.57,2.501-3.807,3.798
				c-0.604,0.655-1.234,1.296-1.828,1.974l-1.792,2.01c-1.233,1.297-1.723,3.408-3.084,4.613c-0.648,0.635-1.303,1.258-1.964,1.881
				l-1.005,0.935l-0.993,0.901c-1.26,1.192-2.61,2.447-3.948,3.647c-1.352,1.201-2.727,2.379-4.115,3.533
				c-2.755,2.349-5.652,4.534-8.61,6.64c-0.737,0.527-1.479,1.049-2.233,1.562c-0.755,0.503-1.52,0.994-2.286,1.48
				c-1.537,0.979-3.096,1.924-4.678,2.838c-1.589,0.896-3.146,1.866-4.908,2.455c-1.749,0.604-3.627,0.926-5.399,1.399
				C32.474,228.35,28.936,229.191,25.406,229.789z"/>
			<path fill="#B4B4B4" d="M23.596,238.564c4.675-2.439,8.812-5.063,13.386-7.028c4.457-2.19,8.764-4.739,12.985-7.411
				c4.216-2.688,8.344-5.529,12.373-8.494c2.018-1.488,4.02-2.99,5.979-4.547c1.974-1.533,3.909-3.117,5.804-4.738
				c1.902-1.621,3.762-3.279,5.541-5.002c0.451-0.429,0.985-0.771,1.591-1.047c0.61-0.279,1.271-0.521,1.863-0.826
				c0.595-0.314,1.099-0.703,1.535-1.16c0.447-0.445,0.883-0.9,1.29-1.375c0.83-0.969,1.618-1.971,2.371-2.99
				c0.75-1.029,1.467-2.086,2.212-3.117c0.373-0.52,0.66-1.105,0.907-1.729c0.244-0.627,0.478-1.271,0.807-1.828
				c0.321-0.562,0.755-1.028,1.153-1.529l1.223-1.469c3.291-3.9,6.892-7.519,10.538-11.076c0.914-0.887,1.813-1.788,2.78-2.617
				c0.964-0.835,1.968-1.633,2.958-2.443c1.96-1.642,3.837-3.351,5.518-5.263l0.77,0.765c-1.905,1.684-3.588,3.588-5.159,5.592
				c-0.778,1.008-1.533,2.037-2.325,3.035c-0.783,1.002-1.633,1.937-2.459,2.898c-3.312,3.833-6.56,7.702-9.958,11.436l-1.275,1.398
				c-0.43,0.459-0.823,0.957-1.327,1.361c-0.495,0.397-1.084,0.727-1.655,1.07c-0.57,0.344-1.094,0.734-1.536,1.189
				c-0.873,0.922-1.759,1.832-2.6,2.783c-0.834,0.953-1.61,1.947-2.329,2.998l-1.092,1.588c-0.379,0.516-0.71,1.078-0.958,1.721
				c-0.252,0.635-0.451,1.327-0.713,1.975c-0.261,0.649-0.608,1.211-1.05,1.688c-1.78,1.896-3.628,3.698-5.513,5.462
				c-7.582,6.994-15.872,13.133-24.68,18.462c-4.407,2.662-8.963,5.099-13.683,7.24c-1.186,0.526-2.373,1.047-3.587,1.521
				c-1.221,0.459-2.49,0.799-3.788,1.033c-1.304,0.225-2.617,0.389-3.925,0.523C26.261,238.752,24.934,238.791,23.596,238.564z"/>
			<path fill="#B4B4B4" d="M122.869,128.088c0.95,0.329,1.553,0.666,2.048,1.002c0.481,0.333,0.821,0.688,1.05,1.049
				c0.22,0.359,0.336,0.723,0.35,1.078c0.02,0.355-0.068,0.711-0.341,1.062c-0.535,0.707-1.867,1.393-2.837,2.064
				c-0.475,0.338-0.824,0.676-0.994,1.018c-0.095,0.17-0.137,0.338-0.151,0.514l-0.07,0.518c-0.211,1.373-0.333,2.752-0.44,4.125
				c-0.088,1.381-0.096,2.766-0.107,4.157c0,0.699,0,1.396-0.013,2.093c0.009,0.703-0.117,1.383,0.168,2.129
				c0.243,0.737,0.688,1.519,0.706,2.236c0.022,0.36-0.04,0.708-0.133,1.049c-0.092,0.34-0.227,0.674-0.41,0.994
				c-0.347,0.658-0.818,1.276-1.138,1.92c-0.329,0.646-0.429,1.338-0.601,2.012c-0.329,1.354-0.685,2.707-1.067,4.051
				c-1.511,5.365-3.334,10.664-5.741,15.729c-1.195,2.539-2.526,5.018-3.999,7.411c-1.497,2.384-3.124,4.69-4.937,6.853
				c-0.449,0.543-0.912,1.078-1.379,1.611c-0.463,0.53-0.961,1.036-1.493,1.486c-1.087,0.887-2.305,1.629-3.286,2.607
				c-2.023,1.894-4.023,3.797-5.955,5.775c-0.962,0.993-1.956,1.949-2.805,3.064c-0.876,1.086-1.718,2.22-2.728,3.168
				c-2.004,1.91-4.032,3.802-6.09,5.658c-1.028,0.926-2.066,1.844-3.108,2.762c-1.049,0.91-2.086,1.837-3.176,2.701
				c-2.165,1.736-4.323,3.49-6.614,5.078c-2.281,1.594-4.559,3.207-7.006,4.574c-2.455,1.338-5.065,2.477-7.902,3.008
				c2.074-1.992,4.18-3.717,6.336-5.402c2.163-1.652,4.383-3.229,6.522-4.934c2.126-1.709,4.31-3.351,6.425-5.086
				c2.124-1.723,4.282-3.412,6.386-5.17c2.107-1.753,4.191-3.535,6.257-5.349c1.024-0.909,2.205-1.655,3.337-2.454
				c1.158-0.771,2.16-1.719,3.178-2.646c2.036-1.848,3.946-3.832,5.763-5.896c0.938-1.002,1.619-2.248,2.411-3.38
				c0.407-0.556,0.843-1.068,1.293-1.568c0.445-0.505,0.883-1.01,1.313-1.528c1.704-2.082,3.337-4.229,4.839-6.479
				c1.528-2.233,2.934-4.56,4.215-6.953c2.571-4.786,4.561-9.92,5.866-15.212c0.312-1.331,0.597-2.666,0.853-4l0.184-1.007
				c0.056-0.339,0.014-0.695-0.102-1.065c-0.114-0.371-0.313-0.758-0.55-1.146c-0.217-0.383-0.475-0.773-0.656-1.148
				c-0.348-0.748-0.467-1.438-0.088-2.05c0.374-0.61,1.597-1.093,2.381-1.666c0.386-0.292,0.643-0.601,0.745-0.935
				c0.092-0.328,0.178-0.666,0.252-1c0.154-0.668,0.269-1.348,0.345-2.027c0.065-0.682,0.116-1.365,0.096-2.055
				c0.006-0.685-0.033-1.377-0.079-2.064c-0.074-1.377-0.215-2.749-0.254-4.111c-0.036-0.685-0.061-1.365-0.162-2.049
				c-0.086-0.682-0.195-1.361-0.209-2.043c-0.008-1.357,0.1-2.691,0.652-4.092L122.869,128.088z"/>
			<path fill="#B4B4B4" d="M168.216,78.051c5.806,4.329,11.55,8.842,16.72,14.119c0.657,0.646,1.445,1.193,2.24,1.743
				c0.797,0.559,1.521,1.178,2.077,1.928c0.278,0.378,0.531,0.772,0.745,1.193c0.111,0.206,0.215,0.421,0.307,0.642
				c0.088,0.223,0.184,0.44,0.256,0.674c0.326,0.906,0.604,1.828,0.99,2.677c0.1,0.207,0.211,0.429,0.312,0.627l0.328,0.604
				l0.651,1.228c0.405,0.807,0.856,1.618,1.271,2.443c0.855,1.633,1.646,3.309,2.367,5.021c0.727,1.71,1.354,3.477,1.806,5.304
				c0.118,0.457,0.222,0.916,0.315,1.376l0.137,0.691l0.107,0.631l0.506,2.673c0.604,3.58,1.094,7.175,1.928,10.699
				c0.775,3.533,1.515,7.084,2.367,10.602l0.639,2.65c0.218,0.88,0.466,1.755,0.695,2.634l0.695,2.642
				c0.106,0.436,0.245,0.877,0.438,1.306c0.184,0.43,0.443,0.843,0.695,1.255c0.543,0.834,1.098,1.66,1.319,2.543
				c0.229,0.884,0.226,1.811,0.084,2.755c-0.159,0.942-0.489,1.915-0.711,2.867c-0.249,0.96-0.333,1.89-0.257,2.796
				c0.249,3.632,0.635,7.23,1.166,10.846c0.138,0.902,0.252,1.811,0.375,2.738c0.113,0.925,0.191,1.863,0.234,2.799
				c0.024,0.471,0.018,0.939,0.057,1.406c0.037,0.475,0.119,0.949,0.244,1.432c0.246,0.965,0.654,1.973,0.75,2.947
				c0.191,1.958-0.657,3.768-1.791,5.412l-0.836,1.238c-0.269,0.392-0.521,0.812-0.741,1.224c-0.216,0.414-0.414,0.826-0.565,1.263
				c-0.154,0.43-0.301,0.864-0.453,1.297l-0.449,1.291l-0.139,0.359l-0.13,0.318l-0.261,0.623c-0.348,0.834-0.712,1.683-1.082,2.513
				c-0.738,1.664-1.52,3.312-2.322,4.94c-1.609,3.263-3.38,6.439-5.199,9.571c-0.922,1.563-1.875,3.109-2.847,4.632
				c-0.487,0.766-0.989,1.521-1.491,2.274c-0.488,0.754-0.994,1.511-1.506,2.265c-2.023,3.002-4.279,5.848-6.779,8.467
				c2.436-2.674,4.623-5.571,6.564-8.607c1.891-3.086,3.732-6.195,5.408-9.393c1.689-3.183,3.203-6.463,4.588-9.783
				c0.688-1.658,1.348-3.334,1.966-5.024c0.313-0.841,0.612-1.675,0.91-2.53l0.214-0.644l0.105-0.321l0.086-0.283l0.359-1.291
				c0.114-0.43,0.248-0.857,0.344-1.306c0.104-0.428,0.162-0.883,0.191-1.334c0.026-0.463,0.016-0.909-0.021-1.392
				c-0.008-0.115-0.016-0.237-0.028-0.356l-0.019-0.179l-0.004-0.047c-0.016,0.033-0.012-0.016-0.012-0.022l-0.016-0.085
				l-0.092-0.699c-0.146-0.937-0.252-1.84-0.229-2.711c0.004-0.215,0.009-0.412,0.031-0.644l0.046-0.337l0.016-0.152l0.03-0.152
				c0.069-0.424,0.198-0.834,0.39-1.242c0.359-0.807,0.985-1.596,1.399-2.434c0.206-0.416,0.358-0.845,0.452-1.277
				c0.092-0.433,0.121-0.867,0.175-1.301c0.177-1.73,0.222-3.494,0.123-5.287c-0.106-1.789-0.291-3.58-0.56-5.356
				c-0.26-1.779-0.598-3.558-0.922-5.332c-0.156-0.884-0.429-1.756-0.791-2.61c-0.358-0.857-0.785-1.703-1.119-2.56
				c-0.322-0.861-0.584-1.726-0.701-2.619c-0.129-0.894-0.1-1.813-0.072-2.731c0.05-0.922,0.008-1.826-0.107-2.723l-0.328-2.688
				c-0.217-1.793-0.467-3.584-0.728-5.373c-0.519-3.571-1.112-7.135-1.7-10.705c-0.598-3.559-1.121-7.138-1.863-10.671l-0.601-2.643
				l-0.146-0.681l-0.152-0.646c-0.102-0.432-0.218-0.86-0.337-1.285c-0.474-1.715-1.124-3.375-1.867-4.988
				c-0.741-1.614-1.636-3.159-2.554-4.681c-0.48-0.754-0.977-1.483-1.479-2.241l-0.754-1.094c-0.131-0.172-0.262-0.359-0.398-0.543
				l-0.412-0.517c-1.188-1.357-2.814-2.352-3.771-3.805c-0.52-0.704-0.888-1.522-1.213-2.387c-0.324-0.868-0.68-1.725-1.189-2.455
				c-4.159-5.782-9.094-11.159-14.791-15.603L168.216,78.051z"/>
			<path fill="#B4B4B4" d="M207.337,112.162l0.868,2.026c0.29,0.678,0.551,1.362,0.826,2.043l1.65,4.086
				c0.56,1.354,1.133,2.7,1.76,4.016c0.322,0.653,0.644,1.3,0.979,1.942c0.341,0.635,0.673,1.271,1.116,1.851l-0.077-0.099
				l0.142,0.268c0.885,1.701,1.979,3.426,2.498,5.178c0.252,0.879,0.502,1.729,0.275,2.639c-0.107,0.451-0.268,0.918-0.387,1.381
				c-0.127,0.455-0.172,0.906-0.229,1.361c-0.026,0.223-0.065,0.451-0.069,0.678c-0.002,0.222,0.021,0.436,0.065,0.648
				c0.017,0.086,0.062,0.207,0.08,0.307l0.089,0.291c0.076,0.199,0.141,0.396,0.232,0.589c0.34,0.78,0.804,1.521,1.234,2.291
				l1.385,2.344c0.472,0.808,0.896,1.694,1.133,2.687c0.117,0.428,0.168,0.883,0.199,1.338c0.016,0.463-0.008,0.934-0.017,1.392
				c-0.004,0.468,0.017,0.922,0.101,1.365c0.08,0.44,0.199,0.868,0.302,1.305c0.417,1.744,0.821,3.488,1.187,5.246
				c0.725,3.526,1.196,7.121,1.396,10.713c0.405,7.192-0.279,14.421-1.904,21.403c-1.63,6.986-4.164,13.729-7.399,20.104
				l-0.004,0.008l-0.008,0.008c-1.225,1.832-2.337,3.736-3.41,5.66c-1.078,1.924-2.15,3.854-3.312,5.732
				c-1.167,1.872-2.43,3.7-3.887,5.359c-0.754,0.812-1.418,1.691-2.152,2.517c-0.727,0.835-1.469,1.647-2.232,2.444
				c0.756-0.805,1.49-1.625,2.211-2.467c0.719-0.834,1.383-1.717,2.125-2.535c1.438-1.672,2.678-3.508,3.824-5.389
				c1.145-1.886,2.192-3.824,3.254-5.76c1.067-1.927,2.127-3.869,3.312-5.74l-0.008,0.021c3.074-6.425,5.435-13.188,6.875-20.138
				c1.445-6.953,1.951-14.094,1.39-21.142c-0.283-3.524-0.821-7.014-1.623-10.459c-0.394-1.726-0.837-3.446-1.288-5.167
				c-0.13-0.424-0.206-0.863-0.379-1.275c-0.193-0.414-0.516-0.781-0.939-1.133c-0.414-0.353-0.879-0.682-1.225-1.048
				c-0.344-0.366-0.555-0.766-0.66-1.2c-0.089-0.346-0.135-0.688-0.146-1.1c-0.016-0.4,0.012-0.854,0.023-1.318
				c0.01-0.463,0.006-0.938-0.055-1.396c-0.061-0.454-0.172-0.897-0.333-1.317c-0.146-0.437-0.353-0.839-0.562-1.252
				c-0.223-0.4-0.459-0.814-0.688-1.234c-0.114-0.207-0.214-0.428-0.317-0.653l-0.139-0.356c-0.041-0.115-0.079-0.189-0.117-0.328
				c-0.143-0.451-0.215-0.918-0.322-1.373c-0.229-0.898-0.643-1.762-0.972-2.639c-0.147-0.438-0.268-0.876-0.329-1.322
				c-0.061-0.447-0.105-0.893-0.152-1.332c-0.137-1.758-0.104-3.498-0.395-5.174l0.065,0.16c-0.497-1.43-1.003-2.829-1.423-4.252
				c-0.437-1.422-0.814-2.845-1.215-4.257c-0.408-1.411-0.808-2.81-1.248-4.204c-0.455-1.385-0.953-2.749-1.525-4.092
				L207.337,112.162z"/>
			<path fill="#B4B4B4" d="M113.562,74.013c6.688-0.471,13.419,0.211,20.045,1.483c6.646,1.209,13.158,3.442,19.162,6.67
				c0.744,0.412,1.473,0.864,2.191,1.315c0.719,0.454,1.414,0.952,2.109,1.445c1.381,0.998,2.724,2.042,4.023,3.132
				c2.572,2.207,5.116,4.409,7.51,6.772c1.193,1.186,2.334,2.421,3.436,3.679l1.637,1.862c0.573,0.646,1.102,1.316,1.609,2
				c2.017,2.754,3.591,5.764,4.93,8.834c2.669,6.171,4.465,12.622,5.95,19.107c1.528,6.475,2.731,13.018,3.801,19.57l1.668,9.799
				l0.447,2.434c0.153,0.795,0.325,1.619,0.474,2.451c0.297,1.658,0.525,3.33,0.7,5.004c0.169,1.684,0.269,3.365,0.329,5.053
				c0.035,0.842,0.089,1.688,0.168,2.531c0.055,0.847,0.157,1.693,0.236,2.551c0.186,1.706,0.353,3.427,0.367,5.158l-0.008,0.65
				c0,0.104-0.004,0.219-0.008,0.321c-0.007,0.058,0.012-0.071-0.015,0.134l-0.009,0.043l-0.002,0.079l-0.014,0.149
				c-0.025,0.417-0.076,0.83-0.133,1.273c-0.059,0.428-0.135,0.855-0.211,1.28c-0.088,0.425-0.184,0.845-0.29,1.267l-0.046,0.184
				l-0.008,0.038c-0.459,1.278-1.103,2.493-1.813,3.683l-1.055,1.775c-0.349,0.593-0.675,1.188-1.024,1.77
				c-0.359,0.582-0.801,1.133-1.132,1.721c-0.337,0.59-0.555,1.226-0.819,1.836c-0.504,1.236-1.035,2.463-1.566,3.688
				c-1.079,2.447-2.18,4.873-3.352,7.281l-3.539,7.162c-4.81,9.568-11.207,18.396-19.148,25.6c-0.99,0.906-2.008,1.773-3.062,2.602
				c-0.527,0.412-1.057,0.826-1.6,1.22c-0.542,0.387-1.093,0.769-1.648,1.144c-1.098,0.77-2.256,1.432-3.377,2.149
				c-1.123,0.726-2.264,1.407-3.371,2.142c-1.121,0.715-2.27,1.393-3.305,2.241c-1.049,0.837-2.043,1.772-3.141,2.552
				c-1.09,0.789-2.268,1.396-3.453,2.036c-1.178,0.628-2.375,1.247-3.566,1.839c-4.781,2.383-9.674,4.571-14.732,6.301
				c-5.039,1.767-10.227,3.203-15.515,3.885c10.346-2.535,20.105-6.807,29.521-11.609c1.178-0.611,2.333-1.238,3.495-1.883
				c1.151-0.626,2.274-1.346,3.483-1.893c1.203-0.562,2.494-0.982,3.713-1.541c1.229-0.543,2.332-1.285,3.438-2.023
				c2.223-1.448,4.296-3.146,6.371-4.796c1.025-0.837,2.035-1.685,3.04-2.546c0.497-0.438,0.991-0.872,1.487-1.312
				c0.49-0.436,0.979-0.871,1.47-1.322c7.763-7.176,14.026-15.914,18.649-25.396c1.137-2.4,2.336-4.787,3.428-7.189
				c1.089-2.41,2.13-4.855,3.132-7.304c0.497-1.231,0.985-2.454,1.461-3.692c0.229-0.625,0.504-1.227,0.63-1.883
				c0.135-0.658,0.148-1.356,0.271-2.016l0.896-3.867c0.276-1.291,0.593-2.562,0.964-3.82l-0.046,0.174
				c0.151-0.78,0.329-1.568,0.501-2.344c0.08-0.384,0.161-0.793,0.26-1.197l0.034-0.153l0.021-0.076l0.011-0.03
				c-0.022,0.133-0.007,0.01-0.007,0.033l0.058-0.302l0.11-0.593c0.34-1.579,0.646-3.186,0.888-4.795
				c0.263-1.61,0.397-3.24,0.405-4.869c0.003-1.629-0.069-3.25-0.191-4.881c-0.123-1.621-0.312-3.237-0.558-4.848
				c-0.119-0.8-0.271-1.6-0.41-2.437l-0.397-2.472l-1.434-9.842c-0.979-6.545-2.042-13.068-3.496-19.5
				c-1.515-6.413-3.335-12.777-5.974-18.768c-1.327-2.983-2.868-5.87-4.787-8.459c-0.481-0.639-0.987-1.273-1.515-1.862
				l-1.656-1.858c-1.094-1.232-2.215-2.421-3.369-3.564c-2.316-2.303-4.864-4.383-7.65-6.073c-1.39-0.86-2.805-1.66-4.242-2.401
				c-0.724-0.375-1.457-0.723-2.184-1.078c-0.725-0.367-1.458-0.704-2.186-1.052c-5.812-2.838-11.938-4.976-18.217-6.704
				c-1.576-0.421-3.156-0.822-4.75-1.174c-1.595-0.352-3.197-0.677-4.81-0.982l-9.738-1.817L113.562,74.013z"/>
			<path fill="#B4B4B4" d="M32.404,258.699c3.453-0.65,6.844-1.605,10.158-2.742c1.662-0.543,3.289-1.216,4.878-1.966
				c1.594-0.746,3.144-1.576,4.723-2.302c1.574-0.731,3.175-1.371,4.783-1.992c1.606-0.641,3.194-1.312,4.771-2.008
				c3.158-1.394,6.241-2.961,9.31-4.533c3.066-1.594,6.06-3.318,9.012-5.112c2.966-1.782,5.87-3.663,8.712-5.644
				c2.845-1.979,5.645-4.031,8.359-6.188c1.361-1.073,2.694-2.188,4.031-3.3c1.326-1.109,3.213-1.648,4.604-2.734
				c2.652-2.287,5.164-4.746,7.397-7.449c1.146-1.328,2.193-2.734,3.247-4.135c0.537-0.688,1-1.441,1.389-2.248
				c0.394-0.801,0.717-1.652,1.122-2.437c0.092-0.203,0.212-0.388,0.313-0.577c0.107-0.195,0.214-0.383,0.335-0.562
				c0.234-0.367,0.495-0.711,0.753-1.066c0.507-0.695,1.012-1.398,1.507-2.11l1.495-2.127c0.493-0.711,0.98-1.422,1.482-2.13
				c0.99-1.423,1.952-2.863,2.885-4.324c0.941-1.453,1.859-2.926,2.74-4.414c0.887-1.498,1.697-3.029,2.492-4.568
				c0.397-0.772,0.787-1.549,1.166-2.329c0.384-0.78,0.709-1.583,1.054-2.38c0.688-1.59,1.284-3.219,1.835-4.863
				c0.275-0.818,0.559-1.639,0.818-2.459c0.259-0.82,0.512-1.648,0.779-2.467c2.203-6.555,3.961-13.235,5.239-20.176l0.353,0.02
				c0.256,1.773,0.336,3.566,0.336,5.355c0,1.791-0.123,3.58-0.31,5.371c-0.215,1.773-0.476,3.551-0.86,5.303
				c-0.353,1.757-0.783,3.502-1.361,5.197c-1.131,3.41-2.801,6.601-4.317,9.812c-1.487,3.229-2.993,6.443-4.612,9.605
				c-0.807,1.588-1.641,3.16-2.504,4.711c-0.871,1.549-1.781,3.078-2.718,4.59c-0.465,0.766-0.952,1.508-1.455,2.24
				c-0.503,0.735-0.996,1.478-1.525,2.188c-0.525,0.72-1.06,1.431-1.601,2.138c-0.52,0.719-1.113,1.389-1.786,1.993
				c-0.673,0.601-1.438,1.124-2.146,1.687c-0.36,0.274-0.688,0.578-1.024,0.875c-0.325,0.307-0.629,0.627-0.93,0.949
				c-1.196,1.293-2.45,2.539-3.655,3.822c-2.461,2.518-4.83,5.11-7.228,7.698c-1.134,1.354-1.818,3.222-3.096,4.456
				c-1.275,1.238-2.591,2.432-3.916,3.613c-2.66,2.358-5.395,4.644-8.224,6.799c-2.84,2.158-5.758,4.203-8.745,6.15
				c-3,1.932-6.095,3.709-9.242,5.396c-3.138,1.702-6.391,3.187-9.672,4.594c-1.644,0.694-3.302,1.36-4.972,1.992
				c-1.663,0.646-3.363,1.212-5.108,1.626c-1.744,0.404-3.54,0.643-5.313,0.887c-1.777,0.249-3.538,0.504-5.279,0.814
				C39.384,257.805,35.889,258.255,32.404,258.699z"/>
			<path fill="#B4B4B4" d="M48.905,259.536c4.545-0.849,9.016-2.065,13.391-3.524c1.096-0.353,2.18-0.759,3.235-1.24
				c0.526-0.232,1.048-0.496,1.561-0.765c0.517-0.269,1.024-0.548,1.531-0.837c1.012-0.579,2.006-1.175,3.012-1.732
				c1.008-0.551,2.022-1.071,3.056-1.545c8.286-3.726,16.118-8.299,23.465-13.584c1.83-1.338,3.631-2.707,5.394-4.142
				c1.766-1.431,3.473-2.931,5.159-4.451c0.435-0.37,0.94-0.67,1.495-0.927c0.545-0.251,1.122-0.489,1.62-0.811
				c0.508-0.306,0.918-0.707,1.336-1.103l1.247-1.196c1.659-1.598,3.26-3.27,4.761-5.018c1.501-1.755,2.922-3.575,4.263-5.453
				c0.669-0.943,1.348-1.874,1.977-2.841c0.619-0.972,1.068-2.065,1.517-3.151c0.439-1.094,0.96-2.126,1.554-3.109
				c0.576-0.988,1.171-1.977,1.812-2.934c0.312-0.474,0.643-0.947,0.979-1.418l0.983-1.365c0.349-0.543,0.799-1.056,1.312-1.453
				c0.244-0.203,0.506-0.358,0.734-0.504c0.237-0.139,0.451-0.269,0.68-0.437l0.637,0.321c-0.023,0.352-0.161,0.695-0.295,0.986
				c-0.149,0.297-0.287,0.555-0.418,0.791c-0.248,0.479-0.455,0.922-0.66,1.389l-0.831,1.599c-0.274,0.513-0.55,1.024-0.849,1.522
				c-0.588,1.002-1.238,1.965-1.92,2.908c-0.668,0.957-1.422,1.848-2.276,2.674c-0.843,0.834-1.709,1.646-2.423,2.555l-2.08,2.783
				l-4.251,5.496c-1.426,1.828-2.849,3.66-4.31,5.473l-1.109,1.347c-0.372,0.45-0.761,0.888-1.057,1.407
				c-0.304,0.521-0.541,1.102-0.807,1.658c-0.264,0.562-0.578,1.088-0.972,1.523c-1.629,1.697-3.331,3.329-5.071,4.913
				c-1.746,1.583-3.537,3.121-5.397,4.574c-7.403,5.864-15.786,10.5-24.578,13.866c-1.102,0.42-2.231,0.757-3.386,1.023
				c-1.153,0.268-2.331,0.459-3.502,0.65c-0.585,0.085-1.168,0.184-1.751,0.277c-0.583,0.09-1.162,0.197-1.736,0.305
				c-1.148,0.221-2.279,0.488-3.407,0.771C58.013,257.907,53.46,258.753,48.905,259.536z"/>
			<path fill="#B4B4B4" d="M42.524,266.248c10.245-0.641,20.404-2.553,30.133-5.729c2.431-0.791,4.838-1.672,7.207-2.623
				c1.184-0.479,2.359-0.979,3.527-1.5c1.169-0.508,2.312-1.09,3.396-1.777c1.084-0.686,2.153-1.396,3.204-2.126
				c1.058-0.716,2.138-1.382,3.229-2.021c2.17-1.308,4.282-2.695,6.356-4.137c1.041-0.72,2.065-1.454,3.077-2.207l3.018-2.283
				c0.998-0.771,1.982-1.561,2.954-2.363c0.968-0.811,1.958-1.59,2.914-2.41c0.962-0.817,1.91-1.657,2.843-2.508
				c0.235-0.213,0.463-0.428,0.707-0.635c0.247-0.199,0.515-0.375,0.802-0.535c0.581-0.306,1.249-0.535,1.847-0.842
				c0.616-0.291,1.115-0.699,1.559-1.158l1.36-1.36l1.336-1.37c0.441-0.467,0.847-0.955,1.27-1.438
				c1.692-1.92,3.205-3.992,4.696-6.064c0.734-1.049,1.479-2.081,2.16-3.168c0.635-1.115,1.001-2.408,1.781-3.41
				c1.436-2.104,2.8-4.256,4.111-6.439c1.319-2.176,2.62-4.367,3.844-6.611c1.231-2.229,2.4-4.502,3.515-6.805
				c1.089-2.31,2.092-4.656,3.04-7.021c1.966-4.724,3.109-9.741,4.176-14.701c1.057-4.966,2.073-9.931,2.65-14.959
				c0.593-5.024,0.729-10.097,0.429-15.132c-0.149-2.521-0.437-5.029-0.903-7.5c-0.226-1.238-0.492-2.471-0.791-3.688
				c-0.328-1.215-0.695-2.412-1.104-3.599c-0.408-1.182-0.86-2.352-1.354-3.499c-0.24-0.574-0.502-1.14-0.867-1.66
				c-0.363-0.516-0.822-0.981-1.277-1.444c-0.451-0.452-0.889-0.914-1.246-1.403c-0.367-0.49-0.633-1.029-0.926-1.557
				c-0.598-1.052-1.264-2.06-1.928-3.062c-1.365-1.98-2.834-3.916-4.543-5.641c-1.697-1.732-3.564-3.339-5.652-4.674
				c-2.088-1.319-4.34-2.428-6.727-3.23c-2.386-0.804-4.887-1.331-7.426-1.626l0.017-0.408c2.585-0.054,5.195,0.141,7.773,0.642
				c2.572,0.49,5.132,1.247,7.579,2.325c2.455,1.067,4.825,2.401,6.998,4.046c2.147,1.652,4.168,3.522,5.878,5.652
				c0.868,1.048,1.645,2.172,2.389,3.308c0.361,0.577,0.752,1.138,1.004,1.776c0.131,0.313,0.236,0.643,0.32,0.983
				c0.092,0.328,0.152,0.673,0.214,1.017c0.119,0.688,0.214,1.385,0.367,2.034c0.153,0.658,0.405,1.266,0.636,1.882
				c0.459,1.239,0.875,2.489,1.246,3.747c0.367,1.264,0.688,2.532,0.973,3.811c0.297,1.27,0.561,2.551,0.787,3.84
				c0.232,1.283,0.404,2.576,0.573,3.869c0.175,1.293,0.306,2.584,0.412,3.886c0.198,2.597,0.306,5.2,0.291,7.801
				c-0.008,2.608-0.188,5.209-0.253,7.817c-0.076,2.615-0.156,5.246-0.466,7.854c-0.329,2.602-0.902,5.172-1.74,7.648
				c-0.838,2.486-2.026,4.857-3.171,7.205c-1.154,2.349-2.18,4.711-3.127,7.104c-0.994,2.384-2.004,4.755-3.049,7.104
				c-1.021,2.371-2.104,4.709-3.238,7.025c-2.241,4.646-4.719,9.197-7.605,13.495c-0.64,1.128-1.732,1.95-2.582,2.927
				c-0.803,1.006-1.574,2.037-2.389,3.037c-1.607,2.014-3.318,3.941-4.975,5.91c-0.415,0.486-0.855,0.96-1.265,1.457l-1.244,1.477
				l-1.273,1.455c-0.442,0.477-0.832,0.989-1.121,1.616c-0.302,0.604-0.539,1.276-0.873,1.873c-0.167,0.291-0.363,0.56-0.574,0.804
				c-0.214,0.252-0.455,0.467-0.683,0.703c-0.93,0.91-1.873,1.812-2.833,2.692c-0.963,0.88-1.924,1.767-2.936,2.593
				c-1.008,0.826-2.028,1.637-3.069,2.426l-1.565,1.174c-0.529,0.379-1.07,0.748-1.608,1.111c-1.08,0.739-2.172,1.45-3.273,2.143
				c-2.213,1.384-4.485,2.662-6.79,3.867c-1.15,0.606-2.33,1.158-3.557,1.617c-1.232,0.442-2.47,0.859-3.707,1.262
				c-1.235,0.404-2.434,0.879-3.623,1.377c-1.193,0.49-2.393,0.955-3.601,1.406c-2.417,0.896-4.858,1.713-7.327,2.439
				C62.984,264.1,52.764,265.659,42.524,266.248z"/>
			<path fill="#B4B4B4" d="M49.181,272.592c3.838-0.703,7.636-1.605,11.396-2.627c3.753-1.052,7.465-2.253,11.128-3.568
				c7.329-2.646,14.468-5.801,21.32-9.469c0.859-0.449,1.709-0.925,2.525-1.451c0.814-0.545,1.593-1.137,2.346-1.768l1.136-0.938
				c0.375-0.317,0.752-0.631,1.137-0.922c0.769-0.602,1.567-1.141,2.362-1.684c1.596-1.086,3.146-2.229,4.707-3.35l4.64-3.42
				c3.142-2.232,5.947-4.812,9.597-6.539c1.74-0.963,3.091-2.371,4.532-3.672l1.059-1.004l1.014-1.05
				c0.665-0.711,1.343-1.403,1.973-2.142c1.272-1.475,2.495-2.979,3.659-4.535l0.868-1.17c0.285-0.395,0.572-0.784,0.807-1.217
				c0.471-0.863,0.723-1.881,1.235-2.695c2.226-3.145,4.353-6.354,6.366-9.637c2.015-3.289,3.844-6.688,5.521-10.186
				c1.69-3.479,3.186-7.066,4.489-10.715c0.646-1.826,1.179-3.689,1.606-5.58c0.447-1.885,0.826-3.781,1.203-5.672
				c0.375-1.885,0.805-3.75,1.209-5.628c0.379-1.882,0.803-3.748,1.155-5.63c0.765-3.764,1.293-7.579,1.575-11.428
				c0.281-3.854,0.253-7.731,0.105-11.629l0.56-0.063c0.767,3.849,1.187,7.771,1.347,11.724c0.176,3.947,0.022,7.918-0.359,11.871
				c-0.221,1.971-0.493,3.943-0.909,5.883c-0.397,1.938-0.861,3.869-1.478,5.752c-0.619,1.881-1.33,3.73-2.049,5.566
				c-0.746,1.827-1.47,3.656-2.169,5.492c-1.368,3.678-2.864,7.309-4.394,10.921c-1.534,3.61-3.243,7.179-5.151,10.631
				c-1.899,3.458-4.05,6.789-6.421,9.944c-0.637,0.761-1.561,1.299-2.279,1.98c-0.367,0.336-0.673,0.719-0.994,1.092l-0.964,1.11
				c-1.301,1.46-2.614,2.917-3.954,4.341l-1.998,2.152l-1.014,1.061l-0.994,1.084c-1.315,1.455-2.782,2.746-3.93,4.398
				c-0.599,0.803-1.146,1.671-1.779,2.447c-0.312,0.39-0.645,0.765-0.989,1.125c-0.34,0.359-0.713,0.688-1.084,1.017
				c-0.748,0.649-1.495,1.293-2.258,1.929c-0.756,0.642-1.526,1.262-2.321,1.851c-0.792,0.592-1.587,1.178-2.393,1.759
				c-0.811,0.566-1.645,1.102-2.472,1.645c-1.652,1.082-3.367,2.08-5.079,3.061c-0.86,0.484-1.723,0.973-2.633,1.366
				c-0.898,0.415-1.852,0.735-2.778,1.09c-0.938,0.335-1.868,0.681-2.765,1.077c-0.453,0.191-0.886,0.421-1.331,0.627l-1.312,0.666
				C79.512,264.883,64.52,269.777,49.181,272.592z"/>
			<path fill="#B4B4B4" d="M54.248,278.855c13.593-1.015,26.974-4.064,39.89-8.353c6.457-2.155,12.804-4.644,18.996-7.462
				c3.096-1.411,6.153-2.909,9.163-4.492l2.247-1.209c0.375-0.207,0.745-0.404,1.107-0.631c0.357-0.232,0.693-0.501,1.015-0.799
				c0.642-0.594,1.193-1.331,1.811-1.942c0.302-0.321,0.621-0.612,0.962-0.86c0.338-0.258,0.688-0.494,1.07-0.67
				c0.374-0.189,0.795-0.312,1.225-0.432c0.451-0.127,0.887-0.195,1.314-0.314c0.428-0.103,0.838-0.248,1.217-0.438
				c0.381-0.188,0.741-0.417,1.104-0.636c1.448-0.888,2.901-1.763,4.286-2.746c2.792-1.935,5.427-4.084,7.832-6.464
				c1.193-1.198,2.447-2.348,3.312-3.854l0.68-1.086c0.238-0.344,0.486-0.688,0.75-1.017l1.621-1.921
				c2.164-2.559,4.354-5.137,6.266-7.92c0.96-1.385,1.865-2.813,2.753-4.256c0.876-1.445,1.733-2.91,2.509-4.414
				c0.788-1.502,1.537-3.021,2.253-4.553l0.531-1.156l0.497-1.17l0.994-2.355c1.277-3.162,2.348-6.396,3.189-9.702
				c0.443-1.646,0.811-3.308,1.254-4.921c0.412-1.637,0.795-3.258,1.256-4.857l-0.051,0.191l1.363-7.075
				c0.107-0.596,0.204-1.192,0.322-1.784l0.353-1.787l0.665-3.578c0.443-2.398,0.855-4.803,1.234-7.221l0.556-3.634l0.58-3.633
				l0.731,0.039c0.146,4.913,0.229,9.835,0.147,14.78c-0.046,2.474-0.095,4.951-0.274,7.434c-0.033,0.623-0.104,1.238-0.16,1.854
				c-0.069,0.621-0.135,1.258-0.219,1.855c-0.16,1.243-0.332,2.48-0.607,3.713l-0.03,0.139l-0.026,0.076
				c-0.508,1.676-1.209,3.28-1.942,4.863c-0.745,1.57-1.61,3.09-2.459,4.604c-0.856,1.508-1.736,2.994-2.531,4.518l-0.306,0.562
				l-0.307,0.572l-0.59,1.141c-0.383,0.756-0.757,1.521-1.107,2.299c-1.385,3.106-2.692,6.277-4.228,9.341
				c-0.768,1.53-1.532,3.067-2.348,4.582c-0.813,1.507-1.671,2.995-2.556,4.467c-1.785,2.938-3.599,5.894-5.764,8.595
				c-0.268,0.344-0.551,0.664-0.832,0.993c-0.287,0.329-0.559,0.664-0.865,0.972c-0.59,0.635-1.289,1.17-2.002,1.68
				c-1.47,0.979-2.637,2.236-3.945,3.346c-0.645,0.566-1.311,1.123-1.969,1.659c-0.656,0.551-1.33,1.079-2.004,1.599
				c-1.373,1.033-2.715,2.081-4.106,3.074c-1.392,0.995-2.761,2.023-4.177,2.982c-0.344,0.254-0.711,0.476-1.047,0.742
				c-0.336,0.264-0.649,0.565-0.949,0.91c-0.291,0.332-0.588,0.695-0.863,1.018c-0.298,0.328-0.604,0.658-0.955,0.906
				c-0.697,0.518-1.492,0.867-2.354,1.098c-0.851,0.24-1.771,0.353-2.613,0.597c-0.426,0.114-0.829,0.269-1.218,0.448
				c-0.386,0.184-0.755,0.395-1.132,0.602l-2.26,1.191c-3.027,1.576-6.101,3.052-9.211,4.447
				c-6.224,2.787-12.597,5.238-19.079,7.354c-6.481,2.111-13.072,3.895-19.742,5.294c-6.667,1.406-13.419,2.446-20.218,2.951
				L54.248,278.855z"/>
			<path fill="#B4B4B4" d="M61.863,284.952c7.319-0.03,14.614-0.843,21.815-2.104c7.203-1.277,14.314-3.014,21.333-5.049
				c7.016-2.041,13.934-4.424,20.75-7.052c3.403-1.313,6.782-2.699,10.131-4.146c1.676-0.728,3.344-1.469,5.004-2.226
				c1.67-0.743,3.195-1.789,4.832-2.574l0.047-0.022l0.041-0.016c1.242-0.447,2.482-0.918,3.689-1.479
				c1.221-0.536,2.426-1.141,3.626-1.751l3.61-1.875c1.213-0.618,2.433-1.238,3.688-1.79l0.205,0.375l-3.357,2.307
				c-1.131,0.766-2.264,1.525-3.422,2.256c-1.155,0.734-2.346,1.428-3.561,2.082c-1.234,0.639-2.492,1.233-3.805,1.729l0.087-0.035
				c-1.667,0.779-3.464,1.264-5.132,2.02c-1.69,0.734-3.373,1.438-5.069,2.135c-3.397,1.392-6.817,2.707-10.26,3.961
				c-6.893,2.51-13.88,4.73-20.944,6.671c-7.067,1.927-14.223,3.548-21.454,4.719C76.495,284.264,69.183,284.998,61.863,284.952z"/>
			<path fill="#B4B4B4" d="M114.031,152.555c-0.084,0.313-0.146,0.639-0.21,0.959c-0.07,0.319-0.126,0.647-0.175,0.975
				c-0.104,0.652-0.229,1.306-0.325,1.973l-0.32,1.999c-0.087,0.679-0.133,1.378,0.024,2.157l-3.306-1.297
				c-0.182-0.75-0.025-1.35,0.237-1.916c0.134-0.278,0.312-0.543,0.461-0.821c0.15-0.278,0.304-0.552,0.474-0.83
				c0.319-0.551,0.66-1.116,1.026-1.683c0.362-0.573,0.764-1.147,1.23-1.713L114.031,152.555z"/>
			<path fill="#B4B4B4" d="M100.146,285.982l7.894-1.375c2.633-0.459,5.26-0.934,7.876-1.465c5.235-1.045,10.447-2.236,15.48-3.951
				c5.041-1.705,9.883-3.949,14.449-6.664c1.106-0.752,1.721-2.299,2.863-2.934c0.551-0.367,1.25-0.486,1.957-0.611
				c0.354-0.069,0.7-0.146,1.01-0.276c0.311-0.13,0.586-0.313,0.877-0.492c2.324-1.403,4.733-2.59,7.086-3.862
				c2.375-1.231,4.711-2.521,7.055-3.795c1.168-0.642,2.334-1.287,3.492-1.945c0.578-0.328,1.155-0.666,1.709-1.032
				c0.56-0.367,1.109-0.75,1.676-1.095c0.57-0.352,1.146-0.672,1.725-1l1.732-0.996c1.146-0.668,2.295-1.35,3.432-2.041
				c2.273-1.381,4.521-2.814,6.736-4.291c4.434-2.952,8.746-6.088,12.945-9.381c2.092-1.655,4.172-3.33,6.227-5.037
				c2.053-1.709,4.083-3.444,6.08-5.219c-7.816,7.284-16.031,14.16-24.781,20.313c-2.195,1.537-4.413,3.032-6.662,4.478
				c-1.124,0.723-2.256,1.438-3.398,2.135l-1.717,1.047c-0.574,0.337-1.145,0.682-1.707,1.049c-0.564,0.367-1.1,0.766-1.658,1.141
				c-0.271,0.197-0.56,0.375-0.842,0.547c-0.285,0.18-0.574,0.354-0.865,0.516c-1.17,0.662-2.336,1.309-3.51,1.955
				c-2.349,1.281-4.699,2.55-7.06,3.801c-2.341,1.259-4.685,2.527-6.897,3.954c-1.103,0.723-2.246,1.456-3.39,2.153
				c-1.173,0.664-2.354,1.301-3.549,1.928c-4.704,2.585-9.655,4.761-14.788,6.34c-5.126,1.6-10.385,2.662-15.648,3.579
				C110.706,284.361,105.421,285.145,100.146,285.982z"/>
			<path fill="#B4B4B4" d="M211.493,237.716c-0.489,0.611-1.06,1.154-1.628,1.701c-0.586,0.521-1.188,1.021-1.799,1.515
				c-1.234,0.969-2.521,1.854-3.826,2.699c-1.309,0.84-2.624,1.678-3.963,2.459l-4,2.406c1.154-1.053,2.4-1.993,3.672-2.896
				c1.262-0.922,2.568-1.752,3.854-2.625c1.301-0.861,2.608-1.695,3.896-2.566c0.646-0.428,1.283-0.864,1.921-1.316
				C210.255,238.656,210.875,238.189,211.493,237.716z"/>
			<path fill="#B4B4B4" d="M139.213,284.952c1.706-0.578,3.403-1.194,5.121-1.733l2.564-0.845l2.578-0.804
				c3.431-1.094,6.883-2.113,10.324-3.174l10.326-3.174c3.436-1.086,6.898-2.076,10.299-3.273c-1.672,0.682-3.369,1.289-5.061,1.9
				c-1.697,0.615-3.406,1.182-5.115,1.748c-3.42,1.123-6.852,2.236-10.284,3.334c-3.43,1.086-6.856,2.203-10.321,3.196l-2.593,0.761
				l-2.601,0.717C142.716,284.096,140.965,284.52,139.213,284.952z"/>
			<path fill="#B4B4B4" d="M202.936,250.082c-1.725,1.37-3.514,2.662-5.318,3.934c-1.82,1.246-3.672,2.446-5.555,3.612
				c-1.881,1.155-3.822,2.214-5.78,3.246c-0.983,0.519-1.974,1.019-2.968,1.5c-1.002,0.481-1.992,0.979-3.037,1.354
				c-1.047,0.371-2.127,0.662-3.195,0.955c-1.066,0.299-2.107,0.674-3.163,1.01c-2.101,0.673-4.228,1.277-6.356,1.836
				s-4.271,1.062-6.416,1.562c-2.143,0.492-4.275,1.032-6.397,1.597c2.097-0.664,4.207-1.291,6.325-1.889
				c2.117-0.592,4.229-1.197,6.324-1.843c2.093-0.653,4.172-1.354,6.227-2.11l3.074-1.158c1.033-0.371,2.058-0.738,3.083-1.129
				c4.079-1.599,8.03-3.541,11.886-5.633C195.523,254.816,199.27,252.516,202.936,250.082z"/>
			<path fill="#B4B4B4" d="M189.859,264.424c0.334-0.23,0.683-0.433,1.025-0.643c0.352-0.195,0.711-0.391,1.067-0.574
				c0.723-0.366,1.467-0.686,2.206-1.014c0.742-0.303,1.469-0.631,2.18-0.993c0.355-0.181,0.704-0.376,1.049-0.578
				c0.352-0.198,0.694-0.412,1.031-0.634c-0.548,0.607-1.17,1.16-1.857,1.605c-0.688,0.459-1.438,0.811-2.177,1.139
				c-0.745,0.313-1.487,0.604-2.237,0.893C191.398,263.91,190.643,264.178,189.859,264.424z"/>
		</g>
	</g>
</g>
</svg>
