<?xml version="1.0" encoding="utf-8"?>
<!-- Generator: Adobe Illustrator 16.0.5, SVG Export Plug-In . SVG Version: 6.00 Build 0)  -->
<!DOCTYPE svg PUBLIC "-//W3C//DTD SVG 1.1//EN" "http://www.w3.org/Graphics/SVG/1.1/DTD/svg11.dtd">
<svg version="1.1" id="Ebene_1" xmlns="http://www.w3.org/2000/svg" xmlns:xlink="http://www.w3.org/1999/xlink" x="0px" y="0px"
	 width="256px" height="256px" viewBox="0 0 256 256" enable-background="new 0 0 256 256" xml:space="preserve">
<rect x="0.5" y="0.5" fill="#FFFFFF" width="255" height="255"/>
<g id="SIEMENS">
	<g>
		<rect x="36.598" y="108.655" fill="#A7A7A7" width="11.234" height="37.663"/>
		<polygon fill="#A7A7A7" points="56.789,146.316 85.857,146.316 85.857,138.826 68.019,138.826 68.019,131.117 83.656,131.117 
			83.656,123.852 68.019,123.852 68.019,116.143 85.857,116.143 85.857,108.655 56.789,108.655 		"/>
		<polygon fill="#A7A7A7" points="116.589,131.01 106.678,108.655 92.029,108.655 92.029,146.316 101.061,146.316 101.061,123.852 
			110.972,146.316 118.351,146.316 129.033,123.301 129.033,146.316 140.266,146.316 140.266,108.655 126.939,108.655 		"/>
		<polygon fill="#A7A7A7" points="211.617,131.779 197.52,108.655 185.186,108.655 185.186,146.316 193.111,146.316 
			193.111,123.081 207.318,146.316 219.545,146.316 219.545,108.655 211.617,108.655 		"/>
		<polygon fill="#A7A7A7" points="149.092,146.316 178.164,146.316 178.164,138.826 160.322,138.826 160.322,131.117 
			175.963,131.117 175.963,123.852 160.322,123.852 160.322,116.143 178.164,116.143 178.164,108.655 149.092,108.655 		"/>
		<path fill="#A7A7A7" d="M24.49,125.946c-3.194-1.432-8.149-3.964-11.563-5.507c-3.208-1.449-3.303-9.031,15.198-3.414v-7.161
			c-3.855-1.319-14.426-3.855-22.355,0.552c-7.931,4.405-6.059,15.307,0,18.938c2.645,1.436,6.275,2.754,10.901,4.736
			c3.831,1.645,6.166,10.021-15.748,4.297v7.377c4.517,1.649,21.036,3.411,25.879-1.981
			C32.852,137.049,30.104,128.258,24.49,125.946z"/>
		<path fill="#A7A7A7" d="M249.771,125.946c-3.195-1.432-8.15-3.964-11.564-5.507c-3.207-1.449-3.307-9.031,15.197-3.414v-7.161
			c-3.854-1.319-14.426-3.855-22.357,0.552c-7.928,4.405-6.057,15.307,0,18.938c2.645,1.436,6.279,2.754,10.904,4.736
			c3.83,1.645,6.164,10.021-15.75,4.297v7.377c4.516,1.649,21.033,3.411,25.879-1.981
			C258.135,137.049,255.385,128.258,249.771,125.946z"/>
	</g>
</g>
<g id="p_321">
	<g>
		<rect x="36.598" y="108.655" fill="#A7A7A7" width="11.234" height="37.663"/>
		<polygon fill="#A7A7A7" points="56.789,146.316 85.857,146.316 85.857,138.826 68.019,138.826 68.019,131.117 83.656,131.117 
			83.656,123.852 68.019,123.852 68.019,116.143 85.857,116.143 85.857,108.655 56.789,108.655 		"/>
		<polygon fill="#A7A7A7" points="116.589,131.01 106.678,108.655 92.029,108.655 92.029,146.316 101.061,146.316 101.061,123.852 
			110.972,146.316 118.351,146.316 129.033,123.301 129.033,146.316 140.266,146.316 140.266,108.655 126.939,108.655 		"/>
		<polygon fill="#A7A7A7" points="211.617,131.779 197.52,108.655 185.186,108.655 185.186,146.316 193.111,146.316 
			193.111,123.081 207.318,146.316 219.545,146.316 219.545,108.655 211.617,108.655 		"/>
		<polygon fill="#A7A7A7" points="149.092,146.316 178.164,146.316 178.164,138.826 160.322,138.826 160.322,131.117 
			175.963,131.117 175.963,123.852 160.322,123.852 160.322,116.143 178.164,116.143 178.164,108.655 149.092,108.655 		"/>
		<path fill="#A7A7A7" d="M24.49,125.946c-3.194-1.432-8.149-3.964-11.563-5.507c-3.208-1.449-3.303-9.031,15.198-3.414v-7.161
			c-3.855-1.319-14.426-3.855-22.355,0.552c-7.931,4.405-6.059,15.307,0,18.938c2.645,1.436,6.275,2.754,10.901,4.736
			c3.831,1.645,6.166,10.021-15.748,4.297v7.377c4.517,1.649,21.036,3.411,25.879-1.981
			C32.852,137.049,30.104,128.258,24.49,125.946z"/>
		<path fill="#A7A7A7" d="M249.771,125.946c-3.195-1.432-8.15-3.964-11.564-5.507c-3.207-1.449-3.307-9.031,15.197-3.414v-7.161
			c-3.854-1.319-14.426-3.855-22.357,0.552c-7.928,4.405-6.057,15.307,0,18.938c2.645,1.436,6.279,2.754,10.904,4.736
			c3.83,1.645,6.164,10.021-15.75,4.297v7.377c4.516,1.649,21.033,3.411,25.879-1.981
			C258.135,137.049,255.385,128.258,249.771,125.946z"/>
	</g>
</g>
</svg>
