<?xml version="1.0" encoding="utf-8"?>
<!-- Generator: Adobe Illustrator 16.0.5, SVG Export Plug-In . SVG Version: 6.00 Build 0)  -->
<!DOCTYPE svg PUBLIC "-//W3C//DTD SVG 1.1//EN" "http://www.w3.org/Graphics/SVG/1.1/DTD/svg11.dtd">
<svg version="1.1" id="Ebene_1" xmlns="http://www.w3.org/2000/svg" xmlns:xlink="http://www.w3.org/1999/xlink" x="0px" y="0px"
	 width="468px" height="250px" viewBox="0 0 468 250" enable-background="new 0 0 468 250" xml:space="preserve">
<pattern  x="74.5" y="365.5" width="28.347" height="28.347" patternUnits="userSpaceOnUse" id="Design__x26__Training_15" viewBox="7.666 -41.23 28.347 28.347" overflow="visible">
	<g>
		<polygon fill="none" points="7.666,-41.23 36.013,-41.23 36.013,-12.884 7.666,-12.884 		"/>
		<g>
			<path fill="#FFFFFF" d="M43.798-19.795c-4.672-4.672-7.629-4.955-10.754-1.828l-4.697,4.691l5.027,5.023l3.168-3.162
				l-2.689-2.689l2.83-2.828l8.777,8.779l-2.83,2.826l-2.689-2.689l-3.166,3.164l5.027,5.025l4.369-4.369
				C50.335-12.014,48.677-14.916,43.798-19.795z"/>
			<polygon fill="#FFFFFF" points="28.03,-6.566 24.866,-3.4 28.267,0 31.437,-3.166 			"/>
		</g>
		<g>
			<path fill="#FFFFFF" d="M15.451-19.795c-4.672-4.672-7.629-4.955-10.754-1.828L0-16.932l5.027,5.023l3.168-3.162L5.506-17.76
				l2.83-2.828l8.777,8.779l-2.83,2.826l-2.689-2.689L8.428-8.508l5.027,5.025l4.369-4.369
				C21.988-12.014,20.33-14.916,15.451-19.795z"/>
		</g>
		<g>
			<path fill="#FFFFFF" d="M43.798-48.142c-4.672-4.672-7.629-4.955-10.754-1.828l-4.697,4.691l5.027,5.023l3.168-3.162
				l-2.689-2.689l2.83-2.828l8.777,8.779l-2.83,2.826l-2.689-2.689l-3.166,3.164l5.027,5.025l4.369-4.369
				C50.335-40.36,48.677-43.263,43.798-48.142z"/>
			<polygon fill="#FFFFFF" points="28.03,-34.913 24.866,-31.747 28.267,-28.347 31.437,-31.513 			"/>
		</g>
		<g>
			<path fill="#FFFFFF" d="M15.451-48.142c-4.672-4.672-7.629-4.955-10.754-1.828L0-45.278l5.027,5.023l3.168-3.162l-2.689-2.689
				l2.83-2.828l8.777,8.779l-2.83,2.826l-2.689-2.689l-3.166,3.164l5.027,5.025l4.369-4.369
				C21.988-40.36,20.33-43.263,15.451-48.142z"/>
		</g>
	</g>
</pattern>
<g id="Hosen_Rahmen">
	<g>
		<rect fill="none" width="468" height="250"/>
	</g>
</g>
<g id="Verlauf_vorne_zart">
	<rect fill="none" width="468" height="250"/>
</g>
<g id="Palette">
</g>
<path fill="#FFFFFF" d="M262.201,76.321l0.109,0.249c3.939,6.75,17.02,6.19,18.989-8.45c1.97-14.63-13.079-12.52-15.89-7.73
	l-0.286,0.473c0.625-12.242-2.348-24.8-8.044-33.253c-3.85-5.71-8.93-9.54-14.99-10.14c-6.9-0.68-13.18,1.93-18.52,6.58
	c-0.2,0.17-0.41,0.35-0.61,0.54c-8.793,8.033-14.885,21.636-16.816,35.044L206.03,59.4c-1.83-3.09-16.32-5.91-15.33,7.32
	c0.98,13.22,13.08,11.25,14.91,7.03l0.139-0.231c0.887,9.105,4.271,17.025,10.741,21.521l-0.21,0.29
	c-5.67,6.17-14.42,21.17-20.67,40.67c3.5,2.68,6.95,3.65,10.95,2.98l0.75,0.18c-6.93,29.74,0.24,65,6.77,92.14
	c-13.91,1.06-22.95,7.2-27.61,12.2c7.42,0,9.48,0,14.98,0c4.05,0,8.05-3.2,10.73-3.76L210,243.5h17.61c-0.5-8-1.25-8.609-4-15.859
	s-2.17-49.181,0.58-59.931s17.169-11.489,17.919,1.261s3.25,54.659,2.75,60.909c-4,5.25-6.25,10.62-7.5,13.62
	c4.75,0,11.91,0,11.91,0c3.801-3,5.791-4.221,10.541-4.471L255,243.5h24.859c-2.25-6-16.459-13.67-26.959-14.17
	c3.06-12.03,12.24-71,3.14-104.04l0.42-0.12l1.3,8.24c4.75-1,9.221-2.29,13.221-3.79c-1.25-18.25-13.701-32.67-22.871-34.37
	l-0.25-0.43C254.783,90.754,259.457,84.084,262.201,76.321z"/>
<g>
	<path fill="none" stroke="#000000" d="M227.943,98.906c-40.035-3.018-21.049-84.887,14.147-81.436
		C272.064,20.408,278.322,102.701,227.943,98.906z"/>
	<path fill="none" stroke="#000000" d="M206.032,59.402c-1.829-3.096-16.321-5.909-15.336,7.316
		c0.985,13.225,13.084,11.255,14.914,7.034"/>
	<path fill="none" stroke="#000000" d="M265.122,60.453c2.813-4.783,18.151-6.96,16.182,7.672s-15.054,15.195-18.993,8.441"/>
	<path fill="none" stroke="#000000" d="M216.278,95.334C210.611,101.5,201.861,116.5,195.611,136
		c3.502,2.68,7.571,3.53,11.571,2.863"/>
	<path fill="none" stroke="#000000" d="M216.611,116c-20.25,32.75-10.868,80.888-2.534,115.555
		c-13.91,1.054-22.943,7.445-27.61,12.445c7.424,0,9.484,0,14.985,0c4.044,0,8.047-3.45,10.728-4.015"/>
	<path fill="none" stroke="#000000" d="M209.5,244h18.111c-0.5-8-1.25-8.86-4-16.11s-2.167-49.304,0.583-60.054
		s17.167-11.551,17.917,1.199s3.25,54.872,2.75,61.122c-4,5.25-6.25,10.843-7.5,13.843c4.747,0,11.913,0,11.913,0
		c3.794-3,5.531-4.221,10.281-4.471"/>
	<path fill="none" stroke="#000000" d="M247.637,95.078c9.172,1.699,22.096,16.289,23.346,34.539c-4,1.5-8.474,2.794-13.224,3.794"
		/>
	<path fill="none" stroke="#000000" d="M250.681,113.14c16.96,27.577,5.591,102.819,2.091,116.569
		c10.5,0.5,24.84,8.291,27.09,14.291H254.5"/>
	<path fill="none" stroke="#000000" d="M223.142,24.37c-1,2.75-0.031,15.13,11.969,10.88c-11.75,8.5-28.25,33.5-1.5,38
		s26.75-21.25,18.75-35.75c1.25-3.75,3.754-6.258,4.504-10.008"/>
</g>
<circle cx="238.111" cy="26.25" r="1.5"/>
<circle cx="245.361" cy="26.25" r="1.5"/>
<polygon points="238.031,24.066 235.927,26.173 238.188,28.434 240.296,26.33 "/>
<polygon points="245.281,24.066 243.177,26.173 245.438,28.434 247.546,26.33 "/>
<g>
	<linearGradient id="SVGID_1_" gradientUnits="userSpaceOnUse" x1="306.8203" y1="252.7441" x2="151.6704" y2="2.4448">
		<stop  offset="0.1" style="stop-color:#5C7C99"/>
		<stop  offset="0.8" style="stop-color:#CCDAEA"/>
	</linearGradient>
	<path fill="url(#SVGID_1_)" stroke="#000000" d="M241.639,106.312c2.293-0.648,8.928-2.562,9.168,0.611
		c0.53,7.007,4.792,12.152,6.596,18.047c7.498,24.494-13.318,37.422-26.681,56.182c-11.016-15.714-18.823-19.218-22.241-39.389
		c-1.528-9.016,3.667-19.254,6.035-26.327c0.689-2.06,0.883-8.38,4.05-7.29C227.886,111.355,234.053,108.463,241.639,106.312z"/>
</g>
<g opacity="0.33">
	
		<pattern  id="SVGID_2_" xlink:href="#Design__x26__Training_15" patternTransform="matrix(0.5 0 0 0.5 -4089.2769 -4304.3418)"  opacity="0.33">
	</pattern>
	<path fill="url(#SVGID_2_)" stroke="#000000" d="M241.639,106.312c2.293-0.648,8.928-2.562,9.168,0.611
		c0.53,7.007,4.792,12.152,6.596,18.047c7.498,24.494-13.318,37.422-26.681,56.182c-11.016-15.714-18.823-19.218-22.241-39.389
		c-1.528-9.016,3.667-19.254,6.035-26.327c0.689-2.06,0.883-8.38,4.05-7.29C227.886,111.355,234.053,108.463,241.639,106.312z"/>
</g>
</svg>
