<?xml version="1.0" encoding="utf-8"?>
<!-- Generator: Adobe Illustrator 16.0.5, SVG Export Plug-In . SVG Version: 6.00 Build 0)  -->
<!DOCTYPE svg PUBLIC "-//W3C//DTD SVG 1.1//EN" "http://www.w3.org/Graphics/SVG/1.1/DTD/svg11.dtd">
<svg version="1.1" id="Ebene_1" xmlns="http://www.w3.org/2000/svg" xmlns:xlink="http://www.w3.org/1999/xlink" x="0px" y="0px"
	 width="468px" height="250px" viewBox="0 0 468 250" enable-background="new 0 0 468 250" xml:space="preserve">
<pattern  x="74.5" y="365.5" width="28.348" height="28.347" patternUnits="userSpaceOnUse" id="SVGID_3_" viewBox="28.347 -39.153 28.348 28.347" overflow="visible">
	<g>
		<polygon fill="none" points="28.347,-10.806 56.695,-10.806 56.695,-39.152 28.347,-39.152 		"/>
		<g>
			<polygon fill="none" points="28.347,-39.152 56.695,-39.152 56.695,-10.805 28.347,-10.805 			"/>
			<g>
				<polygon fill="none" points="28.347,-10.805 56.695,-10.805 56.695,-39.152 28.347,-39.152 				"/>
				<g>
					<polygon fill="none" points="28.347,-39.15 56.695,-39.15 56.695,-10.805 28.347,-10.805 					"/>
					<g>
						<polygon fill="none" points="28.347,-10.805 56.695,-10.805 56.695,-39.15 28.347,-39.15 						"/>
						<g>
							<polygon fill="none" points="28.347,-39.15 56.695,-39.15 56.695,-10.805 28.347,-10.805 							"/>
							<g>
								<polygon fill="none" points="28.347,-10.805 56.695,-10.805 56.695,-39.15 28.347,-39.15 								"/>
								<g>
									<polygon fill="none" points="28.347,-10.805 56.694,-10.805 56.694,-39.148 28.347,-39.148 									"/>
									<g>
										<polygon fill="#568CBE" points="85.041,-39.148 56.693,-39.148 56.693,-10.805 85.041,-10.805 										"/>
									</g>
									<g>
										<polygon fill="#568CBE" points="56.694,-39.148 28.347,-39.148 28.347,-10.805 56.694,-10.805 										"/>
										<g>
											<path fill="#FFFFFF" d="M64.479-32.238c-4.672,4.672-7.629,4.955-10.754,1.828L49.028-35.1l5.027-5.023l3.168,3.162
												l-2.689,2.688l2.83,2.828l8.777-8.772l-2.83-2.825l-2.689,2.688l-3.166-3.168l5.027-5.021l4.369,4.369
												C71.017-40.02,69.358-37.117,64.479-32.238z"/>
											<polygon fill="#FFFFFF" points="48.712,-45.471 45.548,-48.637 48.948,-52.033 52.118,-48.867 											"/>
										</g>
									</g>
									<g>
										<polygon fill="#568CBE" points="28.348,-39.148 0,-39.148 0,-10.805 28.348,-10.805 										"/>
										<g>
											<path fill="#FFFFFF" d="M36.133-32.238c-4.672,4.672-7.629,4.955-10.754,1.828L20.682-35.1l5.027-5.023l3.168,3.162
												l-2.689,2.688l2.83,2.828l8.777-8.772l-2.83-2.825l-2.689,2.688l-3.166-3.17l5.027-5.021l4.369,4.367
												C42.67-40.02,41.012-37.117,36.133-32.238z"/>
										</g>
									</g>
									<g>
										<g>
											<path fill="#FFFFFF" d="M64.479-3.893c-4.672,4.672-7.629,4.955-10.754,1.828l-4.697-4.69l5.027-5.022l3.168,3.162
												l-2.689,2.688l2.83,2.827l8.777-8.777l-2.83-2.826l-2.689,2.688l-3.166-3.164l5.027-5.021l4.369,4.369
												C71.017-11.676,69.358-8.77,64.479-3.893z"/>
											<polygon fill="#FFFFFF" points="48.712,-17.121 45.548,-20.287 48.948,-23.688 52.118,-20.52 											"/>
										</g>
									</g>
									<g>
										<g>
											<path fill="#FFFFFF" d="M36.133-3.893c-4.672,4.672-7.629,4.955-10.754,1.828l-4.697-4.69l5.027-5.022l3.168,3.162
												l-2.689,2.688l2.83,2.827l8.777-8.777l-2.83-2.826l-2.689,2.688l-3.166-3.164l5.027-5.021l4.369,4.369
												C42.67-11.676,41.012-8.77,36.133-3.893z"/>
										</g>
									</g>
								</g>
							</g>
						</g>
					</g>
				</g>
			</g>
		</g>
	</g>
</pattern>
<pattern  x="74.5" y="365.5" width="28.347" height="28.347" patternUnits="userSpaceOnUse" id="SVGID_6_" viewBox="7.666 -39.151 28.347 28.347" overflow="visible">
	<g>
		<polygon fill="none" points="7.666,-10.805 36.013,-10.805 36.013,-39.151 7.666,-39.151 		"/>
		<g>
			<polygon fill="none" points="7.666,-39.151 36.013,-39.151 36.013,-10.805 7.666,-10.805 			"/>
			<g>
				<polygon fill="none" points="7.666,-10.805 36.013,-10.805 36.013,-39.151 7.666,-39.151 				"/>
				<g>
					<polygon fill="none" points="7.666,-39.151 36.013,-39.151 36.013,-10.805 7.666,-10.805 					"/>
					<g>
						<polygon fill="none" points="7.666,-10.805 36.013,-10.805 36.013,-39.151 7.666,-39.151 						"/>
						<g>
							<polygon fill="none" points="7.666,-39.151 36.013,-39.151 36.013,-10.805 7.666,-10.805 							"/>
							<g>
								<polygon fill="none" points="7.666,-10.805 36.013,-10.805 36.013,-39.151 7.666,-39.151 								"/>
								<g>
									<polygon fill="none" points="7.666,-10.805 36.013,-10.805 36.013,-39.149 7.666,-39.149 									"/>
									<g>
										<path fill="#FFFFFF" d="M43.798-32.239c-4.672,4.672-7.629,4.955-10.754,1.828L28.347-35.1l5.027-5.021l3.168,3.162
											l-2.689,2.688l2.83,2.828l8.777-8.777l-2.83-2.824l-2.689,2.688l-3.166-3.167l5.027-5.021l4.369,4.369
											C50.335-40.02,48.677-37.118,43.798-32.239z"/>
										<polygon fill="#FFFFFF" points="28.03,-45.469 24.866,-48.635 28.267,-52.034 31.437,-48.868 										"/>
									</g>
									<g>
										<path fill="#FFFFFF" d="M15.451-32.239c-4.672,4.672-7.629,4.955-10.754,1.828L0-35.102l5.027-5.021l3.168,3.162
											l-2.689,2.687l2.83,2.827l8.777-8.773l-2.83-2.826l-2.689,2.688l-3.166-3.165l5.027-5.022l4.369,4.369
											C21.988-40.02,20.33-37.118,15.451-32.239z"/>
									</g>
									<g>
										<path fill="#FFFFFF" d="M43.798-3.893c-4.672,4.672-7.629,4.955-10.754,1.827l-4.697-4.69l5.027-5.021l3.168,3.16
											l-2.689,2.688l2.83,2.826l8.777-8.774l-2.83-2.826l-2.689,2.688l-3.166-3.164l5.027-5.021l4.369,4.369
											C50.335-11.674,48.677-8.77,43.798-3.893z"/>
										<polygon fill="#FFFFFF" points="28.03,-17.121 24.866,-20.287 28.267,-23.688 31.437,-20.52 										"/>
									</g>
									<g>
										<path fill="#FFFFFF" d="M15.451-3.893c-4.672,4.672-7.629,4.955-10.754,1.83L0-6.756l5.027-5.022l3.168,3.161L5.506-5.928
											l2.83,2.822l8.777-8.773l-2.83-2.826l-2.689,2.688l-3.166-3.164l5.027-5.021l4.369,4.369
											C21.988-11.674,20.33-8.77,15.451-3.893z"/>
									</g>
								</g>
							</g>
						</g>
					</g>
				</g>
			</g>
		</g>
	</g>
</pattern>
<g id="Hosen_Rahmen">
	<g>
		<rect fill="none" width="468" height="250"/>
	</g>
</g>
<g id="Verlauf_vorne_zart">
	<rect opacity="0.5" fill="none" enable-background="new    " width="468" height="250"/>
</g>
<g id="Fallback">
	<path fill="#7CA1BF" stroke="#000000" d="M231.793,111.455c4.938-0.822,17.216-3.904,24.803-6.054
		c2.291-0.649,5.662,0.403,3.496,2.737c-5.138,5.533-4.275,12.252-2.471,18.146c7.498,24.493,10.997,66.983,8.998,76.647
		c-9.498,1.498-20.995,1.832-26.16,2.332c0.167-10.164-0.333-29.826-0.333-32.824c-3.166-0.5-6.832-0.666-8.665-0.334
		c-1.833,0.334-3,3.332-3.666,5.666c-0.666,2.332-2.999,24.826-3.666,28.992c-10.831,1.832-21.661,3.332-28.66,3.5
		c-0.2-3.104-0.193-7.479,0.027-12.646c0.22-5.167,0.653-9.854,1.306-17.405c0.653-1.309,1.526-12.51,2.626-19.301
		c1.1-6.703,2.426-9.418,3.986-18.324c1.56-7.21,3.353-13.844,5.385-14.479c2.135-6.255,2.802-6.646,2.789-8.438
		c-0.013-1.796-0.706-2.807-1.289-3.723c-1.166-1.834-2.439-4.711,0.833-4C214.964,112.789,222.795,112.955,231.793,111.455z"/>
</g>
<g id="Gewohnheiten_100">
	<g>
		<g>
			<path fill="none" stroke="#000000" d="M227.943,98.906c-40.035-3.017-21.049-84.886,14.147-81.435
				C272.064,20.408,278.322,102.701,227.943,98.906z"/>
			<path fill="none" stroke="#000000" d="M206.032,59.402c-1.829-3.096-16.321-5.909-15.336,7.316
				c0.985,13.225,13.084,11.255,14.914,7.034"/>
			<path fill="none" stroke="#000000" d="M265.404,60.387c2.812-4.783,17.869-6.895,15.896,7.738
				c-1.97,14.633-15.053,15.195-18.989,8.441"/>
			<path fill="none" stroke="#000000" d="M216.278,95.334C210.611,101.5,201.861,116.5,195.611,136
				c3.502,2.68,6.95,3.646,10.95,2.98"/>
			<path fill="none" stroke="#000000" d="M216.611,116c-20.25,32.75-10.868,80.639-2.534,115.305
				c-13.91,1.055-22.943,7.195-27.61,12.195c7.424,0,9.484,0,14.985,0c4.044,0,8.047-3.2,10.728-3.766"/>
			<path fill="none" stroke="#000000" d="M210,243.5h17.611c-0.5-8-1.25-8.609-4-15.859s-2.167-49.18,0.583-59.93
				s17.167-11.488,17.917,1.262s3.25,54.653,2.75,60.903c-4,5.25-6.25,10.624-7.5,13.624c4.746,0,11.912,0,11.912,0
				c3.793-3,5.781-4.221,10.531-4.471"/>
			<path fill="none" stroke="#000000" d="M248.111,95.25c9.172,1.699,21.621,16.117,22.871,34.367c-4,1.5-7.479,2.794-12.229,3.794"
				/>
			<path fill="none" stroke="#000000" d="M250.932,112.89c16.959,27.577,5.465,102.694,1.965,116.444
				c10.5,0.5,24.715,8.166,26.965,14.166H255"/>
			<path fill="none" stroke="#000000" d="M223.111,24c-1,2.75,0,15.5,12,11.25c-11.75,8.5-28.25,33.5-1.5,38
				c26.75,4.5,26.75-21.25,18.75-35.75c1.25-3.75,3.75-6,4.5-9.75"/>
			<circle cx="238.111" cy="26.25" r="1.5"/>
			<circle cx="245.361" cy="26.25" r="1.5"/>
		</g>
		<pattern  id="SVGID_1_" xlink:href="#SVGID_3_" patternTransform="matrix(0.5 0 0 -0.5 -33419.8555 -34169.2969)">
		</pattern>
		<path fill="url(#SVGID_1_)" stroke="#000000" stroke-width="0.5" d="M231.793,111.455c4.938-0.822,17.216-3.904,24.803-6.054
			c2.291-0.649,5.662,0.403,3.496,2.737c-5.138,5.533-4.275,12.252-2.471,18.146c7.498,24.493,10.997,66.983,8.998,76.647
			c-9.498,1.498-20.995,1.832-26.16,2.332c0.167-10.164-0.333-29.826-0.333-32.824c-3.166-0.5-6.832-0.666-8.665-0.334
			c-1.833,0.334-3,3.332-3.666,5.666c-0.666,2.332-2.999,24.826-3.666,28.992c-10.831,1.832-21.661,3.332-28.66,3.5
			c-0.2-3.104-0.193-7.479,0.027-12.646c0.22-5.167,0.653-9.854,1.306-17.405c0.653-1.309,1.526-12.51,2.626-19.301
			c1.1-6.703,2.426-9.418,3.986-18.324c1.56-7.21,3.353-13.844,5.385-14.479c2.135-6.255,2.802-6.646,2.789-8.438
			c-0.013-1.796-0.706-2.807-1.289-3.723c-1.166-1.834-2.439-4.711,0.833-4C214.964,112.789,222.795,112.955,231.793,111.455z"/>
	</g>
</g>
<g id="Menschen_Fläche">
	<path fill="#FFFFFF" d="M262.202,76.321l0.108,0.249c3.938,6.75,17.02,6.19,18.983-8.45c1.976-14.63-13.073-12.52-15.892-7.73
		l-0.284,0.473c0.625-12.242-2.354-24.8-8.044-33.253c-3.854-5.71-8.936-9.54-14.99-10.14c-6.896-0.68-13.18,1.93-18.52,6.58
		c-0.2,0.17-0.41,0.35-0.61,0.54c-8.793,8.033-14.885,21.636-16.816,35.044L206.03,59.4c-1.83-3.09-16.32-5.91-15.33,7.32
		c0.98,13.22,13.08,11.25,14.91,7.03l0.139-0.231c0.887,9.105,4.271,17.025,10.741,21.521l-0.21,0.29
		c-5.67,6.17-14.42,21.17-20.67,40.67c3.5,2.68,6.95,3.65,10.95,2.98l0.75,0.18c-6.93,29.74,0.24,65,6.77,92.14
		c-13.91,1.06-22.95,7.2-27.61,12.2c7.42,0,9.48,0,14.98,0c4.05,0,8.05-3.2,10.73-3.76L210,243.5h17.61c-0.5-8-1.25-8.609-4-15.859
		s-2.17-49.181,0.58-59.931s17.169-11.489,17.919,1.261s3.25,54.659,2.75,60.909c-4,5.25-6.25,10.62-7.5,13.62
		c4.75,0,11.91,0,11.91,0c3.801-3,5.791-4.221,10.541-4.471L255,243.5h24.859c-2.25-6-16.459-13.67-26.959-14.17
		c3.06-12.03,12.24-71,3.14-104.04l0.42-0.12l1.3,8.24c4.75-1,9.221-2.29,13.221-3.79c-1.25-18.25-13.701-32.67-22.871-34.37
		l-0.25-0.43C254.783,90.754,259.457,84.083,262.202,76.321z"/>
</g>
<g id="Menschen_Kontur">
	<g>
		<path fill="none" stroke="#000000" d="M227.943,98.906c-40.035-3.017-21.049-84.886,14.147-81.435
			C272.064,20.408,278.322,102.701,227.943,98.906z"/>
		<path fill="none" stroke="#000000" d="M206.032,59.402c-1.829-3.096-16.321-5.909-15.336,7.316
			c0.985,13.225,13.084,11.255,14.914,7.034"/>
		<path fill="none" stroke="#000000" d="M265.122,60.453c2.813-4.783,18.151-6.96,16.183,7.672
			c-1.97,14.632-15.055,15.195-18.994,8.441"/>
		<path fill="none" stroke="#000000" d="M216.278,95.334C210.611,101.5,201.861,116.5,195.611,136
			c3.502,2.68,7.571,3.53,11.571,2.863"/>
		<path fill="none" stroke="#000000" d="M216.611,116c-20.25,32.75-10.868,80.639-2.534,115.305
			c-13.91,1.055-22.943,7.195-27.61,12.195c7.424,0,9.484,0,14.985,0c4.044,0,8.047-3.2,10.728-3.766"/>
		<path fill="none" stroke="#000000" d="M210,243.5h17.611c-0.5-8-1.25-8.609-4-15.859s-2.167-49.18,0.583-59.93
			s17.167-11.488,17.917,1.262s3.25,54.653,2.75,60.903c-4,5.25-6.25,10.624-7.5,13.624c4.746,0,11.912,0,11.912,0
			c3.793-3,5.781-4.221,10.531-4.471"/>
		<path fill="none" stroke="#000000" d="M247.637,95.078c9.172,1.699,22.096,16.289,23.346,34.539c-4,1.5-8.474,2.794-13.224,3.794"
			/>
		<path fill="none" stroke="#000000" d="M250.932,112.89c16.959,27.577,5.465,102.694,1.965,116.444
			c10.5,0.5,24.715,8.166,26.965,14.166H255"/>
		<path fill="none" stroke="#000000" d="M223.142,24.37c-1,2.75-0.031,15.13,11.969,10.88c-11.75,8.5-28.25,33.5-1.5,38
			c26.75,4.5,26.75-21.25,18.75-35.75c1.25-3.75,3.754-6.258,4.504-10.008"/>
	</g>
</g>
<g id="Augen">
	<polygon points="238.031,24.066 235.927,26.173 238.188,28.434 240.296,26.33 	"/>
	<polygon points="245.281,24.066 243.177,26.173 245.438,28.434 247.546,26.33 	"/>
</g>
<g id="Verlauf">
	<g>
		
			<linearGradient id="SVGID_2_" gradientUnits="userSpaceOnUse" x1="1253.3027" y1="-1963.5786" x2="1100.5709" y2="-1714.4802" gradientTransform="matrix(1 0 0 -1 -962.5 -1703)">
			<stop  offset="0.1" style="stop-color:#5C7C99"/>
			<stop  offset="0.8" style="stop-color:#CCDAEA"/>
		</linearGradient>
		<path fill="url(#SVGID_2_)" stroke="#000000" d="M231.793,111.455c4.938-0.822,17.216-3.904,24.803-6.054
			c2.291-0.649,5.662,0.403,3.496,2.737c-5.138,5.533-4.275,12.252-2.471,18.146c7.498,24.493,10.997,66.983,8.998,76.647
			c-9.498,1.498-20.995,1.832-26.16,2.332c0.167-10.164-0.333-29.826-0.333-32.824c-3.166-0.5-6.832-0.666-8.665-0.334
			c-1.833,0.334-3,3.332-3.666,5.666c-0.666,2.332-2.999,24.826-3.666,28.992c-10.831,1.832-21.661,3.332-28.66,3.5
			c-0.2-3.104-0.193-7.479,0.027-12.646c0.22-5.167,0.653-9.854,1.306-17.405c0.653-1.309,1.526-12.51,2.626-19.301
			c1.1-6.703,2.426-9.418,3.986-18.324c1.56-7.21,3.353-13.844,5.385-14.479c2.135-6.255,2.802-6.646,2.789-8.438
			c-0.013-1.796-0.706-2.807-1.289-3.723c-1.166-1.834-2.439-4.711,0.833-4C214.964,112.789,222.795,112.955,231.793,111.455z"/>
	</g>
</g>
<g id="DT_weiss_auf_transparent">
	<g opacity="0.33">
		<pattern  id="SVGID_4_" xlink:href="#SVGID_6_" patternTransform="matrix(0.5 0 0 -0.5 -33357.7891 -34169.293)"  opacity="0.33">
		</pattern>
		<path fill="url(#SVGID_4_)" stroke="#000000" stroke-width="0.5" d="M231.793,111.455c4.938-0.822,17.216-3.904,24.803-6.054
			c2.291-0.649,5.662,0.403,3.496,2.737c-5.138,5.533-4.275,12.252-2.471,18.146c7.498,24.493,10.997,66.983,8.998,76.647
			c-9.498,1.498-20.995,1.832-26.16,2.332c0.167-10.164-0.333-29.826-0.333-32.824c-3.166-0.5-6.832-0.666-8.665-0.334
			c-1.833,0.334-3,3.332-3.666,5.666c-0.666,2.332-2.999,24.826-3.666,28.992c-10.831,1.832-21.661,3.332-28.66,3.5
			c-0.2-3.104-0.193-7.479,0.027-12.646c0.22-5.167,0.653-9.854,1.306-17.405c0.653-1.309,1.526-12.51,2.626-19.301
			c1.1-6.703,2.426-9.418,3.986-18.324c1.56-7.21,3.353-13.844,5.385-14.479c2.135-6.255,2.802-6.646,2.789-8.438
			c-0.013-1.796-0.706-2.807-1.289-3.723c-1.166-1.834-2.439-4.711,0.833-4C214.964,112.789,222.795,112.955,231.793,111.455z"/>
	</g>
</g>
<g id="Palette">
</g>
</svg>
