<?xml version="1.0" encoding="utf-8"?>
<!-- Generator: Adobe Illustrator 16.0.5, SVG Export Plug-In . SVG Version: 6.00 Build 0)  -->
<!DOCTYPE svg PUBLIC "-//W3C//DTD SVG 1.1//EN" "http://www.w3.org/Graphics/SVG/1.1/DTD/svg11.dtd">
<svg version="1.1" id="Ebene_1" xmlns="http://www.w3.org/2000/svg" xmlns:xlink="http://www.w3.org/1999/xlink" x="0px" y="0px"
	 width="468px" height="250px" viewBox="0 0 468 250" enable-background="new 0 0 468 250" xml:space="preserve">
<pattern  x="74.5" y="365.5" width="28.347" height="28.347" patternUnits="userSpaceOnUse" id="Design__x26__Training_15" viewBox="7.666 -41.23 28.347 28.347" overflow="visible">
	<g>
		<polygon fill="none" points="7.666,-41.23 36.013,-41.23 36.013,-12.884 7.666,-12.884 		"/>
		<g>
			<path fill="#FFFFFF" d="M43.798-19.795c-4.672-4.672-7.629-4.955-10.754-1.828l-4.697,4.691l5.027,5.023l3.168-3.162
				l-2.689-2.689l2.83-2.828l8.777,8.779l-2.83,2.826l-2.689-2.689l-3.166,3.164l5.027,5.025l4.369-4.369
				C50.335-12.014,48.677-14.916,43.798-19.795z"/>
			<polygon fill="#FFFFFF" points="28.03,-6.566 24.866,-3.4 28.267,0 31.437,-3.166 			"/>
		</g>
		<g>
			<path fill="#FFFFFF" d="M15.451-19.795c-4.672-4.672-7.629-4.955-10.754-1.828L0-16.932l5.027,5.023l3.168-3.162L5.506-17.76
				l2.83-2.828l8.777,8.779l-2.83,2.826l-2.689-2.689L8.428-8.508l5.027,5.025l4.369-4.369
				C21.988-12.014,20.33-14.916,15.451-19.795z"/>
		</g>
		<g>
			<path fill="#FFFFFF" d="M43.798-48.142c-4.672-4.672-7.629-4.955-10.754-1.828l-4.697,4.691l5.027,5.023l3.168-3.162
				l-2.689-2.689l2.83-2.828l8.777,8.779l-2.83,2.826l-2.689-2.689l-3.166,3.164l5.027,5.025l4.369-4.369
				C50.335-40.36,48.677-43.263,43.798-48.142z"/>
			<polygon fill="#FFFFFF" points="28.03,-34.913 24.866,-31.747 28.267,-28.347 31.437,-31.513 			"/>
		</g>
		<g>
			<path fill="#FFFFFF" d="M15.451-48.142c-4.672-4.672-7.629-4.955-10.754-1.828L0-45.278l5.027,5.023l3.168-3.162l-2.689-2.689
				l2.83-2.828l8.777,8.779l-2.83,2.826l-2.689-2.689l-3.166,3.164l5.027,5.025l4.369-4.369
				C21.988-40.36,20.33-43.263,15.451-48.142z"/>
		</g>
	</g>
</pattern>
<g id="Hosen_Rahmen">
	<g>
		<rect fill="none" width="468" height="250"/>
	</g>
</g>
<g id="Verlauf_vorne_zart">
	<rect fill="none" width="468" height="250"/>
</g>
<g id="Palette">
</g>
<path fill="#FFFFFF" d="M262.201,76.321l0.109,0.249c3.939,6.75,17.02,6.189,18.989-8.45c1.97-14.63-13.079-12.52-15.89-7.73
	l-0.286,0.473c0.625-12.242-2.348-24.8-8.044-33.253c-3.85-5.71-8.93-9.54-14.99-10.14c-6.9-0.68-13.18,1.93-18.52,6.58
	c-0.2,0.17-0.41,0.35-0.61,0.54c-8.794,8.033-14.886,21.636-16.816,35.044l-0.114-0.234c-1.829-3.09-16.319-5.91-15.329,7.321
	c0.979,13.219,13.079,11.25,14.909,7.029l0.14-0.231c0.887,9.105,4.271,17.025,10.741,21.521l-0.211,0.29
	c-5.67,6.17-14.42,21.17-20.67,40.67c3.5,2.68,6.951,3.65,10.951,2.98l0.75,0.18c-6.931,29.74,0.239,65,6.77,92.14
	c-13.91,1.06-22.95,7.2-27.609,12.2c7.42,0,9.479,0,14.979,0c4.05,0,8.05-3.2,10.729-3.76L210,243.5h17.609
	c-0.5-8-1.25-8.609-4-15.859s-2.17-49.181,0.58-59.931s17.17-11.489,17.92,1.261s3.25,54.659,2.75,60.909
	c-4,5.25-6.25,10.62-7.5,13.62c4.75,0,11.91,0,11.91,0c3.801-3,5.791-4.221,10.541-4.471L255,243.5h24.859
	c-2.25-6-16.459-13.67-26.959-14.17c3.06-12.03,12.24-71,3.14-104.04l0.42-0.12l1.3,8.24c4.75-1,9.221-2.29,13.221-3.79
	c-1.25-18.25-13.701-32.67-22.871-34.37l-0.25-0.43C254.783,90.754,259.457,84.084,262.201,76.321z"/>
<g>
	<path fill="none" stroke="#000000" d="M227.943,98.906c-40.035-3.018-21.049-84.887,14.146-81.436
		C272.064,20.408,278.322,102.701,227.943,98.906z"/>
	<path fill="none" stroke="#000000" d="M206.032,59.402c-1.829-3.096-16.321-5.909-15.336,7.316
		c0.985,13.225,13.085,11.255,14.913,7.034"/>
	<path fill="none" stroke="#000000" d="M265.122,60.453c2.813-4.783,18.151-6.96,16.182,7.672s-15.054,15.195-18.993,8.441"/>
	<path fill="none" stroke="#000000" d="M216.277,95.334C210.611,101.5,201.861,116.5,195.611,136c3.502,2.68,7.57,3.53,11.57,2.863"
		/>
	<path fill="none" stroke="#000000" d="M216.611,116c-20.25,32.75-10.867,80.888-2.534,115.555
		c-13.91,1.054-22.943,7.445-27.61,12.445c7.424,0,9.484,0,14.985,0c4.044,0,8.048-3.45,10.728-4.015"/>
	<path fill="none" stroke="#000000" d="M209.5,244h18.111c-0.5-8-1.25-8.86-4-16.11s-2.168-49.304,0.582-60.054
		s17.168-11.551,17.918,1.199s3.25,54.872,2.75,61.122c-4,5.25-6.25,10.843-7.5,13.843c4.747,0,11.913,0,11.913,0
		c3.794-3,5.531-4.221,10.281-4.471"/>
	<path fill="none" stroke="#000000" d="M247.637,95.078c9.172,1.699,22.096,16.289,23.346,34.539c-4,1.5-8.474,2.794-13.224,3.794"
		/>
	<path fill="none" stroke="#000000" d="M250.681,113.14c16.96,27.577,5.591,102.819,2.091,116.569
		c10.5,0.5,24.84,8.291,27.09,14.291H254.5"/>
	<path fill="none" stroke="#000000" d="M223.143,24.37c-1,2.75-0.031,15.13,11.969,10.88c-11.75,8.5-28.25,33.5-1.5,38
		s26.75-21.25,18.75-35.75c1.25-3.75,3.754-6.258,4.504-10.008"/>
</g>
<circle cx="238.111" cy="26.25" r="1.5"/>
<circle cx="245.361" cy="26.25" r="1.5"/>
<polygon points="238.031,24.066 235.927,26.173 238.188,28.434 240.296,26.33 "/>
<polygon points="245.281,24.066 243.177,26.173 245.438,28.434 247.546,26.33 "/>
<linearGradient id="SVGID_1_" gradientUnits="userSpaceOnUse" x1="310.6484" y1="249.625" x2="157.9816" y2="0.9583">
	<stop  offset="0.1" style="stop-color:#5C7C99"/>
	<stop  offset="0.8" style="stop-color:#CCDAEA"/>
</linearGradient>
<path fill="url(#SVGID_1_)" stroke="#000000" d="M203.586,70.146c-0.455-6.134-0.494-13.724,1.23-19.306
	c1.297-4.197,2.852-4.404,4.16-3.045c2.537,2.639,9.348,1.691,8.453,6.243c-1.576,8.015-0.904,18.804,15.877,21.373
	c7.045,1.078,17.106,1.317,22.602-7.876c5.582-9.338,1.246-20.971,2.391-21.16c2.551-0.422,9.279-3.458,10.453-1.015
	c2.537,5.277-1.689,9.225-1.826,13.092c-0.488,13.804-7.828,33.288-6.082,36.433c4.59,8.261,12.354,24.691,12.508,30.854
	c0.244,9.719-4.928,20.739-5.684,30.683c1.99,23.386-4.057,45.895-5.475,52.743c-9.496,1.499-16.11,1.988-24.17,0.599
	c0.168-10.164,0.307-21.819,0.307-24.818c-3.166-0.5-4.004-0.333-5.836,0c-1.834,0.333-4.113-0.838-4.779,1.495
	s1.293,20.046,0.627,24.212c-10.83,1.833-19.227,1.336-25.342-0.332c-0.998-15.497-7.197-43.999-4.975-60.12
	c0.867-6.278-8.506-10.125-5.002-25.017c3.334-14.177,9.502-24.955,11.951-27.24C209.145,94.051,204.096,77.03,203.586,70.146z"/>
<g opacity="0.33">
	
		<pattern  id="SVGID_2_" xlink:href="#Design__x26__Training_15" patternTransform="matrix(0.5 0 0 0.5 -3965.5615 -4304.3418)"  opacity="0.33">
	</pattern>
	<path fill="url(#SVGID_2_)" stroke="#000000" d="M203.586,70.146c-0.455-6.134-0.494-13.724,1.23-19.306
		c1.297-4.197,2.852-4.404,4.16-3.045c2.537,2.639,9.348,1.691,8.453,6.243c-1.576,8.015-0.904,18.804,15.877,21.373
		c7.045,1.078,17.106,1.317,22.602-7.876c5.582-9.338,1.246-20.971,2.391-21.16c2.551-0.422,9.279-3.458,10.453-1.015
		c2.537,5.277-1.689,9.225-1.826,13.092c-0.488,13.804-7.828,33.288-6.082,36.433c4.59,8.261,12.354,24.691,12.508,30.854
		c0.244,9.719-4.928,20.739-5.684,30.683c1.99,23.386-4.057,45.895-5.475,52.743c-9.496,1.499-16.11,1.988-24.17,0.599
		c0.168-10.164,0.307-21.819,0.307-24.818c-3.166-0.5-4.004-0.333-5.836,0c-1.834,0.333-4.113-0.838-4.779,1.495
		s1.293,20.046,0.627,24.212c-10.83,1.833-19.227,1.336-25.342-0.332c-0.998-15.497-7.197-43.999-4.975-60.12
		c0.867-6.278-8.506-10.125-5.002-25.017c3.334-14.177,9.502-24.955,11.951-27.24C209.145,94.051,204.096,77.03,203.586,70.146z"/>
</g>
</svg>
