<?xml version="1.0" encoding="utf-8"?>
<!-- Generator: Adobe Illustrator 16.0.5, SVG Export Plug-In . SVG Version: 6.00 Build 0)  -->
<!DOCTYPE svg PUBLIC "-//W3C//DTD SVG 1.1//EN" "http://www.w3.org/Graphics/SVG/1.1/DTD/svg11.dtd">
<svg version="1.1" id="Ebene_1" xmlns="http://www.w3.org/2000/svg" xmlns:xlink="http://www.w3.org/1999/xlink" x="0px" y="0px"
	 width="468px" height="250px" viewBox="0 0 468 250" enable-background="new 0 0 468 250" xml:space="preserve">
<g id="Hosen_Rahmen">
	<g>
		<rect x="0" fill="none" width="468" height="250"/>
	</g>
</g>
<g id="Verlauf_vorne_zart">
	<rect x="0" fill="none" width="468" height="250"/>
</g>
<g id="Gewohnheiten_100">
	<g>
		<g>
			<path fill="none" stroke="#000000" d="M227.943,98.906c-40.034-3.017-21.049-84.886,14.147-81.435
				C272.064,20.408,278.322,102.701,227.943,98.906z"/>
			<path fill="none" stroke="#000000" d="M206.032,59.402c-1.829-3.096-16.321-5.909-15.337,7.316
				c0.985,13.225,13.084,11.255,14.914,7.034"/>
			<path fill="none" stroke="#000000" d="M265.404,60.387c2.812-4.783,17.869-6.895,15.896,7.738
				c-1.97,14.633-15.053,15.195-18.989,8.441"/>
			<path fill="none" stroke="#000000" d="M216.278,95.334C210.611,101.5,201.861,116.5,195.611,136
				c3.502,2.68,6.95,3.646,10.95,2.98"/>
			<path fill="none" stroke="#000000" d="M216.611,116c-20.25,32.75-10.867,80.639-2.533,115.305
				c-13.91,1.055-22.943,7.195-27.61,12.195c7.424,0,9.484,0,14.985,0c4.044,0,8.047-3.2,10.728-3.766"/>
			<path fill="none" stroke="#000000" d="M210,243.5h17.61c-0.5-8-1.25-8.609-4-15.859s-2.167-49.18,0.583-59.93
				s17.167-11.488,17.917,1.262s3.25,54.653,2.75,60.903c-4,5.25-6.25,10.624-7.5,13.624c4.746,0,11.912,0,11.912,0
				c3.793-3,5.781-4.221,10.531-4.471"/>
			<path fill="none" stroke="#000000" d="M248.111,95.25c9.173,1.699,21.621,16.117,22.871,34.367c-4,1.5-7.479,2.794-12.229,3.794"
				/>
			<path fill="none" stroke="#000000" d="M250.932,112.89c16.959,27.577,5.465,102.694,1.965,116.444
				c10.5,0.5,24.715,8.166,26.965,14.166H255"/>
			<path fill="none" stroke="#000000" d="M223.111,24c-1,2.75,0,15.5,12,11.25c-11.75,8.5-28.25,33.5-1.5,38
				s26.75-21.25,18.75-35.75c1.25-3.75,3.75-6,4.5-9.75"/>
			<circle cx="238.111" cy="26.25" r="1.5"/>
			<circle cx="245.361" cy="26.25" r="1.5"/>
		</g>
	</g>
</g>
<g id="Menschen_Fläche">
	<path fill="#FFFFFF" d="M262.202,76.321l0.107,0.249c3.938,6.75,17.021,6.19,18.983-8.45c1.976-14.63-13.073-12.52-15.893-7.73
		l-0.283,0.473c0.625-12.242-2.354-24.8-8.045-33.253c-3.854-5.71-8.936-9.54-14.989-10.14c-6.896-0.68-13.181,1.93-18.521,6.58
		c-0.2,0.17-0.41,0.35-0.609,0.54c-8.793,8.033-14.886,21.636-16.816,35.044L206.03,59.4c-1.829-3.09-16.319-5.91-15.329,7.32
		c0.979,13.22,13.079,11.25,14.909,7.03l0.14-0.231c0.887,9.105,4.271,17.025,10.741,21.521l-0.211,0.29
		c-5.67,6.17-14.42,21.17-20.67,40.67c3.5,2.68,6.95,3.65,10.95,2.98l0.75,0.18c-6.93,29.74,0.24,65,6.771,92.14
		c-13.91,1.06-22.95,7.2-27.61,12.2c7.42,0,9.48,0,14.98,0c4.05,0,8.05-3.2,10.729-3.76L210,243.5h17.609
		c-0.5-8-1.25-8.609-4-15.859s-2.17-49.181,0.58-59.931s17.169-11.489,17.919,1.261s3.25,54.659,2.75,60.909
		c-4,5.25-6.25,10.62-7.5,13.62c4.75,0,11.91,0,11.91,0c3.801-3,5.791-4.221,10.541-4.471L255,243.5h24.858
		c-2.25-6-16.459-13.67-26.959-14.17c3.061-12.03,12.24-71,3.141-104.04l0.42-0.12l1.3,8.24c4.75-1,9.221-2.29,13.221-3.79
		c-1.25-18.25-13.701-32.67-22.871-34.37l-0.25-0.43C254.783,90.754,259.457,84.083,262.202,76.321z"/>
</g>
<g id="Menschen_Kontur">
	<g>
		<path fill="none" stroke="#000000" d="M227.943,98.906c-40.034-3.017-21.049-84.886,14.147-81.435
			C272.064,20.408,278.322,102.701,227.943,98.906z"/>
		<path fill="none" stroke="#000000" d="M206.032,59.402c-1.829-3.096-16.321-5.909-15.337,7.316
			c0.985,13.225,13.084,11.255,14.914,7.034"/>
		<path fill="none" stroke="#000000" d="M265.122,60.453c2.812-4.783,18.15-6.96,16.183,7.672
			c-1.97,14.632-15.055,15.195-18.994,8.441"/>
		<path fill="none" stroke="#000000" d="M216.278,95.334C210.611,101.5,201.861,116.5,195.611,136
			c3.502,2.68,7.571,3.529,11.571,2.863"/>
		<path fill="none" stroke="#000000" d="M216.611,116c-20.25,32.75-10.867,80.639-2.533,115.305
			c-13.91,1.055-22.943,7.195-27.61,12.195c7.424,0,9.484,0,14.985,0c4.044,0,8.047-3.2,10.728-3.766"/>
		<path fill="none" stroke="#000000" d="M210,243.5h17.61c-0.5-8-1.25-8.609-4-15.859s-2.167-49.18,0.583-59.93
			s17.167-11.488,17.917,1.262s3.25,54.653,2.75,60.903c-4,5.25-6.25,10.624-7.5,13.624c4.746,0,11.912,0,11.912,0
			c3.793-3,5.781-4.221,10.531-4.471"/>
		<path fill="none" stroke="#000000" d="M247.637,95.078c9.172,1.699,22.096,16.289,23.346,34.539c-4,1.5-8.474,2.794-13.224,3.794"
			/>
		<path fill="none" stroke="#000000" d="M250.932,112.89c16.959,27.577,5.465,102.694,1.965,116.444
			c10.5,0.5,24.715,8.166,26.965,14.166H255"/>
		<path fill="none" stroke="#000000" d="M223.142,24.37c-1,2.75-0.031,15.13,11.969,10.88c-11.75,8.5-28.25,33.5-1.5,38
			s26.75-21.25,18.75-35.75c1.25-3.75,3.754-6.258,4.504-10.008"/>
	</g>
</g>
<g id="Augen">
	<polygon points="238.031,24.066 235.927,26.173 238.188,28.434 240.296,26.33 	"/>
	<polygon points="245.281,24.066 243.177,26.173 245.438,28.434 247.546,26.33 	"/>
</g>
<g id="Palette">
</g>
<g id="Ebene_1_1_">
	<g id="Palette_1_">
	</g>
</g>
<g id="Ebene_3_Kopie">
	
		<linearGradient id="SVGID_1_" gradientUnits="userSpaceOnUse" x1="318.7961" y1="-736.2363" x2="110.3366" y2="-399.5299" gradientTransform="matrix(1 0 0 -1 -0.2759 -440.7031)">
		<stop  offset="0.1" style="stop-color:#5C7C99"/>
		<stop  offset="0.8" style="stop-color:#CCDAEA"/>
	</linearGradient>
	<path fill="url(#SVGID_1_)" stroke="#000000" d="M211.755,100.875c1.599-2.233,2.267-3.328,4.281-5.541
		c-2.509,5.271-3.615,13.766-3.874,17.65s0.164,10.068,0.943,17.34c0.248,2.293,0.874,6.615,0.36,9.73
		c2.628,2.202,9.808,7.987,20.084,8.059c10.276,0.066,17.17-4.711,19.561-6.018c0.047-5.064,1.682-10.934,3.725-18.382
		c2.043-7.447,0.695-14.811-2.557-19.563c-2.338-3.417-8.744-8.93-6.451-8.927c2.031,0.506,2.719,0.677,5.396,2.237
		c1.727,1.034,4.016,2.919,5.797,4.825c1.828,2.008,4.793,8.455,3.936,15.456c-0.584,4.753-4.254,17.844-4.189,21.208
		c0.479,2.135,0.975,3.854,1.432,5.854c0.459,2.004,0.709,4.914,1.076,6.479c0.367,1.565,3.172,8.146,3.707,11.224
		c0.533,3.078,0.562,8.729,1.041,10.729c0.479,1.998,3.496,12.24,2.898,16.414c-0.271,1.888-0.9,3.555-1.143,4.521
		c-5.23,1.866-20.117,2.416-25.494,2.278c-1.059-4.561-2.521-7.073-3.596-9.967c-1.072-2.896-2.771-8.219-2.646-9.801
		c-1.793-1.654-3.445-2.604-4.166-3.354c-1.194,2.202-3.226,4.957-4.778,8.677c-1.556,3.722-4.253,8.707-4.781,10.193
		s-0.068,3.062-0.331,5.097c-3.557,0.194-23.649-1.564-26.193-2.613c-0.478-2.205-0.9-3.246-0.9-5.176
		c-0.598-2.341,1.857-16.456,2.932-20.861c1.076-4.41,4.301-13.848,5.378-17.428c1.075-3.584,2.748-7.99,3.228-9.507
		c0.477-1.516,1.298-4.663,0.477-9.852c-0.569-3.582-1.695-19.923-0.092-22.792C208.287,106.359,210.258,102.97,211.755,100.875z"/>
</g>
<g opacity="0.5">
	<path fill="#FFFFFF" d="M261.569,180.943c2.336,2.336,2.48,3.812,0.914,5.377l-2.348,2.35l-2.512-2.514l1.58-1.584l1.346,1.344
		l1.414-1.414l-4.391-4.389l-1.414,1.414l1.348,1.346l-1.582,1.582l-2.516-2.514l2.188-2.188
		C257.68,177.676,259.133,178.504,261.569,180.943z"/>
	<polygon fill="#FFFFFF" points="254.957,188.828 253.373,190.41 251.674,188.709 253.258,187.125 	"/>
</g>
</svg>
