<?xml version="1.0" encoding="utf-8"?>
<!-- Generator: Adobe Illustrator 16.0.5, SVG Export Plug-In . SVG Version: 6.00 Build 0)  -->
<!DOCTYPE svg PUBLIC "-//W3C//DTD SVG 1.1//EN" "http://www.w3.org/Graphics/SVG/1.1/DTD/svg11.dtd">
<svg version="1.1" id="Ebene_1" xmlns="http://www.w3.org/2000/svg" xmlns:xlink="http://www.w3.org/1999/xlink" x="0px" y="0px"
	 width="468px" height="250px" viewBox="0 0 468 250" enable-background="new 0 0 468 250" xml:space="preserve">
<pattern  x="74.5" y="365.5" width="28.347" height="28.347" patternUnits="userSpaceOnUse" id="Design__x26__Training_15" viewBox="7.666 -41.23 28.347 28.347" overflow="visible">
	<g>
		<polygon fill="none" points="7.666,-41.23 36.013,-41.23 36.013,-12.884 7.666,-12.884 		"/>
		<g>
			<path fill="#FFFFFF" d="M43.798-19.795c-4.672-4.672-7.629-4.955-10.754-1.828l-4.697,4.691l5.027,5.023l3.168-3.162
				l-2.689-2.689l2.83-2.828l8.777,8.779l-2.83,2.826l-2.689-2.689l-3.166,3.164l5.027,5.025l4.369-4.369
				C50.335-12.014,48.677-14.916,43.798-19.795z"/>
			<polygon fill="#FFFFFF" points="28.03,-6.566 24.866,-3.4 28.267,0 31.437,-3.166 			"/>
		</g>
		<g>
			<path fill="#FFFFFF" d="M15.451-19.795c-4.672-4.672-7.629-4.955-10.754-1.828L0-16.932l5.027,5.023l3.168-3.162L5.506-17.76
				l2.83-2.828l8.777,8.779l-2.83,2.826l-2.689-2.689L8.428-8.508l5.027,5.025l4.369-4.369
				C21.988-12.014,20.33-14.916,15.451-19.795z"/>
		</g>
		<g>
			<path fill="#FFFFFF" d="M43.798-48.142c-4.672-4.672-7.629-4.955-10.754-1.828l-4.697,4.691l5.027,5.023l3.168-3.162
				l-2.689-2.689l2.83-2.828l8.777,8.779l-2.83,2.826l-2.689-2.689l-3.166,3.164l5.027,5.025l4.369-4.369
				C50.335-40.36,48.677-43.263,43.798-48.142z"/>
			<polygon fill="#FFFFFF" points="28.03,-34.913 24.866,-31.747 28.267,-28.347 31.437,-31.513 			"/>
		</g>
		<g>
			<path fill="#FFFFFF" d="M15.451-48.142c-4.672-4.672-7.629-4.955-10.754-1.828L0-45.278l5.027,5.023l3.168-3.162l-2.689-2.689
				l2.83-2.828l8.777,8.779l-2.83,2.826l-2.689-2.689l-3.166,3.164l5.027,5.025l4.369-4.369
				C21.988-40.36,20.33-43.263,15.451-48.142z"/>
		</g>
	</g>
</pattern>
<g id="Hosen_Rahmen">
	<g>
		<rect fill="none" width="468" height="250"/>
	</g>
</g>
<g id="Verlauf_vorne_zart">
	<rect fill="none" width="468" height="250"/>
</g>
<g id="Palette">
</g>
<path fill="#FFFFFF" d="M262.201,76.321l0.109,0.249c3.939,6.75,17.02,6.189,18.989-8.45c1.97-14.63-13.079-12.521-15.89-7.729
	l-0.286,0.473c0.625-12.242-2.348-24.801-8.044-33.254c-3.85-5.709-8.93-9.539-14.99-10.139c-6.9-0.681-13.18,1.93-18.52,6.579
	c-0.2,0.171-0.41,0.351-0.61,0.54c-8.794,8.033-14.886,21.636-16.816,35.044l-0.114-0.233c-1.829-3.09-16.319-5.91-15.329,7.32
	c0.979,13.219,13.079,11.25,14.909,7.029l0.14-0.231c0.887,9.105,4.271,17.025,10.741,21.521l-0.211,0.29
	c-5.67,6.17-14.42,21.17-20.67,40.67c3.5,2.68,6.951,3.65,10.951,2.98l0.75,0.18c-6.931,29.74,0.239,65,6.77,92.14
	c-13.91,1.06-22.95,7.2-27.609,12.2c7.42,0,9.479,0,14.979,0c4.05,0,8.05-3.2,10.729-3.76L210,243.5h17.609
	c-0.5-8-1.25-8.609-4-15.859s-2.17-49.181,0.58-59.931s17.17-11.489,17.92,1.261s3.25,54.659,2.75,60.909
	c-4,5.25-6.25,10.62-7.5,13.62c4.75,0,11.91,0,11.91,0c3.801-3,5.791-4.221,10.541-4.471L255,243.5h24.859
	c-2.25-6-16.459-13.67-26.959-14.17c3.06-12.03,12.24-71,3.14-104.04l0.42-0.12l1.3,8.24c4.75-1,9.221-2.29,13.221-3.79
	c-1.25-18.25-13.701-32.67-22.871-34.37l-0.25-0.43C254.783,90.754,259.457,84.084,262.201,76.321z"/>
<g>
	<path fill="none" stroke="#000000" d="M227.943,98.906c-40.035-3.018-21.049-84.887,14.146-81.436
		C272.064,20.408,278.322,102.701,227.943,98.906z"/>
	<path fill="none" stroke="#000000" d="M206.032,59.402c-1.829-3.096-16.321-5.909-15.336,7.316
		c0.985,13.225,13.085,11.255,14.913,7.034"/>
	<path fill="none" stroke="#000000" d="M265.122,60.453c2.813-4.783,18.151-6.961,16.182,7.672s-15.054,15.195-18.993,8.441"/>
	<path fill="none" stroke="#000000" d="M216.277,95.334C210.611,101.5,201.861,116.5,195.611,136c3.502,2.68,7.57,3.53,11.57,2.863"
		/>
	<path fill="none" stroke="#000000" d="M216.611,116c-20.25,32.75-10.867,80.888-2.534,115.555
		c-13.91,1.054-22.943,7.445-27.61,12.445c7.424,0,9.484,0,14.985,0c4.044,0,8.048-3.45,10.728-4.015"/>
	<path fill="none" stroke="#000000" d="M209.5,244h18.111c-0.5-8-1.25-8.86-4-16.11s-2.168-49.304,0.582-60.054
		s17.168-11.551,17.918,1.199s3.25,54.872,2.75,61.122c-4,5.25-6.25,10.843-7.5,13.843c4.747,0,11.913,0,11.913,0
		c3.794-3,5.531-4.221,10.281-4.471"/>
	<path fill="none" stroke="#000000" d="M247.637,95.078c9.172,1.699,22.096,16.289,23.346,34.539c-4,1.5-8.474,2.794-13.224,3.794"
		/>
	<path fill="none" stroke="#000000" d="M250.681,113.14c16.96,27.577,5.591,102.819,2.091,116.569
		c10.5,0.5,24.84,8.291,27.09,14.291H254.5"/>
	<path fill="none" stroke="#000000" d="M223.143,24.369c-1,2.75-0.031,15.131,11.969,10.881c-11.75,8.5-28.25,33.5-1.5,38
		s26.75-21.25,18.75-35.75c1.25-3.75,3.754-6.258,4.504-10.008"/>
</g>
<circle cx="238.111" cy="26.25" r="1.5"/>
<circle cx="245.361" cy="26.25" r="1.5"/>
<polygon points="238.031,24.066 235.927,26.174 238.188,28.434 240.296,26.33 "/>
<polygon points="245.281,24.066 243.177,26.174 245.438,28.434 247.546,26.33 "/>
<linearGradient id="SVGID_1_" gradientUnits="userSpaceOnUse" x1="295.1543" y1="259.3525" x2="141.8185" y2="11.6825">
	<stop  offset="0.1" style="stop-color:#5C7C99"/>
	<stop  offset="0.8" style="stop-color:#CCDAEA"/>
</linearGradient>
<path fill="url(#SVGID_1_)" stroke="#000000" d="M268.4,111.333c-2.746-5.688-7.288-10.841-12.531-14.351
	c-2.016-1.349-5.422-3.738-7.781-2.398c-2.389,1.355-4.569,3.082-6.674,4.837c-5.711,4.764-10.977,10.066-16.154,15.396
	c-4.272,4.398-9.732,8.951-13.09,14.055c-3.174,4.825-7.555,0.341-11.311,3.471c-4.969,4.141,1.641,12.823,1.641,17.908
	c0,14.25,0.5,29.5,2.25,42.75c0.468,3.541,0.969,6.361-0.203,9.828c-0.998,2.95-3.01,6.096-2.85,9.314
	c0.372,7.529,9.638,1.973,12.158-0.52c4.784-4.731,7.91-9.709,13.59-13.61c6.014-4.13,11.887-8.465,17.676-12.902
	c4.539-3.479,9.527-6.607,18.837-13.282c0.5-6.75-0.967-25.078-3.864-34.252c-11.066,5.094-23.803,14.937-34.604,20.2
	c12.822-12.472,19.07-22.444,27.815-30.54C257.726,123.145,266.32,117.313,268.4,111.333z"/>
<pattern  id="SVGID_2_" xlink:href="#Design__x26__Training_15" patternTransform="matrix(0.5 0 0 0.5 -4039.373 -4287.4702)">
</pattern>
<path opacity="0.33" fill="url(#SVGID_2_)" d="M268.4,111.333c-2.746-5.688-7.288-10.841-12.531-14.351
	c-2.016-1.349-5.422-3.738-7.781-2.398c-2.389,1.355-4.569,3.082-6.674,4.837c-5.711,4.764-10.977,10.066-16.154,15.396
	c-4.272,4.398-9.732,8.951-13.09,14.055c-3.174,4.825-7.555,0.341-11.311,3.471c-4.969,4.141,1.641,12.823,1.641,17.908
	c0,14.25,0.5,29.5,2.25,42.75c0.468,3.541,0.969,6.361-0.203,9.828c-0.998,2.95-3.01,6.096-2.85,9.314
	c0.372,7.529,9.638,1.973,12.158-0.52c4.784-4.731,7.91-9.709,13.59-13.61c6.014-4.13,11.887-8.465,17.676-12.902
	c4.539-3.479,9.527-6.607,18.837-13.282c0.5-6.75-0.967-25.078-3.864-34.252c-11.066,5.094-23.803,14.937-34.604,20.2
	c12.822-12.472,19.07-22.444,27.815-30.54C257.726,123.145,266.32,117.313,268.4,111.333z"/>
</svg>
