<?xml version="1.0" encoding="utf-8"?>
<!-- Generator: Adobe Illustrator 16.0.5, SVG Export Plug-In . SVG Version: 6.00 Build 0)  -->
<!DOCTYPE svg PUBLIC "-//W3C//DTD SVG 1.1//EN" "http://www.w3.org/Graphics/SVG/1.1/DTD/svg11.dtd">
<svg version="1.1" id="Ebene_1" xmlns="http://www.w3.org/2000/svg" xmlns:xlink="http://www.w3.org/1999/xlink" x="0px" y="0px"
	 width="468px" height="250px" viewBox="0 0 468 250" enable-background="new 0 0 468 250" xml:space="preserve">
<pattern  x="74.5" y="365.5" width="28.347" height="28.347" patternUnits="userSpaceOnUse" id="SVGID_2_" viewBox="7.666 -39.151 28.347 28.347" overflow="visible">
	<g>
		<polygon fill="none" points="7.666,-10.805 36.013,-10.805 36.013,-39.151 7.666,-39.151 		"/>
		<g>
			<polygon fill="none" points="7.666,-10.805 36.013,-10.805 36.013,-39.15 7.666,-39.15 			"/>
			<g>
				<path fill="#FFFFFF" d="M43.798-32.239c-4.672,4.672-7.629,4.955-10.754,1.828l-4.697-4.69l5.027-5.023l3.168,3.162
					l-2.689,2.688l2.83,2.828l8.777-8.778l-2.83-2.826l-2.689,2.688l-3.166-3.164l5.027-5.024l4.369,4.369
					C50.335-40.02,48.677-37.118,43.798-32.239z"/>
				<polygon fill="#FFFFFF" points="28.03,-45.469 24.866,-48.635 28.267,-52.034 31.437,-48.868 				"/>
			</g>
			<g>
				<path fill="#FFFFFF" d="M15.451-32.239c-4.672,4.672-7.629,4.955-10.754,1.828L0-35.102l5.027-5.023l3.168,3.162l-2.689,2.688
					l2.83,2.828l8.777-8.778l-2.83-2.826l-2.689,2.688l-3.166-3.164l5.027-5.024l4.369,4.369
					C21.988-40.02,20.33-37.118,15.451-32.239z"/>
			</g>
			<g>
				<path fill="#FFFFFF" d="M43.798-3.893c-4.672,4.672-7.629,4.955-10.754,1.828l-4.697-4.691l5.027-5.022l3.168,3.162
					l-2.689,2.688l2.83,2.828l8.777-8.778l-2.83-2.826l-2.689,2.688l-3.166-3.164l5.027-5.024l4.369,4.369
					C50.335-11.674,48.677-8.771,43.798-3.893z"/>
				<polygon fill="#FFFFFF" points="28.03,-17.121 24.866,-20.287 28.267,-23.688 31.437,-20.521 				"/>
			</g>
			<g>
				<path fill="#FFFFFF" d="M15.451-3.893C10.779,0.779,7.822,1.062,4.697-2.064L0-6.756l5.027-5.023l3.168,3.162L5.506-5.928
					L8.336-3.1l8.777-8.779l-2.83-2.826l-2.689,2.689L8.428-15.18l5.027-5.025l4.369,4.369C21.988-11.674,20.33-8.771,15.451-3.893z
					"/>
			</g>
		</g>
	</g>
</pattern>
<g id="Hosen_Rahmen">
	<g>
		<rect fill="none" width="468" height="250"/>
	</g>
</g>
<g id="Verlauf_vorne_zart">
	<rect fill="none" width="468" height="250"/>
</g>
<g id="Palette">
</g>
<path fill="#FFFFFF" d="M241.201,76.321l0.109,0.249c3.938,6.75,17.02,6.189,18.988-8.45c1.971-14.63-13.078-12.521-15.89-7.729
	l-0.286,0.473c0.625-12.242-2.348-24.801-8.044-33.254c-3.85-5.709-8.93-9.539-14.99-10.139c-6.9-0.681-13.18,1.93-18.52,6.579
	c-0.2,0.171-0.41,0.351-0.61,0.54c-8.794,8.033-14.886,21.636-16.816,35.044l-0.114-0.233c-1.829-3.09-16.319-5.91-15.329,7.32
	c0.979,13.219,13.079,11.25,14.909,7.029l0.14-0.231c0.887,9.105,4.271,17.025,10.741,21.521l-0.211,0.29
	c-5.67,6.17-14.42,21.17-20.67,40.67c3.5,2.68,6.951,3.65,10.951,2.98l0.75,0.18c-6.931,29.74,0.239,65,6.77,92.14
	c-13.91,1.06-22.95,7.2-27.609,12.2c7.42,0,9.479,0,14.979,0c4.05,0,8.05-3.2,10.729-3.76L189,243.5h17.609
	c-0.5-8-1.25-8.609-4-15.859s-2.17-49.181,0.58-59.931s17.17-11.489,17.92,1.261s3.25,54.659,2.75,60.909
	c-4,5.25-6.25,10.62-7.5,13.62c4.75,0,11.91,0,11.91,0c3.801-3,5.791-4.221,10.542-4.471L234,243.5h24.859
	c-2.25-6-16.459-13.67-26.959-14.17c3.06-12.03,12.241-71,3.14-104.04l0.42-0.12l1.3,8.24c4.75-1,9.221-2.29,13.221-3.79
	c-1.25-18.25-13.701-32.67-22.871-34.37l-0.25-0.43C233.783,90.754,238.457,84.084,241.201,76.321z"/>
<g>
	<path fill="none" stroke="#000000" d="M206.943,98.906c-40.035-3.018-21.049-84.887,14.146-81.437
		C251.064,20.408,257.322,102.701,206.943,98.906z"/>
	<path fill="none" stroke="#000000" d="M185.032,59.402c-1.829-3.096-16.321-5.909-15.336,7.316
		c0.985,13.225,13.085,11.255,14.913,7.034"/>
	<path fill="none" stroke="#000000" d="M244.122,60.453c2.813-4.783,18.151-6.961,16.183,7.672
		c-1.97,14.633-15.055,15.195-18.994,8.441"/>
	<path fill="none" stroke="#000000" d="M195.277,95.334C189.611,101.5,180.861,116.5,174.611,136c3.502,2.68,7.57,3.53,11.57,2.863"
		/>
	<path fill="none" stroke="#000000" d="M195.611,116c-20.25,32.75-10.867,80.889-2.534,115.555
		c-13.91,1.055-22.943,7.445-27.61,12.445c7.424,0,9.484,0,14.985,0c4.044,0,8.048-3.45,10.728-4.016"/>
	<path fill="none" stroke="#000000" d="M188.5,244h18.111c-0.5-8-1.25-8.859-4-16.109s-2.168-49.305,0.582-60.055
		s17.168-11.551,17.918,1.199s3.25,54.872,2.75,61.122c-4,5.25-6.25,10.843-7.5,13.843c4.747,0,11.913,0,11.913,0
		c3.794-3,5.531-4.221,10.281-4.471"/>
	<path fill="none" stroke="#000000" d="M226.637,95.078c9.171,1.699,22.095,16.289,23.345,34.539c-4,1.5-8.474,2.794-13.224,3.794"
		/>
	<path fill="none" stroke="#000000" d="M229.681,113.14c16.959,27.577,5.59,102.819,2.091,116.569
		c10.5,0.5,24.839,8.291,27.089,14.291H233.5"/>
	<path fill="none" stroke="#000000" d="M202.143,24.369c-1,2.75-0.031,15.131,11.969,10.881c-11.75,8.5-28.25,33.5-1.5,38
		c26.75,4.5,26.75-21.25,18.75-35.75c1.25-3.75,3.754-6.258,4.504-10.008"/>
</g>
<circle cx="217.111" cy="26.25" r="1.5"/>
<circle cx="224.361" cy="26.25" r="1.5"/>
<polygon points="217.031,24.066 214.927,26.174 217.188,28.434 219.296,26.33 "/>
<polygon points="224.281,24.066 222.177,26.174 224.438,28.434 226.546,26.33 "/>
<linearGradient id="SVGID_1_" gradientUnits="userSpaceOnUse" x1="429.0332" y1="-192.0303" x2="275.7013" y2="56.6341" gradientTransform="matrix(1 0 0 -1 -137.5 70)">
	<stop  offset="0.1" style="stop-color:#5C7C99"/>
	<stop  offset="0.8" style="stop-color:#CCDAEA"/>
</linearGradient>
<path fill="url(#SVGID_1_)" stroke="#000000" d="M239.146,152.299c15.504-1.752,45.352-8.842,47.018-17.508
	c9-1.334,10.127,4.469,7.961,6.801c-5.139,5.533-5.509,9.268-5.805,15.424c-0.83,17.25,16.918,26.371,19.404,35.328
	c-22.557,14.596-49.26,17.248-60.869,14.264c0.168-10.164,0-26.522,0-29.522c-3.166-0.5-0.567,0.092-2.401,0.424
	c-1.832,0.334-2.999,3.332-3.666,5.666c-0.666,2.332-1.56,18.771-2.226,22.937c-10.831,1.832-54.648-0.354-61.647-0.187
	c-0.999-15.498-0.828-27.916,1.334-42.334c1-6.668-8.265-8.69-5.666-17.666c1.037-3.584,8.153-4.938,14.153,2.062
	C195.647,152.104,218.048,154.682,239.146,152.299z"/>
<g opacity="0.33">
	<pattern  id="SVGID_3_" xlink:href="#SVGID_2_" patternTransform="matrix(0.5 0 0 -0.5 -8065.1792 -8335.8711)"  opacity="0.33">
	</pattern>
	<path fill="url(#SVGID_3_)" stroke="#000000" d="M239.146,152.299c15.504-1.752,45.352-8.842,47.018-17.508
		c9-1.334,10.127,4.469,7.961,6.801c-5.139,5.533-5.509,9.268-5.805,15.424c-0.83,17.25,16.918,26.371,19.404,35.328
		c-22.557,14.596-49.26,17.248-60.869,14.264c0.168-10.164,0-26.522,0-29.522c-3.166-0.5-0.567,0.092-2.401,0.424
		c-1.832,0.334-2.999,3.332-3.666,5.666c-0.666,2.332-1.56,18.771-2.226,22.937c-10.831,1.832-54.648-0.354-61.647-0.187
		c-0.999-15.498-0.828-27.916,1.334-42.334c1-6.668-8.265-8.69-5.666-17.666c1.037-3.584,8.153-4.938,14.153,2.062
		C195.647,152.104,218.048,154.682,239.146,152.299z"/>
</g>
</svg>
