<?xml version="1.0" encoding="utf-8"?>
<!-- Generator: Adobe Illustrator 16.0.5, SVG Export Plug-In . SVG Version: 6.00 Build 0)  -->
<!DOCTYPE svg PUBLIC "-//W3C//DTD SVG 1.1//EN" "http://www.w3.org/Graphics/SVG/1.1/DTD/svg11.dtd">
<svg version="1.1" id="Ebene_1" xmlns="http://www.w3.org/2000/svg" xmlns:xlink="http://www.w3.org/1999/xlink" x="0px" y="0px"
	 width="468px" height="250px" viewBox="0 0 468 250" enable-background="new 0 0 468 250" xml:space="preserve">
<pattern  x="-63.5" y="545.5" width="28.347" height="28.347" patternUnits="userSpaceOnUse" id="SVGID_3_2" viewBox="7.666 -41.23 28.347 28.347" overflow="visible">
	<g>
		<polygon fill="none" points="7.666,-12.883 36.013,-12.883 36.013,-41.23 7.666,-41.23 		"/>
		<g>
			<polygon fill="none" points="7.666,-41.23 36.013,-41.23 36.013,-12.883 7.666,-12.883 			"/>
			<g>
				<polygon fill="none" points="7.666,-12.883 36.013,-12.883 36.013,-41.23 7.666,-41.23 				"/>
				<g>
					<polygon fill="none" points="7.666,-41.229 36.013,-41.229 36.013,-12.883 7.666,-12.883 					"/>
					<g>
						<polygon fill="none" points="7.666,-12.883 36.013,-12.883 36.013,-41.229 7.666,-41.229 						"/>
						<g>
							<polygon fill="none" points="7.666,-41.229 36.013,-41.229 36.013,-12.883 7.666,-12.883 							"/>
							<g>
								<polygon fill="none" points="7.666,-12.883 36.013,-12.883 36.013,-41.229 7.666,-41.229 								"/>
								<g>
									<polygon fill="none" points="7.666,-41.229 36.013,-41.229 36.013,-12.883 7.666,-12.883 									"/>
									<g>
										<polygon fill="none" points="7.666,-12.883 36.013,-12.883 36.013,-41.229 7.666,-41.229 										"/>
										<g>
											<polygon fill="none" points="7.666,-41.229 36.013,-41.229 36.013,-12.883 7.666,-12.883 											"/>
											<g>
												<polygon fill="none" points="7.666,-41.229 36.013,-41.229 36.013,-12.887 7.666,-12.887 												"/>
												<g>
													<path fill="#FFFFFF" d="M43.798-19.795c-4.672-4.674-7.629-4.955-10.754-1.828l-4.697,4.688l5.027,5.021l3.168-3.162
														l-2.689-2.688l2.83-2.828l8.777,8.776L42.63-8.99l-2.689-2.688l-3.166,3.166l5.027,5.021l4.369-4.369
														C50.335-12.016,48.677-14.916,43.798-19.795z"/>
													<polygon fill="#FFFFFF" points="28.03,-6.565 24.866,-3.399 28.267,0 31.437,-3.166 													"/>
												</g>
												<g>
													<path fill="#FFFFFF" d="M15.451-19.795c-4.672-4.674-7.629-4.955-10.754-1.828L0-16.932l5.027,5.021l3.168-3.162
														l-2.689-2.688l2.83-2.825l8.777,8.771l-2.83,2.825l-2.689-2.688L8.428-8.512l5.027,5.021l4.369-4.369
														C21.988-12.016,20.33-14.916,15.451-19.795z"/>
												</g>
												<g>
													<path fill="#FFFFFF" d="M43.798-48.141c-4.672-4.674-7.629-4.957-10.754-1.828l-4.697,4.689l5.027,5.021l3.168-3.16
														l-2.689-2.688l2.83-2.826l8.777,8.773l-2.83,2.826l-2.689-2.688l-3.166,3.162l5.027,5.021l4.369-4.369
														C50.335-40.36,48.677-43.266,43.798-48.141z"/>
													<polygon fill="#FFFFFF" points="28.03,-34.914 24.866,-31.748 28.267,-28.348 31.437,-31.516 													"/>
												</g>
												<g>
													<path fill="#FFFFFF" d="M15.451-48.141c-4.672-4.674-7.629-4.957-10.754-1.832L0-45.278l5.027,5.022l3.168-3.162
														l-2.689-2.688l2.83-2.822l8.777,8.771l-2.83,2.826l-2.689-2.688l-3.166,3.164l5.027,5.021l4.369-4.369
														C21.988-40.36,20.33-43.266,15.451-48.141z"/>
												</g>
											</g>
										</g>
									</g>
								</g>
							</g>
						</g>
					</g>
				</g>
			</g>
		</g>
	</g>
</pattern>
<g id="Hosen_Rahmen">
	<g>
		<rect x="0" fill="none" width="468" height="250"/>
	</g>
</g>
<g id="Verlauf_vorne_zart">
	<rect x="0" fill="none" width="468" height="250"/>
</g>
<g id="Palette">
</g>
<g id="Mensch_Kontur">
	<g id="Menschen_Kontur">
		<g>
			<path fill="none" stroke="#000000" d="M206.941,98.909c-40.032-3.017-21.049-84.886,14.147-81.435
				C251.062,20.411,257.32,102.704,206.941,98.909z"/>
			<path fill="none" stroke="#000000" d="M185.031,59.405c-1.829-3.096-16.321-5.909-15.339,7.316
				c0.985,13.225,13.084,11.255,14.914,7.034"/>
			<path fill="none" stroke="#000000" d="M244.12,60.456c2.812-4.783,18.148-6.96,16.183,7.672
				c-1.97,14.632-15.055,15.195-18.994,8.441"/>
			<path fill="none" stroke="#000000" d="M195.276,95.337c-5.667,6.166-14.417,21.166-20.667,40.666
				c3.502,2.68,7.571,3.53,11.571,2.863"/>
			<path fill="none" stroke="#000000" d="M195.609,116.003c-20.25,32.75-10.865,80.639-2.531,115.305
				c-13.91,1.055-22.943,7.195-27.61,12.195c7.424,0,9.484,0,14.985,0c4.044,0,8.047-3.2,10.728-3.766"/>
			<path fill="none" stroke="#000000" d="M188.998,243.503h17.608c-0.5-8-1.25-8.609-4-15.859s-2.167-49.18,0.583-59.93
				s17.167-11.488,17.917,1.262s3.25,54.653,2.75,60.903c-4,5.25-6.25,10.624-7.5,13.624c4.746,0,11.912,0,11.912,0
				c3.793-3,5.781-4.221,10.531-4.471"/>
			<path fill="none" stroke="#000000" d="M226.635,95.081c9.172,1.699,22.096,16.289,23.346,34.539c-4,1.5-8.474,2.794-13.224,3.794
				"/>
			<path fill="none" stroke="#000000" d="M229.93,112.893c16.959,27.577,5.465,102.694,1.965,116.444
				c10.5,0.5,24.715,8.166,26.965,14.166h-24.861"/>
			<path fill="none" stroke="#000000" d="M202.14,24.373c-1,2.75-0.031,15.13,11.969,10.88c-11.75,8.5-28.25,33.5-1.5,38
				s26.75-21.25,18.75-35.75c1.25-3.75,3.754-6.258,4.504-10.008"/>
		</g>
	</g>
</g>
<g id="Mensch_Blauverlauf">
	<g opacity="0.7">
		
			<linearGradient id="SVGID_1_" gradientUnits="userSpaceOnUse" x1="330.8264" y1="938.5195" x2="22.2547" y2="435.2545" gradientTransform="matrix(1 0 0 1 0.2803 -592.8906)">
			<stop  offset="0.1" style="stop-color:#5C7C99"/>
			<stop  offset="0.8" style="stop-color:#CCDAEA"/>
		</linearGradient>
		<path fill="url(#SVGID_1_)" stroke="#000000" d="M241.2,76.324l0.105,0.249c3.938,6.75,17.021,6.19,18.983-8.45
			c1.976-14.63-13.073-12.52-15.895-7.73l-0.282,0.473c0.625-12.242-2.354-24.8-8.046-33.253c-3.854-5.71-8.936-9.54-14.987-10.14
			c-6.896-0.68-13.183,1.93-18.521,6.58c-0.2,0.17-0.41,0.35-0.607,0.54c-8.793,8.033-14.888,21.636-16.816,35.044l-0.106-0.234
			c-1.827-3.09-16.317-5.91-15.327,7.32c0.979,13.22,13.077,11.25,14.907,7.03l0.142-0.231c0.887,9.105,4.271,17.025,10.741,21.521
			l-0.213,0.29c-5.67,6.17-14.42,21.17-20.67,40.67c3.5,2.68,6.95,3.65,10.95,2.98l0.75,0.18c-6.93,29.74,0.24,65,6.771,92.14
			c-13.91,1.06-22.95,7.2-27.61,12.2c7.42,0,9.48,0,14.98,0c4.05,0,8.05-3.2,10.729-3.76l-2.18,3.76h17.607
			c-0.5-8-1.25-8.609-4-15.859s-2.17-49.181,0.58-59.931s17.169-11.489,17.919,1.261s3.25,54.659,2.75,60.909
			c-4,5.25-6.25,10.62-7.5,13.62c4.75,0,11.91,0,11.91,0c3.801-3,5.791-4.221,10.541-4.471l-4.808,4.471h24.856
			c-2.25-6-16.459-13.67-26.959-14.17c3.062-12.03,12.24-71,3.143-104.04l0.42-0.12l1.3,8.24c4.75-1,9.221-2.29,13.221-3.79
			c-1.25-18.25-13.701-32.67-22.871-34.37l-0.25-0.43C233.781,90.757,238.455,84.086,241.2,76.324z"/>
	</g>
</g>
<g id="Mensch_Muster">
	<g opacity="0.55">
		<pattern  id="SVGID_2_" xlink:href="#SVGID_3_2" patternTransform="matrix(0.5 0 0 0.5 -45166.9531 39082.293)"  opacity="0.55">
		</pattern>
		<path fill="url(#SVGID_2_)" stroke="#000000" stroke-width="0.5" d="M241.2,76.324l0.105,0.249
			c3.938,6.75,17.021,6.19,18.983-8.45c1.976-14.63-13.073-12.52-15.895-7.73l-0.282,0.473c0.625-12.242-2.354-24.8-8.046-33.253
			c-3.854-5.71-8.936-9.54-14.987-10.14c-6.896-0.68-13.183,1.93-18.521,6.58c-0.2,0.17-0.41,0.35-0.607,0.54
			c-8.793,8.033-14.888,21.636-16.816,35.044l-0.106-0.234c-1.827-3.09-16.317-5.91-15.327,7.32
			c0.979,13.22,13.077,11.25,14.907,7.03l0.142-0.231c0.887,9.105,4.271,17.025,10.741,21.521l-0.213,0.29
			c-5.67,6.17-14.42,21.17-20.67,40.67c3.5,2.68,6.95,3.65,10.95,2.98l0.75,0.18c-6.93,29.74,0.24,65,6.771,92.14
			c-13.91,1.06-22.95,7.2-27.61,12.2c7.42,0,9.48,0,14.98,0c4.05,0,8.05-3.2,10.729-3.76l-2.18,3.76h17.607
			c-0.5-8-1.25-8.609-4-15.859s-2.17-49.181,0.58-59.931s17.169-11.489,17.919,1.261s3.25,54.659,2.75,60.909
			c-4,5.25-6.25,10.62-7.5,13.62c4.75,0,11.91,0,11.91,0c3.801-3,5.791-4.221,10.541-4.471l-4.808,4.471h24.856
			c-2.25-6-16.459-13.67-26.959-14.17c3.062-12.03,12.24-71,3.143-104.04l0.42-0.12l1.3,8.24c4.75-1,9.221-2.29,13.221-3.79
			c-1.25-18.25-13.701-32.67-22.871-34.37l-0.25-0.43C233.781,90.757,238.455,84.086,241.2,76.324z"/>
	</g>
</g>
<g id="Kontur">
	<g id="Menschen_Kontur_1_">
		<g>
			<path fill="none" stroke="#000000" d="M206.941,98.909c-40.032-3.017-21.049-84.886,14.147-81.435
				C251.062,20.411,257.32,102.704,206.941,98.909z"/>
			<path fill="none" stroke="#000000" d="M185.031,59.405c-1.829-3.096-16.321-5.909-15.339,7.316
				c0.985,13.225,13.084,11.255,14.914,7.034"/>
			<path fill="none" stroke="#000000" d="M244.12,60.456c2.812-4.783,18.148-6.96,16.183,7.672
				c-1.97,14.632-15.055,15.195-18.994,8.441"/>
			<path fill="none" stroke="#000000" d="M195.276,95.337c-5.667,6.166-14.417,21.166-20.667,40.666
				c3.502,2.68,7.571,3.53,11.571,2.863"/>
			<path fill="none" stroke="#000000" d="M195.609,116.003c-20.25,32.75-10.865,80.639-2.531,115.305
				c-13.91,1.055-22.943,7.195-27.61,12.195c7.424,0,9.484,0,14.985,0c4.044,0,8.047-3.2,10.728-3.766"/>
			<path fill="none" stroke="#000000" d="M188.998,243.503h17.608c-0.5-8-1.25-8.609-4-15.859s-2.167-49.18,0.583-59.93
				s17.167-11.488,17.917,1.262s3.25,54.653,2.75,60.903c-4,5.25-6.25,10.624-7.5,13.624c4.746,0,11.912,0,11.912,0
				c3.793-3,5.781-4.221,10.531-4.471"/>
			<path fill="none" stroke="#000000" d="M226.635,95.081c9.172,1.699,22.096,16.289,23.346,34.539c-4,1.5-8.474,2.794-13.224,3.794
				"/>
			<path fill="none" stroke="#000000" d="M229.93,112.893c16.959,27.577,5.465,102.694,1.965,116.444
				c10.5,0.5,24.715,8.166,26.965,14.166h-24.861"/>
			<path fill="none" stroke="#000000" d="M202.14,24.373c-1,2.75-0.031,15.13,11.969,10.88c-11.75,8.5-28.25,33.5-1.5,38
				s26.75-21.25,18.75-35.75c1.25-3.75,3.754-6.258,4.504-10.008"/>
		</g>
	</g>
</g>
<g id="Augen">
	<g id="Augen_1_">
		<polygon points="217.029,24.069 214.925,26.176 217.186,28.437 219.294,26.333 		"/>
		<polygon points="224.279,24.069 222.175,26.176 224.436,28.437 226.544,26.333 		"/>
	</g>
</g>
<g id="weisse_Hose">
	<path fill="#FFFFFF" stroke="#000000" d="M239.145,152.302c15.504-1.752,45.354-8.842,47.02-17.508
		c9-1.334,10.128,4.469,7.962,6.801c-5.142,5.533-5.511,9.268-5.808,15.424c-0.829,17.25,16.918,26.371,19.404,35.328
		c-22.557,14.596-49.26,17.248-60.869,14.264c0.168-10.164,0-26.521,0-29.521c-3.166-0.5-0.564,0.093-2.398,0.424
		c-1.832,0.334-2.999,3.332-3.666,5.666c-0.666,2.332-1.562,18.771-2.229,22.938c-10.831,1.832-54.646-0.354-61.646-0.188
		c-0.999-15.497-0.828-27.916,1.334-42.334c1-6.668-8.268-8.688-5.666-17.666c1.037-3.584,8.15-4.938,14.15,2.062
		C195.646,152.106,218.047,154.685,239.145,152.302z"/>
</g>
<g id="blaue_Hose">
	
		<linearGradient id="SVGID_3_" gradientUnits="userSpaceOnUse" x1="239.6409" y1="800.5898" x2="239.6409" y2="727.4873" gradientTransform="matrix(1 0 0 1 0.2803 -592.8906)">
		<stop  offset="0.1" style="stop-color:#5C7C99"/>
		<stop  offset="0.8" style="stop-color:#CCDAEA"/>
	</linearGradient>
	<path opacity="0.05" fill="url(#SVGID_3_)" stroke="#000000" enable-background="new    " d="M239.145,152.302
		c15.504-1.752,45.354-8.842,47.02-17.508c9-1.334,10.128,4.469,7.962,6.801c-5.142,5.533-5.511,9.268-5.808,15.424
		c-0.829,17.25,16.918,26.371,19.404,35.328c-22.557,14.596-49.26,17.248-60.869,14.264c0.168-10.164,0-26.521,0-29.521
		c-3.166-0.5-0.564,0.093-2.398,0.424c-1.832,0.334-2.999,3.332-3.666,5.666c-0.666,2.332-1.562,18.771-2.229,22.938
		c-10.831,1.832-54.646-0.354-61.646-0.188c-0.999-15.497-0.828-27.916,1.334-42.334c1-6.668-8.268-8.688-5.666-17.666
		c1.037-3.584,8.15-4.938,14.15,2.062C195.646,152.106,218.047,154.685,239.145,152.302z"/>
</g>
</svg>
