<?xml version="1.0" encoding="utf-8"?>
<!-- Generator: Adobe Illustrator 16.0.5, SVG Export Plug-In . SVG Version: 6.00 Build 0)  -->
<!DOCTYPE svg PUBLIC "-//W3C//DTD SVG 1.1//EN" "http://www.w3.org/Graphics/SVG/1.1/DTD/svg11.dtd">
<svg version="1.1" id="Ebene_1" xmlns="http://www.w3.org/2000/svg" xmlns:xlink="http://www.w3.org/1999/xlink" x="0px" y="0px"
	 width="468px" height="250px" viewBox="0 0 468 250" enable-background="new 0 0 468 250" xml:space="preserve">
<pattern  x="-186.5" y="422.5" width="28.347" height="28.347" patternUnits="userSpaceOnUse" id="SVGID_2_" viewBox="7.666 -39.152 28.347 28.347" overflow="visible">
	<g>
		<polygon fill="none" points="7.666,-10.805 36.013,-10.805 36.013,-39.152 7.666,-39.152 		"/>
		<g>
			<polygon fill="none" points="7.666,-39.152 36.013,-39.152 36.013,-10.805 7.666,-10.805 			"/>
			<g>
				<polygon fill="none" points="7.666,-10.806 36.013,-10.806 36.013,-39.152 7.666,-39.152 				"/>
				<g>
					<polygon fill="none" points="7.666,-39.152 36.013,-39.152 36.013,-10.806 7.666,-10.806 					"/>
					<g>
						<polygon fill="none" points="7.666,-10.806 36.013,-10.806 36.013,-39.152 7.666,-39.152 						"/>
						<g>
							<polygon fill="none" points="7.666,-39.152 36.013,-39.152 36.013,-10.806 7.666,-10.806 							"/>
							<g>
								<polygon fill="none" points="7.666,-10.806 36.013,-10.806 36.013,-39.152 7.666,-39.152 								"/>
								<g>
									<polygon fill="none" points="7.666,-39.152 36.013,-39.152 36.013,-10.806 7.666,-10.806 									"/>
									<g>
										<polygon fill="none" points="7.666,-10.806 36.013,-10.806 36.013,-39.152 7.666,-39.152 										"/>
										<g>
											<polygon fill="none" points="7.666,-10.806 36.013,-10.806 36.013,-39.148 7.666,-39.148 											"/>
											<g>
												<path fill="#FFFFFF" d="M43.798-32.24c-4.672,4.674-7.629,4.955-10.754,1.828L28.347-35.1l5.027-5.021l3.168,3.162
													l-2.689,2.688l2.83,2.827l8.777-8.776l-2.83-2.825l-2.689,2.688l-3.166-3.167l5.027-5.021l4.369,4.369
													C50.335-40.02,48.677-37.119,43.798-32.24z"/>
												<polygon fill="#FFFFFF" points="28.03,-45.47 24.866,-48.636 28.267,-52.035 31.437,-48.869 												"/>
											</g>
											<g>
												<path fill="#FFFFFF" d="M15.451-32.24c-4.672,4.674-7.629,4.955-10.754,1.828L0-35.103l5.027-5.021l3.168,3.161
													l-2.689,2.688l2.83,2.826l8.777-8.772l-2.83-2.826l-2.689,2.688l-3.166-3.166l5.027-5.021l4.369,4.369
													C21.988-40.02,20.33-37.119,15.451-32.24z"/>
											</g>
											<g>
												<path fill="#FFFFFF" d="M43.798-3.894c-4.672,4.673-7.629,4.956-10.754,1.828l-4.697-4.69l5.027-5.021l3.168,3.16
													l-2.689,2.688l2.83,2.826l8.777-8.774l-2.83-2.826l-2.689,2.688l-3.166-3.163l5.027-5.021l4.369,4.369
													C50.335-11.675,48.677-8.77,43.798-3.894z"/>
												<polygon fill="#FFFFFF" points="28.03,-17.121 24.866,-20.287 28.267,-23.688 31.437,-20.52 												"/>
											</g>
											<g>
												<path fill="#FFFFFF" d="M15.451-3.894C10.779,0.779,7.822,1.062,4.697-2.062L0-6.757l5.027-5.022l3.168,3.162
													L5.506-5.929l2.83,2.821l8.777-8.772l-2.83-2.825l-2.689,2.688l-3.166-3.165l5.027-5.021l4.369,4.369
													C21.988-11.675,20.33-8.77,15.451-3.894z"/>
											</g>
										</g>
									</g>
								</g>
							</g>
						</g>
					</g>
				</g>
			</g>
		</g>
	</g>
</pattern>
<g id="Hintergrund">
	<g id="Hosen_Rahmen">
		<g>
			<rect x="0" fill="none" width="468" height="250"/>
		</g>
	</g>
	<g id="Verlauf_vorne_zart">
		<rect x="0" fill="none" width="468" height="250"/>
	</g>
</g>
<g id="Mensch_Kontur">
	<g id="Menschen_Kontur">
		<g>
			<path fill="none" stroke="#000000" d="M227.943,98.906c-40.033-3.017-21.049-84.886,14.147-81.435
				C272.064,20.408,278.322,102.701,227.943,98.906z"/>
			<path fill="none" stroke="#000000" d="M206.032,59.402c-1.829-3.096-16.321-5.909-15.338,7.316
				c0.985,13.225,13.084,11.255,14.914,7.034"/>
			<path fill="none" stroke="#000000" d="M265.122,60.453c2.812-4.783,18.149-6.96,16.183,7.672
				c-1.97,14.632-15.055,15.195-18.994,8.441"/>
			<path fill="none" stroke="#000000" d="M216.278,95.334C210.611,101.5,201.861,116.5,195.611,136
				c3.502,2.68,7.571,3.529,11.571,2.863"/>
			<path fill="none" stroke="#000000" d="M216.611,116c-20.25,32.75-10.866,80.639-2.532,115.305
				c-13.91,1.055-22.943,7.195-27.61,12.195c7.424,0,9.484,0,14.985,0c4.044,0,8.047-3.2,10.728-3.766"/>
			<path fill="none" stroke="#000000" d="M210,243.5h17.609c-0.5-8-1.25-8.609-4-15.859s-2.167-49.18,0.583-59.93
				s17.167-11.488,17.917,1.262s3.25,54.653,2.75,60.903c-4,5.25-6.25,10.624-7.5,13.624c4.746,0,11.912,0,11.912,0
				c3.793-3,5.781-4.221,10.531-4.471"/>
			<path fill="none" stroke="#000000" d="M247.637,95.078c9.172,1.699,22.096,16.289,23.346,34.539c-4,1.5-8.474,2.794-13.224,3.794
				"/>
			<path fill="none" stroke="#000000" d="M250.932,112.89c16.959,27.577,5.465,102.694,1.965,116.444
				c10.5,0.5,24.715,8.166,26.965,14.166H255"/>
			<path fill="none" stroke="#000000" d="M223.142,24.37c-1,2.75-0.031,15.13,11.969,10.88c-11.75,8.5-28.25,33.5-1.5,38
				s26.75-21.25,18.75-35.75c1.25-3.75,3.754-6.258,4.504-10.008"/>
		</g>
	</g>
</g>
<g id="Mensch_Blauverlauf">
	<g opacity="0.7">
		
			<linearGradient id="SVGID_1_" gradientUnits="userSpaceOnUse" x1="352.1643" y1="-95.7666" x2="43.5919" y2="407.4996" gradientTransform="matrix(1 0 0 -1 -0.0552 249.8594)">
			<stop  offset="0.1" style="stop-color:#5C7C99"/>
			<stop  offset="0.8" style="stop-color:#CCDAEA"/>
		</linearGradient>
		<path fill="url(#SVGID_1_)" stroke="#000000" d="M262.202,76.321l0.106,0.249c3.938,6.75,17.021,6.19,18.983-8.45
			c1.976-14.63-13.073-12.52-15.894-7.73l-0.282,0.473c0.625-12.242-2.354-24.8-8.046-33.253c-3.854-5.71-8.936-9.54-14.988-10.14
			c-6.896-0.68-13.182,1.93-18.521,6.58c-0.2,0.17-0.41,0.35-0.608,0.54c-8.793,8.033-14.887,21.636-16.816,35.044L206.03,59.4
			c-1.828-3.09-16.318-5.91-15.328,7.32c0.979,13.22,13.078,11.25,14.908,7.03l0.141-0.231c0.887,9.105,4.271,17.025,10.741,21.521
			l-0.212,0.29c-5.67,6.17-14.42,21.17-20.67,40.67c3.5,2.68,6.95,3.65,10.95,2.98l0.75,0.18c-6.93,29.74,0.24,65,6.771,92.14
			c-13.91,1.06-22.95,7.2-27.61,12.2c7.42,0,9.48,0,14.98,0c4.05,0,8.05-3.2,10.729-3.76L210,243.5h17.608
			c-0.5-8-1.25-8.609-4-15.859s-2.17-49.181,0.58-59.931s17.169-11.489,17.919,1.261s3.25,54.659,2.75,60.909
			c-4,5.25-6.25,10.62-7.5,13.62c4.75,0,11.91,0,11.91,0c3.801-3,5.791-4.221,10.541-4.471L255,243.5h24.857
			c-2.25-6-16.459-13.67-26.959-14.17c3.062-12.03,12.24-71,3.142-104.04l0.42-0.12l1.3,8.24c4.75-1,9.221-2.29,13.221-3.79
			c-1.25-18.25-13.701-32.67-22.871-34.37l-0.25-0.43C254.783,90.754,259.457,84.083,262.202,76.321z"/>
	</g>
</g>
<g id="Mensch_Muster">
	<g opacity="0.55">
		
			<pattern  id="SVGID_3_" xlink:href="#SVGID_2_" patternTransform="matrix(0.5 0 0 -0.5 -41051.7422 -43174.6055)"  opacity="0.55">
		</pattern>
		<path fill="url(#SVGID_3_)" stroke="#000000" stroke-width="0.5" d="M262.202,76.321l0.106,0.249
			c3.938,6.75,17.021,6.19,18.983-8.45c1.976-14.63-13.073-12.52-15.894-7.73l-0.282,0.473c0.625-12.242-2.354-24.8-8.046-33.253
			c-3.854-5.71-8.936-9.54-14.988-10.14c-6.896-0.68-13.182,1.93-18.521,6.58c-0.2,0.17-0.41,0.35-0.608,0.54
			c-8.793,8.033-14.887,21.636-16.816,35.044L206.03,59.4c-1.828-3.09-16.318-5.91-15.328,7.32
			c0.979,13.22,13.078,11.25,14.908,7.03l0.141-0.231c0.887,9.105,4.271,17.025,10.741,21.521l-0.212,0.29
			c-5.67,6.17-14.42,21.17-20.67,40.67c3.5,2.68,6.95,3.65,10.95,2.98l0.75,0.18c-6.93,29.74,0.24,65,6.771,92.14
			c-13.91,1.06-22.95,7.2-27.61,12.2c7.42,0,9.48,0,14.98,0c4.05,0,8.05-3.2,10.729-3.76L210,243.5h17.608
			c-0.5-8-1.25-8.609-4-15.859s-2.17-49.181,0.58-59.931s17.169-11.489,17.919,1.261s3.25,54.659,2.75,60.909
			c-4,5.25-6.25,10.62-7.5,13.62c4.75,0,11.91,0,11.91,0c3.801-3,5.791-4.221,10.541-4.471L255,243.5h24.857
			c-2.25-6-16.459-13.67-26.959-14.17c3.062-12.03,12.24-71,3.142-104.04l0.42-0.12l1.3,8.24c4.75-1,9.221-2.29,13.221-3.79
			c-1.25-18.25-13.701-32.67-22.871-34.37l-0.25-0.43C254.783,90.754,259.457,84.083,262.202,76.321z"/>
	</g>
</g>
<g id="Kontur">
	<g id="Menschen_Kontur_1_">
		<g>
			<path fill="none" stroke="#000000" d="M227.943,98.906c-40.033-3.017-21.049-84.886,14.147-81.435
				C272.064,20.408,278.322,102.701,227.943,98.906z"/>
			<path fill="none" stroke="#000000" d="M206.032,59.402c-1.829-3.096-16.321-5.909-15.338,7.316
				c0.985,13.225,13.084,11.255,14.914,7.034"/>
			<path fill="none" stroke="#000000" d="M265.122,60.453c2.812-4.783,18.149-6.96,16.183,7.672
				c-1.97,14.632-15.055,15.195-18.994,8.441"/>
			<path fill="none" stroke="#000000" d="M216.278,95.334C210.611,101.5,201.861,116.5,195.611,136
				c3.502,2.68,7.571,3.529,11.571,2.863"/>
			<path fill="none" stroke="#000000" d="M216.611,116c-20.25,32.75-10.866,80.639-2.532,115.305
				c-13.91,1.055-22.943,7.195-27.61,12.195c7.424,0,9.484,0,14.985,0c4.044,0,8.047-3.2,10.728-3.766"/>
			<path fill="none" stroke="#000000" d="M210,243.5h17.609c-0.5-8-1.25-8.609-4-15.859s-2.167-49.18,0.583-59.93
				s17.167-11.488,17.917,1.262s3.25,54.653,2.75,60.903c-4,5.25-6.25,10.624-7.5,13.624c4.746,0,11.912,0,11.912,0
				c3.793-3,5.781-4.221,10.531-4.471"/>
			<path fill="none" stroke="#000000" d="M247.637,95.078c9.172,1.699,22.096,16.289,23.346,34.539c-4,1.5-8.474,2.794-13.224,3.794
				"/>
			<path fill="none" stroke="#000000" d="M250.932,112.89c16.959,27.577,5.465,102.694,1.965,116.444
				c10.5,0.5,24.715,8.166,26.965,14.166H255"/>
			<path fill="none" stroke="#000000" d="M223.142,24.37c-1,2.75-0.031,15.13,11.969,10.88c-11.75,8.5-28.25,33.5-1.5,38
				s26.75-21.25,18.75-35.75c1.25-3.75,3.754-6.258,4.504-10.008"/>
		</g>
	</g>
</g>
<g id="Augen">
	<g id="Augen_1_">
		<polygon points="238.031,24.066 235.927,26.173 238.188,28.434 240.296,26.33 		"/>
		<polygon points="245.281,24.066 243.177,26.173 245.438,28.434 247.546,26.33 		"/>
	</g>
</g>
<g id="weisse_Hose">
	<path fill="#FFFFFF" stroke="#000000" d="M231.793,111.455c4.938-0.822,17.216-3.904,24.803-6.054
		c2.291-0.649,5.662,0.403,3.496,2.737c-5.138,5.533-4.275,12.252-2.471,18.146c7.498,24.493,10.997,66.983,8.998,76.647
		c-9.498,1.498-20.995,1.832-26.16,2.332c0.167-10.164-0.333-29.826-0.333-32.824c-3.166-0.5-6.832-0.666-8.665-0.334
		c-1.833,0.334-3,3.332-3.666,5.666c-0.666,2.332-2.999,24.826-3.666,28.992c-10.831,1.83-21.661,3.33-28.66,3.5
		c-0.2-3.104-0.193-7.479,0.027-12.646c0.22-5.167,0.651-9.854,1.306-17.405c0.653-1.31,1.526-12.51,2.626-19.301
		c1.1-6.703,2.426-9.418,3.986-18.324c1.56-7.21,3.353-13.844,5.385-14.479c2.135-6.253,2.802-6.646,2.789-8.438
		c-0.013-1.796-0.706-2.807-1.289-3.723c-1.166-1.834-2.439-4.711,0.833-4C214.964,112.789,222.795,112.955,231.793,111.455z"/>
</g>
<g id="blaue_Hose">
	
		<linearGradient id="SVGID_4_" gradientUnits="userSpaceOnUse" x1="231.3044" y1="39.5962" x2="231.3044" y2="144.647" gradientTransform="matrix(1 0 0 -1 -0.0552 249.8594)">
		<stop  offset="0.1" style="stop-color:#5C7C99"/>
		<stop  offset="0.8" style="stop-color:#CCDAEA"/>
	</linearGradient>
	<path opacity="0.05" fill="url(#SVGID_4_)" stroke="#000000" enable-background="new    " d="M231.793,111.455
		c4.938-0.822,17.216-3.904,24.803-6.054c2.291-0.649,5.662,0.403,3.496,2.737c-5.138,5.533-4.275,12.252-2.471,18.146
		c7.498,24.493,10.997,66.983,8.998,76.647c-9.498,1.498-20.995,1.832-26.16,2.332c0.167-10.164-0.333-29.826-0.333-32.824
		c-3.166-0.5-6.832-0.666-8.665-0.334c-1.833,0.334-3,3.332-3.666,5.666c-0.666,2.332-2.999,24.826-3.666,28.992
		c-10.831,1.83-21.661,3.33-28.66,3.5c-0.2-3.104-0.193-7.479,0.027-12.646c0.22-5.167,0.651-9.854,1.306-17.405
		c0.653-1.31,1.526-12.51,2.626-19.301c1.1-6.703,2.426-9.418,3.986-18.324c1.56-7.21,3.353-13.844,5.385-14.479
		c2.135-6.253,2.802-6.646,2.789-8.438c-0.013-1.796-0.706-2.807-1.289-3.723c-1.166-1.834-2.439-4.711,0.833-4
		C214.964,112.789,222.795,112.955,231.793,111.455z"/>
</g>
</svg>
