<?xml version="1.0" encoding="utf-8"?>
<!-- Generator: Adobe Illustrator 16.0.5, SVG Export Plug-In . SVG Version: 6.00 Build 0)  -->
<!DOCTYPE svg PUBLIC "-//W3C//DTD SVG 1.1//EN" "http://www.w3.org/Graphics/SVG/1.1/DTD/svg11.dtd">
<svg version="1.1" id="Ebene_1" xmlns="http://www.w3.org/2000/svg" xmlns:xlink="http://www.w3.org/1999/xlink" x="0px" y="0px"
	 width="468px" height="250px" viewBox="-156 0 468 250" enable-background="new -156 0 468 250" xml:space="preserve">
<pattern  x="-81.5" y="365.5" width="28.348" height="28.347" patternUnits="userSpaceOnUse" id="SVGID_2_" viewBox="28.347 -41.228 28.348 28.347" overflow="visible">
	<g>
		<polygon fill="none" points="28.347,-12.881 56.695,-12.881 56.695,-41.229 28.347,-41.229 		"/>
		<g>
			<polygon fill="none" points="28.347,-41.229 56.695,-41.229 56.695,-12.881 28.347,-12.881 			"/>
			<g>
				<polygon fill="none" points="28.347,-12.883 56.695,-12.883 56.695,-41.229 28.347,-41.229 				"/>
				<g>
					<polygon fill="none" points="28.347,-41.229 56.695,-41.229 56.695,-12.883 28.347,-12.883 					"/>
					<g>
						<polygon fill="none" points="28.347,-12.883 56.695,-12.883 56.695,-41.229 28.347,-41.229 						"/>
						<g>
							<polygon fill="none" points="28.347,-41.229 56.695,-41.229 56.695,-12.883 28.347,-12.883 							"/>
							<g>
								<polygon fill="none" points="28.347,-41.229 56.694,-41.229 56.694,-12.885 28.347,-12.885 								"/>
								<g>
									<polygon fill="#568CBE" points="85.041,-12.885 56.693,-12.885 56.693,-41.229 85.041,-41.229 									"/>
								</g>
								<g>
									<polygon fill="#568CBE" points="56.694,-12.885 28.347,-12.885 28.347,-41.229 56.694,-41.229 									"/>
									<g>
										<path fill="#FFFFFF" d="M64.479-19.795c-4.672-4.672-7.629-4.955-10.754-1.828l-4.697,4.689l5.027,5.023l3.168-3.162
											l-2.689-2.688l2.83-2.828l8.777,8.773l-2.83,2.826l-2.689-2.688L57.456-8.51l5.027,5.021l4.369-4.369
											C71.017-12.014,69.358-14.916,64.479-19.795z"/>
										<polygon fill="#FFFFFF" points="48.712,-6.563 45.548,-3.397 48.948,0 52.118,-3.166 										"/>
									</g>
								</g>
								<g>
									<polygon fill="#568CBE" points="28.348,-12.885 0,-12.885 0,-41.229 28.348,-41.229 									"/>
									<g>
										<path fill="#FFFFFF" d="M36.133-19.795c-4.672-4.672-7.629-4.955-10.754-1.828l-4.697,4.689l5.027,5.023l3.168-3.162
											l-2.689-2.688l2.83-2.828l8.777,8.773l-2.83,2.826l-2.689-2.688L29.11-8.508l5.027,5.021l4.369-4.367
											C42.67-12.014,41.012-14.916,36.133-19.795z"/>
									</g>
								</g>
								<g>
									<g>
										<path fill="#FFFFFF" d="M64.479-48.141c-4.672-4.672-7.629-4.955-10.754-1.828l-4.697,4.69l5.027,5.022l3.168-3.162
											l-2.689-2.688l2.83-2.827l8.777,8.777l-2.83,2.826l-2.689-2.688l-3.166,3.164l5.027,5.021l4.369-4.369
											C71.017-40.358,69.358-43.264,64.479-48.141z"/>
										<polygon fill="#FFFFFF" points="48.712,-34.912 45.548,-31.746 48.948,-28.346 52.118,-31.514 										"/>
									</g>
								</g>
								<g>
									<g>
										<path fill="#FFFFFF" d="M36.133-48.141c-4.672-4.672-7.629-4.955-10.754-1.828l-4.697,4.69l5.027,5.022l3.168-3.162
											l-2.689-2.688l2.83-2.827l8.777,8.777l-2.83,2.826l-2.689-2.688l-3.166,3.164l5.027,5.021l4.369-4.369
											C42.67-40.358,41.012-43.264,36.133-48.141z"/>
									</g>
								</g>
							</g>
						</g>
					</g>
				</g>
			</g>
		</g>
	</g>
</pattern>
<pattern  x="-81.5" y="365.5" width="28.347" height="28.347" patternUnits="userSpaceOnUse" id="SVGID_4_" viewBox="7.666 -41.23 28.347 28.347" overflow="visible">
	<g>
		<polygon fill="none" points="7.666,-12.883 36.013,-12.883 36.013,-41.23 7.666,-41.23 		"/>
		<g>
			<polygon fill="none" points="7.666,-41.229 36.013,-41.229 36.013,-12.883 7.666,-12.883 			"/>
			<g>
				<polygon fill="none" points="7.666,-12.883 36.013,-12.883 36.013,-41.229 7.666,-41.229 				"/>
				<g>
					<polygon fill="none" points="7.666,-41.229 36.013,-41.229 36.013,-12.883 7.666,-12.883 					"/>
					<g>
						<polygon fill="none" points="7.666,-12.883 36.013,-12.883 36.013,-41.229 7.666,-41.229 						"/>
						<g>
							<polygon fill="none" points="7.666,-41.229 36.013,-41.229 36.013,-12.883 7.666,-12.883 							"/>
							<g>
								<polygon fill="none" points="7.666,-41.229 36.013,-41.229 36.013,-12.885 7.666,-12.885 								"/>
								<g>
									<path fill="#FFFFFF" d="M43.798-19.795c-4.672-4.672-7.629-4.955-10.754-1.828l-4.697,4.689l5.027,5.021l3.168-3.162
										l-2.689-2.688l2.83-2.828l8.777,8.777l-2.83,2.825l-2.689-2.688L36.775-8.51l5.027,5.021l4.369-4.369
										C50.335-12.014,48.677-14.916,43.798-19.795z"/>
									<polygon fill="#FFFFFF" points="28.03,-6.565 24.866,-3.399 28.267,0 31.437,-3.166 									"/>
								</g>
								<g>
									<path fill="#FFFFFF" d="M15.451-19.795c-4.672-4.672-7.629-4.955-10.754-1.828L0-16.932l5.027,5.021l3.168-3.162
										L5.506-17.76l2.83-2.827l8.777,8.774l-2.83,2.826l-2.689-2.688L8.428-8.51l5.027,5.022l4.369-4.369
										C21.988-12.014,20.33-14.916,15.451-19.795z"/>
								</g>
								<g>
									<path fill="#FFFFFF" d="M43.798-48.141c-4.672-4.672-7.629-4.955-10.754-1.828l-4.697,4.69l5.027,5.021l3.168-3.16
										l-2.689-2.688l2.83-2.827l8.777,8.775l-2.83,2.826l-2.689-2.688l-3.166,3.163l5.027,5.021l4.369-4.369
										C50.335-40.36,48.677-43.264,43.798-48.141z"/>
									<polygon fill="#FFFFFF" points="28.03,-34.913 24.866,-31.747 28.267,-28.346 31.437,-31.514 									"/>
								</g>
								<g>
									<path fill="#FFFFFF" d="M15.451-48.141c-4.672-4.672-7.629-4.955-10.754-1.83L0-45.278l5.027,5.022l3.168-3.161
										l-2.689-2.689l2.83-2.823l8.777,8.774l-2.83,2.826l-2.689-2.688l-3.166,3.164l5.027,5.022l4.369-4.369
										C21.988-40.36,20.33-43.264,15.451-48.141z"/>
								</g>
							</g>
						</g>
					</g>
				</g>
			</g>
		</g>
	</g>
</pattern>
<g id="Hosen_Rahmen">
	<g>
		<rect x="-156" fill="#FFFFFF" width="468" height="250"/>
	</g>
</g>
<g id="Verlauf_vorne_zart">
	
		<linearGradient id="SVGID_1_" gradientUnits="userSpaceOnUse" x1="1023.8369" y1="2092.4805" x2="781.7055" y2="1702.7831" gradientTransform="matrix(1 0 0 1 -825 -1773)">
		<stop  offset="0" style="stop-color:#172533"/>
		<stop  offset="1" style="stop-color:#568CBE"/>
	</linearGradient>
	<rect x="-156" opacity="0.5" fill="url(#SVGID_1_)" enable-background="new    " width="468" height="250"/>
</g>
<g id="Fallback">
	<path fill="#7CA1BF" stroke="#000000" d="M75.793,111.455c4.938-0.822,17.216-3.904,24.803-6.054
		c2.291-0.649,5.662,0.403,3.496,2.737c-5.138,5.533-4.275,12.252-2.471,18.146c7.498,24.493,10.997,66.983,8.998,76.647
		c-9.498,1.498-20.995,1.832-26.16,2.332c0.167-10.164-0.333-29.826-0.333-32.824c-3.166-0.5-6.832-0.666-8.665-0.334
		c-1.833,0.334-3,3.332-3.666,5.666c-0.666,2.332-2.999,24.826-3.666,28.992c-10.831,1.832-21.661,3.332-28.66,3.5
		c-0.2-3.104-0.193-7.478,0.027-12.645c0.22-5.167,0.653-9.854,1.306-17.405c0.653-1.308,1.526-12.51,2.626-19.301
		c1.1-6.703,2.426-9.418,3.986-18.324c1.56-7.21,3.353-13.844,5.385-14.479c2.135-6.255,2.802-6.646,2.789-8.438
		c-0.013-1.796-0.706-2.807-1.289-3.723c-1.166-1.834-2.439-4.711,0.833-4C58.964,112.789,66.795,112.955,75.793,111.455z"/>
</g>
<g id="Gewohnheiten_100">
	<g>
		<g>
			<path fill="none" stroke="#000000" d="M71.943,98.906C31.908,95.889,50.894,14.02,86.09,17.471
				C116.064,20.408,122.322,102.701,71.943,98.906z"/>
			<path fill="none" stroke="#000000" d="M50.032,59.402c-1.829-3.096-16.321-5.909-15.336,7.316
				c0.985,13.225,13.084,11.255,14.914,7.034"/>
			<path fill="none" stroke="#000000" d="M109.404,60.387c2.812-4.783,17.869-6.895,15.896,7.738
				c-1.97,14.633-15.053,15.195-18.989,8.441"/>
			<path fill="none" stroke="#000000" d="M60.278,95.334C54.611,101.5,45.861,116.5,39.611,136c3.502,2.68,6.95,3.646,10.95,2.98"/>
			<path fill="none" stroke="#000000" d="M60.611,116c-20.25,32.75-10.868,80.639-2.534,115.305
				c-13.91,1.055-22.943,7.195-27.61,12.195c7.424,0,9.484,0,14.985,0c4.044,0,8.047-3.2,10.728-3.766"/>
			<path fill="none" stroke="#000000" d="M54,243.5h17.611c-0.5-8-1.25-8.609-4-15.859s-2.167-49.18,0.583-59.93
				s17.167-11.488,17.917,1.262s3.25,54.653,2.75,60.903c-4,5.25-6.25,10.624-7.5,13.624c4.746,0,11.912,0,11.912,0
				c3.793-3,5.781-4.221,10.531-4.471"/>
			<path fill="none" stroke="#000000" d="M92.111,95.25c9.172,1.699,21.621,16.117,22.871,34.367c-4,1.5-7.479,2.794-12.229,3.794"
				/>
			<path fill="none" stroke="#000000" d="M94.932,112.89c16.959,27.577,5.465,102.694,1.965,116.444
				c10.5,0.5,24.715,8.166,26.965,14.166H99"/>
			<path fill="none" stroke="#000000" d="M67.111,24c-1,2.75,0,15.5,12,11.25c-11.75,8.5-28.25,33.5-1.5,38
				c26.75,4.5,26.75-21.25,18.75-35.75c1.25-3.75,3.75-6,4.5-9.75"/>
			<circle cx="82.111" cy="26.25" r="1.5"/>
			<circle cx="89.361" cy="26.25" r="1.5"/>
		</g>
		<pattern  id="SVGID_3_" xlink:href="#SVGID_2_" patternTransform="matrix(0.5 0 0 0.5 -29139.7344 21555.6152)">
		</pattern>
		<path fill="url(#SVGID_3_)" stroke="#000000" stroke-width="0.5" d="M75.793,111.455c4.938-0.822,17.216-3.904,24.803-6.054
			c2.291-0.649,5.662,0.403,3.496,2.737c-5.138,5.533-4.275,12.252-2.471,18.146c7.498,24.493,10.997,66.983,8.998,76.647
			c-9.498,1.498-20.995,1.832-26.16,2.332c0.167-10.164-0.333-29.826-0.333-32.824c-3.166-0.5-6.832-0.666-8.665-0.334
			c-1.833,0.334-3,3.332-3.666,5.666c-0.666,2.332-2.999,24.826-3.666,28.992c-10.831,1.832-21.661,3.332-28.66,3.5
			c-0.2-3.104-0.193-7.478,0.027-12.645c0.22-5.167,0.653-9.854,1.306-17.405c0.653-1.308,1.526-12.51,2.626-19.301
			c1.1-6.703,2.426-9.418,3.986-18.324c1.56-7.21,3.353-13.844,5.385-14.479c2.135-6.255,2.802-6.646,2.789-8.438
			c-0.013-1.796-0.706-2.807-1.289-3.723c-1.166-1.834-2.439-4.711,0.833-4C58.964,112.789,66.795,112.955,75.793,111.455z"/>
	</g>
</g>
<g id="Menschen_Fläche">
	<path fill="#FFFFFF" d="M106.202,76.321l0.108,0.249c3.938,6.75,17.02,6.19,18.984-8.45c1.975-14.63-13.074-12.52-15.891-7.73
		l-0.285,0.473c0.625-12.242-2.354-24.8-8.044-33.253c-3.854-5.71-8.935-9.54-14.99-10.14c-6.896-0.68-13.18,1.93-18.52,6.58
		c-0.2,0.17-0.41,0.35-0.61,0.54c-8.793,8.033-14.885,21.636-16.816,35.044L50.03,59.4c-1.83-3.09-16.32-5.91-15.33,7.32
		c0.98,13.22,13.08,11.25,14.91,7.03l0.139-0.231c0.887,9.105,4.271,17.025,10.741,21.521l-0.21,0.29
		C54.61,101.5,45.86,116.5,39.61,136c3.5,2.68,6.95,3.65,10.95,2.98l0.75,0.18c-6.93,29.74,0.24,65,6.77,92.14
		c-13.91,1.06-22.95,7.2-27.61,12.2c7.42,0,9.48,0,14.98,0c4.05,0,8.05-3.2,10.73-3.76L54,243.5h17.61c-0.5-8-1.25-8.609-4-15.859
		s-2.17-49.181,0.58-59.931s17.169-11.489,17.919,1.261s3.25,54.659,2.75,60.909c-4,5.25-6.25,10.62-7.5,13.62
		c4.75,0,11.91,0,11.91,0c3.801-3,5.791-4.221,10.541-4.471L99,243.5h24.859c-2.25-6-16.459-13.67-26.959-14.17
		c3.06-12.03,12.24-71,3.14-104.04l0.42-0.12l1.3,8.24c4.75-1,9.221-2.29,13.221-3.79c-1.25-18.25-13.701-32.67-22.871-34.37
		l-0.25-0.43C98.783,90.754,103.457,84.083,106.202,76.321z"/>
</g>
<g id="Menschen_Kontur">
	<g>
		<path fill="none" stroke="#000000" d="M71.943,98.906C31.908,95.889,50.894,14.02,86.09,17.471
			C116.064,20.408,122.322,102.701,71.943,98.906z"/>
		<path fill="none" stroke="#000000" d="M50.032,59.402c-1.829-3.096-16.321-5.909-15.336,7.316
			c0.985,13.225,13.084,11.255,14.914,7.034"/>
		<path fill="none" stroke="#000000" d="M109.122,60.453c2.813-4.783,18.151-6.96,16.183,7.672
			c-1.97,14.632-15.055,15.195-18.994,8.441"/>
		<path fill="none" stroke="#000000" d="M60.278,95.334C54.611,101.5,45.861,116.5,39.611,136c3.502,2.68,7.571,3.53,11.571,2.863"
			/>
		<path fill="none" stroke="#000000" d="M60.611,116c-20.25,32.75-10.868,80.639-2.534,115.305
			c-13.91,1.055-22.943,7.195-27.61,12.195c7.424,0,9.484,0,14.985,0c4.044,0,8.047-3.2,10.728-3.766"/>
		<path fill="none" stroke="#000000" d="M54,243.5h17.611c-0.5-8-1.25-8.609-4-15.859s-2.167-49.18,0.583-59.93
			s17.167-11.488,17.917,1.262s3.25,54.653,2.75,60.903c-4,5.25-6.25,10.624-7.5,13.624c4.746,0,11.912,0,11.912,0
			c3.793-3,5.781-4.221,10.531-4.471"/>
		<path fill="none" stroke="#000000" d="M91.637,95.078c9.172,1.699,22.096,16.289,23.346,34.539c-4,1.5-8.474,2.794-13.224,3.794"
			/>
		<path fill="none" stroke="#000000" d="M94.932,112.89c16.959,27.577,5.465,102.694,1.965,116.444
			c10.5,0.5,24.715,8.166,26.965,14.166H99"/>
		<path fill="none" stroke="#000000" d="M67.142,24.37c-1,2.75-0.031,15.13,11.969,10.88c-11.75,8.5-28.25,33.5-1.5,38
			c26.75,4.5,26.75-21.25,18.75-35.75c1.25-3.75,3.754-6.258,4.504-10.008"/>
	</g>
</g>
<g id="Augen">
	<polygon points="82.031,24.066 79.927,26.173 82.188,28.434 84.296,26.33 	"/>
	<polygon points="89.281,24.066 87.177,26.173 89.438,28.434 91.546,26.33 	"/>
</g>
<g id="Verlauf">
	<g>
		
			<linearGradient id="SVGID_5_" gradientUnits="userSpaceOnUse" x1="959.8018" y1="2033.5781" x2="807.0714" y2="1784.4819" gradientTransform="matrix(1 0 0 1 -825 -1773)">
			<stop  offset="0.1" style="stop-color:#5C7C99"/>
			<stop  offset="0.8" style="stop-color:#CCDAEA"/>
		</linearGradient>
		<path fill="url(#SVGID_5_)" stroke="#000000" d="M75.793,111.455c4.938-0.822,17.216-3.904,24.803-6.054
			c2.291-0.649,5.662,0.403,3.496,2.737c-5.138,5.533-4.275,12.252-2.471,18.146c7.498,24.493,10.997,66.983,8.998,76.647
			c-9.498,1.498-20.995,1.832-26.16,2.332c0.167-10.164-0.333-29.826-0.333-32.824c-3.166-0.5-6.832-0.666-8.665-0.334
			c-1.833,0.334-3,3.332-3.666,5.666c-0.666,2.332-2.999,24.826-3.666,28.992c-10.831,1.832-21.661,3.332-28.66,3.5
			c-0.2-3.104-0.193-7.478,0.027-12.645c0.22-5.167,0.653-9.854,1.306-17.405c0.653-1.308,1.526-12.51,2.626-19.301
			c1.1-6.703,2.426-9.418,3.986-18.324c1.56-7.21,3.353-13.844,5.385-14.479c2.135-6.255,2.802-6.646,2.789-8.438
			c-0.013-1.796-0.706-2.807-1.289-3.723c-1.166-1.834-2.439-4.711,0.833-4C58.964,112.789,66.795,112.955,75.793,111.455z"/>
	</g>
</g>
<g id="DT_weiss_auf_transparent">
	<g opacity="0.33">
		<pattern  id="SVGID_6_" xlink:href="#SVGID_4_" patternTransform="matrix(0.5 0 0 0.5 -29088.0098 21555.6152)"  opacity="0.33">
		</pattern>
		<path fill="url(#SVGID_6_)" stroke="#000000" stroke-width="0.5" d="M75.793,111.455c4.938-0.822,17.216-3.904,24.803-6.054
			c2.291-0.649,5.662,0.403,3.496,2.737c-5.138,5.533-4.275,12.252-2.471,18.146c7.498,24.493,10.997,66.983,8.998,76.647
			c-9.498,1.498-20.995,1.832-26.16,2.332c0.167-10.164-0.333-29.826-0.333-32.824c-3.166-0.5-6.832-0.666-8.665-0.334
			c-1.833,0.334-3,3.332-3.666,5.666c-0.666,2.332-2.999,24.826-3.666,28.992c-10.831,1.832-21.661,3.332-28.66,3.5
			c-0.2-3.104-0.193-7.478,0.027-12.645c0.22-5.167,0.653-9.854,1.306-17.405c0.653-1.308,1.526-12.51,2.626-19.301
			c1.1-6.703,2.426-9.418,3.986-18.324c1.56-7.21,3.353-13.844,5.385-14.479c2.135-6.255,2.802-6.646,2.789-8.438
			c-0.013-1.796-0.706-2.807-1.289-3.723c-1.166-1.834-2.439-4.711,0.833-4C58.964,112.789,66.795,112.955,75.793,111.455z"/>
	</g>
</g>
<g id="Palette">
</g>
</svg>
