<?xml version="1.0" encoding="utf-8"?>
<!-- Generator: Adobe Illustrator 16.0.5, SVG Export Plug-In . SVG Version: 6.00 Build 0)  -->
<!DOCTYPE svg PUBLIC "-//W3C//DTD SVG 1.1//EN" "http://www.w3.org/Graphics/SVG/1.1/DTD/svg11.dtd">
<svg version="1.1" id="Ebene_1" xmlns="http://www.w3.org/2000/svg" xmlns:xlink="http://www.w3.org/1999/xlink" x="0px" y="0px"
	 width="468px" height="250px" viewBox="0 0 468 250" enable-background="new 0 0 468 250" xml:space="preserve">
<pattern  x="-186.5" y="422.5" width="28.347" height="28.347" patternUnits="userSpaceOnUse" id="SVGID_2_" viewBox="7.666 -39.152 28.347 28.347" overflow="visible">
	<g>
		<polygon fill="none" points="7.666,-10.805 36.013,-10.805 36.013,-39.152 7.666,-39.152 		"/>
		<g>
			<polygon fill="none" points="7.666,-39.152 36.013,-39.152 36.013,-10.805 7.666,-10.805 			"/>
			<g>
				<polygon fill="none" points="7.666,-10.806 36.013,-10.806 36.013,-39.152 7.666,-39.152 				"/>
				<g>
					<polygon fill="none" points="7.666,-39.152 36.013,-39.152 36.013,-10.806 7.666,-10.806 					"/>
					<g>
						<polygon fill="none" points="7.666,-10.806 36.013,-10.806 36.013,-39.152 7.666,-39.152 						"/>
						<g>
							<polygon fill="none" points="7.666,-39.152 36.013,-39.152 36.013,-10.806 7.666,-10.806 							"/>
							<g>
								<polygon fill="none" points="7.666,-10.806 36.013,-10.806 36.013,-39.152 7.666,-39.152 								"/>
								<g>
									<polygon fill="none" points="7.666,-39.152 36.013,-39.152 36.013,-10.806 7.666,-10.806 									"/>
									<g>
										<polygon fill="none" points="7.666,-10.806 36.013,-10.806 36.013,-39.152 7.666,-39.152 										"/>
										<g>
											<polygon fill="none" points="7.666,-10.806 36.013,-10.806 36.013,-39.148 7.666,-39.148 											"/>
											<g>
												<path fill="#FFFFFF" d="M43.798-32.24c-4.672,4.674-7.629,4.955-10.754,1.828L28.347-35.1l5.027-5.021l3.168,3.162
													l-2.689,2.688l2.83,2.827l8.777-8.776l-2.83-2.825l-2.689,2.688l-3.166-3.167l5.027-5.021l4.369,4.369
													C50.335-40.02,48.677-37.119,43.798-32.24z"/>
												<polygon fill="#FFFFFF" points="28.03,-45.47 24.866,-48.636 28.267,-52.035 31.437,-48.869 												"/>
											</g>
											<g>
												<path fill="#FFFFFF" d="M15.451-32.24c-4.672,4.674-7.629,4.955-10.754,1.828L0-35.103l5.027-5.021l3.168,3.161
													l-2.689,2.688l2.83,2.826l8.777-8.772l-2.83-2.826l-2.689,2.688l-3.166-3.166l5.027-5.021l4.369,4.369
													C21.988-40.02,20.33-37.119,15.451-32.24z"/>
											</g>
											<g>
												<path fill="#FFFFFF" d="M43.798-3.894c-4.672,4.673-7.629,4.956-10.754,1.828l-4.697-4.69l5.027-5.021l3.168,3.16
													l-2.689,2.688l2.83,2.826l8.777-8.774l-2.83-2.826l-2.689,2.688l-3.166-3.163l5.027-5.021l4.369,4.369
													C50.335-11.675,48.677-8.77,43.798-3.894z"/>
												<polygon fill="#FFFFFF" points="28.03,-17.121 24.866,-20.287 28.267,-23.688 31.437,-20.52 												"/>
											</g>
											<g>
												<path fill="#FFFFFF" d="M15.451-3.894C10.779,0.779,7.822,1.062,4.697-2.062L0-6.757l5.027-5.022l3.168,3.162
													L5.506-5.929l2.83,2.821l8.777-8.772l-2.83-2.825l-2.689,2.688l-3.166-3.165l5.027-5.021l4.369,4.369
													C21.988-11.675,20.33-8.77,15.451-3.894z"/>
											</g>
										</g>
									</g>
								</g>
							</g>
						</g>
					</g>
				</g>
			</g>
		</g>
	</g>
</pattern>
<g id="Hosen_Rahmen">
	<g>
		<rect x="0" fill="none" width="468" height="250"/>
	</g>
</g>
<g id="Verlauf_vorne_zart">
	<rect x="0" fill="none" width="468" height="250"/>
</g>
<g id="Palette">
</g>
<g id="Ebene_1_1_">
	<g id="Palette_1_">
	</g>
</g>
<g id="Mensch_Kontur">
	<g id="Menschen_Kontur_2_">
		<g>
			<path fill="none" stroke="#000000" d="M227.911,98.536c-40.033-3.018-21.049-84.886,14.147-81.435
				C272.032,20.038,278.29,102.331,227.911,98.536z"/>
			<path fill="none" stroke="#000000" d="M206.001,59.032c-1.829-3.096-16.321-5.909-15.338,7.316
				c0.985,13.225,13.084,11.255,14.914,7.034"/>
			<path fill="none" stroke="#000000" d="M265.091,60.083c2.812-4.783,18.149-6.96,16.183,7.672
				c-1.97,14.632-15.055,15.195-18.994,8.441"/>
			<path fill="none" stroke="#000000" d="M216.246,94.964c-5.667,6.166-14.417,21.166-20.667,40.666
				c3.502,2.68,7.571,3.529,11.571,2.863"/>
			<path fill="none" stroke="#000000" d="M216.579,115.63c-20.25,32.75-10.866,80.639-2.532,115.305
				c-13.91,1.055-22.943,7.195-27.61,12.195c7.424,0,9.484,0,14.985,0c4.044,0,8.047-3.2,10.728-3.766"/>
			<path fill="none" stroke="#000000" d="M209.969,243.13h17.609c-0.5-8-1.25-8.609-4-15.859s-2.167-49.18,0.583-59.93
				s17.167-11.488,17.917,1.262s3.25,54.653,2.75,60.903c-4,5.25-6.25,10.624-7.5,13.624c4.746,0,11.912,0,11.912,0
				c3.793-3,5.781-4.221,10.531-4.471"/>
			<path fill="none" stroke="#000000" d="M247.606,94.708c9.172,1.699,22.096,16.289,23.346,34.539c-4,1.5-8.474,2.794-13.224,3.794
				"/>
			<path fill="none" stroke="#000000" d="M250.901,112.521c16.959,27.576,5.465,102.693,1.965,116.443
				c10.5,0.5,24.715,8.166,26.965,14.166h-24.861"/>
			<path fill="none" stroke="#000000" d="M223.111,24c-1,2.75-0.031,15.13,11.969,10.88c-11.75,8.5-28.25,33.5-1.5,38
				s26.75-21.25,18.75-35.75c1.25-3.75,3.754-6.258,4.504-10.008"/>
		</g>
	</g>
</g>
<g id="Mensch_Blauverlauf">
	<g opacity="0.7">
		
			<linearGradient id="SVGID_1_" gradientUnits="userSpaceOnUse" x1="352.134" y1="-95.3965" x2="43.5616" y2="407.8697" gradientTransform="matrix(1 0 0 -1 -0.0552 249.8594)">
			<stop  offset="0.1" style="stop-color:#5C7C99"/>
			<stop  offset="0.8" style="stop-color:#CCDAEA"/>
		</linearGradient>
		<path fill="url(#SVGID_1_)" stroke="#000000" d="M262.171,75.951l0.106,0.249c3.938,6.75,17.021,6.19,18.983-8.45
			c1.976-14.63-13.073-12.52-15.894-7.73l-0.282,0.473c0.625-12.242-2.354-24.8-8.046-33.253c-3.854-5.71-8.936-9.54-14.988-10.14
			c-6.896-0.68-13.182,1.93-18.521,6.58c-0.2,0.17-0.41,0.35-0.608,0.54c-8.793,8.033-14.887,21.636-16.816,35.044l-0.106-0.234
			c-1.828-3.09-16.318-5.91-15.328,7.32c0.979,13.22,13.078,11.25,14.908,7.03l0.141-0.231c0.887,9.105,4.271,17.025,10.741,21.521
			l-0.212,0.29c-5.67,6.17-14.42,21.17-20.67,40.67c3.5,2.68,6.95,3.65,10.95,2.98l0.75,0.18c-6.93,29.74,0.24,65,6.771,92.14
			c-13.91,1.06-22.95,7.2-27.61,12.2c7.42,0,9.48,0,14.98,0c4.05,0,8.05-3.2,10.729-3.76l-2.18,3.76h17.608
			c-0.5-8-1.25-8.609-4-15.859s-2.17-49.181,0.58-59.931s17.169-11.489,17.919,1.261s3.25,54.659,2.75,60.909
			c-4,5.25-6.25,10.62-7.5,13.62c4.75,0,11.91,0,11.91,0c3.801-3,5.791-4.221,10.541-4.471l-4.809,4.471h24.857
			c-2.25-6-16.459-13.67-26.959-14.17c3.062-12.03,12.24-71,3.142-104.04l0.42-0.12l1.3,8.24c4.75-1,9.221-2.29,13.221-3.79
			c-1.25-18.25-13.701-32.67-22.871-34.37l-0.25-0.43C254.752,90.384,259.426,83.713,262.171,75.951z"/>
	</g>
</g>
<g id="Mensch_Muster">
	<g opacity="0.55">
		
			<pattern  id="SVGID_3_" xlink:href="#SVGID_2_" patternTransform="matrix(0.5 0 0 -0.5 -41051.7422 -43174.6055)"  opacity="0.55">
		</pattern>
		<path fill="url(#SVGID_3_)" stroke="#000000" stroke-width="0.5" d="M262.171,75.951l0.106,0.249
			c3.938,6.75,17.021,6.19,18.983-8.45c1.976-14.63-13.073-12.52-15.894-7.73l-0.282,0.473c0.625-12.242-2.354-24.8-8.046-33.253
			c-3.854-5.71-8.936-9.54-14.988-10.14c-6.896-0.68-13.182,1.93-18.521,6.58c-0.2,0.17-0.41,0.35-0.608,0.54
			c-8.793,8.033-14.887,21.636-16.816,35.044l-0.106-0.234c-1.828-3.09-16.318-5.91-15.328,7.32
			c0.979,13.22,13.078,11.25,14.908,7.03l0.141-0.231c0.887,9.105,4.271,17.025,10.741,21.521l-0.212,0.29
			c-5.67,6.17-14.42,21.17-20.67,40.67c3.5,2.68,6.95,3.65,10.95,2.98l0.75,0.18c-6.93,29.74,0.24,65,6.771,92.14
			c-13.91,1.06-22.95,7.2-27.61,12.2c7.42,0,9.48,0,14.98,0c4.05,0,8.05-3.2,10.729-3.76l-2.18,3.76h17.608
			c-0.5-8-1.25-8.609-4-15.859s-2.17-49.181,0.58-59.931s17.169-11.489,17.919,1.261s3.25,54.659,2.75,60.909
			c-4,5.25-6.25,10.62-7.5,13.62c4.75,0,11.91,0,11.91,0c3.801-3,5.791-4.221,10.541-4.471l-4.809,4.471h24.857
			c-2.25-6-16.459-13.67-26.959-14.17c3.062-12.03,12.24-71,3.142-104.04l0.42-0.12l1.3,8.24c4.75-1,9.221-2.29,13.221-3.79
			c-1.25-18.25-13.701-32.67-22.871-34.37l-0.25-0.43C254.752,90.384,259.426,83.713,262.171,75.951z"/>
	</g>
</g>
<g id="Kontur">
	<g id="Menschen_Kontur_1_">
		<g>
			<path fill="none" stroke="#000000" d="M227.911,98.536c-40.033-3.018-21.049-84.886,14.147-81.435
				C272.032,20.038,278.29,102.331,227.911,98.536z"/>
			<path fill="none" stroke="#000000" d="M206.001,59.032c-1.829-3.096-16.321-5.909-15.338,7.316
				c0.985,13.225,13.084,11.255,14.914,7.034"/>
			<path fill="none" stroke="#000000" d="M265.091,60.083c2.812-4.783,18.149-6.96,16.183,7.672
				c-1.97,14.632-15.055,15.195-18.994,8.441"/>
			<path fill="none" stroke="#000000" d="M216.246,94.964c-5.667,6.166-14.417,21.166-20.667,40.666
				c3.502,2.68,7.571,3.529,11.571,2.863"/>
			<path fill="none" stroke="#000000" d="M216.579,115.63c-20.25,32.75-10.866,80.639-2.532,115.305
				c-13.91,1.055-22.943,7.195-27.61,12.195c7.424,0,9.484,0,14.985,0c4.044,0,8.047-3.2,10.728-3.766"/>
			<path fill="none" stroke="#000000" d="M209.969,243.13h17.609c-0.5-8-1.25-8.609-4-15.859s-2.167-49.18,0.583-59.93
				s17.167-11.488,17.917,1.262s3.25,54.653,2.75,60.903c-4,5.25-6.25,10.624-7.5,13.624c4.746,0,11.912,0,11.912,0
				c3.793-3,5.781-4.221,10.531-4.471"/>
			<path fill="none" stroke="#000000" d="M247.606,94.708c9.172,1.699,22.096,16.289,23.346,34.539c-4,1.5-8.474,2.794-13.224,3.794
				"/>
			<path fill="none" stroke="#000000" d="M250.901,112.521c16.959,27.576,5.465,102.693,1.965,116.443
				c10.5,0.5,24.715,8.166,26.965,14.166h-24.861"/>
			<path fill="none" stroke="#000000" d="M223.111,24c-1,2.75-0.031,15.13,11.969,10.88c-11.75,8.5-28.25,33.5-1.5,38
				s26.75-21.25,18.75-35.75c1.25-3.75,3.754-6.258,4.504-10.008"/>
		</g>
	</g>
</g>
<g id="Augen_1_">
	<g id="Augen_2_">
		<polygon points="237.999,23.696 235.896,25.803 238.156,28.064 240.265,25.96 		"/>
		<polygon points="245.249,23.696 243.146,25.803 245.406,28.064 247.515,25.96 		"/>
	</g>
</g>
<path fill="#FFFFFF" stroke="#000000" stroke-linejoin="round" stroke-miterlimit="10" d="M211.755,100.875
	c1.599-2.233,2.267-3.328,4.281-5.541c-2.51,5.271-3.615,13.766-3.874,17.65c-0.26,3.884,0.164,10.068,0.942,17.34
	c0.248,2.293,0.874,6.615,0.36,9.73c2.628,2.201,9.808,7.986,20.084,8.059c10.276,0.066,17.17-4.711,19.561-6.018
	c0.048-5.064,1.683-10.935,3.726-18.383c2.043-7.447,0.694-14.811-2.558-19.563c-2.338-3.417-8.743-8.93-6.45-8.927
	c2.03,0.506,2.719,0.677,5.396,2.237c1.728,1.034,4.016,2.919,5.797,4.825c1.828,2.008,4.793,8.455,3.937,15.456
	c-0.584,4.753-4.254,17.844-4.189,21.208c0.479,2.135,0.976,3.854,1.433,5.854c0.459,2.004,0.709,4.914,1.075,6.479
	c0.367,1.566,3.172,8.146,3.707,11.225c0.533,3.078,0.562,8.729,1.041,10.729c0.479,1.998,3.496,12.24,2.898,16.414
	c-0.271,1.889-0.9,3.556-1.144,4.521c-5.229,1.866-20.116,2.416-25.493,2.277c-1.06-4.561-2.521-7.072-3.597-9.967
	c-1.071-2.896-2.771-8.219-2.646-9.801c-1.793-1.654-3.445-2.604-4.166-3.354c-1.194,2.201-3.227,4.957-4.778,8.677
	c-1.556,3.722-4.253,8.707-4.781,10.192c-0.527,1.486-0.067,3.062-0.331,5.098c-3.557,0.193-23.648-1.564-26.192-2.613
	c-0.479-2.205-0.9-3.246-0.9-5.176c-0.598-2.341,1.857-16.456,2.933-20.861c1.075-4.41,4.301-13.848,5.378-17.428
	c1.074-3.584,2.748-7.99,3.228-9.507c0.478-1.517,1.298-4.663,0.478-9.853c-0.569-3.582-1.695-19.922-0.093-22.792
	C208.287,106.359,210.258,102.97,211.755,100.875z"/>
<g opacity="0.5">
	<linearGradient id="SVGID_4_" gradientUnits="userSpaceOnUse" x1="253.4084" y1="183.6211" x2="263.5159" y2="183.6211">
		<stop  offset="0.2" style="stop-color:#CCDAEA"/>
		<stop  offset="0.9" style="stop-color:#5C7C99"/>
	</linearGradient>
	<path fill="url(#SVGID_4_)" d="M261.569,180.943c2.336,2.336,2.48,3.812,0.914,5.377l-2.348,2.35l-2.512-2.514l1.58-1.584
		l1.346,1.344l1.414-1.414l-4.392-4.389l-1.413,1.414l1.348,1.346l-1.582,1.582l-2.516-2.514l2.188-2.188
		C257.68,177.676,259.133,178.504,261.569,180.943z"/>
	<linearGradient id="SVGID_5_" gradientUnits="userSpaceOnUse" x1="251.6741" y1="188.7676" x2="254.9573" y2="188.7676">
		<stop  offset="0.2" style="stop-color:#CCDAEA"/>
		<stop  offset="0.9" style="stop-color:#5C7C99"/>
	</linearGradient>
	<polygon fill="url(#SVGID_5_)" points="254.957,188.828 253.373,190.41 251.674,188.709 253.258,187.125 	"/>
</g>
</svg>
