<?xml version="1.0" encoding="utf-8"?>
<!-- Generator: Adobe Illustrator 16.0.5, SVG Export Plug-In . SVG Version: 6.00 Build 0)  -->
<!DOCTYPE svg PUBLIC "-//W3C//DTD SVG 1.1//EN" "http://www.w3.org/Graphics/SVG/1.1/DTD/svg11.dtd">
<svg version="1.1" xmlns="http://www.w3.org/2000/svg" xmlns:xlink="http://www.w3.org/1999/xlink" x="0px" y="0px" width="468px"
	 height="250px" viewBox="0 0 468 250" enable-background="new 0 0 468 250" xml:space="preserve">
<pattern  x="-63.5" y="545.5" width="28.347" height="28.347" patternUnits="userSpaceOnUse" id="SVGID_4_" viewBox="7.666 -41.23 28.347 28.347" overflow="visible">
	<g>
		<polygon fill="none" points="7.666,-12.883 36.013,-12.883 36.013,-41.23 7.666,-41.23 		"/>
		<g>
			<polygon fill="none" points="7.666,-41.229 36.013,-41.229 36.013,-12.883 7.666,-12.883 			"/>
			<g>
				<polygon fill="none" points="7.666,-12.883 36.013,-12.883 36.013,-41.229 7.666,-41.229 				"/>
				<g>
					<polygon fill="none" points="7.666,-41.229 36.013,-41.229 36.013,-12.883 7.666,-12.883 					"/>
					<g>
						<polygon fill="none" points="7.666,-12.883 36.013,-12.883 36.013,-41.229 7.666,-41.229 						"/>
						<g>
							<polygon fill="none" points="7.666,-41.229 36.013,-41.229 36.013,-12.883 7.666,-12.883 							"/>
							<g>
								<polygon fill="none" points="7.666,-12.883 36.013,-12.883 36.013,-41.229 7.666,-41.229 								"/>
								<g>
									<polygon fill="none" points="7.666,-41.229 36.013,-41.229 36.013,-12.883 7.666,-12.883 									"/>
									<g>
										<polygon fill="none" points="7.666,-41.229 36.013,-41.229 36.013,-12.886 7.666,-12.886 										"/>
										<g>
											<path fill="#FFFFFF" d="M43.798-19.795c-4.672-4.673-7.629-4.955-10.754-1.828l-4.697,4.688l5.027,5.021l3.168-3.162
												l-2.689-2.688l2.83-2.827l8.777,8.776L42.63-8.99l-2.689-2.688l-3.166,3.167l5.027,5.021l4.369-4.369
												C50.335-12.015,48.677-14.916,43.798-19.795z"/>
											<polygon fill="#FFFFFF" points="28.03,-6.565 24.866,-3.399 28.267,0 31.437,-3.166 											"/>
										</g>
										<g>
											<path fill="#FFFFFF" d="M15.451-19.795c-4.672-4.673-7.629-4.955-10.754-1.828L0-16.932l5.027,5.021l3.168-3.162
												l-2.689-2.688l2.83-2.826l8.777,8.772l-2.83,2.826l-2.689-2.688L8.428-8.511l5.027,5.021l4.369-4.369
												C21.988-12.015,20.33-14.916,15.451-19.795z"/>
										</g>
										<g>
											<path fill="#FFFFFF" d="M43.798-48.141c-4.672-4.673-7.629-4.956-10.754-1.828l-4.697,4.69l5.027,5.021l3.168-3.16
												l-2.689-2.688l2.83-2.826l8.777,8.774l-2.83,2.826l-2.689-2.688l-3.166,3.163l5.027,5.021l4.369-4.369
												C50.335-40.36,48.677-43.265,43.798-48.141z"/>
											<polygon fill="#FFFFFF" points="28.03,-34.913 24.866,-31.747 28.267,-28.347 31.437,-31.515 											"/>
										</g>
										<g>
											<path fill="#FFFFFF" d="M15.451-48.141c-4.672-4.673-7.629-4.956-10.754-1.831L0-45.278l5.027,5.022l3.168-3.161
												l-2.689-2.689l2.83-2.821l8.777,8.772l-2.83,2.826l-2.689-2.688l-3.166,3.165l5.027,5.021l4.369-4.369
												C21.988-40.36,20.33-43.265,15.451-48.141z"/>
										</g>
									</g>
								</g>
							</g>
						</g>
					</g>
				</g>
			</g>
		</g>
	</g>
</pattern>
<g id="Hintergrund">
	<g id="Hosen_Rahmen">
		<g>
			<rect x="0" fill="none" width="468" height="250"/>
		</g>
	</g>
	<g id="Verlauf_vorne_zart">
		<rect x="0" fill="none" width="468" height="250"/>
	</g>
</g>
<g id="Mensch_Kontur">
	<g id="Menschen_Kontur">
		<g>
			<path fill="none" stroke="#000000" d="M227.943,98.906c-40.034-3.017-21.049-84.886,14.147-81.435
				C272.064,20.408,278.322,102.701,227.943,98.906z"/>
			<path fill="none" stroke="#000000" d="M206.032,59.402c-1.829-3.096-16.321-5.909-15.337,7.316
				c0.985,13.225,13.084,11.255,14.914,7.034"/>
			<path fill="none" stroke="#000000" d="M265.122,60.453c2.812-4.783,18.15-6.96,16.183,7.672
				c-1.97,14.632-15.055,15.195-18.994,8.441"/>
			<path fill="none" stroke="#000000" d="M216.278,95.334C210.611,101.5,201.861,116.5,195.611,136
				c3.502,2.68,7.571,3.53,11.571,2.863"/>
			<path fill="none" stroke="#000000" d="M216.611,116c-20.25,32.75-10.867,80.639-2.533,115.305
				c-13.91,1.055-22.943,7.195-27.61,12.195c7.424,0,9.484,0,14.985,0c4.044,0,8.047-3.2,10.728-3.766"/>
			<path fill="none" stroke="#000000" d="M210,243.5h17.61c-0.5-8-1.25-8.609-4-15.859s-2.167-49.18,0.583-59.93
				s17.167-11.488,17.917,1.262s3.25,54.653,2.75,60.903c-4,5.25-6.25,10.624-7.5,13.624c4.746,0,11.912,0,11.912,0
				c3.793-3,5.781-4.221,10.531-4.471"/>
			<path fill="none" stroke="#000000" d="M247.637,95.078c9.172,1.699,22.096,16.289,23.346,34.539c-4,1.5-8.474,2.794-13.224,3.794
				"/>
			<path fill="none" stroke="#000000" d="M250.932,112.89c16.959,27.577,5.465,102.694,1.965,116.444
				c10.5,0.5,24.715,8.166,26.965,14.166H255"/>
			<path fill="none" stroke="#000000" d="M223.142,24.37c-1,2.75-0.031,15.13,11.969,10.88c-11.75,8.5-28.25,33.5-1.5,38
				s26.75-21.25,18.75-35.75c1.25-3.75,3.754-6.258,4.504-10.008"/>
		</g>
	</g>
</g>
<g id="Mensch_Blauverlauf">
	<g opacity="0.7">
		<linearGradient id="SVGID_1_" gradientUnits="userSpaceOnUse" x1="352.1096" y1="345.627" x2="43.5373" y2="-157.6392">
			<stop  offset="0.1" style="stop-color:#5C7C99"/>
			<stop  offset="0.8" style="stop-color:#CCDAEA"/>
		</linearGradient>
		<path fill="url(#SVGID_1_)" stroke="#000000" d="M262.202,76.321l0.107,0.249c3.938,6.75,17.021,6.19,18.983-8.45
			c1.976-14.63-13.073-12.52-15.893-7.73l-0.283,0.473c0.625-12.242-2.354-24.8-8.045-33.253c-3.854-5.71-8.936-9.54-14.989-10.14
			c-6.896-0.68-13.181,1.93-18.521,6.58c-0.2,0.17-0.41,0.35-0.609,0.54c-8.793,8.033-14.886,21.636-16.816,35.044L206.03,59.4
			c-1.829-3.09-16.319-5.91-15.329,7.32c0.979,13.22,13.079,11.25,14.909,7.03l0.14-0.231c0.887,9.105,4.271,17.025,10.741,21.521
			l-0.211,0.29c-5.67,6.17-14.42,21.17-20.67,40.67c3.5,2.68,6.95,3.65,10.95,2.98l0.75,0.18c-6.93,29.74,0.24,65,6.771,92.14
			c-13.91,1.06-22.95,7.2-27.61,12.2c7.42,0,9.48,0,14.98,0c4.05,0,8.05-3.2,10.729-3.76L210,243.5h17.609
			c-0.5-8-1.25-8.609-4-15.859s-2.17-49.181,0.58-59.931s17.169-11.489,17.919,1.261s3.25,54.659,2.75,60.909
			c-4,5.25-6.25,10.62-7.5,13.62c4.75,0,11.91,0,11.91,0c3.801-3,5.791-4.221,10.541-4.471L255,243.5h24.858
			c-2.25-6-16.459-13.67-26.959-14.17c3.061-12.03,12.24-71,3.141-104.04l0.42-0.12l1.3,8.24c4.75-1,9.221-2.29,13.221-3.79
			c-1.25-18.25-13.701-32.67-22.871-34.37l-0.25-0.43C254.783,90.754,259.457,84.083,262.202,76.321z"/>
	</g>
</g>
<g id="Mensch_Muster">
	<g opacity="0.55">
		<pattern  id="SVGID_2_" xlink:href="#SVGID_4_" patternTransform="matrix(0.5 0 0 0.5 -37194.4062 30134.5977)"  opacity="0.55">
		</pattern>
		<path fill="url(#SVGID_2_)" stroke="#000000" stroke-width="0.5" d="M262.202,76.321l0.107,0.249
			c3.938,6.75,17.021,6.19,18.983-8.45c1.976-14.63-13.073-12.52-15.893-7.73l-0.283,0.473c0.625-12.242-2.354-24.8-8.045-33.253
			c-3.854-5.71-8.936-9.54-14.989-10.14c-6.896-0.68-13.181,1.93-18.521,6.58c-0.2,0.17-0.41,0.35-0.609,0.54
			c-8.793,8.033-14.886,21.636-16.816,35.044L206.03,59.4c-1.829-3.09-16.319-5.91-15.329,7.32
			c0.979,13.22,13.079,11.25,14.909,7.03l0.14-0.231c0.887,9.105,4.271,17.025,10.741,21.521l-0.211,0.29
			c-5.67,6.17-14.42,21.17-20.67,40.67c3.5,2.68,6.95,3.65,10.95,2.98l0.75,0.18c-6.93,29.74,0.24,65,6.771,92.14
			c-13.91,1.06-22.95,7.2-27.61,12.2c7.42,0,9.48,0,14.98,0c4.05,0,8.05-3.2,10.729-3.76L210,243.5h17.609
			c-0.5-8-1.25-8.609-4-15.859s-2.17-49.181,0.58-59.931s17.169-11.489,17.919,1.261s3.25,54.659,2.75,60.909
			c-4,5.25-6.25,10.62-7.5,13.62c4.75,0,11.91,0,11.91,0c3.801-3,5.791-4.221,10.541-4.471L255,243.5h24.858
			c-2.25-6-16.459-13.67-26.959-14.17c3.061-12.03,12.24-71,3.141-104.04l0.42-0.12l1.3,8.24c4.75-1,9.221-2.29,13.221-3.79
			c-1.25-18.25-13.701-32.67-22.871-34.37l-0.25-0.43C254.783,90.754,259.457,84.083,262.202,76.321z"/>
	</g>
</g>
<g id="Kontur">
	<g id="Menschen_Kontur_1_">
		<g>
			<path fill="none" stroke="#000000" d="M227.943,98.906c-40.034-3.017-21.049-84.886,14.147-81.435
				C272.064,20.408,278.322,102.701,227.943,98.906z"/>
			<path fill="none" stroke="#000000" d="M206.032,59.402c-1.829-3.096-16.321-5.909-15.337,7.316
				c0.985,13.225,13.084,11.255,14.914,7.034"/>
			<path fill="none" stroke="#000000" d="M265.122,60.453c2.812-4.783,18.15-6.96,16.183,7.672
				c-1.97,14.632-15.055,15.195-18.994,8.441"/>
			<path fill="none" stroke="#000000" d="M216.278,95.334C210.611,101.5,201.861,116.5,195.611,136
				c3.502,2.68,7.571,3.53,11.571,2.863"/>
			<path fill="none" stroke="#000000" d="M216.611,116c-20.25,32.75-10.867,80.639-2.533,115.305
				c-13.91,1.055-22.943,7.195-27.61,12.195c7.424,0,9.484,0,14.985,0c4.044,0,8.047-3.2,10.728-3.766"/>
			<path fill="none" stroke="#000000" d="M210,243.5h17.61c-0.5-8-1.25-8.609-4-15.859s-2.167-49.18,0.583-59.93
				s17.167-11.488,17.917,1.262s3.25,54.653,2.75,60.903c-4,5.25-6.25,10.624-7.5,13.624c4.746,0,11.912,0,11.912,0
				c3.793-3,5.781-4.221,10.531-4.471"/>
			<path fill="none" stroke="#000000" d="M247.637,95.078c9.172,1.699,22.096,16.289,23.346,34.539c-4,1.5-8.474,2.794-13.224,3.794
				"/>
			<path fill="none" stroke="#000000" d="M250.932,112.89c16.959,27.577,5.465,102.694,1.965,116.444
				c10.5,0.5,24.715,8.166,26.965,14.166H255"/>
			<path fill="none" stroke="#000000" d="M223.142,24.37c-1,2.75-0.031,15.13,11.969,10.88c-11.75,8.5-28.25,33.5-1.5,38
				s26.75-21.25,18.75-35.75c1.25-3.75,3.754-6.258,4.504-10.008"/>
		</g>
	</g>
</g>
<g id="Augen">
	<g id="Augen_1_">
		<polygon points="238.031,24.066 235.927,26.173 238.188,28.434 240.296,26.33 		"/>
		<polygon points="245.281,24.066 243.177,26.173 245.438,28.434 247.546,26.33 		"/>
	</g>
</g>
<g id="weisse_Hose">
	<path fill="#FFFFFF" stroke="#000000" d="M203.586,70.146c-0.455-6.134-0.494-13.724,1.229-19.306
		c1.297-4.197,2.853-4.404,4.16-3.045c2.537,2.639,9.349,1.691,8.453,6.243c-1.576,8.015-0.904,18.804,15.877,21.373
		c7.045,1.078,17.106,1.317,22.603-7.876c5.581-9.338,1.245-20.971,2.391-21.16c2.551-0.422,9.279-3.458,10.453-1.015
		c2.537,5.277-1.689,9.225-1.826,13.092c-0.488,13.804-7.828,33.288-6.082,36.433c4.59,8.261,12.354,24.691,12.508,30.854
		c0.244,9.719-4.928,20.739-5.684,30.683c1.99,23.387-4.058,45.895-5.476,52.743c-9.496,1.499-16.109,1.987-24.17,0.599
		c0.168-10.164,0.308-21.818,0.308-24.818c-3.166-0.5-4.004-0.332-5.836,0c-1.834,0.334-4.113-0.838-4.779,1.496
		c-0.666,2.332,1.293,20.045,0.627,24.211c-10.83,1.834-19.227,1.337-25.342-0.332c-0.998-15.496-7.197-43.998-4.976-60.119
		c0.867-6.278-8.506-10.125-5.002-25.017c3.334-14.177,9.502-24.955,11.951-27.24C209.145,94.051,204.096,77.03,203.586,70.146z"/>
</g>
<g id="blaue_Hose">
	<linearGradient id="SVGID_3_" gradientUnits="userSpaceOnUse" x1="232.7981" y1="211.8184" x2="232.7981" y2="44.4194">
		<stop  offset="0.1" style="stop-color:#5C7C99"/>
		<stop  offset="0.8" style="stop-color:#CCDAEA"/>
	</linearGradient>
	<path opacity="0.05" fill="url(#SVGID_3_)" stroke="#000000" d="M203.586,70.146c-0.455-6.134-0.494-13.724,1.229-19.306
		c1.297-4.197,2.853-4.404,4.16-3.045c2.537,2.639,9.349,1.691,8.453,6.243c-1.576,8.015-0.904,18.804,15.877,21.373
		c7.045,1.078,17.106,1.317,22.603-7.876c5.581-9.338,1.245-20.971,2.391-21.16c2.551-0.422,9.279-3.458,10.453-1.015
		c2.537,5.277-1.689,9.225-1.826,13.092c-0.488,13.804-7.828,33.288-6.082,36.433c4.59,8.261,12.354,24.691,12.508,30.854
		c0.244,9.719-4.928,20.739-5.684,30.683c1.99,23.387-4.058,45.895-5.476,52.743c-9.496,1.499-16.109,1.987-24.17,0.599
		c0.168-10.164,0.308-21.818,0.308-24.818c-3.166-0.5-4.004-0.332-5.836,0c-1.834,0.334-4.113-0.838-4.779,1.496
		c-0.666,2.332,1.293,20.045,0.627,24.211c-10.83,1.834-19.227,1.337-25.342-0.332c-0.998-15.496-7.197-43.998-4.976-60.119
		c0.867-6.278-8.506-10.125-5.002-25.017c3.334-14.177,9.502-24.955,11.951-27.24C209.145,94.051,204.096,77.03,203.586,70.146z"/>
</g>
</svg>
